<?xml version="1.0" standalone="no"?>
<!DOCTYPE svg PUBLIC "-//W3C//DTD SVG 1.1//EN" "http://www.w3.org/Graphics/SVG/1.1/DTD/svg11.dtd" >
<svg xmlns="http://www.w3.org/2000/svg" xmlns:xlink="http://www.w3.org/1999/xlink" version="1.1">
<metadata></metadata>
<defs>
<font id="pf_agora_slab_proultraBlkIt" horiz-adv-x="1314" >
<font-face units-per-em="2048" ascent="1536" descent="-512" />
<missing-glyph horiz-adv-x="671" />
<glyph horiz-adv-x="0" />
<glyph horiz-adv-x="682" />
<glyph unicode=" "  horiz-adv-x="671" />
<glyph unicode="&#x09;" horiz-adv-x="671" />
<glyph unicode="&#xa0;" horiz-adv-x="671" />
<glyph unicode="!" horiz-adv-x="749" d="M127 176q2 45 21.5 84t52 67.5t75 45t91.5 16.5q102 0 153 -60.5t43 -152.5q-8 -90 -76.5 -149.5t-167.5 -59.5q-53 0 -89.5 17.5t-61.5 46t-35 66.5t-6 79zM207 471l31 567l53 437h426l-53 -437l-109 -567h-348z" />
<glyph unicode="&#x22;" horiz-adv-x="1024" d="M217 799l31 624h364l-131 -624h-264zM641 799l29 624h362l-129 -624h-262z" />
<glyph unicode="#" horiz-adv-x="1341" d="M152 -2l147 412h-145l22 206h197l57 142h-172l21 200h223l139 375h231l-133 -375h117l141 375h230l-135 -375h159l-20 -200h-213l-55 -142h180l-21 -206h-229l-150 -412h-233l145 412h-116l-152 -412h-235zM610 616h117l57 142h-116z" />
<glyph unicode="$" d="M123 106l49 383h236l-17 -133q16 -8 49 -14t68 -10l31 235q-70 20 -132.5 52t-109.5 78t-74.5 105.5t-27.5 137.5q0 98 32.5 176t92 136.5t141.5 94t178 48.5l18 149h101l-209 -1704h-100l22 180q-88 10 -179 31t-169 55zM545 1001q0 -23 6 -39t33 -26l16 143 q-49 -21 -55 -78zM612 -160l209 1704h99l-19 -151q78 -8 152.5 -27.5t134.5 -50.5l-45 -365h-234l17 123q-12 4 -26.5 9t-35.5 10l-28 -236q63 -18 126.5 -48t114.5 -76t84 -109.5t33 -149.5q0 -199 -124 -309.5t-337 -138.5l-22 -185h-99zM772 350q57 23 57 86q0 39 -38 58 z" />
<glyph unicode="%" horiz-adv-x="2007" d="M31 889q0 111 25.5 202t81 156.5t141 101t204.5 35.5q98 0 168 -25.5t113 -72.5t62.5 -113.5t19.5 -146.5q0 -109 -26.5 -199t-83 -154.5t-142.5 -101t-205 -36.5q-98 0 -166.5 26.5t-110.5 73.5t-61.5 111.5t-19.5 142.5zM346 872q0 -53 15.5 -81.5t54.5 -28.5 q55 0 85.5 76.5t30.5 205.5q0 53 -15 84t-52 31q-31 0 -53.5 -24.5t-37 -64.5t-21.5 -91t-7 -107zM428 -37l883 1512h258l-885 -1512h-256zM1122 346q0 111 26 202t81 156.5t141 101.5t205 36q98 0 167.5 -25.5t112.5 -73t62.5 -114t19.5 -146.5q0 -109 -26.5 -198.5 t-82.5 -154t-142.5 -101.5t-204.5 -37q-98 0 -167 26.5t-111 73.5t-61.5 111.5t-19.5 142.5zM1438 330q0 -53 15 -82t54 -29q55 0 86 77t31 206q0 53 -15.5 83.5t-52.5 30.5q-31 0 -53 -24.5t-36.5 -64.5t-21.5 -91t-7 -106z" />
<glyph unicode="&#x26;" horiz-adv-x="2064" d="M39 668q12 80 47 172t93.5 186t141 181t191.5 155t243 108.5t296 40.5q215 0 359 -66.5t232.5 -168.5t126 -226t37.5 -239q0 -90 -16 -184q57 12 107.5 34.5t91.5 51.5l98 -193q-68 -61 -170 -105t-217 -57q-51 -100 -131 -183t-182.5 -143.5t-223.5 -93t-256 -32.5 q-129 0 -227 34.5t-164.5 97t-100.5 153t-34 200.5q0 182 56.5 318.5t143.5 226.5t191.5 135t202.5 45q68 0 123 -18.5t96 -48t66.5 -68.5t35.5 -80q4 -18 3 -46t-12 -58.5t-31.5 -61t-55.5 -55.5l2 -2q61 10 124 0t126 -27q12 68 12 146q0 115 -33.5 197.5t-91 136 t-136.5 79t-167 25.5q-164 0 -285.5 -59.5t-208.5 -149.5t-140.5 -197.5t-79.5 -201.5zM772 444q0 -47 10.5 -88t36 -71.5t69 -49t111.5 -18.5q43 0 90.5 11.5t93.5 34t89 56t76 80.5q-51 16 -97.5 27.5t-97.5 11.5q-41 0 -86 -9t-100 -32l-37 13l-62 194q49 33 59.5 51.5 t10.5 28.5q0 16 -12.5 31.5t-36.5 15.5q-10 0 -29.5 -11t-39 -43t-34 -88.5t-14.5 -144.5z" />
<glyph unicode="'" horiz-adv-x="626" d="M217 799l31 624h364l-131 -624h-264z" />
<glyph unicode="(" horiz-adv-x="815" d="M145 465q0 270 132.5 521t373.5 472l185 -149q-43 -51 -99.5 -139.5t-105.5 -207t-84 -264t-35 -313.5q0 -109 14.5 -197t35 -160.5t45 -129t44.5 -101.5l-215 -135q-78 88 -132 189.5t-90 206t-52.5 208t-16.5 199.5z" />
<glyph unicode=")" horiz-adv-x="815" d="M25 -193q43 51 99 139.5t105.5 207t84 264t34.5 313.5q0 106 -14.5 195.5t-34.5 161t-45 129t-45 102.5l215 135q76 -90 131 -190.5t91 -205t52.5 -209t16.5 -198.5q0 -270 -132 -521t-374 -472z" />
<glyph unicode="*" horiz-adv-x="944" d="M152 1042l122 287l205 -133l-18 252h293l-84 -250l243 131l54 -287l-262 -36l163 -175l-252 -172l-75 236l-138 -236l-210 172l208 179z" />
<glyph unicode="+" d="M248 506l31 252h327l43 352h254l-43 -352h326l-31 -252h-326l-45 -359h-254l45 359h-327z" />
<glyph unicode="," horiz-adv-x="694" d="M35 -170q68 49 110.5 96t59.5 117q-55 8 -88 50t-33 106q0 47 16.5 90t47 76.5t76 53t102.5 19.5q55 0 94 -20.5t63.5 -53t35.5 -75.5t11 -88q0 -82 -36.5 -162t-95 -149.5t-129 -125t-138.5 -88.5z" />
<glyph unicode="-" horiz-adv-x="868" d="M133 412l39 309h598l-39 -309h-598z" />
<glyph unicode="." horiz-adv-x="694" d="M94 182q0 55 21.5 101.5t57.5 80t82 53t95 19.5q86 0 140.5 -59.5t54.5 -147.5q0 -55 -21.5 -101t-56.5 -80t-80 -53.5t-94 -19.5q-86 0 -142.5 59.5t-56.5 147.5z" />
<glyph unicode="/" horiz-adv-x="862" d="M-66 -84l711 1548h336l-715 -1548h-332z" />
<glyph unicode="0" d="M61 555q0 184 40 338t125 265.5t215.5 173t312.5 61.5q152 0 258 -43t173.5 -121t98.5 -186.5t31 -239.5q0 -170 -40 -319.5t-125 -262t-216 -177t-316 -64.5q-150 0 -255 41.5t-172.5 117.5t-98.5 182.5t-31 233.5zM528 522q0 -92 26 -151.5t89 -59.5q47 0 86 38 t66.5 108.5t43 169t15.5 219.5q0 96 -32 154.5t-91 58.5q-53 0 -91 -47t-62.5 -124t-37 -173.5t-12.5 -192.5z" />
<glyph unicode="1" d="M109 0l34 295h271l88 715l-275 -23l-12 256l395 133h404l-133 -1081h284l-35 -295h-1021z" />
<glyph unicode="2" d="M25 0l30 264q129 90 255 179t225.5 174t161 163t61.5 148q0 41 -26.5 71.5t-104.5 30.5q-55 0 -144.5 -24.5t-191.5 -77.5l-115 293q139 84 280.5 127t278.5 43q236 0 368 -100.5t132 -301.5q0 -100 -47 -193.5t-124 -179.5t-173 -164.5t-197 -148.5v-10h195l14 108h324 l-49 -401h-1153z" />
<glyph unicode="3" d="M61 90l136 303q109 -35 184.5 -53t146.5 -18q43 0 85 7t75 23.5t53.5 46t20.5 74.5q0 53 -43 75.5t-103 22.5q-16 0 -51 -2t-100 -12l-45 260q174 33 261 70t87 104q0 27 -22.5 48.5t-75.5 21.5q-68 0 -151 -20.5t-202 -73.5l-100 297q94 39 171 65.5t144.5 40.5 t132 20.5t134.5 6.5q121 0 204.5 -28t136 -73t76 -103t23.5 -122q0 -37 -12.5 -78t-39 -81t-68.5 -75.5t-99 -60.5l-2 -12q59 -20 100 -52t66.5 -70t37 -80t11.5 -81q0 -104 -44 -196t-130 -161t-211 -108t-287 -39q-31 0 -91 4.5t-132 16.5t-145.5 33.5t-131.5 58.5z" />
<glyph unicode="4" d="M49 391l31 250l573 735h543l-84 -686h195l-37 -299h-195l-12 -98h113l-35 -293h-672l35 293h100l12 98h-567zM473 690h182l37 287h-10l-98 -137z" />
<glyph unicode="5" d="M80 96l127 314q111 -41 186.5 -56.5t147.5 -15.5q45 0 85 8t70.5 27.5t48 50.5t17.5 76q0 66 -49.5 92t-112.5 26q-37 0 -94 -10t-111 -30l-196 94l151 704h914l-50 -395h-335l12 98h-217l-35 -157q29 4 54.5 6t45.5 2q248 0 371 -105.5t123 -300.5q0 -127 -49 -227 t-136 -171t-207 -108.5t-259 -37.5q-31 0 -91.5 4t-133 16t-146.5 35.5t-131 60.5z" />
<glyph unicode="6" d="M94 514q0 178 42 337t134 278.5t238.5 189.5t355.5 70q104 0 180 -12.5t134 -28.5l-78 -316q-70 16 -127.5 21.5t-91.5 5.5q-127 0 -196 -60.5t-95 -164.5l8 -9q78 41 149.5 51.5t118.5 10.5q78 0 145.5 -23.5t118 -72t79 -118t28.5 -161.5q0 -135 -48 -236.5t-131 -167 t-192.5 -98.5t-232.5 -33q-145 0 -247.5 39t-167 110t-94.5 169t-30 219zM555 469q0 -66 22.5 -105.5t86.5 -39.5q53 0 91 43t38 127q0 39 -19 65.5t-74 26.5q-29 0 -64.5 -13.5t-72.5 -33.5q-4 -23 -6 -41.5t-2 -28.5z" />
<glyph unicode="7" d="M178 0l610 1079h-202l-21 -170h-338l58 467h1009l-34 -276l-631 -1100h-451z" />
<glyph unicode="8" d="M55 375q0 41 9.5 89t36 98t74.5 98.5t126 87.5q-51 41 -78.5 92t-27.5 121q0 96 46 177t125.5 139t185 90t224.5 32q86 0 173 -20.5t158 -63.5t116 -111.5t45 -165.5q0 -43 -8.5 -84t-30 -82t-59 -80.5t-99.5 -78.5q78 -41 121 -116t43 -171q0 -92 -42 -173t-124 -141.5 t-203 -95t-278 -34.5q-127 0 -225.5 28.5t-167 80.5t-104.5 125t-36 159zM522 420q0 -35 29 -62.5t84 -27.5q43 0 69.5 13t41 31.5t19.5 39t5 32.5q0 31 -30.5 64t-125.5 68q-49 -43 -70.5 -80t-21.5 -78zM621 983q0 -43 45 -66.5t104 -52.5q47 41 62.5 77t15.5 60 q0 35 -26 57.5t-83 22.5q-55 0 -86.5 -32.5t-31.5 -65.5z" />
<glyph unicode="9" d="M135 856q0 135 48 236.5t131 167t192.5 98.5t232.5 33q145 0 248 -39t167.5 -110t94 -170t29.5 -218q0 -178 -42 -337t-134 -278.5t-238.5 -189t-355.5 -69.5q-104 0 -180 12t-133 28l71 314q70 -16 130.5 -20.5t95.5 -4.5q127 0 195.5 60.5t94.5 165.5l-8 8 q-78 -41 -149.5 -51.5t-118.5 -10.5q-78 0 -145.5 23.5t-117.5 72t-79 118t-29 161.5zM580 874q0 -39 18.5 -65.5t73.5 -26.5q29 0 64.5 13.5t72.5 33.5q4 23 6 44.5t2 31.5q0 59 -22.5 99t-85.5 40q-53 0 -91 -43t-38 -127z" />
<glyph unicode=":" horiz-adv-x="694" d="M94 182q0 55 21.5 101.5t57.5 80t82 53t95 19.5q86 0 140.5 -59.5t54.5 -147.5q0 -55 -21.5 -101t-56.5 -80t-80 -53.5t-94 -19.5q-86 0 -142.5 59.5t-56.5 147.5zM162 737q0 55 21.5 101.5t57 80t82 53t95.5 19.5q86 0 140 -59.5t54 -147.5q0 -55 -21.5 -101t-56 -80 t-79.5 -53.5t-95 -19.5q-86 0 -142 59.5t-56 147.5z" />
<glyph unicode=";" horiz-adv-x="694" d="M47 -170q68 49 111 96t59 117q-55 8 -88 50t-33 106q0 47 16.5 90t47 76.5t76 53t102.5 19.5q55 0 94 -20.5t63.5 -53t36 -75.5t11.5 -88q0 -82 -37 -162t-95.5 -149.5t-129 -125t-138.5 -88.5zM162 737q0 55 21.5 101.5t57 80t82 53t95.5 19.5q86 0 140 -59.5t54 -147.5 q0 -55 -21.5 -101t-56 -80t-79.5 -53.5t-95 -19.5q-86 0 -142 59.5t-56 147.5z" />
<glyph unicode="&#x3c;" d="M143 508l27 217l1100 502l-39 -314l-692 -295l620 -296l-39 -310z" />
<glyph unicode="=" d="M184 299l31 242h913l-30 -242h-914zM231 682l31 244h914l-31 -244h-914z" />
<glyph unicode="&#x3e;" d="M84 12l39 310l692 296q-156 74 -311.5 147t-308.5 148l38 314l977 -502l-26 -217z" />
<glyph unicode="?" horiz-adv-x="1165" d="M166 985l47 391q160 59 291 76.5t225 17.5q229 0 345 -100t116 -262q0 -80 -26.5 -142.5t-68.5 -111.5t-95.5 -88t-104.5 -72q-41 -25 -71.5 -44t-50 -40.5t-29 -48t-9.5 -67.5v-21l-362 -37q-6 57 -6 105q0 61 16 108t42 84t58.5 66.5t65.5 54.5q53 41 95 81t42 95 q0 45 -30.5 71.5t-92.5 26.5q-20 0 -37.5 -1t-36.5 -3l-18 -139h-305zM338 147q0 45 17.5 87t48 75t75 52.5t99.5 19.5q86 0 139 -52.5t53 -129.5q0 -51 -19.5 -94.5t-53 -74t-78 -47t-91.5 -16.5q-84 0 -137 53.5t-53 126.5z" />
<glyph unicode="@" horiz-adv-x="1978" d="M197 600q0 188 72.5 350t198.5 280t298 184.5t371 66.5q154 0 280.5 -43t219 -125t143.5 -198t51 -263q0 -111 -36 -210t-101.5 -175t-157.5 -121t-207 -45q-45 0 -90 8t-83 28.5t-64.5 55.5t-36.5 90l-2 -4q-29 -47 -64 -74.5t-69.5 -42t-64.5 -18.5t-48 -4 q-115 0 -183.5 63.5t-68.5 184.5q0 102 25.5 191t75 153.5t123 101.5t169.5 37q35 0 86 -11t86 -30l27 41l260 -16q-10 -68 -19.5 -121t-19.5 -127q-8 -53 -14 -107.5t-6 -105.5q0 -61 49 -62q31 0 60.5 19.5t53 57.5t39 94.5t15.5 130.5q0 186 -115 295.5t-340 109.5 q-135 0 -254 -46t-206 -128t-137 -195.5t-50 -246.5q0 -106 24.5 -193.5t80 -150t144.5 -96t218 -33.5q53 0 126.5 10t180.5 45l57 -199q-106 -55 -211.5 -72.5t-185.5 -17.5q-182 0 -314 51t-218 142.5t-127 217.5t-41 273zM881 639q0 -35 12.5 -51.5t30.5 -16.5 q12 0 24.5 6.5t26.5 22.5t28.5 47t28.5 78l17 104q-20 4 -37 6.5t-27 2.5q-27 0 -46 -17.5t-32.5 -46.5t-19.5 -64.5t-6 -70.5z" />
<glyph unicode="A" horiz-adv-x="1691" d="M-12 0l37 305h106l559 1114h592l250 -1114h106l-36 -305h-678l37 305h104l-18 92h-414l-41 -92h110l-36 -305h-678zM764 682h233l-26 135l-35 227h-8l-99 -223z" />
<glyph unicode="B" horiz-adv-x="1585" d="M39 0l37 305h147l99 811h-148l39 303h922q211 0 308 -94t97 -250q0 -45 -9 -91t-31.5 -88t-63.5 -80t-105 -64l-2 -7q59 -25 94 -60.5t53.5 -74.5t24.5 -77.5t6 -71.5q0 -106 -37.5 -191.5t-108.5 -146t-170 -92t-224 -31.5h-928zM707 305h133q70 0 114.5 41t44.5 115 q0 53 -30.5 88t-96.5 35h-133zM774 860h121q59 0 98 41t39 109q0 49 -26.5 77.5t-79.5 28.5h-121z" />
<glyph unicode="C" horiz-adv-x="1417" d="M129 582q0 172 37 329.5t132 278.5t260 192.5t423 71.5q104 0 207.5 -14.5t197.5 -42.5l-61 -512h-328l23 192q-18 4 -31.5 5t-30.5 1q-88 0 -148 -31.5t-97 -90t-53.5 -140.5t-16.5 -180q0 -94 21.5 -148.5t62.5 -82t98.5 -34.5t128.5 -7q20 0 57.5 3t79.5 8t86 12 t78 14l52 -345q-57 -23 -123 -38t-135.5 -26t-137 -16.5t-129.5 -5.5q-201 0 -327.5 50.5t-198.5 133.5t-99.5 192.5t-27.5 230.5z" />
<glyph unicode="D" horiz-adv-x="1665" d="M39 0l37 305h153l99 811h-144l39 303h754q182 0 303 -47t192.5 -129t101.5 -192.5t30 -237.5q0 -162 -43 -309.5t-136.5 -259t-242 -178t-359.5 -66.5h-784zM713 305h86q80 0 135 40t90 108.5t51.5 162t16.5 197.5q0 63 -9.5 118.5t-33 96.5t-63.5 64.5t-101 23.5h-74z " />
<glyph unicode="E" horiz-adv-x="1542" d="M39 0l37 305h145l98 811h-145l39 303h1346l-70 -555h-324l31 252h-393l-31 -252l305 6l-37 -297l-303 9l-32 -277h425l33 277h324l-70 -582h-1378z" />
<glyph unicode="F" horiz-adv-x="1529" d="M39 0l37 305h149l99 811h-150l39 303h1339l-69 -555h-324l31 252h-385l-31 -252l305 6l-32 -297l-308 9l-32 -277h178l-37 -305h-809z" />
<glyph unicode="G" horiz-adv-x="1558" d="M129 586q0 162 37 318.5t134 278.5t266 196.5t435 74.5q104 0 221 -14.5t212 -42.5l-60 -496h-330l23 186q-41 6 -82 7q-94 0 -159.5 -37t-106.5 -101.5t-59.5 -153.5t-18.5 -196q0 -76 14.5 -125t40 -78.5t64.5 -41t88 -11.5q23 0 48.5 2t53.5 6l19 144h-119l33 268h641 l-33 -268h-94l-54 -434q-141 -51 -285.5 -72t-266.5 -21q-199 0 -327 51.5t-203 137.5t-103.5 195.5t-28.5 226.5z" />
<glyph unicode="H" horiz-adv-x="1839" d="M39 0l37 305h153l99 811h-154l39 303h760l-39 -303h-125l-31 -252h393l31 252h-125l39 303h758l-39 -303h-152l-98 -811h152l-37 -305h-758l37 305h125l33 277h-394l-32 -277h125l-37 -305h-760z" />
<glyph unicode="I" horiz-adv-x="1054" d="M88 0l37 305h151l99 811h-152l39 303h776l-39 -303h-145l-98 -811h145l-37 -305h-776z" />
<glyph unicode="J" horiz-adv-x="1134" d="M-74 -70q152 41 236 88.5t126 105.5t56 133t27 173l84 686l-197 2l37 303h844l-39 -305h-166l-84 -696q-23 -188 -78 -335.5t-155.5 -252t-254 -166t-370.5 -78.5z" />
<glyph unicode="K" horiz-adv-x="1691" d="M39 0l37 305h151l99 811h-152l37 299h752l-37 -299h-135l-31 -250l332 250h-95l37 299h703l-39 -299h-135l-338 -250l305 -559h108l-36 -307h-740l37 307h94l-145 279l-133 -97l-23 -184h121l-37 -305h-737z" />
<glyph unicode="L" horiz-adv-x="1478" d="M39 0l37 305h151l99 811h-152l39 303h778l-39 -303h-143l-98 -811h387l32 277h326l-70 -582h-1347z" />
<glyph unicode="M" horiz-adv-x="2230" d="M39 0l37 305h153l99 811h-154l39 303h760l90 -289l102 -333h9l178 344l147 278h766l-39 -303h-129l-98 -811h129l-37 -305h-705l37 305h109l63 524h-6l-141 -276l-141 -266h-383l-97 276l-82 266h-6l-63 -524h123l-37 -305h-723z" />
<glyph unicode="N" horiz-adv-x="1880" d="M39 0l37 305h139l98 811h-139l39 303h653l185 -377l178 -383h8l55 457h-131l39 303h713l-39 -303h-135l-135 -1116h-476l-239 475l-166 348h-4l-64 -518h133l-36 -305h-713z" />
<glyph unicode="O" horiz-adv-x="1679" d="M131 616q0 182 54.5 336t157.5 264.5t254.5 173t348.5 62.5q172 0 298 -47t209 -133t124 -205t41 -262q0 -184 -55.5 -337t-160 -262.5t-257 -170t-346.5 -60.5q-170 0 -295 47.5t-208 132.5t-124 202.5t-41 258.5zM641 606q0 -137 42 -218t148 -81q74 0 125.5 38 t85 106.5t49 165t15.5 212.5q0 133 -41 210t-147 77q-76 0 -128.5 -42t-85 -112.5t-48 -162.5t-15.5 -193z" />
<glyph unicode="P" horiz-adv-x="1464" d="M39 0l37 305h143l98 811h-143l39 303h782q143 0 237.5 -31.5t150 -87t78 -130t22.5 -162.5q0 -111 -38 -205t-111.5 -163t-179 -107.5t-241.5 -38.5h-188l-23 -189h185l-37 -305h-811zM760 782h45q43 0 74.5 17.5t52 45t30 62.5t9.5 72q0 137 -133 137h-37z" />
<glyph unicode="Q" horiz-adv-x="1691" d="M131 616q0 182 54.5 336t157.5 264.5t254.5 173t348.5 62.5q172 0 298 -47t209 -133t124 -205t41 -262q0 -225 -82 -401.5t-236 -284.5l273 -82l-176 -352l-787 309q-121 25 -211 80t-149.5 136t-89 183.5t-29.5 222.5zM641 606q0 -137 42 -218t148 -81q74 0 125.5 38 t85 106.5t49 165t15.5 212.5q0 133 -41 210t-147 77q-76 0 -128.5 -42t-85 -112.5t-48 -162.5t-15.5 -193z" />
<glyph unicode="R" horiz-adv-x="1605" d="M49 0l37 305h135l98 811h-135l39 303h840q139 0 228 -34.5t141.5 -90t72 -124t19.5 -138.5q0 -59 -14.5 -119.5t-45 -116t-78 -101.5t-110.5 -77l113 -323l159 -27l4 -260q-43 -16 -92 -25.5t-96 -14.5t-86 -7t-61 -2q-63 0 -108.5 13.5t-77.5 40t-53.5 67.5t-37.5 96 l-104 354h-113l-27 -225h119l-37 -305h-729zM758 817h71q76 0 127.5 45t51.5 129q0 55 -29 90t-92 35h-92z" />
<glyph unicode="S" horiz-adv-x="1449" d="M72 74l47 412h317l-14 -144q25 -8 53.5 -13t58 -8.5t54 -5.5t39.5 -2q61 0 98 11.5t55.5 27t24.5 29.5t6 22q0 31 -17.5 49.5t-57.5 35t-104.5 34t-158.5 43.5q-170 47 -244.5 139.5t-74.5 231.5q0 240 176 373t514 133q49 0 115.5 -6t137 -18.5t138.5 -31t119 -43.5 l-49 -395h-322l14 131q-37 16 -85.5 22.5t-75.5 6.5q-84 0 -121 -30.5t-37 -71.5q0 -23 19.5 -40.5t53 -32.5t78.5 -28.5t95 -27.5q100 -29 182 -62t139.5 -79t88 -109.5t30.5 -151.5q0 -242 -180 -374t-555 -132q-53 0 -124 5.5t-146.5 17.5t-150.5 31.5t-136 50.5z" />
<glyph unicode="T" horiz-adv-x="1507" d="M92 864l70 555h1429l-69 -555h-320l31 252h-158l-98 -811h162l-37 -305h-803l37 305h164l98 811h-154l-30 -252h-322z" />
<glyph unicode="U" horiz-adv-x="1675" d="M154 1116l39 303h688l-39 -303h-107l-73 -604q-3 -22 -3 -42q-1 -72 35 -112q44 -50 144 -51q68 0 126 46t72 159l74 604h-106l38 303h687l-39 -303h-115l-70 -575q-16 -137 -63 -241.5t-131 -176.5t-209 -109t-297 -37q-182 0 -305 40t-196 116q-72 75 -98 185 q-15 66 -16 142q0 50 7 105l65 551h-108z" />
<glyph unicode="V" horiz-adv-x="1675" d="M115 1114l39 305h702l-39 -305h-117l66 -336l68 -393h8l159 387l150 342h-123l39 305h700l-38 -305h-97l-534 -1114h-611l-278 1114h-94z" />
<glyph unicode="W" horiz-adv-x="2439" d="M113 1114l39 305h725l-39 -305h-101l37 -293l45 -418h6l162 410l78 184l-23 117h-104l39 305h694l-39 -305h-123l64 -283l78 -366h6l135 389l92 260h-110l38 305h723l-38 -305h-113l-463 -1114h-596l-55 276l-35 195h-10l-84 -195l-121 -276h-621l-184 1114h-102z" />
<glyph unicode="X" horiz-adv-x="1634" d="M-20 0l36 307h99l399 459l-223 344h-168l39 309h842l-39 -309h-80l119 -180l170 184h-95l39 305h590l-39 -305h-96l-399 -426l266 -381h129l-37 -307h-827l36 307h74l-125 201l-176 -201h80l-37 -307h-577z" />
<glyph unicode="Y" horiz-adv-x="1587" d="M115 1114l39 305h686l-39 -305h-107l142 -330h8l215 330h-109l39 305h690l-39 -305h-96l-489 -647l-19 -162h146l-37 -305h-819l36 305h150l18 162l-321 647h-94z" />
<glyph unicode="Z" horiz-adv-x="1462" d="M10 0l37 301l776 817h-307l-33 -256h-321l69 557h1258l-37 -286l-782 -828h397l35 295h321l-71 -600h-1342z" />
<glyph unicode="[" horiz-adv-x="792" d="M61 -326l218 1766h569l-31 -250h-182l-158 -1286h182l-28 -230h-570z" />
<glyph unicode="\" horiz-adv-x="862" d="M123 1464h336l332 -1548h-334z" />
<glyph unicode="]" horiz-adv-x="792" d="M4 -326l29 230h182l158 1286h-183l31 250h570l-218 -1766h-569z" />
<glyph unicode="^" horiz-adv-x="1107" d="M59 647l502 737h197l321 -737h-293l-165 400l-267 -400h-295z" />
<glyph unicode="_" horiz-adv-x="993" d="M-92 -342l26 221h994l-27 -221h-993z" />
<glyph unicode="`" horiz-adv-x="1292" d="M401 1475l217 221l347 -420l-138 -143z" />
<glyph unicode="a" horiz-adv-x="1449" d="M82 322q0 150 37 280.5t110.5 227t183.5 152.5t255 56q66 0 130 -16t124 -51l39 61l366 -16q-18 -115 -33.5 -209t-28 -178t-22.5 -163t-20 -163q35 4 61.5 11.5t61.5 17.5l84 -219q-39 -35 -89.5 -62.5t-104.5 -47t-109.5 -31t-102.5 -11.5q-111 0 -169 35t-75 106 q-6 31 -6 66h-10q-92 -111 -180 -155t-193 -44q-145 0 -227 89t-82 264zM539 397q0 -59 21 -87.5t54 -28.5q20 0 43 10t46.5 36.5t46 74t45.5 120.5l26 172q-33 10 -62.5 12.5t-47.5 2.5q-43 0 -76 -28t-54.5 -73t-31.5 -100t-10 -111z" />
<glyph unicode="b" horiz-adv-x="1400" d="M61 1217l17 219q141 41 247.5 57t174.5 16q74 0 118 -13t67.5 -38.5t31.5 -61.5t8 -81q0 -20 -4 -67.5t-12.5 -108t-17.5 -127t-19 -127.5l10 -4q175 157 346 157h2q143 0 226 -89t83 -263q0 -147 -38.5 -278.5t-118.5 -229.5t-201 -154.5t-283 -56.5q-41 0 -105.5 6.5 t-140 21.5t-156.5 40.5t-155 64.5l-24 50q18 143 35.5 275t33 258t28.5 251t26 254zM602 313q33 -10 54.5 -12t39.5 -2q47 0 81 26.5t56.5 69.5t34 97.5t11.5 109.5q0 59 -23.5 86t-56.5 27q-43 0 -92.5 -52.5t-81.5 -189.5z" />
<glyph unicode="c" horiz-adv-x="1126" d="M82 401q0 68 11 141.5t38 144.5t72 135.5t112.5 112.5t160.5 76.5t216 28.5q72 0 145.5 -10t110.5 -26q63 -25 90 -60t27 -82q0 -29 -6 -65.5t-16.5 -76.5t-23.5 -81t-28 -76l-248 12v142q-6 2 -13 2h-13q-74 0 -115 -65.5t-41 -184.5q0 -94 41 -130t115 -36 q41 0 106.5 8t124.5 21l66 -279q-43 -18 -100.5 -33.5t-119 -25.5t-123 -15.5t-114.5 -5.5q-145 0 -238.5 34t-145.5 92.5t-71.5 136t-19.5 165.5z" />
<glyph unicode="d" horiz-adv-x="1452" d="M82 322q0 150 38 280.5t111.5 227t183.5 152.5t255 56q100 0 192 -37q4 31 6 50.5t5.5 38t5.5 40t6 58.5l-193 29l17 219q141 41 247.5 57t173.5 16q74 0 119 -13t69.5 -38.5t33 -61.5t8.5 -81q0 -25 -8.5 -89.5t-20.5 -151.5t-27.5 -190.5t-31 -208t-29.5 -201.5 t-24 -171q35 2 67.5 10.5t61.5 18.5l84 -219q-47 -39 -102.5 -68t-111 -48.5t-108.5 -28.5t-96 -9q-111 0 -164 36t-68 107q-6 31 -6 66h-10q-49 -59 -95 -98t-90 -61.5t-91.5 -31t-98.5 -8.5q-143 0 -226 89t-83 264zM537 397q0 -59 20 -87.5t53 -28.5q20 0 44 10 t47.5 36.5t47 74t46.5 120.5l28 172q-33 10 -62.5 12.5t-47.5 2.5q-47 0 -80 -28t-54.5 -73t-31.5 -100t-10 -111z" />
<glyph unicode="e" horiz-adv-x="1185" d="M82 395q0 127 35 244t111.5 206t201.5 142t305 53q74 0 143.5 -16t124 -53t88 -96.5t33.5 -145.5q0 -49 -16 -106.5t-75.5 -107.5t-177.5 -88t-320 -48q0 -8 -1.5 -14.5t-1.5 -14.5q0 -41 28 -55t112 -14q66 0 149.5 17t151.5 38l76 -254q-59 -31 -125 -51.5 t-131.5 -32.5t-128 -17.5t-113.5 -5.5q-147 0 -239.5 34t-143.5 91.5t-68.5 134t-17.5 160.5zM541 555q94 4 136 35t42 84q0 25 -13 40t-38 15q-59 0 -91 -45t-36 -129z" />
<glyph unicode="f" horiz-adv-x="1058" d="M-193 -412l70 291q57 -10 89 -12t67 -2q27 0 54.5 5t50 24.5t40 59.5t27.5 112q18 145 32.5 293.5t30.5 295.5h-186l31 256l190 47l12 95q12 70 38 149.5t81 146t149.5 110.5t241.5 44q59 0 146.5 -10t185.5 -43l-70 -299q-59 12 -99 16t-75 4q-27 0 -52 -7t-45.5 -26.5 t-36 -53t-21.5 -87.5l-6 -53h280l-35 -289h-278q-14 -119 -24.5 -236.5t-22.5 -236.5q-16 -160 -46 -281.5t-89.5 -202.5t-160 -122t-257.5 -41q-66 0 -142.5 11.5t-169.5 41.5z" />
<glyph unicode="g" horiz-adv-x="1366" d="M86 -360l107 288q66 -20 115.5 -32.5t91.5 -19.5t76 -9t67 -2q45 0 80.5 7t62.5 29.5t44.5 64.5t27.5 112q4 18 5 35.5t5 33.5l-10 5q-90 -80 -179.5 -119t-175.5 -39q-143 0 -228 89t-85 263q0 147 39 274.5t117 219.5t197.5 144t283.5 52q41 0 107.5 -5t143.5 -17.5 t156.5 -35t149.5 -58.5l25 -50q-12 -92 -26.5 -196.5t-27 -209t-24.5 -203.5t-21 -181q-8 -98 -35.5 -196.5t-95 -176.5t-185.5 -127t-306 -49q-66 0 -136.5 9t-138 23.5t-127 34t-100.5 42.5zM545 428q0 -63 24.5 -90t57.5 -27q45 0 96 53.5t86 194.5l16 135 q-35 10 -57.5 12.5t-42.5 2.5q-49 0 -83 -22.5t-55.5 -61.5t-31.5 -90.5t-10 -106.5z" />
<glyph unicode="h" horiz-adv-x="1509" d="M61 1214l21 220q141 41 247.5 57t174.5 16q74 0 119 -13t69.5 -38.5t32.5 -61.5t8 -81q0 -14 -3 -56.5t-10 -103.5t-17.5 -137t-22.5 -156l8 -6q94 100 198.5 143t180.5 43q143 0 202.5 -64.5t59.5 -199.5q0 -25 -6 -83t-15.5 -128.5t-18.5 -141.5t-13 -120 q35 2 67.5 10.5t61.5 18.5l84 -219q-51 -41 -110.5 -70t-120 -47.5t-116 -27.5t-95.5 -9q-76 0 -124.5 15.5t-76 45t-38.5 70.5t-11 92q0 14 1 27.5t3 30.5q18 125 27.5 195.5t14.5 107.5t6 50t1 21q0 82 -68 82q-39 0 -82 -46t-71 -154l-66 -496h-463q18 162 38 311.5 t37.5 294t34.5 286.5t34 294z" />
<glyph unicode="i" horiz-adv-x="933" d="M102 748l15 219q141 41 241 57t168 16q66 0 108 -12t65.5 -33.5t32.5 -54.5t9 -72q0 -37 -7 -97t-18 -136t-23.5 -161t-22.5 -171q35 2 72.5 10.5t66.5 18.5l84 -219q-45 -37 -104.5 -66t-120 -48t-117.5 -29.5t-98 -10.5q-76 0 -126.5 15.5t-81 45t-43 70.5t-12.5 92 q0 14 1.5 27.5t3.5 30.5l67 481zM258 1339q0 135 78 216t201 81q49 0 92 -18.5t74.5 -51t50 -77.5t18.5 -96q0 -61 -19.5 -112.5t-55 -90.5t-87 -60.5t-114.5 -21.5q-49 0 -93.5 17.5t-76 49t-50 73.5t-18.5 91z" />
<glyph unicode="j" horiz-adv-x="819" d="M-123 -186q104 43 161.5 80.5t88.5 84t43 110t25 157.5l53 475l-160 27l14 219q141 41 239.5 57t166.5 16q66 0 108.5 -11t67.5 -32.5t34 -53.5t9 -75q0 -23 -1 -59.5t-7 -108t-19.5 -185.5t-37.5 -290q-20 -160 -67.5 -281.5t-130.5 -210.5t-207 -144.5t-298 -80.5z M248 1339q0 135 77.5 216t200.5 81q49 0 92.5 -18.5t75 -51t50 -77.5t18.5 -96q0 -61 -19.5 -112.5t-55.5 -90.5t-87 -60.5t-115 -21.5q-49 0 -93 17.5t-75.5 49t-50 73.5t-18.5 91z" />
<glyph unicode="k" horiz-adv-x="1357" d="M61 1217l17 219q141 41 247.5 57t174.5 16q129 0 177 -51t48 -143q0 -12 -5 -48t-12.5 -88.5t-17.5 -113.5t-19 -121.5t-17.5 -115t-14.5 -91.5l8 -4q51 63 105.5 119.5t111 97.5t114 65.5t114.5 24.5q59 0 100 -18t67.5 -47t40 -65t17.5 -70l-146 -152q-31 27 -61.5 42 t-71.5 15q-43 0 -84 -23.5t-82 -59.5q27 -49 56.5 -104.5t59.5 -107t58.5 -96.5t51.5 -73q29 6 51 19t53 28l115 -174q-55 -61 -109.5 -99.5t-102.5 -61t-88 -30.5t-69 -8q-53 0 -97 20.5t-84 65.5t-78 115.5t-77 171.5q-20 -29 -27 -41.5t-22 -44.5l-31 -242h-454 q18 143 41.5 304t46 318.5t42 304t32.5 261.5z" />
<glyph unicode="l" horiz-adv-x="837" d="M61 1217l15 219q141 41 244.5 57t171.5 16q131 0 179 -44t48 -128q0 -39 -7 -114.5t-19.5 -172t-27 -204t-27.5 -208.5t-25.5 -189.5t-18.5 -145.5q35 2 73 10.5t66 18.5l84 -219q-45 -37 -102.5 -66t-116.5 -48t-114.5 -29.5t-96.5 -10.5q-152 0 -212 60.5t-60 162.5 q0 14 1 27.5t3 30.5l121 950z" />
<glyph unicode="m" horiz-adv-x="2152" d="M82 745l14 220q72 23 128.5 37t102.5 22t82.5 11t71.5 3q68 0 109 -13t62.5 -36.5t28.5 -55.5t7 -69v-29.5t-4 -33.5h10q55 76 111.5 123t109 72.5t100.5 34.5t85 9q80 0 139 -32.5t82 -104.5q6 -18 8 -39.5t2 -48.5l15 2q53 68 106 112t103.5 68.5t95.5 33.5t82 9 q113 0 181 -67.5t68 -200.5q0 -25 -6 -82t-15 -126.5t-18.5 -140.5t-13.5 -120q35 2 62.5 10.5t56.5 18.5l84 -219q-51 -41 -109.5 -70t-116 -47.5t-111.5 -27.5t-95 -9q-76 0 -123 14.5t-74.5 41t-38 66.5t-10.5 91v24.5t4 36.5q4 39 12.5 96.5t16.5 114t14 103.5t6 69 q0 29 -8 53.5t-49 24.5q-47 0 -84 -65.5t-55 -159.5q-18 -143 -29.5 -233.5t-19 -141.5t-9.5 -71.5t-2 -22.5h-456q6 53 10 90t8 65.5t7 53t7 53.5q16 141 27.5 233.5t11.5 120.5q0 29 -8 53.5t-49 24.5q-47 0 -84 -65.5t-55 -159.5l-60 -469h-458q12 109 20 176.5 t14.5 113.5t10.5 81t9 78t12 105t18 163z" />
<glyph unicode="n" horiz-adv-x="1544" d="M82 745l14 220q72 23 128.5 37t102.5 22t82.5 11t71.5 3q68 0 109 -13t62.5 -36.5t28.5 -55.5t7 -69v-29.5t-4 -33.5h10q55 76 115.5 123t118 72.5t108.5 34.5t88 9q113 0 181.5 -67.5t68.5 -200.5q0 -25 -6 -82t-15.5 -126.5t-18.5 -140.5t-13 -120q35 2 62.5 10.5 t56.5 18.5l84 -219q-51 -41 -110.5 -70t-120 -47.5t-116 -27.5t-96.5 -9q-76 0 -122 14.5t-71.5 41t-33.5 66.5t-8 91v24.5t4 36.5q4 39 12 96.5t16.5 114t14.5 103.5t6 69q0 29 -13.5 53.5t-54.5 24.5q-53 0 -94 -61.5t-67 -163.5l-60 -469h-458q12 109 20 176.5 t14.5 113.5t10.5 81t9 78t12 105t18 163z" />
<glyph unicode="o" horiz-adv-x="1341" d="M82 444q0 133 42 242t125 186.5t204.5 120.5t279.5 43q139 0 241.5 -33.5t170 -95t101.5 -147.5t34 -193q0 -133 -44 -241.5t-128 -186.5t-207 -120t-278 -42q-139 0 -240.5 34t-168.5 95.5t-99.5 147.5t-32.5 190zM559 430q0 -63 20.5 -100t73.5 -37q72 0 109 79t37 208 q0 63 -20.5 99t-73.5 36q-41 0 -69 -25.5t-45.5 -66.5t-24.5 -92.5t-7 -100.5z" />
<glyph unicode="p" horiz-adv-x="1431" d="M-12 -436l37 295h104q12 96 26.5 213.5t29 235.5t26.5 224.5t20 182.5l-151 28l14 218q96 39 204 59t194 20q111 0 151.5 -47t40.5 -125v-32.5t-4 -32.5h10q98 121 193.5 177t195.5 56q133 0 212 -91t79 -283q0 -143 -36 -270.5t-106.5 -221.5t-177 -148.5t-245.5 -54.5 q-98 0 -193 37l-18 -145h133l-35 -295h-704zM645 311q33 -10 60.5 -12t46.5 -2q45 0 76.5 23.5t52 61.5t30 84t9.5 93q0 68 -21.5 99.5t-56.5 31.5q-23 0 -45.5 -9t-46 -36t-45 -75t-41.5 -121z" />
<glyph unicode="q" horiz-adv-x="1376" d="M82 317q0 147 40 278.5t120 230t200.5 154.5t284.5 56q41 0 107.5 -5t145.5 -17.5t160 -35t150 -58.5l25 -50q-39 -276 -67.5 -520t-51.5 -491h111l-31 -295h-684l33 295h102q8 61 15.5 128.5t17.5 131.5l-10 4q-90 -80 -179.5 -119t-175.5 -39q-143 0 -228 89t-85 263z M537 399q0 -63 24 -89.5t57 -26.5q45 0 96.5 53t86.5 194l22 164q-35 10 -56.5 12.5t-41.5 2.5q-49 0 -84 -28t-58.5 -72t-34.5 -99t-11 -111z" />
<glyph unicode="r" horiz-adv-x="1161" d="M94 745l15 220q72 23 128 37t102 22t83 11t72 3q68 0 108.5 -13t62 -36.5t28.5 -55.5t7 -69q0 -14 -2 -49t-6 -53h10q33 92 68 147.5t72 84t75.5 37.5t75.5 9q47 0 85 -18t65.5 -50t45 -74t25.5 -87l-213 -264q-39 23 -75.5 32t-69.5 9q-49 0 -84 -21.5t-58.5 -61.5 t-39 -94.5t-27.5 -119.5l-35 -291h-458q35 262 61.5 450.5t32.5 266.5z" />
<glyph unicode="s" horiz-adv-x="1234" d="M57 190q0 35 23.5 93.5t77.5 112.5l233 -13l2 -129q23 -10 65 -16.5t79 -6.5q47 0 84.5 13.5t37.5 42.5q0 20 -19 36.5t-51 32t-73 29.5t-86 31q-51 18 -102.5 41.5t-92 54.5t-66.5 72t-28 96q0 80 38 146.5t110.5 114.5t179 74.5t244.5 26.5q61 0 140 -8t147.5 -30.5 t115.5 -60.5t47 -95q0 -16 -10 -44t-27.5 -58.5t-37 -58.5t-37.5 -44l-226 12l-4 121q-18 4 -42.5 8t-51.5 4q-41 0 -71.5 -14t-30.5 -43q0 -20 21.5 -35.5t56 -31t79.5 -31t92 -33.5q51 -20 100.5 -46t87.5 -59.5t62.5 -78.5t26.5 -105q0 -147 -146.5 -241.5t-449.5 -94.5 q-82 0 -170 11.5t-160.5 37t-120 66.5t-47.5 100z" />
<glyph unicode="t" horiz-adv-x="1021" d="M61 723l31 258l184 51l140 277l329 24l-38 -319h284l-35 -291h-284l-31 -250q-2 -14 -3 -27.5t-1 -25.5q0 -53 25.5 -77t87.5 -24q8 0 29.5 1.5t48 3.5t55 4t51.5 6l41 -301q-41 -16 -95.5 -26.5t-110.5 -18.5t-107.5 -11.5t-83.5 -3.5q-133 0 -214 32t-126 81 t-60.5 109.5t-15.5 119.5q0 53 6 97l39 311h-146z" />
<glyph unicode="u" horiz-adv-x="1523" d="M90 748l19 219q141 41 241.5 57t167.5 16q113 0 160 -46t47 -132q0 -12 -8 -72.5t-19.5 -134t-19.5 -143.5t-8 -102q0 -29 12 -53.5t53 -24.5t80 51t66 174l59 457l449 -2q-12 -86 -25.5 -181.5t-27 -189.5t-26 -182t-20.5 -156q35 2 68 10.5t61 18.5l84 -219 q-47 -39 -102 -68t-110.5 -48.5t-109 -28.5t-96.5 -9q-133 0 -185 52t-52 157h-10q-49 -59 -99.5 -98t-99.5 -61.5t-97 -31t-98 -8.5q-115 0 -188.5 54.5t-73.5 175.5v23.5t2 25.5l64 473z" />
<glyph unicode="v" horiz-adv-x="1456" d="M41 866q123 90 227.5 131t186.5 41q106 0 154 -56t65 -189l51 -422h18q25 29 54.5 70.5t59.5 91t54.5 101.5t40.5 101l-125 -12l-36 203q106 63 208.5 99t206.5 36q37 0 76 -8.5t70.5 -31t52 -60t20.5 -95.5q0 -68 -27.5 -147.5t-75.5 -163.5t-110.5 -169t-133 -160.5 t-145.5 -138t-145 -103.5h-460l-101 702l-125 -20z" />
<glyph unicode="w" horiz-adv-x="2023" d="M41 866q123 90 227.5 131t186.5 41q106 0 158.5 -56t60.5 -189l24 -467h19q27 29 54.5 64.5t52 72.5t45 72.5t34.5 62.5l-12 94l-96 -18l-62 200q104 76 201.5 120t179.5 44q106 0 146 -51t47 -168l18 -479h18q20 33 48 78t55 97t50.5 108.5t39.5 111.5l-100 -6l-37 203 q53 31 99 55.5t90 40.5t89 24.5t97 8.5q37 0 75.5 -8.5t70.5 -31t52.5 -60t20.5 -95.5q0 -68 -24.5 -147.5t-67.5 -163.5t-101.5 -169t-124 -160.5t-137.5 -138t-141 -103.5h-447l-10 229l-8 2q-20 -37 -46 -73t-51.5 -67.5t-48 -55t-36.5 -35.5h-449l-74 702l-125 -20z" />
<glyph unicode="x" horiz-adv-x="1411" d="M35 213l2 53l409 256l-86 142l-155 -41l-103 211q133 117 244 160.5t203 43.5q66 0 116 -23.5t97 -101.5l65 -112l246 239l51 2l222 -258l-5 -45l-358 -235q27 -47 48.5 -82t49.5 -84q41 12 71 25.5t65 35.5l163 -192q-55 -78 -117.5 -127t-124 -77t-115.5 -38t-93 -10 q-102 0 -160.5 42t-112.5 136l-51 90l-305 -278l-41 -2z" />
<glyph unicode="y" horiz-adv-x="1396" d="M-195 -193.5q0 13.5 5 29.5l178 88q53 -66 107.5 -88t129.5 -22q61 0 136 25.5t133 68.5q-25 94 -54.5 198.5t-60.5 207t-61.5 197.5t-57.5 171l-143 -23l-64 203q113 90 220.5 131t189.5 41q94 0 137 -54t70 -165l116 -481h19q25 33 42 80t29.5 98t18.5 104q5 41 5 78 q0 13 -1 25l-111 -6l-34 202q98 63 190 98.5t197 35.5q90 0 147.5 -55.5t57.5 -196.5q0 -133 -48.5 -279.5t-132.5 -287t-197.5 -267.5t-246.5 -224t-277.5 -153.5t-289.5 -56.5q-27 0 -85.5 5t-116.5 28.5t-102.5 74t-44.5 142.5v27.5z" />
<glyph unicode="z" horiz-adv-x="1239" d="M41 221l534 516h-165l-72 -155l-227 18l20 260q4 47 22.5 77t44 46t52 22.5t49.5 6.5h875l14 -201l-549 -541l235 2l111 201l203 -12l-39 -322q-6 -45 -28.5 -72.5t-51.5 -42t-59.5 -19.5t-51.5 -5h-895z" />
<glyph unicode="{" horiz-adv-x="845" d="M72 436l28 246h17q66 0 106.5 34t50.5 111l37 295q8 70 36 129.5t73 102.5t107.5 67.5t140.5 24.5h276l-31 -246h-86q-43 0 -67.5 -11t-37.5 -29.5t-17.5 -43t-8.5 -49.5l-37 -307q-10 -82 -63 -130t-129 -61l-2 -8q86 -12 121 -71.5t24 -137.5l-39 -315q-4 -27 -7 -51.5 t3 -43t23.5 -29.5t58.5 -11h107l-31 -236h-276q-68 0 -122.5 24.5t-91 68.5t-54 103.5t-9.5 129.5l37 297q10 78 -22.5 112.5t-98.5 34.5h-16z" />
<glyph unicode="|" horiz-adv-x="845" d="M301 -324v1797h311v-1797h-311z" />
<glyph unicode="}" horiz-adv-x="845" d="M-51 -334l28 236h86q37 0 62 11t39 29.5t20 43t11 51.5l38 315q10 78 57.5 137.5t137.5 71.5l2 8q-72 12 -115 60.5t-32 130.5l36 307q2 25 3.5 49.5t-7 43t-30 29.5t-60.5 11h-90l31 246h299q78 0 130 -24.5t83 -67.5t41 -102.5t2 -129.5l-37 -295q-10 -78 22.5 -111.5 t98.5 -33.5h16l-28 -246h-17q-66 0 -106.5 -34.5t-51.5 -112.5l-36 -297q-8 -70 -34 -129.5t-68 -103.5t-97 -68.5t-123 -24.5h-311z" />
<glyph unicode="~" d="M129 524q41 86 82 142.5t84 90.5t87 47t91 13q61 0 126 -13t128.5 -30.5t127 -31t122.5 -13.5l143 98l131 -110q-72 -154 -153 -227.5t-185 -73.5q-70 0 -141.5 14t-139 31.5t-127 32t-102.5 14.5l-141 -94z" />
<glyph unicode="&#xa2;" d="M156 401q0 92 21.5 195.5t77.5 194t153.5 157t246.5 84.5l29 228h277l-31 -234q59 -10 92 -22q63 -25 90 -60t27 -82q0 -29 -6.5 -65.5t-16.5 -76.5t-23.5 -81t-27.5 -76l-248 12v142q-6 2 -13 2h-13q-74 0 -115 -65.5t-41 -184.5q0 -94 41 -130t115 -36q41 0 106.5 8 t124.5 21l65 -279q-55 -25 -130.5 -41t-153.5 -26l-31 -256h-276l30 250q-113 12 -184.5 50t-113.5 94t-57 127t-15 150z" />
<glyph unicode="&#xa3;" d="M68 0l22 287q37 37 61.5 69.5t41 65.5t26.5 67.5t17 75.5l4 25h-109l16 203h125l21 141q18 129 59 222t106.5 151.5t157 86t211.5 27.5q145 0 251 -24.5t182 -63.5l-29 -383h-301l10 127q-47 12 -84 13q-53 0 -90 -38t-53 -141l-19 -118h219l-16 -203h-238l-6 -51 q-12 -78 -35.5 -139.5t-76.5 -112.5h630l-20 -287h-1083z" />
<glyph unicode="&#xa5;" d="M111 1081l36 297h603l-37 -297h-88l80 -325h6l153 325h-90l37 297h596l-37 -297h-84l-147 -272h121l-17 -141h-1098l17 141h112l-81 272h-82zM119 451l16 139h1098l-16 -139h-326l-4 -7l-19 -149h127l-34 -295h-713l35 295h131l18 149l-2 7h-311z" />
<glyph unicode="&#xa8;" horiz-adv-x="1292" d="M324 1329q6 43 25.5 80t48 63.5t65.5 42t78 15.5q39 0 71.5 -15.5t56 -42t35 -63.5t5.5 -80q-4 -41 -24.5 -78t-50.5 -63.5t-67 -42t-75 -15.5q-80 0 -129.5 57.5t-38.5 141.5zM776 1329q6 43 25.5 80t49.5 63.5t66.5 42t77.5 15.5q80 0 128 -57.5t38 -143.5 q-4 -41 -23.5 -78t-49 -63.5t-66.5 -42t-76 -15.5q-82 0 -131 57.5t-39 141.5z" />
<glyph unicode="&#xa9;" horiz-adv-x="1839" d="M127 668q0 170 65.5 319.5t178 261t263 176t320.5 64.5q168 0 317.5 -64.5t262.5 -176t177.5 -261t64.5 -319.5t-64.5 -320.5t-177.5 -262.5t-262.5 -176.5t-317.5 -64.5q-170 0 -320.5 64.5t-263 176.5t-178 262.5t-65.5 320.5zM305 668q0 -133 51.5 -251t139.5 -205 t206.5 -138t251.5 -51t251 51t205 138t138 205t51 251t-51 250.5t-138 205.5t-205 139.5t-251 51.5t-251.5 -51.5t-206.5 -139.5t-139.5 -205.5t-51.5 -250.5zM479 651q0 92 24.5 179.5t85 155t164 108.5t263.5 41q72 0 135 -10.5t129 -26.5v-320h-205v117q-8 2 -24.5 2 h-24.5q-111 0 -158 -59t-47 -174q0 -84 19.5 -131.5t53.5 -71t78 -29.5t93 -6q14 0 39.5 1t54.5 4t58.5 7t50.5 8l43 -215q-74 -29 -166 -41t-172 -12q-152 0 -248 41t-150.5 107.5t-75 151.5t-20.5 173z" />
<glyph unicode="&#xab;" horiz-adv-x="1177" d="M55 393l11 76l446 434l172 -129l-258 -342l168 -334l-209 -139zM549 393l10 76l447 434l174 -129l-260 -342l167 -334l-206 -139z" />
<glyph unicode="&#xad;" horiz-adv-x="868" d="M133 412l39 309h598l-39 -309h-598z" />
<glyph unicode="&#xae;" horiz-adv-x="1339" d="M141 936q0 121 42 226.5t119 183t183.5 122.5t235.5 45t234.5 -45t181 -122.5t117.5 -183t42 -226.5q0 -119 -42 -223.5t-118.5 -183t-182 -124t-232.5 -45.5q-125 0 -231.5 45.5t-183.5 124t-121 183t-44 223.5zM274 936q0 -92 31 -173t89.5 -141.5t141 -95t185.5 -34.5 q109 0 191.5 34.5t140 95t86 141.5t28.5 173t-32.5 173t-91 141.5t-141.5 96t-181 35.5t-181 -35.5t-141.5 -96t-91.5 -141.5t-33 -173zM430 666v125h64v335h-64v127h363q66 0 108.5 -16t67 -43t34 -60.5t9.5 -66.5q0 -39 -20.5 -82t-65.5 -65l63 -134l74 -8v-110 q-31 -10 -72 -14.5t-61 -4.5q-53 0 -80 21.5t-47 68.5l-64 146h-43v-94h49v-125h-315zM696 1006h33q31 0 49.5 14t18.5 51q0 57 -60 57h-41v-122z" />
<glyph unicode="&#xb4;" horiz-adv-x="1292" d="M614 1264l383 419l195 -225l-447 -340z" />
<glyph unicode="&#xb8;" horiz-adv-x="1118" d="M260 -401q117 10 184.5 40.5t67.5 67.5q0 29 -25.5 37t-60.5 8q-18 0 -35.5 -1t-34.5 -3l-34 72l251 299l103 -66l-121 -147q182 -41 182 -185q0 -35 -18.5 -81t-68.5 -89t-141 -72.5t-237 -31.5z" />
<glyph unicode="&#xbb;" horiz-adv-x="1177" d="M25 98l251 334l-174 342l205 129l340 -434l-10 -76l-436 -434zM520 98l248 334l-172 342l207 129l340 -434l-10 -76l-439 -434z" />
<glyph unicode="&#x2c6;" horiz-adv-x="1292" d="M281 1225l356 331h283l282 -331l-123 -127l-334 209l-376 -205z" />
<glyph unicode="&#x2da;" horiz-adv-x="1292" d="M498 1425q8 59 37.5 113.5t74.5 95.5t102.5 64.5t121.5 23.5q63 0 113 -23.5t83 -64.5t47.5 -94t5.5 -115q-8 -61 -36.5 -115.5t-72.5 -94t-99.5 -62.5t-114.5 -23q-63 0 -114.5 24t-87.5 63.5t-52.5 93t-7.5 114.5zM694 1419q-4 -35 18.5 -66.5t71.5 -31.5q43 0 71 31.5 t32 66.5q4 41 -13.5 73t-64.5 32q-43 0 -77 -32t-38 -73z" />
<glyph unicode="&#x2dc;" horiz-adv-x="1292" d="M301 1235q33 72 67.5 119t69.5 75.5t72 40t76 11.5q53 0 108.5 -11.5t108.5 -25.5t106.5 -25.5t102.5 -11.5l118 84l107 -92q-57 -131 -125 -192.5t-156 -61.5q-59 0 -119.5 12t-116.5 26.5t-105.5 27t-86.5 12.5l-116 -80z" />
<glyph unicode="&#x401;" horiz-adv-x="1542" d="M39 0l37 305h145l98 811h-145l39 303h1346l-70 -555h-324l31 252h-393l-31 -252l305 6l-37 -297l-303 9l-32 -277h425l33 277h324l-70 -582h-1378zM551 1708q10 80 68.5 133t134.5 53q74 0 118.5 -53t36.5 -133q-4 -39 -22.5 -72.5t-46 -59.5t-61.5 -40t-70 -14 q-37 0 -69 14t-53.5 40t-30.5 59.5t-5 72.5zM973 1708q10 80 68.5 133t136.5 53q76 0 120.5 -53t34.5 -133q-10 -78 -67.5 -132t-132.5 -54q-39 0 -71 14t-53.5 40t-30.5 59.5t-5 72.5z" />
<glyph unicode="&#x402;" horiz-adv-x="1964" d="M109 987l53 432h1550l-53 -432h-320l15 129h-279l-33 -274q80 23 169.5 35t179.5 12q102 0 192 -20.5t157.5 -70.5t106.5 -133t39 -208q0 -141 -48 -262t-126 -217.5t-177 -169t-200 -117.5l-172 252q111 84 158 193.5t47 234.5q0 104 -50 147t-122 43q-45 0 -95 -9 t-97 -24l-27 -223h141l-37 -305h-755l36 305h138l98 811h-154l-14 -129h-321z" />
<glyph unicode="&#x403;" horiz-adv-x="1474" d="M39 0l37 305h149l99 811h-150l39 303h1360l-70 -555h-323l30 252h-405l-98 -811h178l-37 -305h-809zM770 1692l420 374l172 -245l-483 -289z" />
<glyph unicode="&#x404;" horiz-adv-x="1417" d="M129 582q0 172 37 329.5t132 278.5t260 192.5t423 71.5q104 0 203.5 -14.5t193.5 -42.5l-53 -459h-328l15 139q-16 4 -32.5 4h-33.5q-115 0 -181.5 -57t-94.5 -160l329 8l-24 -299l-330 9q0 -72 23.5 -114t65.5 -64.5t98.5 -28.5t121.5 -6q20 0 57.5 3t79.5 8t86 12 t78 14l52 -345q-57 -23 -123 -38t-135.5 -26t-137 -16.5t-129.5 -5.5q-201 0 -327.5 50.5t-198.5 133.5t-99.5 192.5t-27.5 230.5z" />
<glyph unicode="&#x405;" horiz-adv-x="1449" d="M72 74l47 411h317l-14 -143q25 -8 53.5 -13t58 -8.5t54 -5.5t39.5 -2q61 0 98 11.5t55.5 27t24.5 29.5t6 22q0 31 -17.5 49.5t-57.5 35t-104.5 34t-158.5 43.5q-170 47 -244.5 139.5t-74.5 231.5q0 240 176 373t514 133q49 0 115.5 -6t137 -18.5t138.5 -31t119 -43.5 l-49 -395h-322l14 131q-37 16 -85.5 22.5t-75.5 6.5q-84 0 -121 -30.5t-37 -71.5q0 -23 19.5 -40.5t53 -32.5t78.5 -28.5t95 -27.5q100 -29 182 -62t139.5 -79t88 -109.5t30.5 -151.5q0 -242 -180 -374t-555 -132q-53 0 -124 5.5t-146.5 17.5t-150.5 31.5t-136 50.5z" />
<glyph unicode="&#x406;" horiz-adv-x="1054" d="M88 0l37 305h151l99 811h-152l39 303h776l-39 -303h-145l-98 -811h145l-37 -305h-776z" />
<glyph unicode="&#x407;" horiz-adv-x="1054" d="M88 0l37 305h151l99 811h-152l39 303h776l-39 -303h-145l-98 -811h145l-37 -305h-776zM307 1708q10 80 68.5 133t134.5 53q74 0 119 -53t37 -133q-4 -39 -22.5 -72.5t-46.5 -59.5t-61.5 -40t-70.5 -14t-68.5 14t-53 40t-31 59.5t-5.5 72.5zM729 1708q10 80 68.5 133 t136.5 53q76 0 121 -53t35 -133q-10 -78 -67.5 -132t-133.5 -54q-39 0 -71 14t-53.5 40t-30.5 59.5t-5 72.5z" />
<glyph unicode="&#x408;" horiz-adv-x="1134" d="M-74 -70q152 41 236 88.5t126 105.5t56 133t27 173l84 686l-197 2l37 303h844l-39 -305h-166l-84 -696q-23 -188 -78 -335.5t-155.5 -252t-254 -166t-370.5 -78.5z" />
<glyph unicode="&#x409;" horiz-adv-x="2367" d="M39 317q78 31 136 57.5t101 56.5t74 68t53.5 92t38 130t29.5 180l25 215h-183l39 303h1422l-39 -303h-148l-24 -209h209q92 0 185 -14t168 -57t122 -123t47 -211t-42 -225.5t-118 -156t-179.5 -91t-228.5 -29.5h-878l37 305h121l98 811h-154l-16 -133q-27 -217 -71 -391 t-130 -304t-226 -215t-362 -122zM1489 305h135q68 0 113 48t45 126q0 59 -31 95t-96 36h-129z" />
<glyph unicode="&#x40a;" horiz-adv-x="2461" d="M49 0l37 305h154l98 811h-154l39 303h750l-39 -303h-115l-28 -235h378l29 235h-123l39 303h754l-39 -303h-148l-26 -225h209q92 0 185 -13.5t169 -54.5t123 -116.5t47 -202.5q0 -121 -41 -214t-115.5 -157.5t-179 -98.5t-231.5 -34h-873l37 305h115l35 293h-379l-35 -293 h115l-37 -305h-750zM1583 305h135q72 0 115 47t43 127q0 53 -29.5 84t-93.5 31h-135z" />
<glyph unicode="&#x40b;" horiz-adv-x="2045" d="M109 989l53 430h1528l-54 -430h-319l14 127h-256l-33 -268q80 20 179.5 32.5t189.5 12.5q98 0 185 -18.5t148.5 -64.5t92.5 -123t16 -193l-22 -189h141l-37 -305h-747l37 305h125l16 141q4 37 -5 63t-29.5 41t-48.5 21.5t-60 6.5q-59 0 -121 -15.5t-98 -32.5l-27 -225 h121l-37 -305h-744l37 305h146l98 811h-154l-14 -127h-321z" />
<glyph unicode="&#x40c;" horiz-adv-x="1742" d="M39 0l37 305h151l99 811h-152l37 301h772l-37 -301h-141l-98 -811h141l-37 -305h-772zM801 635l18 158l355 499q61 90 127.5 121t152.5 31q82 0 159 -19.5t138 -56.5l-57 -264l-148 -8l-311 -367l215 -420l186 -10l11 -264q-37 -14 -81 -24.5t-87 -17.5t-80 -11.5 t-58 -4.5q-59 -2 -104 3.5t-80 20.5t-61.5 44t-48.5 72zM938 1696l420 375l172 -246l-483 -289z" />
<glyph unicode="&#x40e;" horiz-adv-x="1589" d="M123 1114l39 305h669l-38 -305h-105l90 -240l64 -184h12l107 201l124 223h-112l39 305h661l-39 -305h-102l-531 -911q-47 -82 -93 -131t-95 -76t-104.5 -36t-120.5 -9q-78 0 -163 12t-177 41l82 307q63 -12 110 -14t72 -2q55 0 88 49l37 59h-109l-309 711h-96zM541 1851 l170 131q66 -106 140.5 -150t125.5 -44q18 0 44 2t66.5 18.5t100 53t143.5 108.5l99 -121q-63 -92 -129 -153.5t-130.5 -98t-124 -52t-110.5 -15.5q-68 0 -126 24.5t-107.5 67.5t-90.5 101.5t-71 127.5z" />
<glyph unicode="&#x40f;" horiz-adv-x="1839" d="M39 0l37 303h153l99 811h-154l39 305h760l-39 -305h-125l-98 -811h393l98 811h-125l39 305h758l-39 -305h-152l-98 -811h152l-37 -303h-645l-56 -449h-360l55 449h-655z" />
<glyph unicode="&#x410;" horiz-adv-x="1691" d="M-12 0l37 305h106l559 1114h592l250 -1114h106l-36 -305h-678l37 305h104l-18 92h-414l-41 -92h110l-36 -305h-678zM764 682h233l-26 135l-35 227h-8l-99 -223z" />
<glyph unicode="&#x411;" horiz-adv-x="1585" d="M39 0l37 305h147l99 811h-148l39 303h1280l-53 -432h-324l14 129h-325l-25 -209h209q92 0 185.5 -14t168 -57t121.5 -123t47 -209q0 -131 -42 -226.5t-117.5 -157t-180 -91t-227.5 -29.5h-905zM707 305h133q68 0 114.5 51.5t46.5 130.5q0 53 -30.5 88t-93.5 35h-134z" />
<glyph unicode="&#x412;" horiz-adv-x="1585" d="M39 0l37 305h147l99 811h-148l39 303h922q211 0 308 -94t97 -250q0 -45 -9 -91t-31.5 -88t-63.5 -80t-105 -64l-2 -7q59 -25 94 -60.5t53.5 -74.5t24.5 -77.5t6 -71.5q0 -106 -37.5 -191.5t-108.5 -146t-170 -92t-224 -31.5h-928zM707 305h133q70 0 114.5 41t44.5 115 q0 53 -30.5 88t-96.5 35h-133zM774 860h121q59 0 98 41t39 109q0 49 -26.5 77.5t-79.5 28.5h-121z" />
<glyph unicode="&#x413;" horiz-adv-x="1474" d="M39 0l37 305h149l99 811h-150l39 303h1360l-70 -555h-323l30 252h-405l-98 -811h178l-37 -305h-809z" />
<glyph unicode="&#x414;" horiz-adv-x="1753" d="M-68 -395l84 696l138 4q72 74 121 149.5t84.5 169t62.5 212t55 280.5h-172l39 303h1432l-39 -303h-150l-98 -811l139 -4l-76 -696h-344l49 395h-935l-50 -395h-340zM643 305h365l98 811h-193q-25 -152 -48 -271.5t-54 -218t-71 -177t-97 -144.5z" />
<glyph unicode="&#x415;" horiz-adv-x="1542" d="M39 0l37 305h145l98 811h-145l39 303h1346l-70 -555h-324l31 252h-393l-31 -252l305 6l-37 -297l-303 9l-32 -277h425l33 277h324l-70 -582h-1378z" />
<glyph unicode="&#x416;" horiz-adv-x="2459" d="M12 35l31 264l217 18l303 422l-196 355l-195 10l-8 264q70 37 160 56.5t172 19.5q37 0 70.5 -5t65.5 -19.5t58.5 -41t46.5 -71.5l248 -531l-18 -158l-365 -501q-70 -90 -147.5 -117t-173.5 -23q-20 0 -53 4.5t-70 11.5t-75 17t-71 25zM807 0l37 305h141l98 811h-141 l37 301h747l-36 -301h-142l-98 -811h141l-37 -305h-747zM1542 618l19 158l378 531q31 45 65 71.5t67.5 41t69.5 19.5t71 5q168 0 297 -76l-53 -264l-183 -10l-295 -385l185 -392l200 -18l11 -264q-37 -14 -81 -24.5t-87 -17.5t-80 -11.5t-58 -4.5q-96 -4 -168.5 23 t-119.5 117z" />
<glyph unicode="&#x417;" horiz-adv-x="1376" d="M29 84l131 315q104 -35 196.5 -51t173.5 -16q70 0 119 12t78 32.5t42 46.5t13 54q0 53 -32.5 81t-108.5 28h-182l35 284h149q98 0 138 45.5t40 98.5q0 63 -50 87.5t-114 24.5q-27 0 -56.5 -3t-63.5 -7l-21 -178h-336l51 422q74 29 153 47t150.5 29.5t129 15.5t88.5 4 q96 0 196.5 -14.5t181 -53t133 -107.5t52.5 -177q0 -41 -10.5 -88t-34 -93t-63.5 -87t-97 -70v-4q53 -23 90 -55.5t58.5 -71.5t30.5 -80t9 -78q0 -123 -56 -217t-153.5 -156.5t-226.5 -94.5t-276 -32q-33 0 -100.5 4.5t-149.5 15.5t-164 31.5t-143 55.5z" />
<glyph unicode="&#x418;" horiz-adv-x="1884" d="M39 0l37 305h153l99 811h-154l39 303h762l-39 -303h-129l-45 -381l485 328l6 53h-127l39 303h752l-39 -303h-154l-98 -811h154l-37 -305h-752l37 305h127l47 393l-485 -327l-8 -66h129l-37 -305h-762z" />
<glyph unicode="&#x419;" horiz-adv-x="1884" d="M39 0l37 305h153l99 811h-154l39 303h762l-39 -303h-129l-45 -381l485 328l6 53h-127l39 303h752l-39 -303h-154l-98 -811h154l-37 -305h-752l37 305h127l47 393l-485 -327l-8 -66h129l-37 -305h-762zM680 1892l170 131q63 -106 138 -150t126 -44q18 0 44 2t68 18.5 t100 53t142 108.5l101 -121q-63 -92 -129 -153.5t-130.5 -98t-124 -52t-110.5 -15.5q-68 0 -126 24.5t-107 67.5t-90 101.5t-72 127.5z" />
<glyph unicode="&#x41a;" horiz-adv-x="1742" d="M39 0l37 305h151l99 811h-152l37 301h772l-37 -301h-141l-98 -811h141l-37 -305h-772zM801 635l18 158l355 499q61 90 127.5 121t152.5 31q82 0 159 -19.5t138 -56.5l-57 -264l-148 -8l-311 -367l215 -420l186 -10l11 -264q-37 -14 -81 -24.5t-87 -17.5t-80 -11.5 t-58 -4.5q-59 -2 -104 3.5t-80 20.5t-61.5 44t-48.5 72z" />
<glyph unicode="&#x41b;" horiz-adv-x="1771" d="M29 317q78 31 136 57.5t101 56.5t74 68t53.5 92t37.5 130t30 180l24 215h-182l39 303h1452l-39 -303h-151l-99 -811h152l-37 -305h-756l37 305h125l98 811h-184l-16 -133q-25 -211 -69 -385t-130 -305t-227.5 -218t-362.5 -124z" />
<glyph unicode="&#x41c;" horiz-adv-x="2230" d="M39 0l37 305h153l99 811h-154l39 303h760l90 -289l102 -333h9l178 344l147 278h766l-39 -303h-129l-98 -811h129l-37 -305h-705l37 305h109l63 524h-6l-141 -276l-141 -266h-383l-97 276l-82 266h-6l-63 -524h123l-37 -305h-723z" />
<glyph unicode="&#x41d;" horiz-adv-x="1839" d="M39 0l37 305h153l99 811h-154l39 303h760l-39 -303h-125l-31 -252h393l31 252h-125l39 303h758l-39 -303h-152l-98 -811h152l-37 -305h-758l37 305h125l33 277h-394l-32 -277h125l-37 -305h-760z" />
<glyph unicode="&#x41e;" horiz-adv-x="1679" d="M131 616q0 182 54.5 336t157.5 264.5t254.5 173t348.5 62.5q172 0 298 -47t209 -133t124 -205t41 -262q0 -184 -55.5 -337t-160 -262.5t-257 -170t-346.5 -60.5q-170 0 -295 47.5t-208 132.5t-124 202.5t-41 258.5zM641 606q0 -137 42 -218t148 -81q74 0 125.5 38 t85 106.5t49 165t15.5 212.5q0 133 -41 210t-147 77q-76 0 -128.5 -42t-85 -112.5t-48 -162.5t-15.5 -193z" />
<glyph unicode="&#x41f;" horiz-adv-x="1839" d="M39 0l37 305h153l99 811h-154l39 303h1661l-39 -303h-152l-98 -811h152l-37 -305h-758l37 305h125l98 811h-393l-98 -811h125l-37 -305h-760z" />
<glyph unicode="&#x420;" horiz-adv-x="1464" d="M39 0l37 305h143l98 811h-143l39 303h782q143 0 237.5 -31.5t150 -87t78 -130t22.5 -162.5q0 -111 -38 -205t-111.5 -163t-179 -107.5t-241.5 -38.5h-188l-23 -189h185l-37 -305h-811zM760 782h45q43 0 74.5 17.5t52 45t30 62.5t9.5 72q0 137 -133 137h-37z" />
<glyph unicode="&#x421;" horiz-adv-x="1417" d="M129 582q0 172 37 329.5t132 278.5t260 192.5t423 71.5q104 0 207.5 -14.5t197.5 -42.5l-61 -512h-328l23 192q-18 4 -31.5 5t-30.5 1q-88 0 -148 -31.5t-97 -90t-53.5 -140.5t-16.5 -180q0 -94 21.5 -148.5t62.5 -82t98.5 -34.5t128.5 -7q20 0 57.5 3t79.5 8t86 12 t78 14l52 -345q-57 -23 -123 -38t-135.5 -26t-137 -16.5t-129.5 -5.5q-201 0 -327.5 50.5t-198.5 133.5t-99.5 192.5t-27.5 230.5z" />
<glyph unicode="&#x422;" horiz-adv-x="1507" d="M92 864l70 555h1429l-69 -555h-320l31 252h-158l-98 -811h162l-37 -305h-803l37 305h164l98 811h-154l-30 -252h-322z" />
<glyph unicode="&#x423;" horiz-adv-x="1589" d="M123 1114l39 305h669l-38 -305h-105l90 -240l64 -184h12l107 201l124 223h-112l39 305h661l-39 -305h-102l-531 -911q-47 -82 -93 -131t-95 -76t-104.5 -36t-120.5 -9q-78 0 -163 12t-177 41l82 307q63 -12 110 -14t72 -2q55 0 88 49l37 59h-109l-309 711h-96z" />
<glyph unicode="&#x424;" horiz-adv-x="1984" d="M115 664q0 145 58 267t159.5 212t241 143t300.5 62l11 73h467l-11 -75q305 -16 454 -167t149 -395q0 -152 -51.5 -272.5t-148.5 -206.5t-236.5 -138t-317.5 -65l-12 -102h-467l12 102q-305 16 -456.5 165t-151.5 397zM596 657q0 -92 38 -156.5t128 -80.5l74 610 q-53 -10 -97.5 -42t-76 -81t-49 -112.5t-17.5 -137.5zM1229 420q98 20 164.5 117.5t66.5 259.5q0 98 -38 159.5t-119 73.5z" />
<glyph unicode="&#x425;" horiz-adv-x="1634" d="M-20 0l36 307h99l399 459l-223 344h-168l39 309h842l-39 -309h-80l119 -180l170 184h-95l39 305h590l-39 -305h-96l-399 -426l266 -381h129l-37 -307h-827l36 307h74l-125 201l-176 -201h80l-37 -307h-577z" />
<glyph unicode="&#x426;" horiz-adv-x="1839" d="M39 0l37 303h153l99 811h-154l39 305h760l-39 -305h-125l-98 -811h393l98 811h-125l39 305h758l-39 -305h-152l-98 -811h232l-86 -698h-342l49 395h-1399z" />
<glyph unicode="&#x427;" horiz-adv-x="1759" d="M123 1116l39 305h745l-39 -305h-123l-14 -121q-8 -74 20.5 -109.5t81 -48t120 -5t134.5 19.5l31 264h-123l39 305h750l-39 -305h-146l-98 -811h146l-37 -303h-779l37 303h152l27 215q-84 -12 -180.5 -18t-190.5 1t-179 31.5t-146.5 73.5t-92.5 127t-16 193l22 188h-141z " />
<glyph unicode="&#x428;" horiz-adv-x="2512" d="M39 0l37 303h153l99 811h-154l39 305h731l-39 -305h-117l-98 -811h316l98 811h-107l39 305h674l-39 -305h-106l-99 -811h332l98 811h-116l39 305h727l-39 -305h-150l-98 -811h149l-36 -303h-2333z" />
<glyph unicode="&#x429;" horiz-adv-x="2512" d="M39 0l37 303h153l99 811h-154l39 305h731l-39 -305h-117l-98 -811h316l98 811h-107l39 305h674l-39 -305h-106l-99 -811h332l98 811h-116l39 305h727l-39 -305h-150l-98 -811h231l-86 -698h-344l49 395h-2070z" />
<glyph unicode="&#x42a;" horiz-adv-x="1923" d="M94 881l68 538h1165l-39 -303h-145l-27 -209h209q92 0 185.5 -14t168 -56t121.5 -119t47 -204q0 -133 -42 -230.5t-116.5 -161t-179 -93t-229.5 -29.5h-905l37 305h147l98 811h-208l-29 -235h-326zM1042 305h136q70 0 114.5 51.5t44.5 132.5q0 53 -29.5 87t-93.5 34h-135 z" />
<glyph unicode="&#x42b;" horiz-adv-x="2447" d="M39 0l37 305h147l99 811h-148l39 303h778l-39 -303h-147l-25 -209h209q92 0 185.5 -14t168 -55t121.5 -119t47 -203q0 -131 -42 -227t-116.5 -161t-179 -96.5t-229.5 -31.5h-905zM707 305h135q70 0 114.5 51.5t44.5 132.5q0 53 -29.5 87t-92.5 34h-136zM1530 0l37 305 h151l99 811h-152l39 303h776l-39 -303h-143l-98 -811h143l-37 -305h-776z" />
<glyph unicode="&#x42c;" horiz-adv-x="1595" d="M49 0l37 305h147l99 811h-148l39 303h778l-38 -303h-148l-24 -209h208q92 0 185.5 -13t168 -54t123 -117t48.5 -201q0 -135 -42 -234.5t-118 -163t-180.5 -94t-229.5 -30.5h-905zM717 305h135q70 0 115 51.5t45 132.5q0 53 -30 87t-93 34h-135z" />
<glyph unicode="&#x42d;" horiz-adv-x="1411" d="M66 61l108 342q33 -6 74 -13t81 -12t73.5 -8t56.5 -3q66 0 123 8t101 30.5t77 65.5t49 115l-332 -6l37 297l330 -9q2 10 2 20.5v20.5q0 86 -52.5 134.5t-168.5 48.5q-16 0 -40 -1t-42 -6l-19 -149h-327l55 461q100 29 210.5 43t215.5 14q199 0 329 -51t205.5 -137 t106.5 -201t31 -244q0 -152 -41 -303t-136.5 -272t-253 -196t-393.5 -75q-121 0 -238.5 21.5t-221.5 64.5z" />
<glyph unicode="&#x42e;" horiz-adv-x="2476" d="M39 0l37 305h153l99 811h-154l39 303h760l-39 -303h-125l-31 -252h221q33 131 97.5 238.5t161 185.5t224.5 121t290 43q170 0 291.5 -47t199.5 -131t115 -203t37 -260q0 -182 -51.5 -335.5t-152 -264.5t-250 -173.5t-347.5 -62.5q-164 0 -286 44t-204 124t-121.5 191.5 t-39.5 247.5h-220l-32 -277h125l-37 -305h-760zM1452 590q0 -131 44 -207t151 -76q72 0 124 39t85.5 108.5t50 167t16.5 212.5q0 129 -42 205.5t-148 76.5q-76 0 -129.5 -44t-87 -116.5t-49 -168t-15.5 -197.5z" />
<glyph unicode="&#x42f;" horiz-adv-x="1619" d="M10 12l19 264l190 27l176 315q-45 25 -75.5 61t-49 78t-26.5 88t-8 91q0 88 29.5 175t96 155.5t175 110.5t268.5 42h850l-39 -303h-137l-99 -811h138l-37 -305h-731l36 305h119l27 225h-123l-172 -340q-29 -57 -60.5 -99t-71.5 -69.5t-88 -41t-112 -13.5q-23 0 -58.5 2 t-76.5 8.5t-83 14.5t-77 20zM739 938q0 -37 13.5 -59.5t35 -37t47 -19.5t52.5 -5h80l37 299h-97q-66 0 -117 -41t-51 -137z" />
<glyph unicode="&#x430;" horiz-adv-x="1449" d="M82 322q0 150 37 280.5t110.5 227t183.5 152.5t255 56q66 0 130 -16t124 -51l39 61l366 -16q-18 -115 -33.5 -209t-28 -178t-22.5 -163t-20 -163q35 4 61.5 11.5t61.5 17.5l84 -219q-39 -35 -89.5 -62.5t-104.5 -47t-109.5 -31t-102.5 -11.5q-111 0 -169 35t-75 106 q-6 31 -6 66h-10q-92 -111 -180 -155t-193 -44q-145 0 -227 89t-82 264zM539 397q0 -59 21 -87.5t54 -28.5q20 0 43 10t46.5 36.5t46 74t45.5 120.5l26 172q-33 10 -62.5 12.5t-47.5 2.5q-43 0 -76 -28t-54.5 -73t-31.5 -100t-10 -111z" />
<glyph unicode="&#x431;" horiz-adv-x="1316" d="M70 463q0 51 6 118.5t16 138.5t24.5 138.5t30.5 120.5q37 117 85.5 199t106.5 137t124.5 88t140.5 51q63 16 132 25.5t139.5 16.5t143.5 15.5t146 24.5l47 -313q-66 -14 -129 -22.5t-123.5 -15.5t-116 -14.5t-100.5 -19.5q-51 -12 -88 -34.5t-63.5 -58.5t-44 -88 t-27.5 -122l15 -6q43 45 90 73.5t90 44t78.5 21.5t58.5 6q117 0 195.5 -31.5t127 -89t70 -135.5t21.5 -170q0 -117 -39 -222.5t-120 -185t-206 -128t-299 -48.5q-162 0 -265.5 38t-162.5 103.5t-81.5 153.5t-22.5 191zM530 451q0 -55 21 -98.5t80 -43.5q35 0 60.5 19.5 t43 52.5t25.5 77t8 91q0 59 -19.5 91t-66.5 32q-31 0 -69 -19.5t-64 -50.5q-14 -59 -16.5 -97t-2.5 -54z" />
<glyph unicode="&#x432;" horiz-adv-x="1251" d="M31 137l47 424q8 100 49 189.5t114.5 155t179 103.5t245.5 38q76 0 156.5 -14.5t146 -46.5t108.5 -83t45 -127q0 -23 -2 -48.5t-13 -53t-32.5 -57t-60.5 -56.5v-8q57 -10 92 -32.5t53.5 -50.5t25.5 -55.5t7 -47.5q0 -84 -38 -155t-113.5 -124t-190.5 -83t-268 -30 q-66 0 -127.5 4.5t-124 16.5t-130 33.5t-141.5 56.5zM502 299q45 -16 98 -16q59 0 94 24.5t33 69.5q0 27 -21.5 50.5t-74.5 23.5h-47l22 178h31q53 0 74.5 26.5t21.5 55.5q0 61 -71 61q-18 0 -37 -6t-36.5 -23.5t-29.5 -48t-18 -78.5z" />
<glyph unicode="&#x433;" horiz-adv-x="1140" d="M72 242q0 72 40 130t102 105t138 87t148 75q61 29 76.5 46t15.5 28q0 29 -41 28q-45 0 -128 -24.5t-175 -61.5l-92 234q119 74 259 110.5t267 36.5q190 0 288.5 -70.5t98.5 -207.5q0 -66 -35 -118t-94 -96t-138 -83t-167 -76q-47 -20 -73.5 -33.5t-26.5 -36.5 q0 -10 9 -22t48 -12q53 0 150.5 24.5t207.5 69.5l101 -244q-68 -43 -144 -74.5t-149.5 -51t-142 -29t-123.5 -9.5q-213 0 -316.5 63.5t-103.5 211.5z" />
<glyph unicode="&#x434;" horiz-adv-x="1374" d="M61 426q0 123 36 231.5t106.5 189.5t175 127t242.5 46q66 0 122 -10.5t109 -42.5q4 10 4 22v21q-2 88 -39 135t-147 47h-48.5t-53 -3t-71.5 -9t-106 -19l-51 309q104 31 189 44.5t159 15.5q180 0 302 -44t196 -122t104.5 -185.5t30.5 -234.5q0 -39 -3 -127t-21.5 -195.5 t-58.5 -222t-115.5 -209t-192.5 -155t-287 -60.5t-282.5 34t-179 93.5t-93.5 142.5t-27 181zM551 449q0 -66 21.5 -102t68.5 -36q31 0 56.5 13.5t46 52.5t35 107.5t22.5 181.5q-47 16 -92 16q-82 0 -120 -61.5t-38 -171.5z" />
<glyph unicode="&#x435;" horiz-adv-x="1185" d="M82 395q0 127 35 244t111.5 206t201.5 142t305 53q74 0 143.5 -16t124 -53t88 -96.5t33.5 -145.5q0 -49 -16 -106.5t-75.5 -107.5t-177.5 -88t-320 -48q0 -8 -1.5 -14.5t-1.5 -14.5q0 -41 28 -55t112 -14q66 0 149.5 17t151.5 38l76 -254q-59 -31 -125 -51.5 t-131.5 -32.5t-128 -17.5t-113.5 -5.5q-147 0 -239.5 34t-143.5 91.5t-68.5 134t-17.5 160.5zM541 555q94 4 136 35t42 84q0 25 -13 40t-38 15q-59 0 -91 -45t-36 -129z" />
<glyph unicode="&#x436;" horiz-adv-x="2111" d="M4 154l154 174q27 -14 46 -25.5t44 -21.5q47 51 79.5 85.5t58.5 66.5t52.5 64.5t61.5 80.5q-35 68 -88.5 108.5t-87.5 40.5q-39 0 -88 -27l-113 160q14 33 35.5 65.5t53.5 57.5t75 40t98 15q59 0 129 -42t133.5 -110.5t113.5 -156.5t73 -180l-13 -117q-53 -86 -99 -154.5 t-97 -136.5q-41 -55 -78 -91t-72 -57.5t-69.5 -29.5t-71.5 -8q-88 0 -179.5 53t-150.5 146zM801 0q14 113 26.5 209t22.5 183t20.5 170t20.5 173l-78 15l18 239q70 20 123.5 33.5t94.5 21t75.5 9.5t69.5 2q92 0 138 -47t38 -148q-2 -20 -9 -80.5t-20 -146.5 q-10 -72 -22 -155t-23.5 -168t-22.5 -164.5t-22 -145.5h-450zM1348 440l18 133q51 113 114.5 199t130 145.5t128 90t110.5 30.5q55 0 92 -15t59.5 -40t35 -57.5t18.5 -65.5l-147 -158q-43 27 -80 27q-39 0 -78 -33.5t-74 -91.5q59 -111 107.5 -189.5t95.5 -133.5 q29 10 51.5 21t50.5 26l111 -174q-82 -92 -179 -145.5t-186 -53.5q-78 0 -132 38t-105 146q-33 68 -70 138.5t-71 162.5z" />
<glyph unicode="&#x437;" horiz-adv-x="1142" d="M31 37l80 285q43 -10 88 -18.5t87 -13.5t78.5 -8t63.5 -3q90 0 133 25.5t43 70.5q0 23 -16.5 41t-55.5 18h-90l21 182h49q43 0 64.5 21.5t21.5 46.5q0 59 -88 59q-43 0 -78 -10l-67 -119l-242 23q-10 98 -8 177t41 120q35 37 96 58.5t127.5 32.5t127 14t91.5 3 q135 0 226 -22.5t144.5 -59t76 -84t22.5 -96.5q0 -25 -7 -56.5t-26.5 -64t-52.5 -62.5t-84 -52v-10q55 -14 91 -41t56.5 -57.5t28.5 -63.5t8 -62q0 -66 -32.5 -127t-102 -109t-179.5 -77t-263 -29q-160 0 -285 21.5t-188 46.5z" />
<glyph unicode="&#x438;" horiz-adv-x="1523" d="M90 748l19 219q141 41 241.5 57t167.5 16q113 0 160 -46t47 -132q0 -12 -8 -71.5t-19.5 -131t-19.5 -140t-8 -101.5q0 -29 12 -53.5t53 -24.5t80 51t66 174l59 449l449 -2l-99 -701q35 2 68 10.5t61 18.5l84 -219q-47 -39 -102 -67.5t-110.5 -48t-109 -29t-96.5 -9.5 q-133 0 -185 52.5t-52 156.5h-10q-49 -59 -99.5 -98t-99.5 -61.5t-97 -31t-98 -8.5q-115 0 -188.5 54.5t-73.5 175.5v23.5t2 25.5q16 121 31.5 234.5t32.5 230.5z" />
<glyph unicode="&#x439;" horiz-adv-x="1523" d="M90 748l19 219q141 41 241.5 57t167.5 16q113 0 160 -46t47 -132q0 -12 -8 -71.5t-19.5 -131t-19.5 -140t-8 -101.5q0 -29 12 -53.5t53 -24.5t80 51t66 174l59 449l449 -2l-99 -701q35 2 68 10.5t61 18.5l84 -219q-47 -39 -102 -67.5t-110.5 -48t-109 -29t-96.5 -9.5 q-133 0 -185 52.5t-52 156.5h-10q-49 -59 -99.5 -98t-99.5 -61.5t-97 -31t-98 -8.5q-115 0 -188.5 54.5t-73.5 175.5v23.5t2 25.5q16 121 31.5 234.5t32.5 230.5zM399 1407l170 131q63 -106 138 -150.5t127 -44.5q18 0 43.5 2.5t67.5 18.5t100.5 53t142.5 109l100 -121 q-63 -92 -128.5 -153.5t-130 -98.5t-124 -52.5t-110.5 -15.5q-68 0 -126.5 25t-107.5 68t-90 101t-72 128z" />
<glyph unicode="&#x43a;" horiz-adv-x="1466" d="M61 758l17 219q141 41 235.5 59.5t163.5 18.5q131 0 177 -51.5t46 -143.5q0 -20 -8 -80.5t-20 -146.5q-10 -72 -22.5 -155t-24 -168t-22.5 -164.5t-21 -145.5h-451q14 113 26.5 208t22.5 181t20.5 168t20.5 172zM678 461l18 133q49 109 116 191.5t136.5 139t135 85 t114.5 28.5q51 0 89 -18.5t62.5 -46t38 -58t15.5 -55.5l-170 -160q-43 27 -80 27t-70.5 -22.5t-74.5 -69.5q59 -111 108 -205t96 -149q29 10 51.5 21t51.5 26l110 -174q-82 -92 -179 -145.5t-185 -53.5q-78 0 -130 44t-108 140q-41 72 -75.5 156t-69.5 166z" />
<glyph unicode="&#x43b;" horiz-adv-x="1484" d="M20 20q57 119 117 237t121 237.5t122.5 244.5t127.5 258l598 41l37 -28q12 -106 25.5 -199.5t28.5 -179.5t33.5 -167t41.5 -161q33 4 59.5 14.5t52.5 20.5l80 -219q-100 -80 -204.5 -118t-188.5 -38q-57 0 -97 8.5t-68.5 28.5t-47 55t-31.5 88q-25 109 -36 233t-21 271 h-12q-66 -172 -124.5 -326.5t-129.5 -320.5h-467z" />
<glyph unicode="&#x43c;" horiz-adv-x="2029" d="M20 37q43 125 92.5 258t99.5 262t98 247t91 210l492 41l65 -60q6 -96 11.5 -165.5t9.5 -130t10 -118t17 -126.5l14 2q57 141 113.5 278t126.5 279l495 39l33 -35q-8 -199 -2 -380t24 -337q39 4 63.5 12.5t53.5 18.5l82 -221q-61 -45 -121.5 -74t-117 -46.5t-107.5 -23.5 t-92 -6q-115 0 -161 45t-56 137q-4 55 -7.5 131t7.5 203l-11 2q-29 -63 -49 -111.5t-38.5 -94.5t-37 -94t-42.5 -109l-420 -31l-64 43q-20 113 -28.5 223.5t-18.5 241.5l-10 2q-16 -49 -36.5 -115.5t-42 -139.5t-44.5 -148.5t-43 -145.5h-428z" />
<glyph unicode="&#x43d;" horiz-adv-x="1589" d="M82 748l14 219q141 41 241.5 57t168.5 16q66 0 107.5 -12t65 -33.5t33 -54.5t9.5 -72q0 -20 -7 -81.5t-20 -145.5h236l53 369l467 2l-12 -81t-18.5 -122t-22 -143.5t-21.5 -145t-18 -127t-12 -90.5q35 2 72.5 10.5t66.5 18.5l84 -219q-45 -37 -104.5 -66t-120 -48 t-118 -29.5t-98.5 -10.5q-76 0 -126 15.5t-80.5 45t-43 70.5t-12.5 92q0 14 1 27.5t3 30.5l23 151h-234q-18 -121 -34.5 -228.5t-24.5 -164.5h-465l107 723z" />
<glyph unicode="&#x43e;" horiz-adv-x="1341" d="M82 444q0 133 42 242t125 186.5t204.5 120.5t279.5 43q139 0 241.5 -33.5t170 -95t101.5 -147.5t34 -193q0 -133 -44 -241.5t-128 -186.5t-207 -120t-278 -42q-139 0 -240.5 34t-168.5 95.5t-99.5 147.5t-32.5 190zM559 430q0 -63 20.5 -100t73.5 -37q72 0 109 79t37 208 q0 63 -20.5 99t-73.5 36q-41 0 -69 -25.5t-45.5 -66.5t-24.5 -92.5t-7 -100.5z" />
<glyph unicode="&#x43f;" horiz-adv-x="1544" d="M82 745l14 220q72 23 128.5 37t102.5 22t82.5 11t71.5 3q68 0 109 -13t62.5 -36.5t28.5 -55.5t7 -69v-29.5t-4 -33.5h10q55 76 115.5 123t118 72.5t108.5 34.5t88 9q113 0 181.5 -67.5t68.5 -200.5q0 -25 -6 -82t-15.5 -126.5t-18.5 -140.5t-13 -120q35 2 62.5 10.5 t56.5 18.5l84 -219q-51 -41 -110.5 -70t-120 -47.5t-116 -27.5t-96.5 -9q-76 0 -122 14.5t-71.5 41t-33.5 66.5t-8 91v24.5t4 36.5q4 39 12 96.5t16.5 114t14.5 103.5t6 69q0 29 -13.5 53.5t-54.5 24.5q-53 0 -94 -61.5t-67 -163.5l-60 -469h-458q12 109 20 176.5 t14.5 113.5t10.5 81t9 78t12 105t18 163z" />
<glyph unicode="&#x440;" horiz-adv-x="1431" d="M-12 -436l37 295h104q12 96 26.5 213.5t29 235.5t26.5 224.5t20 182.5l-151 28l14 218q96 39 204 59t194 20q111 0 151.5 -47t40.5 -125v-32.5t-4 -32.5h10q98 121 193.5 177t195.5 56q133 0 212 -91t79 -283q0 -143 -36 -270.5t-106.5 -221.5t-177 -148.5t-245.5 -54.5 q-98 0 -193 37l-18 -145h133l-35 -295h-704zM645 311q33 -10 60.5 -12t46.5 -2q45 0 76.5 23.5t52 61.5t30 84t9.5 93q0 68 -21.5 99.5t-56.5 31.5q-23 0 -45.5 -9t-46 -36t-45 -75t-41.5 -121z" />
<glyph unicode="&#x441;" horiz-adv-x="1126" d="M82 401q0 68 11 141.5t38 144.5t72 135.5t112.5 112.5t160.5 76.5t216 28.5q72 0 145.5 -10t110.5 -26q63 -25 90 -60t27 -82q0 -29 -6 -65.5t-16.5 -76.5t-23.5 -81t-28 -76l-248 12v142q-6 2 -13 2h-13q-74 0 -115 -65.5t-41 -184.5q0 -94 41 -130t115 -36 q41 0 106.5 8t124.5 21l66 -279q-43 -18 -100.5 -33.5t-119 -25.5t-123 -15.5t-114.5 -5.5q-145 0 -238.5 34t-145.5 92.5t-71.5 136t-19.5 165.5z" />
<glyph unicode="&#x442;" horiz-adv-x="2152" d="M82 745l14 220q72 23 128.5 37t102.5 22t82.5 11t71.5 3q68 0 109 -13t62.5 -36.5t28.5 -55.5t7 -69v-29.5t-4 -33.5h10q55 76 111.5 123t109 72.5t100.5 34.5t85 9q80 0 139 -32.5t82 -104.5q6 -18 8 -39.5t2 -48.5l15 2q53 68 106 112t103.5 68.5t95.5 33.5t82 9 q113 0 181 -67.5t68 -200.5q0 -25 -6 -82t-15 -126.5t-18.5 -140.5t-13.5 -120q35 2 62.5 10.5t56.5 18.5l84 -219q-51 -41 -109.5 -70t-116 -47.5t-111.5 -27.5t-95 -9q-76 0 -123 14.5t-74.5 41t-38 66.5t-10.5 91v24.5t4 36.5q4 39 12.5 96.5t16.5 114t14 103.5t6 69 q0 29 -8 53.5t-49 24.5q-47 0 -84 -65.5t-55 -159.5q-18 -143 -29.5 -233.5t-19 -141.5t-9.5 -71.5t-2 -22.5h-456q6 53 10 90t8 65.5t7 53t7 53.5q16 141 27.5 233.5t11.5 120.5q0 29 -8 53.5t-49 24.5q-47 0 -84 -65.5t-55 -159.5l-60 -469h-458q12 109 20 176.5 t14.5 113.5t10.5 81t9 78t12 105t18 163z" />
<glyph unicode="&#x443;" horiz-adv-x="1396" d="M-195 -193.5q0 13.5 5 29.5l178 88q53 -66 107.5 -88t129.5 -22q61 0 136 25.5t133 68.5q-25 94 -54.5 198.5t-60.5 207t-61.5 197.5t-57.5 171l-143 -23l-64 203q113 90 220.5 131t189.5 41q94 0 137 -54t70 -165l116 -481h19q25 33 42 80t29.5 98t18.5 104.5t4 102.5 l-111 -6l-34 202q98 63 190 98.5t197 35.5q90 0 147.5 -55.5t57.5 -196.5q0 -133 -48.5 -279.5t-132.5 -287t-197.5 -267.5t-246.5 -224t-277.5 -153.5t-289.5 -56.5q-27 0 -85.5 5t-116.5 28.5t-102.5 74t-44.5 142.5v27.5z" />
<glyph unicode="&#x444;" horiz-adv-x="1798" d="M82 449q0 131 45 238.5t129 185t207 120.5t280 47l19 150l-182 27l14 219q141 41 244.5 57t171.5 16q131 0 180 -44t49 -128q0 -23 -8 -97.5t-25 -199.5q137 -2 236.5 -35.5t165 -94t97.5 -145.5t32 -192q0 -129 -43 -236.5t-128 -185t-209 -122.5t-284 -49l-16 -134h117 l-35 -282h-693l35 282h115l16 136q-166 4 -269 48t-161.5 110.5t-79 147.5t-20.5 161zM520 461q0 -94 37 -135t92 -50l58 465q-47 -6 -82 -31.5t-58.5 -63.5t-35 -86t-11.5 -99zM1110 276q37 4 69.5 22.5t58.5 54.5t41 87t15 123q0 70 -27.5 120t-99.5 58z" />
<glyph unicode="&#x445;" horiz-adv-x="1411" d="M35 213l2 53l409 256l-86 142l-155 -41l-103 211q133 117 244 160.5t203 43.5q66 0 116 -23.5t97 -101.5l65 -112l246 239l51 2l222 -258l-5 -45l-358 -235q27 -47 48.5 -82t49.5 -84q41 12 71 25.5t65 35.5l163 -192q-55 -78 -117.5 -127t-124 -77t-115.5 -38t-93 -10 q-102 0 -160.5 42t-112.5 136l-51 90l-305 -278l-41 -2z" />
<glyph unicode="&#x446;" horiz-adv-x="1630" d="M90 748l19 219q141 41 241.5 57t167.5 16q113 0 160 -46t47 -132q0 -12 -8 -72.5t-19.5 -134t-19.5 -143.5t-8 -102q0 -29 12 -53.5t53 -24.5t80 51t66 174l59 457l449 -2q-12 -86 -25.5 -181.5t-27 -189.5t-26 -182t-20.5 -156q18 0 41 5t47.5 11.5t46 13.5t35.5 11 l160 -176l-152 -571h-309l-14 24q12 39 31.5 88t40 99.5t41 98.5t36.5 87l-12 10q-53 -25 -105.5 -35t-84.5 -10q-133 0 -188.5 52t-55.5 157h-10q-49 -59 -99.5 -98t-99.5 -61.5t-97 -31t-98 -8.5q-115 0 -188.5 54.5t-73.5 175.5v23.5t2 25.5l64 473z" />
<glyph unicode="&#x447;" horiz-adv-x="1548" d="M90 750l19 219q141 41 241.5 57t167.5 16q113 0 160 -39.5t47 -138.5q0 -10 -4 -39.5t-10 -63.5t-10.5 -65.5t-4.5 -44.5q0 -35 15.5 -57.5t54.5 -22.5q35 0 69.5 37t55.5 113l33 293h462q-6 -45 -15 -126t-20.5 -179.5t-23.5 -205t-22 -200.5q35 2 72.5 10.5t66.5 18.5 l84 -219q-45 -37 -104.5 -66t-120 -48t-118 -29.5t-98.5 -10.5q-74 0 -123 15.5t-79.5 43t-44 65.5t-13.5 83q0 6 2 33.5t6.5 61.5t7.5 66.5t7 49.5l-8 6q-94 -102 -196.5 -144t-178.5 -42q-117 0 -187.5 49t-70.5 160q0 14 4 52t10 84t12.5 93t12.5 82z" />
<glyph unicode="&#x448;" horiz-adv-x="2162" d="M82 748l18 219q141 41 241.5 57t168.5 16q113 0 160 -46t47 -132q0 -33 -9.5 -99.5t-19.5 -138t-19.5 -136t-9.5 -91.5q0 -29 8.5 -53.5t49.5 -24.5q47 0 84 66t55 160q18 143 29.5 233t18.5 141.5t9 71t2 23.5h457q-6 -53 -10 -90t-8 -66t-7.5 -53.5l-7.5 -52.5 q-16 -141 -27.5 -233.5t-11.5 -121.5t8.5 -53.5t49.5 -24.5q47 0 84 66t55 160l59 469h472l-99 -701q35 2 68 10.5t61 18.5l84 -219q-47 -39 -102 -67.5t-110.5 -48t-109 -29t-96.5 -9.5q-137 0 -191 51.5t-54 124.5v32t4 36h-10q-55 -76 -111.5 -123t-109 -72.5t-100.5 -35 t-85 -9.5q-80 0 -139.5 33t-81.5 105q-6 18 -8 39.5t-2 48.5l-15 -2q-53 -68 -106 -112t-103.5 -68.5t-95.5 -34t-82 -9.5q-113 0 -181.5 68t-68.5 201q0 29 6.5 89t15.5 130.5t18 140.5t16 119z" />
<glyph unicode="&#x449;" horiz-adv-x="2248" d="M82 748l18 219q141 41 241.5 57t168.5 16q113 0 160 -46t47 -132q0 -33 -9.5 -99.5t-19.5 -138t-19.5 -136t-9.5 -91.5q0 -29 8.5 -53.5t49.5 -24.5q47 0 84 66t55 160q18 143 29.5 233t18.5 141.5t9 71t2 23.5h457q-6 -53 -10 -90t-8 -66t-7.5 -53.5l-7.5 -52.5 q-16 -141 -27.5 -233.5t-11.5 -121.5t8.5 -53.5t49.5 -24.5t78 57.5t63 180.5l60 457l448 -2q-12 -86 -25.5 -181.5t-26.5 -189.5t-25.5 -182t-20.5 -156q18 0 40.5 5t47 11.5t46 13.5t36.5 11l159 -176l-153 -571h-309l-15 24q12 39 31.5 88t40 99.5t42 98.5t38.5 87 l-12 10q-53 -25 -105.5 -35t-85.5 -10q-133 0 -188.5 52t-55.5 157h-10q-49 -59 -98 -97t-97.5 -59.5t-96.5 -30t-97 -8.5q-80 0 -139.5 33t-81.5 105q-6 18 -8 39.5t-2 48.5l-15 -2q-53 -68 -106 -112t-103.5 -68.5t-95.5 -34t-82 -9.5q-113 0 -181.5 68t-68.5 201 q0 29 6.5 89t15.5 130.5t18 140.5t16 119z" />
<glyph unicode="&#x44a;" horiz-adv-x="1583" d="M31 651q2 104 6 181t26.5 129.5t70.5 78t138 25.5q66 0 164.5 -3t201.5 -7t194.5 -8.5t144.5 -4.5l37 -102q-12 -12 -37 -43t-52.5 -71t-53 -83t-40.5 -79l13 -9q94 86 190 122t176 36q137 0 221.5 -84t84.5 -231q0 -100 -44.5 -195.5t-132.5 -170.5t-218 -120t-304 -45 q-139 0 -235.5 28t-155.5 76t-86 110.5t-27 133.5q0 55 11.5 113.5t31 116t45 111t52.5 98.5l-146 -13l-61 -120zM791 334q0 -27 11 -41t25.5 -21.5t28.5 -9.5t23 -2q37 0 63.5 17.5t45 44t27.5 58.5t9 62q0 76 -68 76q-12 0 -30.5 -6t-40 -21.5t-45 -42t-43.5 -69.5 q-6 -25 -6 -45z" />
<glyph unicode="&#x44b;" horiz-adv-x="2201" d="M82 762l6 219q141 41 248.5 57.5t175.5 16.5q131 0 181 -36t50 -114q0 -45 -9 -108.5t-19 -124.5l10 -4q84 70 186.5 108.5t182.5 38.5q137 0 221 -79t84 -226q0 -111 -40 -209t-120 -172t-197.5 -118t-273.5 -44q-39 0 -104.5 2t-143.5 12.5t-161 29t-152 52.5l-23 41 q10 68 28.5 233t45.5 396zM659 287q23 -4 41.5 -7.5t36.5 -3.5q80 0 131.5 36t51.5 106q0 47 -25.5 64.5t-54.5 17.5q-49 0 -95.5 -42t-74.5 -118zM1479 182q0 14 1 27.5t3 30.5l112 770l467 2l-12 -81t-18.5 -122t-21.5 -143.5t-21.5 -145t-18.5 -127t-12 -90.5 q35 2 72.5 10.5t66.5 18.5l84 -219q-45 -37 -104.5 -66t-120 -48t-117.5 -29.5t-98 -10.5q-76 0 -126 15.5t-81 45t-43 70.5t-12 92z" />
<glyph unicode="&#x44c;" horiz-adv-x="1460" d="M82 762l6 219q141 41 248.5 57.5t175.5 16.5q131 0 181 -36t50 -114q0 -45 -9 -108.5t-19 -124.5l10 -4q84 70 186.5 108.5t182.5 38.5q137 0 221 -79t84 -226q0 -111 -40 -209t-120 -172t-197.5 -118t-273.5 -44q-39 0 -104.5 2t-143.5 12.5t-161 29t-152 52.5l-23 41 q10 68 28.5 233t45.5 396zM659 287q23 -4 41.5 -7.5t36.5 -3.5q80 0 131.5 36t51.5 106q0 47 -25.5 64.5t-54.5 17.5q-49 0 -95.5 -42t-74.5 -118z" />
<glyph unicode="&#x44d;" horiz-adv-x="1120" d="M51 37l80 272q72 -16 127 -25.5t109 -9.5q31 0 65.5 4.5t65 19.5t53 42t29.5 74l-156 -2l18 209l146 -7q2 35 -13.5 67t-56.5 46q-12 4 -33.5 7t-46.5 1l-57 -121l-242 23q-4 39 -6 73.5t-2 67.5q0 51 9.5 91t31.5 65q35 37 89 57.5t112.5 30.5t112 12t83.5 2 q135 0 229.5 -39t152 -103.5t83 -149.5t25.5 -179q0 -96 -25.5 -201.5t-92.5 -192.5t-184.5 -144.5t-301.5 -57.5q-135 0 -242 22.5t-162 45.5z" />
<glyph unicode="&#x44e;" horiz-adv-x="1990" d="M82 748l14 219q141 41 241.5 57t168.5 16q66 0 107.5 -12t65 -33.5t33 -54.5t9.5 -72q0 -16 -8 -79.5t-21 -151.5h113q27 90 79 165t127.5 127t175 80.5t222.5 28.5q133 0 231.5 -33.5t163 -94t95 -146.5t30.5 -191q0 -135 -41 -244.5t-120.5 -187.5t-196.5 -121 t-268 -43q-256 0 -391.5 115t-139.5 309h-113q-16 -104 -31.5 -208.5t-27.5 -194.5h-465l107 723zM1239 428q0 -61 18.5 -98t65.5 -37q68 0 102.5 83t34.5 208q0 61 -18.5 97t-67.5 36q-37 0 -62.5 -26.5t-42 -67.5t-23.5 -92.5t-7 -102.5z" />
<glyph unicode="&#x44f;" horiz-adv-x="1462" d="M20 45l297 363q-72 16 -119.5 73.5t-47.5 145.5q0 209 153 311t434 102q61 0 133 -8t146 -22.5t147.5 -36t136.5 -47.5l-81 -623q35 2 72.5 10.5t66.5 18.5l84 -219q-45 -37 -100.5 -66t-113 -48t-110.5 -29.5t-94 -10.5q-152 0 -212 60.5t-60 162.5q0 14 1 27.5t3 30.5 l63 481q-35 18 -74 18q-53 0 -86.5 -26.5t-33.5 -85.5q0 -29 24.5 -47.5t59.5 -26.5l22 -180l-242 -381h-430z" />
<glyph unicode="&#x451;" horiz-adv-x="1185" d="M82 395q0 127 35 244t111.5 206t201.5 142t305 53q74 0 143.5 -16t124 -53t88 -96.5t33.5 -145.5q0 -49 -16 -106.5t-75.5 -107.5t-177.5 -88t-320 -48q0 -8 -1.5 -14.5t-1.5 -14.5q0 -41 28 -55t112 -14q66 0 149.5 17t151.5 38l76 -254q-59 -31 -125 -51.5 t-131.5 -32.5t-128 -17.5t-113.5 -5.5q-147 0 -239.5 34t-143.5 91.5t-68.5 134t-17.5 160.5zM328 1343q6 43 25.5 80t48 63.5t65.5 42t78 15.5q39 0 71.5 -15.5t56 -42t35 -63.5t5.5 -80q-4 -41 -24.5 -77.5t-50.5 -63t-66.5 -42t-75.5 -15.5q-80 0 -129.5 57.5 t-38.5 140.5zM541 555q94 4 136 35t42 84q0 25 -13 40t-38 15q-59 0 -91 -45t-36 -129zM780 1343q6 43 25.5 80t49.5 63.5t66.5 42t77.5 15.5q80 0 128 -57.5t38 -143.5q-4 -41 -23.5 -77.5t-49 -63t-66.5 -42t-76 -15.5q-82 0 -131 57.5t-39 140.5z" />
<glyph unicode="&#x452;" horiz-adv-x="1406" d="M61 1214l21 220q141 41 244.5 57t171.5 16q131 0 181 -42t50 -117q0 -16 -1 -27.5t-3 -32t-6 -55.5t-10 -94h256l-19 -138h-254l-26 -208l12 -7q39 47 86 80t93 52.5t90 28.5t79 9q96 0 158.5 -38.5t98.5 -102t49.5 -144.5t13.5 -163q0 -121 -27 -238.5t-81 -213 t-136 -154t-191 -58.5q-59 0 -123.5 15.5t-142.5 62.5l68 232q10 -2 20 -3t21 -1q20 0 43.5 15t43 55t32 107.5t12.5 172.5q0 53 -21.5 91t-72.5 38q-47 0 -92.5 -53.5t-84.5 -184.5l-49 -391h-461q18 145 33 258t27 223.5t26.5 233.5t34.5 286h-100l18 138h95l6 47z" />
<glyph unicode="&#x453;" horiz-adv-x="1140" d="M72 242q0 72 40 130t102 105t138 87t148 75q61 29 76.5 46t15.5 28q0 29 -41 28q-45 0 -128 -24.5t-175 -61.5l-92 234q119 74 259 110.5t267 36.5q190 0 288.5 -70.5t98.5 -207.5q0 -66 -35 -118t-94 -96t-138 -83t-167 -76q-47 -20 -73.5 -33.5t-26.5 -36.5 q0 -10 9 -22t48 -12q53 0 150.5 24.5t207.5 69.5l101 -244q-68 -43 -144 -74.5t-149.5 -51t-142 -29t-123.5 -9.5q-213 0 -316.5 63.5t-103.5 211.5zM467 1264l383 419l194 -225l-446 -340z" />
<glyph unicode="&#x454;" horiz-adv-x="1126" d="M82 401q0 68 11 141.5t38 144.5t72 135.5t112.5 112.5t160.5 76.5t216 28.5q72 0 145.5 -10t110.5 -26q63 -25 90 -60t27 -82q0 -16 -7 -49t-17.5 -69.5t-21.5 -71.5t-22 -60l-254 17v108q-6 2 -13 2h-13q-53 0 -92 -31.5t-50 -105.5l146 2l-19 -207l-131 4q2 -31 17 -53 q18 -29 53 -42t76 -13t106.5 8t124.5 21l66 -269q-43 -18 -97.5 -33.5t-113 -25.5t-118 -15.5t-112.5 -5.5q-145 0 -240 34t-150.5 92.5t-78 136t-22.5 165.5z" />
<glyph unicode="&#x455;" horiz-adv-x="1234" d="M57 190q0 35 23.5 93.5t77.5 111.5l233 -12l2 -129q23 -10 65 -16.5t79 -6.5q47 0 84.5 13.5t37.5 42.5q0 20 -19 36.5t-51 32t-73 29.5t-86 31q-51 18 -102.5 41.5t-92 54.5t-66.5 72t-28 96q0 80 38 146.5t110.5 114.5t179 74.5t244.5 26.5q61 0 140 -8t147.5 -30.5 t115.5 -60.5t47 -95q0 -16 -10 -44t-27.5 -58.5t-37 -58.5t-37.5 -44l-226 12l-4 121q-18 4 -42.5 8t-51.5 4q-41 0 -71.5 -14t-30.5 -43q0 -20 21.5 -35.5t56 -31t79.5 -31t92 -33.5q51 -20 100.5 -46t87.5 -59.5t62.5 -78.5t26.5 -105q0 -147 -146.5 -241.5t-449.5 -94.5 q-82 0 -170 11.5t-160.5 37t-120 66.5t-47.5 100z" />
<glyph unicode="&#x456;" horiz-adv-x="933" d="M102 748l15 219q141 41 241 57t168 16q66 0 108 -12t65.5 -33.5t32.5 -54.5t9 -72q0 -37 -7 -97t-18 -136t-23.5 -161t-22.5 -171q35 2 72.5 10.5t66.5 18.5l84 -219q-45 -37 -104.5 -66t-120 -48t-117.5 -29.5t-98 -10.5q-76 0 -126.5 15.5t-81 45t-43 70.5t-12.5 92 q0 14 1.5 27.5t3.5 30.5l67 481zM258 1339q0 135 78 216t201 81q49 0 92 -18.5t74.5 -51t50 -77.5t18.5 -96q0 -61 -19.5 -112.5t-55 -90.5t-87 -60.5t-114.5 -21.5q-49 0 -93.5 17.5t-76 49t-50 73.5t-18.5 91z" />
<glyph unicode="&#x457;" horiz-adv-x="933" d="M84 1329q6 43 25.5 80t48 63.5t65.5 42t78 15.5q39 0 72 -15.5t56.5 -42t34.5 -63.5t5 -80q-4 -41 -24.5 -78t-50 -63.5t-66.5 -42t-76 -15.5q-80 0 -129 57.5t-39 141.5zM102 748l15 219q141 41 241 57t168 16q66 0 108 -12t65.5 -33.5t32.5 -54.5t9 -72q0 -37 -7 -97 t-18 -136t-23.5 -161t-22.5 -171q35 2 72.5 10.5t66.5 18.5l84 -219q-45 -37 -104.5 -66t-120 -48t-117.5 -29.5t-98 -10.5q-76 0 -126.5 15.5t-81 45t-43 70.5t-12.5 92q0 14 1.5 27.5t3.5 30.5l67 481zM537 1329q6 43 25.5 80t49 63.5t66.5 42t78 15.5q80 0 128 -57.5 t38 -143.5q-4 -41 -23.5 -78t-49.5 -63.5t-67 -42t-75 -15.5q-82 0 -131.5 57.5t-38.5 141.5z" />
<glyph unicode="&#x458;" horiz-adv-x="819" d="M-123 -186q104 43 161.5 80.5t88.5 84t43 110t25 157.5l53 475l-160 27l14 219q141 41 239.5 57t166.5 16q66 0 108.5 -11t67.5 -32.5t34 -53.5t9 -75q0 -23 -1 -59.5t-7 -108t-19.5 -185.5t-37.5 -290q-20 -160 -67.5 -281.5t-130.5 -210.5t-207 -144.5t-298 -80.5z M248 1339q0 135 77.5 216t200.5 81q49 0 92.5 -18.5t75 -51t50 -77.5t18.5 -96q0 -61 -19.5 -112.5t-55.5 -90.5t-87 -60.5t-115 -21.5q-49 0 -93 17.5t-75.5 49t-50 73.5t-18.5 91z" />
<glyph unicode="&#x459;" horiz-adv-x="1931" d="M20 20q117 240 245 479.5t257 508.5l570 41l36 -29q14 -125 24.5 -210t23.5 -171l6 -2q102 102 204.5 138t182.5 36q133 0 217 -76t84 -243q0 -86 -47 -180.5t-144.5 -173.5t-246 -130t-351.5 -51q-145 0 -207.5 41t-74.5 145t-22.5 226.5t-20.5 287.5h-13 q-66 -172 -124 -331.5t-130 -325.5h-452zM1217 434l20 -155q63 4 108.5 42.5t45.5 90.5q0 45 -19.5 64.5t-46.5 19.5q-29 0 -59.5 -17.5t-48.5 -44.5z" />
<glyph unicode="&#x45a;" horiz-adv-x="2140" d="M82 748l14 219q141 41 241.5 57t168.5 16q66 0 107.5 -12t65 -33.5t33 -54.5t9.5 -72q0 -20 -7 -81.5t-20 -145.5h242q14 98 25.5 193.5t21.5 177.5h465q-6 -41 -12 -88t-12.5 -93.5t-12.5 -87.5t-12 -71l10 -4q86 70 185.5 108.5t179.5 38.5q137 0 221 -79t84 -226 q0 -111 -40 -209t-120 -172t-197.5 -118t-273.5 -44q-39 0 -104.5 2t-143.5 12.5t-161 29t-152 52.5l-23 41l39 287h-244q-18 -121 -34.5 -228.5t-24.5 -164.5h-465l107 723zM1339 287q23 -4 41.5 -7.5t36.5 -3.5q80 0 131 36t51 106q0 47 -25 64.5t-54 17.5 q-49 0 -95.5 -42t-74.5 -118z" />
<glyph unicode="&#x45b;" horiz-adv-x="1509" d="M61 1214l21 220q141 41 247.5 57t174.5 16q74 0 119 -13t69.5 -38.5t32.5 -61.5t8 -81q0 -12 -5 -60.5t-13 -113.5h291l-19 -138h-289q-8 -63 -16 -125.5t-18 -119.5l8 -6q94 100 198.5 143t180.5 43q143 0 202.5 -64.5t59.5 -199.5q0 -25 -4 -67t-10.5 -92t-12.5 -105.5 t-10 -104.5q35 2 67.5 10.5t61.5 18.5l84 -219q-51 -41 -110.5 -70t-120 -47.5t-116 -27.5t-95.5 -9q-76 0 -124.5 15.5t-76 45t-38.5 70.5t-11 92q0 14 1 27.5t3 30.5q4 27 9 69.5t10 83.5t9.5 75t4.5 42q0 82 -68 82q-39 0 -82 -46t-72 -155l-43 -391h-463q33 274 61 515 t56 486h-98l18 138h95l6 47z" />
<glyph unicode="&#x45c;" horiz-adv-x="1466" d="M61 758l17 219q141 41 235.5 59.5t163.5 18.5q131 0 177 -51.5t46 -143.5q0 -20 -8 -80.5t-20 -146.5q-10 -72 -22.5 -155t-24 -168t-22.5 -164.5t-21 -145.5h-451q14 113 26.5 208t22.5 181t20.5 168t20.5 172zM649 1264l383 419l195 -225l-447 -340zM678 461l18 133 q49 109 116 191.5t136.5 139t135 85t114.5 28.5q51 0 89 -18.5t62.5 -46t38 -58t15.5 -55.5l-170 -160q-43 27 -80 27t-70.5 -22.5t-74.5 -69.5q59 -111 108 -205t96 -149q29 10 51.5 21t51.5 26l110 -174q-82 -92 -179 -145.5t-185 -53.5q-78 0 -130 44t-108 140 q-41 72 -75.5 156t-69.5 166z" />
<glyph unicode="&#x45e;" horiz-adv-x="1396" d="M-195 -193.5q0 13.5 5 29.5l178 88q53 -66 107.5 -88t129.5 -22q61 0 136 25.5t133 68.5q-25 94 -54.5 198.5t-60.5 207t-61.5 197.5t-57.5 171l-143 -23l-64 203q113 90 220.5 131t189.5 41q94 0 137 -54t70 -165l116 -481h19q25 33 42 80t29.5 98t18.5 104.5t4 102.5 l-111 -6l-34 202q98 63 190 98.5t197 35.5q90 0 147.5 -55.5t57.5 -196.5q0 -133 -48.5 -279.5t-132.5 -287t-197.5 -267.5t-246.5 -224t-277.5 -153.5t-289.5 -56.5q-27 0 -85.5 5t-116.5 28.5t-102.5 74t-44.5 142.5v27.5zM383 1464l170 131q63 -106 138 -150t126 -44 q18 0 44 2t68 18.5t100 53t142 108.5l101 -121q-63 -92 -129 -153.5t-130.5 -98t-124 -52t-110.5 -15.5q-68 0 -126 24.5t-107 67.5t-90 101.5t-72 127.5z" />
<glyph unicode="&#x45f;" horiz-adv-x="1523" d="M90 748l19 219q141 41 241.5 57t167.5 16q113 0 160 -46t47 -132q0 -12 -8 -72.5t-19.5 -134t-19.5 -143.5t-8 -102q0 -29 12 -53.5t53 -24.5t80 51t66 174l59 457l449 -2q-12 -86 -25.5 -181.5t-27 -189.5t-26 -182t-20.5 -156q35 2 68 10.5t61 18.5l84 -219 q-47 -39 -102 -68t-110.5 -48.5t-109 -28.5t-96.5 -9q-133 0 -185 52t-52 157h-10q-49 -59 -99.5 -98t-99.5 -61.5t-97 -31t-98 -8.5q-115 0 -188.5 54.5t-73.5 175.5v23.5t2 25.5l64 473zM559 -498q29 137 55.5 253t65.5 214l246 -39l-49 -444l-306 -4z" />
<glyph unicode="&#x490;" horiz-adv-x="1474" d="M39 0l37 305h149l99 811h-150l39 303h1038l39 273h316l-72 -576h-729l-98 -811h178l-37 -305h-809z" />
<glyph unicode="&#x491;" horiz-adv-x="1202" d="M92 727l35 285h756l75 270l234 -2l10 -326q2 -86 -18.5 -132t-52 -67.5t-65.5 -24.5t-54 -3h-332l-88 -727h-479l92 727h-113z" />
<glyph unicode="&#x4d9;" horiz-adv-x="1185" d="M84 287q0 49 16.5 106.5t76 107.5t177 88t320.5 48q0 8 1 14t1 15q0 41 -27.5 55t-111.5 14q-66 0 -150 -17.5t-151 -37.5l-76 254q57 31 123.5 51.5t132 32.5t128 17t113.5 5q147 0 239.5 -36.5t144 -98t68.5 -141.5t17 -164q0 -127 -34.5 -240.5t-111.5 -198.5 t-202 -135.5t-305 -50.5q-74 0 -143.5 16.5t-123.5 53.5t-88 96.5t-34 145.5zM489 342q0 -25 13.5 -40t38.5 -15q59 0 91 45t36 129q-94 -4 -136.5 -35t-42.5 -84z" />
<glyph unicode="&#x2000;" horiz-adv-x="1035" />
<glyph unicode="&#x2001;" horiz-adv-x="2071" />
<glyph unicode="&#x2002;" horiz-adv-x="1035" />
<glyph unicode="&#x2003;" horiz-adv-x="2071" />
<glyph unicode="&#x2004;" horiz-adv-x="690" />
<glyph unicode="&#x2005;" horiz-adv-x="517" />
<glyph unicode="&#x2006;" horiz-adv-x="345" />
<glyph unicode="&#x2007;" horiz-adv-x="345" />
<glyph unicode="&#x2008;" horiz-adv-x="258" />
<glyph unicode="&#x2009;" horiz-adv-x="414" />
<glyph unicode="&#x200a;" horiz-adv-x="115" />
<glyph unicode="&#x2010;" horiz-adv-x="868" d="M133 412l39 309h598l-39 -309h-598z" />
<glyph unicode="&#x2011;" horiz-adv-x="868" d="M133 412l39 309h598l-39 -309h-598z" />
<glyph unicode="&#x2012;" horiz-adv-x="868" d="M133 412l39 309h598l-39 -309h-598z" />
<glyph unicode="&#x2013;" horiz-adv-x="993" d="M100 397l33 267h782l-32 -267h-783z" />
<glyph unicode="&#x2014;" horiz-adv-x="1986" d="M145 397l33 265h1688l-33 -265h-1688z" />
<glyph unicode="&#x2018;" horiz-adv-x="643" d="M174 1004q0 82 33 162.5t88 151.5t128 128t150 94l95 -154q-68 -49 -110 -96t-60 -116q66 -16 94.5 -58.5t28.5 -105.5q0 -47 -17.5 -89t-49.5 -74t-77 -50.5t-100 -18.5t-94 19.5t-63.5 50.5t-35 72t-10.5 84z" />
<glyph unicode="&#x2019;" horiz-adv-x="643" d="M162 932q68 49 109.5 96t60.5 117q-66 16 -94.5 58t-28.5 106q0 47 17.5 89t49 73.5t77 50t100.5 18.5t94 -19.5t63.5 -50t34.5 -71.5t10 -84q0 -84 -32.5 -164t-88 -150.5t-128 -128t-150.5 -94.5z" />
<glyph unicode="&#x201a;" horiz-adv-x="694" d="M35 -170q68 49 110.5 96t59.5 117q-55 8 -88 50t-33 106q0 47 16.5 90t47 76.5t76 53t102.5 19.5q55 0 94 -20.5t63.5 -53t35.5 -75.5t11 -88q0 -82 -36.5 -162t-95 -149.5t-129 -125t-138.5 -88.5z" />
<glyph unicode="&#x201c;" horiz-adv-x="1097" d="M164 1004q0 82 32.5 162.5t88 151.5t128 128t150.5 94l94 -154q-68 -49 -109.5 -96t-60.5 -116q66 -16 94.5 -58.5t28.5 -105.5q0 -47 -17.5 -89t-49 -74t-76.5 -50.5t-100 -18.5t-94.5 19.5t-64 50.5t-34.5 72t-10 84zM637 1004q0 82 32.5 162.5t88 151.5t128 128 t150.5 94l94 -154q-68 -49 -109.5 -96t-59.5 -116q66 -16 94 -58.5t28 -105.5q0 -47 -17 -89t-49 -74t-77 -50.5t-100 -18.5t-94 19.5t-64 50.5t-35 72t-10 84z" />
<glyph unicode="&#x201d;" horiz-adv-x="1097" d="M152 932q68 49 109.5 96t60.5 117q-66 16 -94.5 58t-28.5 106q0 47 17 89t49 73.5t77 50t100 18.5t94 -19.5t64 -50t35 -71.5t10 -84q0 -84 -32.5 -164t-88 -150.5t-128 -128t-150.5 -94.5zM625 932q68 49 109.5 96t60.5 117q-66 16 -94.5 58t-28.5 106q0 47 17.5 89 t49 73.5t76.5 50t100 18.5t94.5 -19.5t64 -50t34.5 -71.5t10 -84q0 -84 -32.5 -164t-88 -150.5t-128 -128t-150.5 -94.5z" />
<glyph unicode="&#x201e;" horiz-adv-x="1216" d="M35 -170q68 49 110.5 96t59.5 117q-55 8 -88 50t-33 106q0 47 16.5 90t47 76.5t76 53t102.5 19.5q55 0 94 -20.5t63.5 -53t35.5 -75.5t11 -88q0 -82 -36.5 -162t-95 -149.5t-129 -125t-138.5 -88.5zM555 -170q68 49 111 96t59 117q-55 8 -88 50t-33 106q0 47 16.5 90 t47 76.5t76 53t102.5 19.5q55 0 94 -20.5t63.5 -53t36 -75.5t11.5 -88q0 -82 -37 -162t-95.5 -149.5t-129 -125t-138.5 -88.5z" />
<glyph unicode="&#x2022;" horiz-adv-x="1038" d="M184 543q0 70 27 130t72 105t106.5 72t130.5 27q70 0 130.5 -27t105.5 -72t71.5 -105t26.5 -130t-26.5 -131.5t-71.5 -106.5t-105.5 -71.5t-130.5 -26.5t-131 26.5t-106 71.5t-72 106.5t-27 131.5z" />
<glyph unicode="&#x2026;" horiz-adv-x="1896" d="M94 182q0 55 21.5 101.5t57.5 80t82 53t95 19.5q86 0 140.5 -59.5t54.5 -147.5q0 -55 -21.5 -101t-56.5 -80t-80 -53.5t-94 -19.5q-86 0 -142.5 59.5t-56.5 147.5zM692 182q0 55 21.5 101.5t57.5 80t82 53t95 19.5q86 0 140.5 -59.5t54.5 -147.5q0 -55 -21.5 -101 t-56.5 -80t-80 -53.5t-94 -19.5q-86 0 -142.5 59.5t-56.5 147.5zM1300 182q0 55 21.5 101.5t57.5 80t82 53t95 19.5q86 0 140.5 -59.5t54.5 -147.5q0 -55 -21.5 -101t-56.5 -80t-80 -53.5t-94 -19.5q-86 0 -142.5 59.5t-56.5 147.5z" />
<glyph unicode="&#x202f;" horiz-adv-x="414" />
<glyph unicode="&#x2039;" horiz-adv-x="792" d="M84 393l10 76l447 434l172 -129l-260 -342l170 -334l-209 -139z" />
<glyph unicode="&#x203a;" horiz-adv-x="792" d="M55 98l250 334l-172 342l205 129l340 -434l-10 -76l-437 -434z" />
<glyph unicode="&#x205f;" horiz-adv-x="517" />
<glyph unicode="&#x20ac;" d="M57 516l17 131h878l-16 -131h-301q16 -98 80.5 -135t150.5 -37q12 0 22.5 1t22.5 1l13 90h297l-52 -405q-92 -27 -197.5 -41.5t-199.5 -14.5q-170 0 -285.5 44t-187.5 119t-102.5 172.5t-32.5 205.5h-107zM84 723l16 139h105q20 119 69.5 219.5t136.5 172t216 111.5 t309 40q94 0 191.5 -14.5t181.5 -40.5l-49 -404h-297l12 105q-14 4 -26.5 4h-28.5q-104 0 -164 -49.5t-88 -143.5h311l-16 -139h-879z" />
<glyph unicode="&#x2122;" horiz-adv-x="2084" d="M115 1116v303h803v-303h-181v137h-88v-440h90v-166h-450v166h92v440h-88v-137h-178zM946 649v164h86v442h-86v164h426l72 -155l82 -183h2l76 187l63 151h430v-164h-72v-442h72v-164h-395v164h61v285h-4l-61 -148l-60 -147h-217l-71 151l-64 144h-2v-285h68v-164h-406z " />
<glyph unicode="&#x25fc;" horiz-adv-x="1044" d="M0 0v1044h1044v-1044h-1044z" />
</font>
</defs>
</svg>
