<?xml version="1.0" standalone="no"?>
<!DOCTYPE svg PUBLIC "-//W3C//DTD SVG 1.1//EN" "http://www.w3.org/Graphics/SVG/1.1/DTD/svg11.dtd" >
<svg xmlns="http://www.w3.org/2000/svg" xmlns:xlink="http://www.w3.org/1999/xlink" version="1.1">
<metadata></metadata>
<defs>
<font id="pf_agora_slab_proMdIt" horiz-adv-x="1142" >
<font-face units-per-em="2048" ascent="1536" descent="-512" />
<missing-glyph horiz-adv-x="559" />
<glyph horiz-adv-x="0" />
<glyph horiz-adv-x="682" />
<glyph unicode=" "  horiz-adv-x="559" />
<glyph unicode="&#x09;" horiz-adv-x="559" />
<glyph unicode="&#xa0;" horiz-adv-x="559" />
<glyph unicode="!" horiz-adv-x="495" d="M84 78q0 61 38 102t97 41q53 0 82 -33.5t29 -89.5q0 -53 -43 -85.5t-97 -32.5q-47 0 -76.5 27.5t-29.5 70.5zM168 365l100 1067h203l-156 -1067h-147z" />
<glyph unicode="&#x22;" horiz-adv-x="618" d="M238 956l24 451h180l-88 -451h-116zM473 956l25 451h180l-84 -451h-121z" />
<glyph unicode="#" horiz-adv-x="1103" d="M98 401l29 113h158l108 313h-162l27 111h172l123 356h123l-121 -356h264l123 356h123l-123 -356h143l-28 -111h-152l-108 -313h155l-28 -113h-166l-133 -401h-123l131 401h-262l-135 -401h-123l133 401h-148zM412 514h262l104 313h-262z" />
<glyph unicode="$" d="M100 106q10 70 18.5 139.5t18.5 139.5h129l-18 -168q43 -23 86 -32t86 -15l59 483q-57 20 -106 48t-84 65t-55.5 87t-20.5 118q0 88 28.5 156.5t78 116.5t113 78t134.5 42l17 139h78l-203 -1657h-80q6 41 11 83t11 79q-78 10 -156.5 32.5t-144.5 65.5zM385 991 q2 -68 33 -100.5t84 -54.5l45 368q-66 -16 -113 -66.5t-49 -144.5v-2zM524 -154q53 414 103.5 826.5t101.5 830.5h78l-16 -133q55 -6 123.5 -24.5t121.5 -53.5q-10 -68 -18 -137.5t-17 -138.5h-131l23 166q-27 14 -57.5 22t-63.5 13l-55 -453q57 -23 111.5 -50.5t97.5 -65.5 t68.5 -91t25.5 -129q0 -92 -29.5 -165t-83 -124t-125 -81.5t-157.5 -43.5q-6 -39 -11.5 -83t-11.5 -85h-78zM643 178q88 16 143.5 72.5t55.5 161.5q0 70 -40 108.5t-110 67.5z" />
<glyph unicode="%" horiz-adv-x="1699" d="M119 852q0 66 15.5 156t57 171t117.5 138t199 57q86 0 143.5 -26.5t90 -71.5t46 -103.5t13.5 -121.5q0 -84 -17.5 -175.5t-61.5 -167t-119 -123.5t-187 -48q-86 0 -143.5 24.5t-91.5 67.5t-48 100t-14 123zM281 840q0 -80 31.5 -129t117.5 -49q61 0 101 36.5t63.5 92 t34 122t10.5 127.5q0 39 -5 76t-20.5 65.5t-42 47t-67.5 18.5q-78 0 -122 -50t-66.5 -117.5t-28.5 -136.5t-6 -103zM494 -43l794 1485h131l-790 -1485h-135zM1061 305q0 68 15.5 158t58.5 171t118.5 138t198.5 57q86 0 143.5 -27.5t90 -71.5t46 -102.5t13.5 -119.5 q0 -86 -18.5 -178t-62.5 -167t-117.5 -123t-186.5 -48q-86 0 -143.5 24.5t-92 67.5t-49 100.5t-14.5 120.5zM1225 293q0 -78 31.5 -126t117.5 -48q61 0 101.5 35.5t64 91t33.5 122t10 128.5q0 39 -5 75.5t-20.5 65.5t-42 47t-67.5 18q-78 0 -122 -50t-66.5 -117.5 t-28.5 -136t-6 -105.5z" />
<glyph unicode="&#x26;" horiz-adv-x="1789" d="M68 662q18 129 76.5 263t160 242.5t247.5 178t343 69.5q172 0 292 -51t194.5 -136t109.5 -193.5t35 -223.5q0 -53 -7.5 -108.5t-19.5 -108.5q57 0 99 6t73 19.5t54.5 35t46.5 52.5q16 -20 35.5 -40t39.5 -40q-53 -84 -134 -125t-214 -41q-10 0 -21.5 1t-23.5 1 q-43 -102 -112.5 -191.5t-160.5 -157t-200 -106.5t-231 -39q-119 0 -202 33t-135.5 90.5t-76 131t-23.5 157.5q0 154 42 270.5t107.5 194.5t145.5 116.5t156 38.5q53 0 95 -17t70.5 -44t44 -61.5t15.5 -67.5q0 -39 -15.5 -86t-72.5 -94v-4q88 18 166 18q59 0 127 -8t139 -25 q14 47 18.5 93.5t4.5 91.5q0 102 -28 190t-86 151.5t-148 99.5t-213 36q-147 0 -262 -54.5t-198 -142.5t-135.5 -200.5t-74.5 -231.5q-37 4 -73 8t-70 9zM492 406q0 -147 75.5 -222t216.5 -75q72 0 146 27.5t141.5 76.5t123.5 118.5t91 153.5q-135 35 -252 35 q-135 0 -282 -51q-23 12 -33 46t-23 63q123 88 123 163q0 41 -24.5 63.5t-59.5 22.5q-37 0 -80 -22.5t-78.5 -72.5t-60 -131t-24.5 -195z" />
<glyph unicode="'" horiz-adv-x="421" d="M217 956l25 451h182l-88 -451h-119z" />
<glyph unicode="(" horiz-adv-x="606" d="M129 385q0 205 45 376t110.5 306t140.5 233.5t134 159.5l80 -63q-33 -43 -88 -135.5t-109.5 -228.5t-93.5 -313t-39 -390q0 -123 14.5 -220.5t34 -173t41 -130t37.5 -89.5l-100 -65q-33 45 -69 115.5t-66.5 164t-51 207t-20.5 246.5z" />
<glyph unicode=")" horiz-adv-x="608" d="M-16 -281q31 43 88 133.5t112.5 225.5t96.5 314.5t41 400.5q0 119 -14.5 216t-36 172.5t-44 130t-37.5 87.5l97 61q35 -49 72.5 -119.5t68.5 -162t51.5 -202t20.5 -235.5q0 -211 -48.5 -387t-116 -314t-142 -235.5t-127.5 -152.5z" />
<glyph unicode="*" horiz-adv-x="800" d="M178 1120q8 41 33 96.5t47 86.5l191 -119q-2 25 -4.5 55.5t-4.5 62t-4 62.5t-4 55q16 4 42 6t52.5 2t51 -2t40.5 -6q-8 -25 -17 -55.5t-19.5 -62t-20.5 -62.5t-18 -55l225 108q18 -33 27.5 -87t5.5 -101l-242 -19q31 -33 74 -81t74 -80q-27 -31 -75 -65t-85 -48l-72 219 l-125 -217q-33 12 -73.5 45t-61.5 66l191 166z" />
<glyph unicode="+" d="M201 545l18 141h326l41 334h141l-41 -334h322l-17 -141h-321l-43 -346h-142l41 346h-325z" />
<glyph unicode="," horiz-adv-x="462" d="M10 -172q47 39 77 77t44 95q-35 8 -53.5 33.5t-18.5 62.5q0 55 38.5 99.5t101.5 44.5q55 0 85.5 -39t30.5 -97q0 -49 -22.5 -100t-59 -98t-84 -85t-96.5 -63z" />
<glyph unicode="-" horiz-adv-x="749" d="M115 461l20 168h529l-23 -168h-526z" />
<glyph unicode="." horiz-adv-x="458" d="M59 92q0 61 42.5 103.5t97.5 42.5q49 0 79.5 -34t30.5 -83q0 -31 -12 -56.5t-31.5 -44t-44 -29.5t-51.5 -11q-47 0 -79 32.5t-32 79.5z" />
<glyph unicode="/" horiz-adv-x="694" d="M-37 -61l696 1501h144l-697 -1501h-143z" />
<glyph unicode="0" d="M86 496q0 74 9 169t33 193t64.5 192.5t105 168t156 118.5t216.5 45q135 0 222 -49t136 -129t67.5 -182t18.5 -207q0 -139 -28.5 -285.5t-95 -267.5t-177.5 -198.5t-274 -77.5q-129 0 -215 41t-138.5 110.5t-75 162.5t-24.5 196zM295 481q2 -72 15.5 -133t43 -106 t78.5 -70t123 -25q100 0 168 64.5t107.5 164t56 219.5t16.5 230q0 70 -9 139.5t-36 126t-73.5 91.5t-122.5 35q-86 0 -147.5 -43.5t-101.5 -111t-63.5 -151.5t-36 -165.5t-15.5 -152.5t-3 -112z" />
<glyph unicode="1" d="M143 0l17 150h284l127 1013l-315 -45l-8 123l366 121h189l-150 -1212h275l-19 -150h-766z" />
<glyph unicode="2" d="M31 0l14 137q68 57 151 125t166.5 142.5t164.5 152.5t142.5 157t99.5 155.5t38 146.5q0 96 -61.5 144t-167.5 48q-49 0 -137.5 -19.5t-211.5 -88.5l-63 133q135 90 252 120.5t203 30.5q178 0 289.5 -82.5t111.5 -250.5q0 -84 -33 -168t-88 -165t-127 -158t-147.5 -147.5 t-151.5 -134t-139 -116.5l2 -12h467l20 176h162l-39 -326h-917z" />
<glyph unicode="3" d="M25 66q6 12 14 30.5t17.5 40t17.5 40t14 30.5q61 -20 109.5 -32.5t88.5 -20t73.5 -9.5t66.5 -2q72 0 137.5 19.5t115.5 56.5t79.5 90t29.5 121q0 113 -79.5 173.5t-202.5 60.5q-23 0 -50.5 -2.5t-62.5 -6.5l-24 136q215 37 319.5 114.5t104.5 161.5q0 63 -48.5 111.5 t-162.5 48.5q-70 0 -152 -19.5t-192 -68.5q-4 10 -11.5 28.5t-14.5 39t-14.5 39t-13.5 28.5q117 61 228.5 90t214.5 29q100 0 171.5 -22.5t117 -61.5t65.5 -90.5t20 -106.5q0 -45 -15 -93t-48 -93t-86 -85t-127 -67v-10q123 -23 199.5 -110t76.5 -210q0 -94 -38.5 -178 t-111.5 -147.5t-176.5 -101t-232.5 -37.5q-111 0 -224.5 20t-192.5 66z" />
<glyph unicode="4" d="M57 385l17 139q76 90 167 198.5t185 220.5t184 220.5t166 198.5h230q-12 -90 -25.5 -195.5t-27 -216t-27 -217t-23.5 -196.5h195q-4 -27 -10.5 -76t-8.5 -76h-194q-6 -55 -14.5 -118.5t-16.5 -119.5h137l-16 -147h-469q2 12 4 31.5t5 41t5 42t2 32.5h129l31 238h-625z M266 537h436l74 602h-10l-102 -129q-98 -113 -200 -237t-198 -236z" />
<glyph unicode="5" d="M57 70l64 151q115 -43 188.5 -54t134.5 -11q78 0 145.5 18.5t117 58t78 101t28.5 145.5q0 57 -21.5 101.5t-57.5 72t-84 42t-103 14.5q-53 0 -112.5 -14.5t-119.5 -39.5l-104 70l100 637h750l-37 -305h-162l19 151h-414l-55 -379q27 8 79 22.5t130 14.5q84 0 157.5 -21.5 t128 -67.5t86 -116.5t31.5 -168.5q0 -129 -47 -225.5t-125 -159t-177.5 -94t-203.5 -31.5q-102 0 -213 18t-201 70z" />
<glyph unicode="6" d="M113 469q0 190 41 357t120.5 290t200.5 194.5t281 71.5q104 0 189 -20.5t120 -38.5l-53 -147q-70 29 -141.5 37t-116.5 8q-102 0 -175 -49.5t-121 -120t-74 -148.5t-34 -133l6 -6q31 18 71 34.5t85 31t91 22.5t89 8q74 0 138.5 -20.5t112.5 -64.5t76 -112.5t28 -162.5 q0 -121 -40 -216.5t-110 -161t-164 -101t-205 -35.5q-119 0 -198.5 35.5t-127.5 100t-68.5 154t-20.5 193.5zM319 459q0 -55 8.5 -108.5t34 -96.5t70.5 -69.5t119 -26.5q70 0 125 24.5t92 68.5t56.5 104.5t19.5 133.5q0 94 -47 153.5t-168 59.5q-66 0 -117 -14t-90 -30.5 t-61.5 -32t-28.5 -17.5q-4 -37 -8.5 -73.5t-4.5 -75.5z" />
<glyph unicode="7" d="M199 0q170 305 344 604t346 604h-471q-6 -53 -13.5 -102t-11.5 -100h-166q12 90 22.5 178t22.5 178h838l-12 -135l-692 -1227h-207z" />
<glyph unicode="8" d="M78 328q0 53 16.5 112.5t51 116.5t89 109.5t132.5 89.5q-72 47 -108 104.5t-36 134.5q0 82 36 154t99.5 125t151.5 82.5t190 29.5q74 0 143.5 -19t123 -59t85 -101.5t31.5 -143.5q0 -86 -55 -175t-180 -173q84 -47 136 -125t52 -193q0 -76 -32.5 -150.5t-98 -133 t-163 -94t-226.5 -35.5q-109 0 -190.5 26.5t-137 72.5t-83 108.5t-27.5 136.5zM293 342q0 -82 58 -139.5t179 -57.5q76 0 132.5 20.5t93.5 55.5t54 79t17 91q0 49 -18 88t-56 72t-98.5 63.5t-144.5 63.5q-61 -39 -103 -82t-68 -87t-36 -87t-10 -80zM432 1012q0 -41 20.5 -72 t54.5 -55.5t80 -47t99 -49.5q111 74 154 138.5t43 120.5q0 31 -10.5 62.5t-34 57t-63.5 41t-99 15.5q-74 0 -121 -24.5t-74.5 -58.5t-38 -70t-10.5 -58z" />
<glyph unicode="9" d="M133 45l10.5 31.5t12.5 41t12 42t10 33.5q70 -29 141.5 -37.5t116.5 -8.5q102 0 175 49.5t120 120t72.5 148.5t36.5 133l-6 6q-31 -18 -71 -34.5t-85 -31t-91 -22.5t-89 -8q-74 0 -138.5 20.5t-112.5 64.5t-76 112.5t-28 162.5q0 119 40 215.5t109.5 162t164 101 t205.5 35.5q119 0 198.5 -35.5t127.5 -100t68.5 -153.5t20.5 -194q0 -190 -41 -357t-120.5 -290t-200.5 -194.5t-281 -71.5q-104 0 -185 20.5t-116 38.5zM346 879q0 -96 47 -154.5t168 -58.5q63 0 115.5 14t91.5 30.5t61.5 32t28.5 17.5q4 37 8 73.5t4 75.5q0 55 -8 108.5 t-33.5 96.5t-70.5 69.5t-119 26.5q-72 0 -126 -24.5t-91 -68.5t-56.5 -104.5t-19.5 -133.5z" />
<glyph unicode=":" horiz-adv-x="452" d="M68 98q0 59 42 100.5t97 41.5q49 0 78.5 -33t29.5 -80q0 -59 -39.5 -102t-97.5 -43q-51 0 -80.5 33.5t-29.5 82.5zM143 729q0 31 12.5 56.5t32 44t45 28.5t52.5 10q49 0 78.5 -31.5t29.5 -78.5q0 -61 -42 -104.5t-97 -43.5q-49 0 -80 35t-31 84z" />
<glyph unicode=";" horiz-adv-x="452" d="M12 -172q47 39 78 77t45 95q-35 8 -53.5 33.5t-18.5 62.5q0 55 38.5 99.5t101.5 44.5q55 0 85.5 -39t30.5 -97q0 -49 -22.5 -100t-59 -98t-84 -85t-96.5 -63zM143 729q0 31 12.5 56.5t32 44t45 28.5t52.5 10q49 0 78.5 -31.5t29.5 -78.5q0 -61 -42 -104.5t-97 -43.5 q-49 0 -80 35t-31 84z" />
<glyph unicode="&#x3c;" d="M174 549l14 123l883 424l-20 -172l-680 -316q14 -8 60 -32.5t108.5 -57.5t132 -70.5t132 -70.5t108.5 -58.5t61 -31.5l-19 -162z" />
<glyph unicode="=" d="M158 391l16 137h819l-18 -137h-817zM195 702l18 140h817l-16 -140h-819z" />
<glyph unicode="&#x3e;" d="M123 125l20 170l684 317q-14 8 -61 33t-109.5 57.5t-133 69.5t-133 69.5t-108.5 56.5t-61 32l21 166l780 -424l-16 -123z" />
<glyph unicode="?" horiz-adv-x="923" d="M164 1067l37 309q109 37 212 53.5t181 16.5q172 0 264 -74t92 -190q0 -115 -55 -195t-143 -147q-78 -59 -134.5 -104.5t-93.5 -87.5t-54 -86t-17 -99q0 -18 1 -39t1 -45q-41 -4 -88.5 -11.5t-87.5 -13.5q-4 35 -6.5 65t-2.5 56q0 70 19.5 127t57.5 109.5t94.5 102.5 t129.5 106q66 51 113 106t47 123q0 49 -41 88t-145 39q-45 0 -99.5 -7t-107.5 -24l-23 -178h-151zM250 82q0 53 39 95t98 42q49 0 79 -30.5t30 -77.5q0 -59 -42 -95t-96 -36q-47 0 -77.5 28.5t-30.5 73.5z" />
<glyph unicode="@" horiz-adv-x="1855" d="M174 612q0 182 70.5 339t191.5 271.5t285 180t348 65.5q152 0 274.5 -42t208.5 -119.5t133.5 -188t47.5 -248.5q0 -133 -39 -234t-102.5 -172t-144.5 -106.5t-163 -35.5q-119 0 -166 66.5t-47 174.5v8h-6q-18 -47 -38.5 -79.5t-43.5 -55.5q-53 -66 -110.5 -86t-98.5 -20 q-98 0 -158.5 68.5t-60.5 207.5q0 109 25.5 205t76 169t126 115t175.5 42q43 0 91.5 -10.5t97.5 -28.5l39 45l104 -13q-16 -72 -30.5 -151.5t-25.5 -155t-18.5 -139t-7.5 -102.5q0 -61 23.5 -99.5t87.5 -38.5q39 0 87 22.5t90 72t70.5 127t28.5 190.5q0 233 -140 361.5 t-390 128.5q-160 0 -298 -56.5t-240.5 -154t-161 -229.5t-58.5 -283q0 -127 38 -230.5t108.5 -179.5t173 -117t231.5 -41q47 2 112.5 8.5t143.5 32.5l31 -98q-68 -33 -152 -46t-155 -13q-160 0 -283 50t-208 140t-129 214t-44 269zM717 627q0 -88 29.5 -131t78.5 -43 q27 0 58.5 16t64.5 55t67 104.5t64 162.5l35 194q-47 18 -85 24.5t-66 6.5q-72 0 -119 -39t-76 -97.5t-40 -127t-11 -125.5z" />
<glyph unicode="A" horiz-adv-x="1384" d="M-12 0l14 154h117l563 1251h270l252 -1251h109l-19 -154h-458l16 154h133l-43 233h-510l-100 -233h135l-16 -154h-463zM502 543h413l-73 407l-45 275h-6l-109 -258z" />
<glyph unicode="B" horiz-adv-x="1286" d="M29 0q6 39 10 77t8 77h139l136 1095h-134l19 154h667q94 0 163 -23.5t114 -65.5t66.5 -100.5t21.5 -128.5q0 -49 -11 -98t-37 -95t-70 -86t-109 -71v-2q57 -18 95 -51t60.5 -74t30.5 -86t8 -88q0 -109 -38 -189.5t-101 -135t-145 -82t-170 -27.5h-723zM406 154h286 q145 0 215 80.5t70 203.5q0 43 -13.5 81t-41 66.5t-69.5 46t-99 17.5h-289zM483 797h258q129 0 202 73.5t73 186.5q0 86 -51.5 139t-167.5 53h-256q-16 -115 -28.5 -227.5t-29.5 -224.5z" />
<glyph unicode="C" horiz-adv-x="1177" d="M125 551q0 86 11 185.5t41 196.5t81 187t131 159t191.5 110t263.5 41q111 0 197.5 -16.5t152.5 -41.5l-43 -356h-162l25 213q-35 10 -83 17t-100 7q-121 0 -210 -51t-147 -141t-88 -217t-30 -277q0 -190 88 -288.5t297 -98.5q25 0 63 2t81 8.5t88 14.5t86 20l33 -174 q-41 -16 -92.5 -28.5t-106.5 -21.5t-111.5 -14t-105.5 -5q-152 0 -256.5 39.5t-170 114.5t-95 180.5t-29.5 234.5z" />
<glyph unicode="D" horiz-adv-x="1374" d="M33 0l16 154h141l134 1097h-131l18 154h577q152 0 253.5 -44t163 -122t87 -182.5t25.5 -225.5q0 -166 -37 -316t-119 -265t-213 -182.5t-317 -67.5h-598zM412 156h196q35 0 85 8t102.5 32.5t104.5 69.5t93 119t66.5 180.5t25.5 253.5q0 145 -34.5 231.5t-86 130.5 t-110.5 57t-111 13h-196z" />
<glyph unicode="E" horiz-adv-x="1206" d="M33 0l16 154h135l135 1097h-129l17 152h1024l-45 -354h-160l25 202h-512l-56 -446l484 10l-17 -162l-485 9l-62 -508h553l27 208h164l-45 -362h-1069z" />
<glyph unicode="F" horiz-adv-x="1165" d="M33 0l16 154h137l133 1097h-129l17 152h1014l-45 -354h-158l24 202h-503l-56 -446l480 10l-21 -162l-477 9l-62 -508h189l-19 -154h-540z" />
<glyph unicode="G" horiz-adv-x="1306" d="M125 551q0 88 13.5 187.5t45 196.5t86 187t137 158t196 109t267.5 41q111 0 202 -16.5t155 -41.5l-41 -350h-162l27 209q-37 10 -88.5 17t-102.5 7q-127 0 -222 -52t-157.5 -144t-93.5 -217t-31 -273q0 -92 17.5 -166.5t58.5 -129t107.5 -83t165.5 -28.5q47 0 103 7 t103 21l50 396h-181l17 143h481l-16 -143h-103l-65 -535q-212 -69 -420 -69h-6q-150 0 -253.5 42t-168 117.5t-93 180t-28.5 229.5z" />
<glyph unicode="H" horiz-adv-x="1468" d="M33 0l16 156h131l135 1095h-131l19 154h475l-19 -154h-124l-54 -440h598l54 440h-123l18 154h477l-18 -154h-131l-135 -1095h131l-17 -156h-477l19 156h122l62 501h-598l-62 -501h125l-18 -156h-475z" />
<glyph unicode="I" horiz-adv-x="757" d="M88 0l18 154h130l133 1097h-129l18 154h479l-18 -154h-131l-135 -1097h131l-17 -154h-479z" />
<glyph unicode="J" horiz-adv-x="778" d="M-123 -215q117 43 190.5 92t117.5 108.5t64.5 132t33.5 161.5l120 972h-202l18 154h600l-18 -154h-178l-119 -954q-16 -137 -56 -246.5t-110 -191.5t-174.5 -137.5t-249.5 -86.5z" />
<glyph unicode="K" horiz-adv-x="1345" d="M33 0l16 156h131l135 1095h-131l19 152h473l-19 -152h-129l-55 -473l549 471h-115l19 154h465l-19 -154h-117l-467 -403l392 -688h114l-18 -158h-465l18 158h123l-321 563l-187 -162l-49 -403h125l-18 -156h-469z" />
<glyph unicode="L" horiz-adv-x="1161" d="M33 0l16 154h137l133 1097h-129l17 152h498l-21 -152h-143l-138 -1097h535l31 254h164l-50 -408h-1050z" />
<glyph unicode="M" horiz-adv-x="1806" d="M29 0l18 154h133l133 1095h-131l19 154h393l219 -705l82 -292h12l117 225l414 772h407l-20 -154h-125l-133 -1095h123l-19 -154h-457l17 154h123l112 929h-4l-102 -192l-389 -713h-189l-282 905h-6l-111 -929h127l-18 -154h-463z" />
<glyph unicode="N" horiz-adv-x="1529" d="M29 0q6 39 10 77t8 77h135q33 276 67 547.5t68 547.5h-135l19 154h368q92 -186 191.5 -390t220.5 -452l106 -223h11q29 229 56.5 455.5t55.5 455.5h-137l19 154h473q-6 -39 -10.5 -77t-8.5 -77h-131q-39 -315 -75.5 -625.5t-77.5 -623.5h-209q-117 229 -221.5 447.5 t-225.5 447.5q-25 51 -50.5 101.5t-47.5 103.5q-2 0 -3 -1t-3 -1l-117 -944h139l-18 -154h-477z" />
<glyph unicode="O" horiz-adv-x="1400" d="M125 547q0 166 40 324.5t124 282.5t214 198.5t312 74.5q147 0 247.5 -45t162 -124.5t89 -186t27.5 -229.5q0 -180 -44 -337t-130 -273.5t-212 -183t-289 -66.5q-143 0 -246 39.5t-168.5 113.5t-96 178.5t-30.5 233.5zM352 543q0 -195 76 -295.5t248 -100.5 q117 0 199.5 57.5t135 155t77 224.5t24.5 266q0 82 -13.5 156.5t-47 132t-92 91.5t-150.5 34q-131 0 -218 -65.5t-140.5 -169t-76 -231.5t-22.5 -255z" />
<glyph unicode="P" horiz-adv-x="1187" d="M33 0l16 154h131l133 1097h-129l19 154h606q193 0 294 -93t101 -274q0 -82 -25.5 -166t-83 -152.5t-148.5 -112.5t-222 -44h-276l-52 -409h172l-16 -154h-520zM467 713h227q51 0 101.5 17.5t90.5 54t64.5 96t24.5 143.5q0 115 -58.5 171t-156.5 56h-228z" />
<glyph unicode="Q" horiz-adv-x="1402" d="M125 547q0 166 40 324.5t124 282.5t214 198.5t312 74.5q147 0 247.5 -45t162 -124.5t89 -186t27.5 -229.5q0 -135 -24.5 -257t-71.5 -224.5t-117.5 -180.5t-162.5 -125l290 -78l-96 -186l-547 197q-129 6 -222 48t-151.5 114.5t-86 173t-27.5 223.5zM352 543 q0 -195 76 -295.5t248 -100.5q117 0 199.5 57.5t135 155t77 224.5t24.5 266q0 82 -13.5 156.5t-47 132t-92 91.5t-150.5 34q-131 0 -218 -65.5t-140.5 -169t-76 -231.5t-22.5 -255z" />
<glyph unicode="R" horiz-adv-x="1288" d="M35 0l16 154h129l133 1097h-125l19 154h622q193 0 290.5 -90t97.5 -260q0 -63 -15.5 -128t-50.5 -122t-91 -101.5t-138 -66.5l155 -483l152 -21l6 -123q-23 -8 -53.5 -14t-60 -10t-57.5 -6.5t-44 -2.5q-72 0 -100.5 33t-49.5 94l-153 498h-266l-54 -448h154l-19 -154 h-497zM471 752h240q49 0 98 13t89 46t64.5 87t24.5 136q0 117 -57.5 167t-155.5 50h-244z" />
<glyph unicode="S" d="M41 88l35 295h162l-25 -174q63 -31 139 -43t137 -12q160 0 252.5 64.5t92.5 182.5q0 55 -20.5 92t-60.5 63t-97.5 44t-129.5 37q-80 23 -146.5 51.5t-114.5 68.5t-74.5 96t-26.5 136q0 106 40 188.5t109.5 137.5t163.5 82.5t203 27.5q41 0 93 -4t105.5 -14t105.5 -26.5 t95 -41.5l-37 -295h-161l24 177q-59 23 -116.5 31t-110.5 8q-59 0 -110.5 -15.5t-90.5 -45.5t-61.5 -75t-22.5 -106q0 -47 23.5 -80t62.5 -57.5t88 -43t99 -32.5q78 -23 151.5 -48.5t130 -65.5t91 -101.5t34.5 -157.5q0 -119 -45 -204t-124 -140t-186.5 -80.5t-230.5 -25.5 q-109 0 -229.5 23.5t-216.5 82.5z" />
<glyph unicode="T" horiz-adv-x="1165" d="M109 1034l45 371h1099l-45 -371h-161l26 217h-280l-134 -1097h164l-16 -154h-545l19 154h161l136 1097h-285l-25 -217h-159z" />
<glyph unicode="U" horiz-adv-x="1445" d="M164 1251l18 154h467l-16 -154h-135l-92 -747q-5 -41 -5 -78q0 -279 291 -279q154 0 249 88.5t118 268.5l92 747h-133l18 154h467l-18 -154h-121l-92 -741q-16 -121 -57 -218t-112 -166t-174.5 -105.5t-240.5 -36.5q-150 0 -252 37.5t-162 108.5q-58 71 -78 171 q-11 58 -12 125q0 48 6 100l91 725h-117z" />
<glyph unicode="V" horiz-adv-x="1335" d="M125 1249l18 156h459l-18 -156h-125l135 -741l51 -301h8l123 303l311 739h-122l18 156h457l-19 -156h-116l-551 -1249h-265l-251 1249h-113z" />
<glyph unicode="W" horiz-adv-x="1947" d="M125 1249l18 156h478l-19 -156h-133l86 -764l27 -264h4l106 264l275 682l-15 82h-129l19 156h479l-16 -156h-142l133 -776l39 -235h4l93 260l262 751h-133l18 156h475l-20 -156h-119q-27 -74 -65 -174t-81 -215t-89 -235.5t-89 -234.5t-79.5 -215t-63.5 -175h-258 l-117 682l-31 203h-6l-84 -209l-278 -676h-268l-166 1249h-115z" />
<glyph unicode="X" horiz-adv-x="1325" d="M-14 0l16 156h96l451 589l-252 504h-135l18 156h498l-19 -156h-122l190 -389l303 389h-121l19 156h461l-19 -156h-113l-423 -528l288 -565h127l-16 -156h-508l18 156h131l-219 440l-331 -440h147l-18 -156h-467z" />
<glyph unicode="Y" horiz-adv-x="1234" d="M125 1249l18 156h445l-19 -156h-123l201 -504h8l332 504h-127l19 156h452l-18 -156h-103l-460 -661l-52 -434h156l-16 -154h-549l16 154h160l51 428l-289 667h-102z" />
<glyph unicode="Z" horiz-adv-x="1122" d="M-6 0l18 154l858 1097h-514l-28 -219h-160l47 373h946l-16 -150l-860 -1099h594l32 243h162l-49 -399h-1030z" />
<glyph unicode="[" horiz-adv-x="561" d="M20 -326l218 1753h374q-4 -33 -8 -65.5t-8 -65.5h-190l-185 -1489h191q-4 -35 -7.5 -66.5t-9.5 -66.5h-375z" />
<glyph unicode="\" horiz-adv-x="694" d="M147 1440h144l327 -1501h-145z" />
<glyph unicode="]" horiz-adv-x="561" d="M-20 -326l16 133h186q47 371 92 743t93 746h-191l14 131h377l-215 -1753h-372z" />
<glyph unicode="^" horiz-adv-x="917" d="M82 760l436 635h111l276 -635h-145l-203 471l-319 -471h-156z" />
<glyph unicode="_" horiz-adv-x="993" d="M-86 -283l14 117h994l-15 -117h-993z" />
<glyph unicode="`" horiz-adv-x="1040" d="M373 1409l139 121l229 -350l-86 -72z" />
<glyph unicode="a" horiz-adv-x="1169" d="M82 328q0 141 32.5 266t98.5 219t164 149.5t227 55.5q59 0 118.5 -14.5t123.5 -40.5l49 55l141 -8q-18 -117 -35.5 -235t-33 -227.5t-27.5 -208.5t-20 -181q41 4 84 19.5t83 37.5q8 -16 22.5 -47t25.5 -47q-31 -31 -69 -56.5t-77 -46t-75.5 -32t-67.5 -11.5 q-70 0 -97.5 37t-31.5 97q0 41 5 82.5t13 89.5h-10q-45 -90 -92 -147.5t-95.5 -92.5t-96.5 -48t-95 -13q-119 0 -191.5 86t-72.5 262zM295 360q0 -115 38 -170t99 -55q37 0 77 20.5t83 70.5t85 133t83 206l41 252q-59 23 -108.5 30t-84.5 7q-92 0 -152.5 -50t-96 -124 t-50 -160t-14.5 -160z" />
<glyph unicode="b" horiz-adv-x="1095" d="M33 1339l8 103q86 23 163 33t136 10q68 0 90.5 -26.5t22.5 -74.5q0 -12 -4.5 -54t-10.5 -102.5t-14 -131t-16.5 -139t-17.5 -128t-15 -96.5h10q43 84 91 140.5t95 89t94.5 46t90.5 13.5q119 0 192.5 -86t73.5 -264q0 -139 -34 -264t-101.5 -219.5t-169 -149.5t-236.5 -55 q-74 0 -175 20.5t-210 71.5l-12 24q20 156 40.5 305.5t39 298t35 298t32.5 307.5zM305 184q57 -23 102.5 -30t79.5 -7q92 0 153.5 49.5t98.5 123t52.5 159.5t15.5 160q0 115 -39 168t-100 53q-37 0 -78 -21.5t-83 -70.5t-85 -131t-82 -205z" />
<glyph unicode="c" horiz-adv-x="946" d="M82 348q0 123 25.5 244t87 216t163.5 154.5t256 59.5q29 0 61 -3t62.5 -9t55 -12.5t38.5 -12.5q37 -16 54.5 -36.5t17.5 -57.5q0 -14 -6 -43t-15.5 -62.5t-21.5 -68.5t-24 -64q-29 2 -56.5 3t-56.5 6q4 45 5 91t3 93q-23 8 -55.5 12t-67.5 4q-80 0 -139 -40t-97 -105.5 t-57.5 -152.5t-19.5 -179q0 -111 47 -172t164 -61q68 0 127 13t143 38q10 -35 24.5 -68t24.5 -67q-72 -35 -172 -58.5t-198 -23.5q-102 0 -173 25.5t-115 73.5t-64.5 114.5t-20.5 148.5z" />
<glyph unicode="d" horiz-adv-x="1175" d="M82 328q0 145 34 271t101.5 218t166.5 145.5t232 53.5q47 0 97.5 -11.5t103.5 -27.5q10 86 19.5 161.5t19.5 168.5l-203 30l6 105q88 23 164 33t135 10q72 0 94.5 -33t22.5 -84q0 -16 -14 -125.5t-35.5 -279.5t-48.5 -380t-53 -425q86 12 170 57l49 -90 q-29 -31 -66 -57.5t-76.5 -47t-80.5 -33t-80 -12.5q-66 0 -91.5 34t-27.5 89q-1 13 -1 27q0 33 4 63q5 43 15 93h-10q-45 -90 -93 -148.5t-97.5 -92.5t-97.5 -47t-95 -13q-119 0 -191.5 86t-72.5 262zM293 360q0 -115 38 -170t101 -55q37 0 78 20.5t84 70.5t87 133t85 206 l35 252q-59 23 -107.5 30t-83.5 7q-92 0 -153.5 -50t-98 -124t-51 -160t-14.5 -160z" />
<glyph unicode="e" horiz-adv-x="985" d="M82 379q0 104 25.5 218t88 209t169 157.5t266.5 62.5q141 0 217 -71.5t76 -188.5q0 -174 -165 -261t-466 -104q-2 -12 -2 -24v-23q0 -41 8 -79.5t30.5 -69.5t62.5 -50.5t104 -19.5q76 0 152.5 19.5t150.5 50.5l43 -123q-37 -23 -84 -40t-98.5 -30.5t-105.5 -20.5t-105 -7 q-113 0 -183.5 31.5t-111.5 85t-56.5 126t-15.5 152.5zM299 516q211 10 319.5 63.5t108.5 163.5q0 55 -29.5 90t-97.5 35q-131 0 -207 -94t-94 -258z" />
<glyph unicode="f" horiz-adv-x="741" d="M-264 -410l37 140q49 -10 79.5 -12.5t61.5 -2.5q109 0 158 81t73 253q18 141 35 274.5t29 241t20.5 181t10.5 96.5h-170l14 110l172 41l14 107q14 88 41 161.5t73 126t113.5 81t161.5 28.5q47 0 101.5 -7t113.5 -24l-34 -149q-43 10 -82 14t-70 4q-41 0 -77 -12 t-63.5 -44t-47 -88t-27.5 -142l-8 -68h274q0 -12 -2 -30.5t-5 -39t-5 -39t-4 -30.5h-279q-20 -166 -37.5 -327t-33.5 -327q-16 -125 -39 -238.5t-68 -200.5t-121.5 -138t-199.5 -51q-47 0 -99.5 7t-109.5 23z" />
<glyph unicode="g" horiz-adv-x="1093" d="M59 -375q6 12 14.5 34t16.5 44.5t16.5 44t14.5 33.5q66 -29 138.5 -45.5t135.5 -16.5q90 0 146.5 27t89.5 75t49 114.5t27 146.5q0 2 4 31.5t8 64.5t8 64l4 30q0 2 -8 2q-43 -84 -91 -139t-95.5 -88t-95.5 -46t-91 -13q-119 0 -192.5 85t-73.5 263q0 139 34 263 t100.5 216t167 146.5t235.5 54.5q86 -2 185 -21.5t202 -66.5l10 -25l-119 -913q-10 -72 -33.5 -151t-79 -143.5t-150.5 -106.5t-249 -42q-96 0 -185 26t-143 52zM295 369q0 -115 39 -169.5t102 -54.5q37 0 78 21.5t84 71t85 132.5t81 205l35 242q-59 23 -105.5 30t-81.5 7 q-92 0 -153.5 -48t-98 -121t-51 -158t-14.5 -158z" />
<glyph unicode="h" horiz-adv-x="1220" d="M84 1337l10 103q86 23 162 33t135 10q66 0 91.5 -21.5t25.5 -68.5q0 -14 -4 -57.5t-10.5 -105t-14.5 -133t-17 -141t-16.5 -130t-13.5 -99.5l8 -2q45 86 98.5 143.5t106.5 92t100 49t82 14.5q117 0 163 -59.5t46 -161.5q0 -23 -4 -68t-12 -121.5t-20.5 -188.5t-30.5 -267 q82 6 161 49l46 -92q-74 -72 -153 -107t-136 -35q-78 0 -105.5 34t-27.5 95q0 14 1 27.5t3 30.5q23 184 35 293.5t18 168t7 82t1 35.5q0 51 -20.5 84t-67.5 33q-35 0 -79 -22.5t-88 -71.5t-88 -129t-79 -195l-61 -438h-211q10 88 24.5 198.5t29 230.5t29.5 244t28.5 239.5 t24.5 217t20 177.5z" />
<glyph unicode="i" horiz-adv-x="651" d="M94 877l6 104q86 23 157 33t120 10q66 0 89 -20.5t23 -63.5q0 -6 -6 -62.5t-16 -137.5t-22.5 -176t-22.5 -180t-18.5 -147.5t-10.5 -78.5q84 6 164 49l47 -92q-72 -72 -151.5 -107t-139.5 -35q-78 0 -107.5 37t-29.5 94q0 12 1 25.5t3 30.5l88 686zM268 1264 q0 66 40.5 108.5t99.5 42.5q49 0 83.5 -34.5t34.5 -88.5q0 -59 -38.5 -102t-102.5 -43q-47 0 -82 33.5t-35 83.5z" />
<glyph unicode="j" horiz-adv-x="595" d="M-111 -326q90 39 144.5 90.5t86.5 115t45 137t23 157.5l72 672l-176 31l10 104q173 43 273 43q66 0 92 -20.5t26 -63.5q0 -4 -5 -52t-12 -121t-17.5 -160t-19.5 -169t-16 -149.5t-12 -100.5q-14 -127 -43.5 -233.5t-85 -189t-140.5 -139t-210 -83.5zM260 1264 q0 66 40 108.5t99 42.5q49 0 84 -34.5t35 -88.5q0 -59 -39 -102t-102 -43q-47 0 -82 33.5t-35 83.5z" />
<glyph unicode="k" horiz-adv-x="1021" d="M45 1333l6 103q80 23 157 38t136 15q59 1 85 -27q23 -24 23 -64q0 -6 -1 -12q-25 -199 -53.5 -390t-55.5 -390h6q47 76 106.5 150.5t125 134t134 96.5t134.5 37q61 0 98 -37t53 -92l-71 -74q-61 33 -115 33q-43 0 -82 -16.5t-73.5 -44t-65.5 -63.5t-62 -73 q33 -70 75 -150.5t84 -154t76 -131t52 -76.5q49 14 84 36t64 42l59 -76q-82 -104 -147.5 -139t-106.5 -35q-49 0 -88 29t-80 90.5t-88 160.5t-111 241q-20 -29 -33.5 -48.5t-24.5 -38t-20.5 -39t-21.5 -46.5q-12 -80 -22.5 -157t-20.5 -165h-209q47 332 91 658.5t81 652.5z " />
<glyph unicode="l" horiz-adv-x="614" d="M86 1339l6 103q88 23 167 33t130 10q61 0 88 -19.5t27 -64.5q0 -25 -8.5 -108t-22.5 -196.5t-30.5 -248.5t-34 -265t-32 -243t-22.5 -182q84 6 164 49l47 -92q-72 -72 -150.5 -107t-138.5 -35q-76 0 -106.5 33t-30.5 96q0 14 1 27.5t3 30.5l140 1149z" />
<glyph unicode="m" horiz-adv-x="1765" d="M66 877l6 102q88 25 157.5 35t128.5 10q66 0 88.5 -22.5t22.5 -63.5q0 -35 -8 -94.5t-19 -134.5h11q47 92 97 153.5t98 97t92 50t79 14.5q106 0 151.5 -58.5t45.5 -152.5q0 -18 -1 -44t-3 -62l6 -2q43 88 94 148t101.5 99t95.5 56.5t80 17.5q109 0 156.5 -60.5 t47.5 -160.5q0 -23 -4 -68t-12 -120.5t-20.5 -187.5t-30.5 -267q43 2 79.5 13t77.5 34l46 -90q-72 -72 -150 -108t-137 -36q-76 0 -103.5 33t-27.5 94q0 10 1 26.5t3 33.5q20 170 32.5 276.5t18.5 169t8 93t2 47.5q0 47 -18.5 78.5t-65.5 31.5q-74 0 -154.5 -101.5 t-150.5 -324.5l-53 -432h-209l31 248q18 154 28.5 245t15.5 142t5 73.5v36.5q0 45 -19.5 77t-66.5 32q-72 0 -152 -98.5t-149 -323.5l-58 -432h-210q18 131 31.5 240.5t25.5 209t22.5 194.5t22.5 202z" />
<glyph unicode="n" horiz-adv-x="1230" d="M66 874l6 105q88 23 157.5 33t128.5 10q66 0 87.5 -21.5t21.5 -70.5q0 -39 -7 -96.5t-18 -124.5h9q47 92 103 152.5t111.5 96t104.5 50t84 14.5q117 0 161 -67.5t44 -176.5q0 -43 -17.5 -195.5t-48.5 -424.5q41 2 78 13t78 34q10 -14 24.5 -45t22.5 -47 q-39 -37 -80 -62.5t-81 -42t-75.5 -25t-62.5 -8.5q-72 0 -95.5 32t-23.5 91q0 10 2 37t4 43q25 242 41.5 386.5t16.5 178.5q0 47 -20.5 79t-67.5 32q-37 0 -81 -23.5t-89 -74.5t-88 -132t-78 -194l-60 -430h-208q16 131 30.5 239.5t26.5 208t23.5 194.5t23.5 202z" />
<glyph unicode="o" horiz-adv-x="1067" d="M82 387q0 113 29.5 226.5t92 204.5t162 147.5t240.5 56.5q109 0 184.5 -33t124 -90t70 -133t21.5 -162q0 -104 -27 -213.5t-88.5 -201t-162.5 -148.5t-251 -57q-111 0 -185.5 30.5t-121.5 85t-67.5 128t-20.5 159.5zM295 369q0 -47 9 -88t32.5 -74t62.5 -51.5t99 -18.5 q88 0 144 48t89 120t45 154t12 147q0 51 -9 97.5t-30.5 81t-58.5 55t-94 20.5q-92 0 -150.5 -51t-92.5 -126t-46 -161t-12 -153z" />
<glyph unicode="p" horiz-adv-x="1148" d="M-59 -426l18 150h137q31 272 67 563t66 557l-190 28l8 105q74 23 149.5 34t141.5 11q72 0 90 -28q15 -22 15 -61q0 -9 -1 -18l-26 -210h10q45 88 93 148t98.5 95t99.5 50.5t94 15.5q117 0 188.5 -87t71.5 -268q0 -143 -33.5 -267t-99.5 -216t-165 -144t-230 -52 q-47 0 -97.5 10t-103.5 24l-39 -290h176l-16 -150h-522zM356 176q57 -23 106.5 -30t84.5 -7q92 0 152.5 48.5t96 121t50 155.5t14.5 154q0 117 -38 172.5t-99 55.5q-37 0 -79 -20.5t-85 -69.5t-87 -132t-83 -206z" />
<glyph unicode="q" horiz-adv-x="1107" d="M82 328q0 139 34 265t101.5 220t168.5 149.5t237 55.5q74 0 177 -19.5t210 -70.5l10 -23q-4 -27 -15.5 -118t-25.5 -214.5t-31.5 -263t-32 -262.5t-24.5 -213t-12 -113h143l-16 -151h-521l17 151h162q23 213 39 347.5t28 197.5l-8 2q-45 -84 -92 -140t-95.5 -89 t-96.5 -46t-91 -13q-119 0 -192.5 85t-73.5 263zM295 362q0 -117 39 -171t100 -54q37 0 78 21.5t84 71t86 132t82 205.5l35 250q-59 23 -105.5 30t-81.5 7q-92 0 -153.5 -49t-97 -123t-51 -160t-15.5 -160z" />
<glyph unicode="r" horiz-adv-x="903" d="M88 874q0 16 2 52.5t4 52.5q88 23 148.5 33t119.5 10q66 0 88.5 -21.5t22.5 -72.5q0 -35 -7 -89.5t-17 -121.5h6q37 100 76.5 160.5t79.5 93.5t78 43t73 10q72 0 108.5 -41t40.5 -96l-92 -107q-35 18 -64.5 23.5t-54.5 5.5q-82 0 -159.5 -106.5t-130.5 -323.5 q-16 -117 -26.5 -205t-23.5 -174h-206q29 236 56.5 449t49.5 395z" />
<glyph unicode="s" horiz-adv-x="931" d="M55 133q0 41 21.5 102.5t54.5 114.5l105 -4l-9 -196q31 -14 74 -21.5t86 -7.5q45 0 89 9t78 28.5t54.5 49.5t20.5 73q0 35 -18.5 59.5t-48.5 45t-67.5 36.5t-78.5 33q-61 27 -114.5 54.5t-93.5 59t-62.5 71.5t-22.5 89q0 74 32.5 130t90 93t132.5 55.5t159 18.5 q55 0 109 -9t99.5 -26.5t73 -43t27.5 -60.5q0 -18 -7.5 -47t-18.5 -59.5t-24.5 -61.5t-27.5 -55l-100 6l8 186q-53 29 -137 29q-37 0 -73 -7.5t-63.5 -23.5t-44 -44t-16.5 -67q0 -29 20.5 -53t52 -43.5t70.5 -37t74 -31.5q53 -23 103.5 -48.5t90.5 -59.5t65.5 -78t25.5 -101 q0 -76 -35 -133.5t-95.5 -96t-143.5 -58t-177 -19.5q-168 0 -253 39.5t-85 109.5z" />
<glyph unicode="t" horiz-adv-x="780" d="M88 860l12 115l160 39l90 231l139 19l-30 -263h291l-17 -141h-289l-69 -541q-2 -12 -3 -23t-1 -22q0 -55 27.5 -79.5t88.5 -24.5q29 0 78 6t105 23l35 -158q-33 -14 -74 -24.5t-82 -16.5t-76 -9t-55 -3q-61 0 -110.5 10t-83.5 35.5t-51 68.5t-17 109q0 37 6 84l69 565 h-143z" />
<glyph unicode="u" horiz-adv-x="1224" d="M68 877l8 100q86 25 159 35t132 10q66 0 87 -24.5t21 -77.5v-19.5t-2 -19.5q-4 -37 -10 -90.5t-13.5 -116t-15.5 -127t-14 -121.5t-10 -101t-4 -65q0 -53 20 -81.5t68 -28.5q37 0 79.5 22.5t88 73.5t88.5 132t77 197l60 426h200q-29 -205 -56 -425t-50 -420q45 4 83 16 t77 31l47 -90q-74 -72 -155 -104t-134 -32q-37 0 -60.5 11.5t-35.5 30t-16.5 42t-4.5 50.5q0 37 5.5 85t9.5 83h-11q-47 -88 -99 -145.5t-105.5 -91.5t-102.5 -47t-86 -13q-109 0 -158 53t-49 151v36t4 48q8 84 23.5 220.5t42.5 357.5z" />
<glyph unicode="v" horiz-adv-x="1081" d="M4 893q76 68 141.5 100.5t112.5 32.5q41 0 64.5 -15.5t37 -41t19.5 -60.5t10 -73l74 -648h10q59 68 117.5 150t105.5 169t79 176t38 169l-143 -33l-35 92q66 51 137.5 83t126.5 32q125 0 125 -127q-2 -115 -54 -246t-132 -257t-173.5 -232.5t-175.5 -171.5h-198l-107 848 l-141 -37z" />
<glyph unicode="w" horiz-adv-x="1546" d="M10 889q80 68 153 101.5t128 33.5q47 0 73.5 -40t32.5 -138l43 -637h11q39 47 80.5 106.5t78.5 124t69 128t54 116.5q-4 45 -6 78t-6 80l-135 -39l-37 90q76 63 145.5 98t122.5 35q31 -2 50.5 -13.5t30.5 -34t15.5 -59t8.5 -92.5q10 -160 19 -319.5t20 -319.5h10 q57 68 111.5 150t97.5 169t70.5 175t33.5 170l-139 -35l-29 92q72 53 138.5 85t125.5 34q20 0 40 -5t35 -20.5t24.5 -43t9.5 -68.5q0 -109 -48 -239t-123 -256t-163 -233.5t-168 -170.5h-199q-8 100 -15 205t-17 209q-2 0 -2 1t-2 1q-31 -66 -71 -129.5t-81 -119t-79 -99.5 t-64 -68h-195q-20 211 -36.5 425t-41.5 423l-141 -39z" />
<glyph unicode="x" horiz-adv-x="1042" d="M35 84q0 6 1 12t1 13q92 98 182 195t184 196q-37 84 -72.5 166t-70.5 165l-160 -45l-43 88q76 70 143.5 105t114.5 35q35 0 70 -12.5t64 -69.5q33 -70 57 -137.5t59 -141.5q66 90 131.5 180.5t130.5 180.5h23l125 -117v-23l-344 -360q41 -88 76.5 -173t74.5 -175 q47 4 87 21.5t81 39.5q16 -23 32.5 -42t35.5 -42q-41 -51 -81 -83.5t-79 -52t-71.5 -27t-57.5 -7.5q-66 0 -96.5 38t-61.5 110l-102 239q-72 -100 -145.5 -198.5t-149.5 -194.5q-4 0 -9 -1t-11 -1l-58.5 58.5z" />
<glyph unicode="y" horiz-adv-x="1089" d="M-257 -362q-5 17 -5 36q0 25 8 54l88 53q31 -27 56.5 -41t50 -21.5t47 -8.5t47.5 -1q78 0 177 47t200 158q-20 109 -46 238t-52.5 256t-51 238.5t-45.5 184.5l-151 -36l-33 90q78 70 147.5 100.5t110.5 30.5q47 0 72.5 -15.5t37.5 -74.5t34 -167t44.5 -229.5t44 -242.5 t35.5 -209q61 76 110.5 176t84 205.5t53 206t18.5 178.5l-145 -35l-33 98q70 59 137.5 88t120.5 29q61 0 89 -40t28 -130q0 -119 -41 -264.5t-114.5 -292.5t-175 -285.5t-221.5 -246t-255 -173t-276 -65.5q-47 0 -88 12t-69 37t-39 62z" />
<glyph unicode="z" horiz-adv-x="985" d="M25 119l643 739h-371l-78 -203l-104 11l22 243q2 31 14.5 49.5t29 27.5t33.5 12t32 3h669l23 -120l-645 -740h446l88 213l95 -6l-31 -260q-4 -29 -16.5 -46t-29 -26.5t-33.5 -12.5t-32 -3h-737z" />
<glyph unicode="{" horiz-adv-x="561" d="M74 537l14 116q78 14 115 71.5t47 145.5l33 273q6 47 17 99t36.5 95t69 72t112.5 29h144l-17 -131h-49q-59 0 -88 -39t-35 -97l-39 -315q-6 -45 -15 -87t-26.5 -76t-46.5 -58.5t-72 -34.5v-2q41 -23 63.5 -50.5t31 -63t6.5 -83t-10 -104.5l-46 -377q-8 -53 6.5 -93 t77.5 -40h56l-17 -131h-131q-68 0 -106.5 20.5t-57 56.5t-19.5 84t5 103l49 412q10 78 -11 136t-97 69z" />
<glyph unicode="|" horiz-adv-x="540" d="M201 -291v1731h145v-1731h-145z" />
<glyph unicode="}" horiz-adv-x="577" d="M-51 -344l16 131h49q59 0 88 39t35 96l43 395q6 45 15.5 87t27 76t46 58.5t71.5 34.5v2q-41 20 -63.5 49t-30.5 65t-6 82t10 106l41 297q8 53 -6.5 93t-77.5 40h-55l16 131h131q68 0 106.5 -20.5t57 -56.5t19.5 -84t-5 -103l-45 -332q-10 -78 11.5 -136.5t97.5 -68.5 l-15 -117q-78 -14 -114.5 -71.5t-46.5 -145.5l-37 -352q-6 -47 -17.5 -99.5t-37 -95.5t-68.5 -71.5t-113 -28.5h-143z" />
<glyph unicode="~" d="M162 557q49 94 116.5 143.5t145.5 49.5q49 0 104.5 -14.5t110.5 -33t107.5 -33t95.5 -14.5l145 99l72 -64q-47 -92 -113.5 -145t-148.5 -53q-61 0 -117.5 15t-108 32.5t-97.5 33t-87 15.5l-154 -96z" />
<glyph unicode="&#xa2;" d="M184 348q0 117 22.5 230.5t76 206t141.5 156t219 77.5l25 196h88l-25 -192q55 -2 115.5 -14.5t87.5 -22.5q37 -16 54.5 -36.5t17.5 -57.5q0 -14 -6.5 -43t-15.5 -62.5t-21.5 -68.5t-24.5 -64q-29 2 -56.5 3t-56.5 6q4 45 5 91t4 93q-23 8 -56 12t-65 4l-88 -710 q61 2 118.5 15t135.5 36q10 -35 24.5 -68t24.5 -67q-63 -31 -149.5 -53.5t-174.5 -26.5l-18 -156h-90l18 156q-90 4 -152.5 31.5t-101.5 74.5t-57.5 111.5t-18.5 142.5zM397 385q0 -92 32 -149.5t108 -75.5l84 688q-57 -20 -99.5 -66.5t-70 -108t-41 -136t-13.5 -152.5z" />
<glyph unicode="&#xa3;" d="M74 0l10 150q47 23 80 60.5t54.5 83.5t34.5 96t21 99l25 140h-131l14 125h137l33 207q14 94 45 171.5t83 134t127 87t177 30.5q100 0 192.5 -20.5t151.5 -52.5l-28 -285h-154l19 164q-37 10 -78 19.5t-96 9.5q-61 0 -103.5 -19.5t-70 -54.5t-44 -85t-28.5 -112l-31 -194 h344l-14 -125h-350l-25 -148q-16 -96 -47 -189t-90 -140h680l-15 -152h-923z" />
<glyph unicode="&#xa5;" d="M127 1210l20 152h418l-20 -152h-117l168 -501h6l291 501h-119l17 152h423l-18 -152h-96l-320 -518h252l-12 -90h-864l12 90h246l-189 518h-98zM133 410l12 96h863l-11 -96h-333l-31 -260h158l-19 -150h-520l18 150h154l33 260h-324z" />
<glyph unicode="&#xa8;" horiz-adv-x="1048" d="M324 1245q0 53 38.5 90t83.5 37q47 0 75 -25.5t28 -70.5q0 -53 -37 -91t-90 -38q-43 0 -70.5 27.5t-27.5 70.5zM711 1245q0 53 37.5 90t82.5 37t73 -25.5t28 -70.5q0 -53 -36 -91t-91 -38q-41 0 -67.5 27.5t-26.5 70.5z" />
<glyph unicode="&#xa9;" horiz-adv-x="1693" d="M111 680q0 156 57 293t157.5 240.5t237.5 163t295 59.5q162 0 299 -59.5t237.5 -163t156 -240.5t55.5 -293q0 -158 -59.5 -295t-161 -240.5t-237.5 -163t-290 -59.5q-172 0 -310 59.5t-235.5 163t-149.5 240.5t-52 295zM211 680q0 -135 45 -255t129 -209t204 -141 t269 -52q135 0 252 52t205 141t138 209t50 255t-48 254t-134 208t-204 140t-259 51q-135 0 -254 -51t-206 -140t-137 -208t-50 -254zM438 664q0 82 19.5 174t71 168.5t138.5 127t222 50.5q82 0 143.5 -12.5t106.5 -28.5v-250h-111v147q-27 6 -63.5 11.5t-71.5 5.5 q-152 0 -222.5 -105.5t-70.5 -285.5q0 -86 14.5 -156t50 -119t94 -75.5t146.5 -26.5q39 0 107.5 7t122.5 23l24 -112q-27 -10 -61.5 -19.5t-72.5 -15.5t-78 -9t-77 -3q-123 0 -204.5 38t-133 104.5t-73 158.5t-21.5 203z" />
<glyph unicode="&#xab;" horiz-adv-x="911" d="M100 354l11 78l348 344l80 -65l-244 -318l164 -315l-94 -66zM426 354l10 78l348 344l78 -65l-239 -318l161 -315l-92 -66z" />
<glyph unicode="&#xad;" horiz-adv-x="749" d="M115 461l20 168h529l-23 -168h-526z" />
<glyph unicode="&#xae;" horiz-adv-x="1187" d="M145 961q0 104 37 196t102.5 160.5t158 107.5t200.5 39q111 0 202 -39t157.5 -107.5t103.5 -160.5t37 -196t-37 -196.5t-103.5 -160t-157.5 -107.5t-202 -40q-109 0 -200 40t-157.5 107.5t-103.5 159.5t-37 197zM225 961q0 -86 31 -164t86 -135.5t132 -91t169 -33.5 q98 0 176 33.5t132.5 91t83 135.5t28.5 164q0 88 -31 164.5t-86 135t-133 92t-170 33.5t-169 -33.5t-132 -92t-86 -135t-31 -164.5zM410 672v76h53v442h-53v78h270q92 0 140 -45t48 -127q0 -39 -24.5 -86t-79.5 -72l90 -190l64 -9v-65q-18 -4 -44 -7t-43 -3q-31 0 -46 13 t-29 42l-97 203h-90v-174h64v-76h-223zM569 997h93q39 0 68.5 20t29.5 79q0 53 -29 74.5t-65 21.5h-97v-195z" />
<glyph unicode="&#xb4;" horiz-adv-x="1048" d="M520 1176l295 352l117 -123l-338 -301z" />
<glyph unicode="&#xb8;" horiz-adv-x="933" d="M207 -510q0 23 1 45.5t1 44.5q113 10 182.5 42t69.5 85q0 23 -18.5 36t-46 20.5t-59.5 9.5t-61 2l-22 45q113 135 231 262q16 -12 31.5 -22.5t32.5 -20.5l-139 -160q90 -8 141 -45t51 -104q0 -43 -21.5 -85t-69.5 -76t-123 -56.5t-181 -22.5z" />
<glyph unicode="&#xbb;" horiz-adv-x="911" d="M51 78l242 315l-164 318l96 65l267 -344l-11 -78l-350 -342zM379 78l237 315l-161 318l96 65l264 -344l-10 -78l-350 -342z" />
<glyph unicode="&#x2c6;" horiz-adv-x="1048" d="M242 1161l336 297h137l268 -295l-61 -71l-291 206l-340 -204z" />
<glyph unicode="&#x2da;" horiz-adv-x="1048" d="M416 1358q6 47 27.5 89t55 72.5t79 49t96.5 18.5q47 0 85 -18.5t64.5 -49t37.5 -72.5t5 -89q-4 -47 -26.5 -89t-56 -73t-77 -48.5t-90.5 -17.5t-87 18.5t-67.5 49.5t-39.5 72t-6 88zM522 1354q-6 -51 21.5 -88t85.5 -37q53 0 89 37t42 88q8 53 -20 90t-81 37 q-55 0 -93 -37t-44 -90z" />
<glyph unicode="&#x2dc;" horiz-adv-x="1048" d="M287 1221q41 84 94 126t113 42q39 0 79.5 -12.5t79.5 -26t76 -25.5t68 -12l123 80l55 -54q-35 -78 -87.5 -124t-115.5 -46q-47 0 -89 12.5t-80 28t-71.5 27.5t-62.5 12l-121 -80z" />
<glyph unicode="&#x401;" horiz-adv-x="1206" d="M33 0l16 154h135l135 1097h-129l17 152h1024l-45 -354h-160l25 202h-512l-56 -446l484 10l-17 -162l-485 9l-62 -508h553l27 208h164l-45 -362h-1069zM483 1599q2 47 40 81t79 34q47 0 74.5 -27.5t25.5 -70.5q-4 -51 -39.5 -85t-82.5 -34q-45 0 -72 29.5t-25 72.5z M864 1597q2 49 37 83t80 34t73.5 -27.5t24.5 -70.5q-4 -51 -38.5 -85t-86.5 -34q-43 0 -68.5 28.5t-21.5 71.5z" />
<glyph unicode="&#x402;" horiz-adv-x="1579" d="M127 1069l41 334h1237l-41 -334h-160l21 182h-416l-55 -460q98 39 191 56t171 17q186 0 285.5 -96t99.5 -276q0 -127 -42 -238t-110.5 -202t-155.5 -161.5t-175 -119.5l-72 116q145 104 234.5 241.5t89.5 311.5q0 137 -59.5 196.5t-174.5 59.5q-66 0 -145.5 -15 t-157.5 -46l-59 -481h149l-16 -154h-504l19 154h137l133 1097h-283l-20 -182h-162z" />
<glyph unicode="&#x403;" horiz-adv-x="1148" d="M33 0l16 154h137l133 1097h-129l17 152h1028l-45 -354h-160l25 202h-516l-136 -1097h189l-19 -154h-540zM668 1575l372 260l88 -145l-405 -203z" />
<glyph unicode="&#x404;" horiz-adv-x="1177" d="M125 549q0 86 11 185.5t41 196.5t81 187t130 159t190.5 109.5t263.5 40.5q111 0 196.5 -16t151.5 -39l-41 -342h-164l27 197q-37 10 -86 17t-99 7q-92 0 -166.5 -31.5t-132 -90t-95.5 -141.5t-56 -183l524 12l-14 -166l-527 8q-6 -55 -6 -106q0 -84 20.5 -154.5 t66.5 -123t120 -82t180 -29.5q27 0 65 3t81 9t88 14.5t86 20.5q6 -41 14 -81t17 -81q-41 -16 -93.5 -27.5t-107.5 -19.5t-111.5 -12t-105.5 -4q-152 0 -256.5 38.5t-169 112.5t-94 178.5t-29.5 233.5z" />
<glyph unicode="&#x405;" d="M41 88l35 295h162l-25 -174q63 -31 139 -43t137 -12q160 0 252.5 64.5t92.5 182.5q0 55 -20.5 92t-60.5 63t-97.5 44t-129.5 37q-80 23 -146.5 51.5t-114.5 68.5t-74.5 96t-26.5 136q0 106 40 188.5t109.5 137.5t163.5 82.5t203 27.5q41 0 93 -4t105.5 -14t105.5 -26.5 t95 -41.5l-37 -295h-161l24 177q-59 23 -116.5 31t-110.5 8q-59 0 -110.5 -15.5t-90.5 -45.5t-61.5 -75t-22.5 -106q0 -47 23.5 -80t62.5 -57.5t88 -43t99 -32.5q78 -23 151.5 -48.5t130 -65.5t91 -101.5t34.5 -157.5q0 -119 -45 -204t-124 -140t-186.5 -80.5t-230.5 -25.5 q-109 0 -229.5 23.5t-216.5 82.5z" />
<glyph unicode="&#x406;" horiz-adv-x="757" d="M88 0l18 154h130l133 1097h-129l18 154h479l-18 -154h-131l-135 -1097h131l-17 -154h-479z" />
<glyph unicode="&#x407;" horiz-adv-x="757" d="M88 0l18 154h130l133 1097h-129l18 154h479l-18 -154h-131l-135 -1097h131l-17 -154h-479zM199 1612q0 53 39 90t84 37q47 0 74.5 -25.5t27.5 -71.5q0 -53 -37 -91t-90 -38q-43 0 -70.5 28t-27.5 71zM586 1612q0 53 38 90t83 37t72.5 -25.5t27.5 -71.5q0 -53 -36 -91 t-91 -38q-41 0 -67.5 28t-26.5 71z" />
<glyph unicode="&#x408;" horiz-adv-x="778" d="M-123 -215q117 43 190.5 92t117.5 108.5t64.5 132t33.5 161.5l120 972h-202l18 154h600l-18 -154h-178l-119 -954q-16 -137 -56 -246.5t-110 -191.5t-174.5 -137.5t-249.5 -86.5z" />
<glyph unicode="&#x409;" horiz-adv-x="1974" d="M-20 119q119 37 195.5 105.5t126.5 180t81 272.5t59 384l25 188h-174l18 156h1082l-19 -154h-141l-53 -413h290q205 0 315.5 -100.5t110.5 -272.5q0 -117 -38.5 -204t-105 -145.5t-154 -87t-183.5 -28.5h-686l16 154h132l137 1097l-348 -2l-17 -145q-29 -225 -64.5 -422 t-103 -347.5t-178 -247.5t-285.5 -126zM1096 154h295q57 0 108 19.5t90 57t61.5 94t22.5 132.5q0 119 -72.5 173t-179.5 54h-260z" />
<glyph unicode="&#x40a;" horiz-adv-x="2025" d="M35 0l16 154h133l135 1097h-131l19 152h471l-19 -152h-120l-54 -424h525l51 424h-131l18 154h494l-19 -154h-145l-49 -420h289q205 0 315.5 -98t110.5 -268q0 -113 -39 -200t-104.5 -145.5t-152.5 -89t-184 -30.5h-686l19 154h129l63 526h-520l-66 -526h123l-18 -154 h-473zM1145 154h295q57 0 108 19.5t89 57t60.5 94t22.5 132.5q0 117 -72.5 170t-177.5 53h-262z" />
<glyph unicode="&#x40b;" horiz-adv-x="1693" d="M133 1069l41 334h1231l-41 -334h-160l23 182h-410l-57 -456q98 35 194.5 52t182.5 17q92 0 163.5 -19.5t118.5 -59.5t68.5 -103.5t9.5 -151.5l-47 -376h129l-16 -154h-476l19 154h125l43 335q14 121 -43 166t-178 45q-80 0 -165 -19t-149 -48l-57 -479h135l-18 -154h-488 l19 154h135l137 1097h-287l-20 -182h-162z" />
<glyph unicode="&#x40c;" horiz-adv-x="1329" d="M33 0l16 154h129l135 1097h-129l19 152h475l-16 -152h-132l-133 -1097h129l-18 -154h-475zM530 694l7 68l458 559q47 57 87 78.5t92 19.5q98 0 184 -45l-25 -129l-172 -16l-428 -500l332 -565l182 -17l4 -129q-47 -20 -104 -27t-92 -7q-59 -4 -100.5 15t-69.5 69z M705 1581l372 260l88 -145l-405 -203z" />
<glyph unicode="&#x40e;" horiz-adv-x="1245" d="M135 1249l19 154h454l-18 -154h-129q29 -92 61.5 -200.5t59.5 -200.5l94 -303h10q27 63 62.5 139t64.5 137l195 428h-127q2 12 4 34t4 44.5t5 43t5 32.5h449l-19 -154h-110l-504 -1056q-31 -61 -59.5 -103.5t-62.5 -69t-76 -39t-97 -12.5q-47 0 -105.5 7.5t-142.5 29.5 l41 150q106 -23 168 -23q45 0 80 26.5t69 96.5l68 145h-70q-31 92 -67.5 201t-75.5 222.5t-76 223t-65 201.5h-109zM459 1741l110 80q49 -82 109.5 -128t116.5 -46q18 0 44.5 3t63.5 18t86 48t115 90l55 -61q-104 -139 -205.5 -193.5t-183.5 -54.5q-55 0 -101 20.5t-84 54.5 t-69 78t-57 91z" />
<glyph unicode="&#x40f;" horiz-adv-x="1468" d="M29 0q6 37 10 76t8 76h131l137 1097h-133l19 152h477q-6 -39 -10 -76t-9 -76h-124l-138 -1097h598l138 1097h-125q4 39 9 76t11 76h475l-18 -152h-133q-35 -276 -68 -548.5t-65 -548.5h131l-17 -152h-565l-47 -367h-170q12 92 23.5 183.5t21.5 183.5h-567z" />
<glyph unicode="&#x410;" horiz-adv-x="1384" d="M-12 0l14 154h117l563 1251h270l252 -1251h109l-19 -154h-458l16 154h133l-43 233h-510l-100 -233h135l-16 -154h-463zM502 543h413l-73 407l-45 275h-6l-109 -258z" />
<glyph unicode="&#x411;" horiz-adv-x="1277" d="M25 0l16 154h139l135 1097h-127l19 152h979l-39 -320h-162l23 168h-473l-52 -413h291q205 0 314.5 -100.5t109.5 -272.5q0 -117 -39 -204t-104.5 -145.5t-152.5 -87t-183 -28.5h-694zM399 154h295q57 0 108.5 19.5t89.5 58t60.5 96t22.5 133.5q0 115 -72 169t-178 54 h-260z" />
<glyph unicode="&#x412;" horiz-adv-x="1286" d="M29 0q6 39 10 77t8 77h139l136 1095h-134l19 154h667q94 0 163 -23.5t114 -65.5t66.5 -100.5t21.5 -128.5q0 -49 -11 -98t-37 -95t-70 -86t-109 -71v-2q57 -18 95 -51t60.5 -74t30.5 -86t8 -88q0 -109 -38 -189.5t-101 -135t-145 -82t-170 -27.5h-723zM406 154h286 q145 0 215 80.5t70 203.5q0 43 -13.5 81t-41 66.5t-69.5 46t-99 17.5h-289zM483 797h258q129 0 202 73.5t73 186.5q0 86 -51.5 139t-167.5 53h-256q-16 -115 -28.5 -227.5t-29.5 -224.5z" />
<glyph unicode="&#x413;" horiz-adv-x="1148" d="M33 0l16 154h137l133 1097h-129l17 152h1028l-45 -354h-160l25 202h-516l-136 -1097h189l-19 -154h-540z" />
<glyph unicode="&#x414;" horiz-adv-x="1468" d="M-45 -350l59 497l113 7q92 96 154.5 204.5t103.5 232.5t66.5 264t46.5 300l12 96h-143l18 152h1094l-19 -152h-131l-135 -1097l135 -7l-59 -497h-166l43 350h-981l-43 -350h-168zM369 154h608l135 1097h-412l-14 -108q-18 -143 -38.5 -278.5t-55.5 -259.5t-88 -237.5 t-135 -213.5z" />
<glyph unicode="&#x415;" horiz-adv-x="1206" d="M33 0l16 154h135l135 1097h-129l17 152h1024l-45 -354h-160l25 202h-512l-56 -446l484 10l-17 -162l-485 9l-62 -508h553l27 208h164l-45 -362h-1069z" />
<glyph unicode="&#x416;" horiz-adv-x="1931" d="M-8 16l8 129q47 4 90 10.5t90 10.5q111 143 226.5 285.5t228.5 287.5l-307 488q-45 4 -89 8t-89 8q-2 35 -2.5 65.5t-0.5 63.5q41 20 93.5 32.5t97.5 14.5q37 0 66.5 -8t56.5 -49l381 -612q-4 -16 -5 -34t-3 -34l-515 -625q-43 -53 -86 -63t-83 -10q-35 2 -79 10t-79 22z M682 0l18 154h127q33 274 67 546.5t69 548.5h-129q12 76 18 154h471l-18 -154h-129q-35 -276 -69 -548.5t-67 -546.5h131l-18 -154h-471zM1163 688l6 66l502 596q37 43 72 55t69 12q49 0 95.5 -12t87.5 -33l-25 -129q-47 -4 -91 -8t-91 -8l-422 -506l303 -555l184 -21 l5 -129q-45 -16 -102.5 -24t-92.5 -8q-68 0 -112 29.5t-87 111.5z" />
<glyph unicode="&#x417;" horiz-adv-x="1167" d="M25 72l65 153q104 -35 195.5 -47t156.5 -12q199 0 301.5 76.5t102.5 222.5q0 100 -80 158.5t-205 58.5h-168l17 147h157q74 0 133.5 19.5t100.5 53.5t62.5 79t21.5 96q0 102 -74 144.5t-188 42.5q-66 0 -131.5 -12.5t-120.5 -34.5l-25 -211h-166q12 84 20.5 165.5 t18.5 165.5q49 23 105.5 39.5t115 27.5t115.5 17t109 6q94 0 176 -17t142 -55t95 -98.5t35 -144.5q0 -121 -68.5 -213t-191.5 -135v-2q109 -35 165 -115t56 -182q0 -121 -50 -210t-134 -147.5t-192.5 -88t-225.5 -29.5q-121 0 -237.5 19.5t-208.5 62.5z" />
<glyph unicode="&#x418;" horiz-adv-x="1503" d="M27 0l18 154h141q33 274 66 546.5t67 548.5h-135q4 39 8.5 76t8.5 76h489q-6 -39 -10 -76t-8 -76h-137l-101 -815h4q184 190 365.5 378.5t367.5 379.5l7 57h-156q6 39 10 76t8 76h506l-18 -152h-137l-138 -1095h140l-17 -154h-489q6 37 9 76t9 78h135q25 205 50.5 410.5 t52.5 412.5h-6q-184 -193 -364.5 -382t-364.5 -380l-9 -61h133q-6 -39 -10 -78t-8 -76h-487z" />
<glyph unicode="&#x419;" horiz-adv-x="1503" d="M27 0l18 154h141q33 274 66 546.5t67 548.5h-135q4 39 8.5 76t8.5 76h489q-6 -39 -10 -76t-8 -76h-137l-101 -815h4q184 190 365.5 378.5t367.5 379.5l7 57h-156q6 39 10 76t8 76h506l-18 -152h-137l-138 -1095h140l-17 -154h-489q6 37 9 76t9 78h135q25 205 50.5 410.5 t52.5 412.5h-6q-184 -193 -364.5 -382t-364.5 -380l-9 -61h133q-6 -39 -10 -78t-8 -76h-487zM580 1782l110 80q49 -84 109.5 -129t115.5 -45q18 0 45 3t64 18t86 47t115 91l55 -63q-53 -70 -104.5 -117t-101.5 -75.5t-96 -41t-87 -12.5q-55 0 -101.5 20.5t-84 54.5t-68.5 78 t-57 91z" />
<glyph unicode="&#x41a;" horiz-adv-x="1329" d="M33 0l16 154h129l135 1097h-129l19 152h475l-16 -152h-132l-133 -1097h129l-18 -154h-475zM530 694l7 68l458 559q47 57 87 78.5t92 19.5q98 0 184 -45l-25 -129l-172 -16l-428 -500l332 -565l182 -17l4 -129q-47 -20 -104 -27t-92 -7q-59 -4 -100.5 15t-69.5 69z" />
<glyph unicode="&#x41b;" horiz-adv-x="1419" d="M-20 117q117 37 193.5 105.5t126.5 180t83 273.5t61 385l23 188h-174l18 156h1127l-19 -154h-133l-133 -1095h131l-16 -156h-475l18 156h121l135 1093h-401l-17 -145q-29 -225 -64.5 -422t-103 -348.5t-178 -248.5t-285.5 -126z" />
<glyph unicode="&#x41c;" horiz-adv-x="1806" d="M29 0l18 154h133l133 1095h-131l19 154h393l219 -705l82 -292h12l117 225l414 772h407l-20 -154h-125l-133 -1095h123l-19 -154h-457l17 154h123l112 929h-4l-102 -192l-389 -713h-189l-282 905h-6l-111 -929h127l-18 -154h-463z" />
<glyph unicode="&#x41d;" horiz-adv-x="1468" d="M33 0l16 156h131l135 1095h-131l19 154h475l-19 -154h-124l-54 -440h598l54 440h-123l18 154h477l-18 -154h-131l-135 -1095h131l-17 -156h-477l19 156h122l62 501h-598l-62 -501h125l-18 -156h-475z" />
<glyph unicode="&#x41e;" horiz-adv-x="1400" d="M125 547q0 166 40 324.5t124 282.5t214 198.5t312 74.5q147 0 247.5 -45t162 -124.5t89 -186t27.5 -229.5q0 -180 -44 -337t-130 -273.5t-212 -183t-289 -66.5q-143 0 -246 39.5t-168.5 113.5t-96 178.5t-30.5 233.5zM352 543q0 -195 76 -295.5t248 -100.5 q117 0 199.5 57.5t135 155t77 224.5t24.5 266q0 82 -13.5 156.5t-47 132t-92 91.5t-150.5 34q-131 0 -218 -65.5t-140.5 -169t-76 -231.5t-22.5 -255z" />
<glyph unicode="&#x41f;" horiz-adv-x="1468" d="M33 0l16 156h131l133 1091h-131l21 158h1302l-20 -158h-131l-133 -1091h131l-17 -156h-477l19 156h122l134 1091h-598l-134 -1091h125l-18 -156h-475z" />
<glyph unicode="&#x420;" horiz-adv-x="1187" d="M33 0l16 154h131l133 1097h-129l19 154h606q193 0 294 -93t101 -274q0 -82 -25.5 -166t-83 -152.5t-148.5 -112.5t-222 -44h-276l-52 -409h172l-16 -154h-520zM467 713h227q51 0 101.5 17.5t90.5 54t64.5 96t24.5 143.5q0 115 -58.5 171t-156.5 56h-228z" />
<glyph unicode="&#x421;" horiz-adv-x="1177" d="M125 551q0 86 11 185.5t41 196.5t81 187t131 159t191.5 110t263.5 41q111 0 197.5 -16.5t152.5 -41.5l-43 -356h-162l25 213q-35 10 -83 17t-100 7q-121 0 -210 -51t-147 -141t-88 -217t-30 -277q0 -190 88 -288.5t297 -98.5q25 0 63 2t81 8.5t88 14.5t86 20l33 -174 q-41 -16 -92.5 -28.5t-106.5 -21.5t-111.5 -14t-105.5 -5q-152 0 -256.5 39.5t-170 114.5t-95 180.5t-29.5 234.5z" />
<glyph unicode="&#x422;" horiz-adv-x="1165" d="M109 1034l45 371h1099l-45 -371h-161l26 217h-280l-134 -1097h164l-16 -154h-545l19 154h161l136 1097h-285l-25 -217h-159z" />
<glyph unicode="&#x423;" horiz-adv-x="1245" d="M135 1249l19 154h454l-18 -154h-129q29 -92 61.5 -200.5t59.5 -200.5l94 -303h10q27 63 62.5 139t64.5 137l195 428h-127q2 12 4 34t4 44.5t5 43t5 32.5h449l-19 -154h-110l-504 -1056q-31 -61 -59.5 -103.5t-62.5 -69t-76 -39t-97 -12.5q-47 0 -105.5 7.5t-142.5 29.5 l41 150q106 -23 168 -23q45 0 80 26.5t69 96.5l68 145h-70q-31 92 -67.5 201t-75.5 222.5t-76 223t-65 201.5h-109z" />
<glyph unicode="&#x424;" horiz-adv-x="1601" d="M109 647q0 121 55 220.5t151.5 171t225.5 113.5t276 50l6 51h-121l19 150h446l-18 -150h-121l-8 -53q129 -10 234.5 -44t180 -90t116.5 -135t42 -179q0 -127 -61.5 -222.5t-159.5 -162t-222 -103.5t-249 -45l-10 -69h121l-17 -150h-446l16 150h121l10 69q-119 6 -225 35 t-187 82t-128 131t-47 180zM309 672q0 -74 34 -128.5t90 -91t130 -57t154 -28.5l86 675q-98 -6 -187.5 -31.5t-157 -71.5t-108.5 -112.5t-41 -154.5zM918 367q90 6 176 30.5t152.5 70.5t106.5 114.5t40 160.5q0 131 -102.5 211t-286.5 88z" />
<glyph unicode="&#x425;" horiz-adv-x="1325" d="M-14 0l16 156h96l451 589l-252 504h-135l18 156h498l-19 -156h-122l190 -389l303 389h-121l19 156h461l-19 -156h-113l-423 -528l288 -565h127l-16 -156h-508l18 156h131l-219 440l-331 -440h147l-18 -156h-467z" />
<glyph unicode="&#x426;" horiz-adv-x="1468" d="M27 0q6 37 10 76t8 76h133q33 276 67 548.5t68 548.5h-131q6 72 19 152h475l-19 -152h-125l-135 -1097h598q33 276 67 548.5t68 548.5h-122q4 39 8 76t10 76h475q-4 -39 -8 -76t-10 -76h-133q-33 -276 -66 -548.5t-67 -548.5h153q-16 -123 -30.5 -248t-28.5 -252h-168 q12 88 23.5 175t21.5 173h-1161z" />
<glyph unicode="&#x427;" horiz-adv-x="1384" d="M135 1247q12 76 19 154h473l-17 -154h-127l-39 -313q-2 -10 -2 -19.5v-19.5q0 -100 64.5 -137t187.5 -37q74 0 153 13.5t142 39.5q16 119 30.5 236.5t29.5 236.5h-121l18 154h471q-4 -39 -8 -77t-8 -77h-135q-33 -274 -67 -546.5t-69 -546.5h136q-6 -39 -10.5 -78 t-8.5 -76h-481q6 37 10 76l8 78h129l58 452q-96 -29 -187.5 -41t-175.5 -12q-86 2 -157.5 18.5t-124 51t-81 88t-28.5 127.5v24t2 25q12 92 23.5 180t21.5 180h-129z" />
<glyph unicode="&#x428;" horiz-adv-x="2002" d="M33 0l16 154h131l135 1095h-131l19 154h467l-17 -154h-123l-135 -1095h465l135 1095h-118l18 154h455l-17 -154h-123l-135 -1095h465l135 1095h-123l19 154h469l-19 -154h-131l-135 -1095h131l-16 -154h-1837z" />
<glyph unicode="&#x429;" horiz-adv-x="2002" d="M33 0l16 154h131l135 1095h-131l19 154h467l-17 -154h-123l-135 -1095h465l135 1095h-118l18 154h455l-17 -154h-123l-135 -1095h465l135 1095h-123l19 154h469l-19 -154h-131l-135 -1095h152l-62 -504h-166l45 350h-1691z" />
<glyph unicode="&#x42a;" horiz-adv-x="1585" d="M104 1014l50 389h837l-20 -152h-129l-54 -413h293q203 0 313.5 -100.5t110.5 -270.5q0 -117 -39 -205t-104.5 -146.5t-152.5 -87t-183 -28.5h-694l16 154h139l134 1097h-326l-31 -237h-160zM707 154h292q57 0 109.5 19.5t90.5 58t60.5 96t22.5 133.5q0 115 -71.5 169 t-176.5 54h-262z" />
<glyph unicode="&#x42b;" horiz-adv-x="1865" d="M33 0l16 154h139l136 1097h-140l19 154h502l-21 -154h-143l-49 -413h288q205 0 314.5 -100.5t109.5 -270.5q0 -115 -39 -203t-104.5 -146.5t-152.5 -88t-183 -29.5h-692zM408 154h292q57 0 108.5 19.5t90.5 58t61.5 96t22.5 133.5q0 115 -72.5 169t-177.5 54h-262z M1245 0l19 154h129l137 1097h-131l18 152h479l-18 -152h-131l-133 -1097h131l-19 -154h-481z" />
<glyph unicode="&#x42c;" horiz-adv-x="1296" d="M43 0l16 154h140l135 1097h-139l18 154h502l-21 -154h-143l-49 -413h289q205 0 315.5 -99.5t110.5 -269.5q0 -117 -39 -205t-105.5 -146.5t-154 -88t-183.5 -29.5h-692zM418 154h293q57 0 108 19.5t90 58t61.5 96t22.5 133.5q0 115 -72.5 169t-177.5 54h-262z" />
<glyph unicode="&#x42d;" horiz-adv-x="1179" d="M33 49l57 160q76 -23 156 -35t145 -12q119 0 207 39t148.5 106.5t95.5 157.5t47 194l-496 -8l23 166l491 -14q6 45 6 88q0 78 -18 144.5t-60 114.5t-106.5 75.5t-157.5 27.5q-51 0 -110.5 -9t-100.5 -19q-6 -49 -12 -99.5t-10 -99.5h-164l43 342q72 25 169 42t208 17 q160 0 264.5 -46t165.5 -123.5t86 -181t25 -218.5q0 -178 -41 -335.5t-129 -277.5t-226.5 -189.5t-330.5 -69.5q-98 0 -201 15t-174 48z" />
<glyph unicode="&#x42e;" horiz-adv-x="1961" d="M29 0l18 154h131l137 1095h-133l19 152h483l-18 -152h-131l-56 -440h273q25 123 72.5 234.5t124.5 197.5t186.5 136t259.5 50q139 0 236.5 -45t158.5 -122.5t89 -183t28 -228.5q0 -184 -42 -342t-125 -273.5t-206 -181t-283 -65.5q-141 0 -241.5 40t-163 113.5t-92 179 t-29.5 238.5q0 25 1 48.5t3 49.5h-268q-16 -125 -31.5 -249.5t-32.5 -251.5h125l-16 -154h-477zM944 530q0 -190 73 -287.5t245 -97.5q113 0 193.5 58.5t131.5 156t75 225.5t24 269q0 82 -15.5 155.5t-50.5 130t-93.5 89.5t-146.5 33q-127 0 -211 -67t-134 -172 t-70.5 -235.5t-20.5 -257.5z" />
<glyph unicode="&#x42f;" horiz-adv-x="1323" d="M-6 10l14 125l158 21l266 477q-66 16 -108.5 51t-68.5 80t-36 96t-10 98q0 109 35 193t98.5 140.5t152.5 85t195 28.5h637l-18 -154h-129l-136 -1097h136l-19 -154h-491l18 154h137l56 444h-248l-266 -489q-16 -31 -33 -55.5t-37.5 -40t-47 -23.5t-63.5 -8q-16 0 -41.5 2 t-52 5t-53.5 9t-45 12zM434 952q0 -63 22.5 -103t57.5 -62.5t77 -30.5t81 -8h227l62 503h-252q-55 0 -104.5 -18.5t-87.5 -55t-60.5 -93t-22.5 -132.5z" />
<glyph unicode="&#x430;" horiz-adv-x="1169" d="M82 328q0 141 32.5 266t98.5 219t164 149.5t227 55.5q59 0 118.5 -14.5t123.5 -40.5l49 55l141 -8q-18 -117 -35.5 -235t-33 -227.5t-27.5 -208.5t-20 -181q41 4 84 19.5t83 37.5q8 -16 22.5 -47t25.5 -47q-31 -31 -69 -56.5t-77 -46t-75.5 -32t-67.5 -11.5 q-70 0 -97.5 37t-31.5 97q0 41 5 82.5t13 89.5h-10q-45 -90 -92 -147.5t-95.5 -92.5t-96.5 -48t-95 -13q-119 0 -191.5 86t-72.5 262zM295 360q0 -115 38 -170t99 -55q37 0 77 20.5t83 70.5t85 133t83 206l41 252q-59 23 -108.5 30t-84.5 7q-92 0 -152.5 -50t-96 -124 t-50 -160t-14.5 -160z" />
<glyph unicode="&#x431;" horiz-adv-x="1075" d="M86 401q0 55 5 118t14.5 127.5t20.5 128t26 120.5q23 96 55.5 182t76.5 154.5t104.5 119t137.5 74.5q45 14 99.5 23.5t115 15.5t122 13.5t118.5 19.5q6 -39 12 -76t15 -75q-86 -20 -163 -27.5t-126 -13.5q-90 -10 -155.5 -42t-114 -93.5t-82 -158t-58.5 -235.5l10 -8 q43 82 93.5 130t99.5 72.5t94 31t76 6.5q154 0 241 -99.5t87 -292.5q0 -106 -30 -217.5t-93.5 -204t-166 -150.5t-245.5 -58q-117 0 -192.5 30.5t-119.5 86t-60.5 132t-16.5 166.5zM281 371q0 -47 9 -89t31.5 -74t60.5 -50.5t97 -18.5q68 0 125.5 34t98 97.5t63 155.5 t22.5 207q0 61 -16 102t-40.5 66.5t-55.5 36t-64 10.5q-35 0 -76.5 -16.5t-84.5 -53.5t-83 -95t-71 -140q-6 -45 -11 -89t-5 -83z" />
<glyph unicode="&#x432;" horiz-adv-x="1026" d="M43 76q16 131 31.5 261t31.5 261q8 94 41 173t88.5 135.5t135.5 88t186 31.5q158 0 252 -77t96 -195q0 -61 -32.5 -121t-102.5 -84q82 -12 125 -71.5t43 -131.5q0 -104 -44 -175t-113.5 -115t-156.5 -62.5t-175 -18.5q-35 0 -83.5 3.5t-101.5 12.5t-107.5 24.5 t-101.5 37.5zM254 162q23 -8 51.5 -13.5t56 -9.5t53.5 -6t44 -2q51 0 101 10.5t89 35t62.5 66.5t23.5 103q0 66 -52 103.5t-138 37.5h-109l13 125h104q78 0 117 36t39 91q0 43 -36 86t-118 43q-66 0 -111 -19.5t-73.5 -55t-44 -86t-23.5 -113.5z" />
<glyph unicode="&#x433;" horiz-adv-x="892" d="M57 225q0 68 32 122t83 98t113.5 80t128.5 65q39 18 77.5 38.5t70.5 44t51.5 50.5t19.5 57q0 57 -43 77t-92 20q-66 0 -139.5 -24t-153.5 -58l-53 118q84 51 188.5 82t208.5 31q133 0 214 -54t81 -165q0 -61 -29 -110.5t-80 -92.5t-122.5 -81t-155.5 -74 q-78 -35 -134.5 -82.5t-56.5 -118.5q0 -59 45 -87t119 -28q72 0 159 24.5t173 65.5l53 -117q-98 -66 -215 -95t-211 -29q-76 0 -137.5 13t-104.5 42t-66.5 76t-23.5 112z" />
<glyph unicode="&#x434;" horiz-adv-x="1136" d="M84 371q0 111 29.5 225.5t91 207.5t155 151.5t218.5 58.5q55 0 126 -11t134 -40q2 72 -9.5 137t-40 115.5t-81 80t-132.5 29.5q-53 0 -116.5 -7t-167.5 -40l-35 141q86 37 168 53.5t158 16.5q236 0 340 -140.5t104 -430.5q-2 -96 -11 -203t-33 -210.5t-64.5 -197.5 t-103 -165.5t-149.5 -113.5t-206 -42q-115 0 -187.5 29.5t-113.5 82t-57.5 123t-16.5 150.5zM289 338q0 -100 41 -149.5t135 -49.5q160 2 252 163t104 509q-53 23 -111.5 31t-105.5 8q-82 0 -141.5 -46t-98 -119t-57 -164t-18.5 -183z" />
<glyph unicode="&#x435;" horiz-adv-x="985" d="M82 379q0 104 25.5 218t88 209t169 157.5t266.5 62.5q141 0 217 -71.5t76 -188.5q0 -174 -165 -261t-466 -104q-2 -12 -2 -24v-23q0 -41 8 -79.5t30.5 -69.5t62.5 -50.5t104 -19.5q76 0 152.5 19.5t150.5 50.5l43 -123q-37 -23 -84 -40t-98.5 -30.5t-105.5 -20.5t-105 -7 q-113 0 -183.5 31.5t-111.5 85t-56.5 126t-15.5 152.5zM299 516q211 10 319.5 63.5t108.5 163.5q0 55 -29.5 90t-97.5 35q-131 0 -207 -94t-94 -258z" />
<glyph unicode="&#x436;" horiz-adv-x="1687" d="M14 139l74 76q29 -25 56.5 -44t70.5 -32q27 23 68 67t89 101.5t101 124t102 133.5q-20 51 -55 100.5t-77 89.5t-87 64.5t-86 24.5q-23 0 -48 -4t-56 -21l-55 76q23 55 66.5 89t115.5 34q61 0 131 -44t131 -111.5t109.5 -149.5t70.5 -156l-10 -51q-49 -78 -101.5 -154 t-117.5 -155q-84 -104 -153.5 -163t-133.5 -59q-51 0 -103.5 32t-101.5 132zM674 868l8 109q78 23 139.5 36t118.5 13q90 0 90 -84q0 -8 -1 -17.5t-3 -19.5l-119 -905h-211q31 225 57.5 431t55.5 419zM1014 514l8 55q47 92 106.5 175t123 145.5t129 98.5t124.5 36 q72 0 104.5 -35t43.5 -90l-70 -72q-33 16 -55.5 20.5t-44.5 4.5q-37 0 -77 -21.5t-80 -58.5t-80 -86t-72 -104q35 -72 73.5 -142.5t74.5 -131t65.5 -103.5t48.5 -62q45 12 78.5 33t66.5 43l57 -74q-45 -59 -98 -101t-108 -58q-37 -10 -70 -11q-41 2 -90 59.5t-105 162.5 q-43 84 -84 166.5t-69 150.5z" />
<glyph unicode="&#x437;" horiz-adv-x="931" d="M16 51l50 135q68 -25 140.5 -38t137.5 -13q129 0 209 50.5t80 154.5q0 39 -16.5 65.5t-43 42t-59.5 21.5t-65 6h-119l12 119h94q39 0 77 8t67.5 25.5t47 44t17.5 65.5q0 72 -56.5 99.5t-135.5 27.5q-47 0 -86 -9t-72 -21l-53 -175l-101 9q-8 55 -11 106t-3 94 q0 47 29.5 72t64.5 41q43 18 111.5 29.5t152.5 13.5q76 0 142.5 -15.5t116 -45t78 -73.5t28.5 -104q0 -31 -9.5 -65.5t-31 -66t-56 -58.5t-85.5 -45v-6q86 -23 131 -82.5t45 -138.5q0 -82 -37 -145.5t-100.5 -106.5t-151.5 -65.5t-188 -22.5q-104 0 -195.5 17t-155.5 50z " />
<glyph unicode="&#x438;" horiz-adv-x="1224" d="M68 877l8 100q86 25 159 35t132 10q66 0 87 -24.5t21 -77.5v-19.5t-2 -19.5q-4 -37 -10 -90.5t-13.5 -116t-15.5 -127t-14 -121.5t-10 -101t-4 -65q0 -53 20 -81.5t68 -28.5q37 0 79.5 22.5t88 73.5t88.5 132t77 197l60 426h200q-29 -205 -56 -425t-50 -420q45 4 83 16 t77 31l47 -90q-74 -72 -155 -104t-134 -32q-37 0 -60.5 11.5t-35.5 30t-16.5 42t-4.5 50.5q0 37 5.5 85t9.5 83h-11q-47 -88 -99 -145.5t-105.5 -91.5t-102.5 -47t-86 -13q-109 0 -158 53t-49 151v36t4 48q8 84 23.5 220.5t42.5 357.5z" />
<glyph unicode="&#x439;" horiz-adv-x="1224" d="M68 877l8 100q86 25 159 35t132 10q66 0 87 -24.5t21 -77.5v-19.5t-2 -19.5q-4 -37 -10 -90.5t-13.5 -116t-15.5 -127t-14 -121.5t-10 -101t-4 -65q0 -53 20 -81.5t68 -28.5q37 0 79.5 22.5t88 73.5t88.5 132t77 197l60 426h200q-29 -205 -56 -425t-50 -420q45 4 83 16 t77 31l47 -90q-74 -72 -155 -104t-134 -32q-37 0 -60.5 11.5t-35.5 30t-16.5 42t-4.5 50.5q0 37 5.5 85t9.5 83h-11q-47 -88 -99 -145.5t-105.5 -91.5t-102.5 -47t-86 -13q-109 0 -158 53t-49 151v36t4 48q8 84 23.5 220.5t42.5 357.5zM369 1372l110 80q49 -84 109.5 -129 t116.5 -45q18 0 44.5 3t63.5 18.5t86 47t115 91.5l55 -64q-53 -70 -104.5 -117t-101.5 -75.5t-96 -41t-87 -12.5q-55 0 -101.5 20.5t-84 54.5t-68.5 78t-57 91z" />
<glyph unicode="&#x43a;" horiz-adv-x="1110" d="M78 870q2 27 4 52.5t6 54.5q78 23 145.5 36t124.5 13q45 0 72 -20.5t27 -59.5q0 -8 -1 -17t-3 -24l-119 -905h-211q31 225 57.5 430t55.5 418q-41 6 -79 12t-79 10zM436 518l6 55q41 74 101.5 154t129 145.5t141 108.5t138.5 43q59 0 96 -36t52 -89l-78 -74 q-29 16 -53.5 21.5t-46.5 5.5q-47 0 -90.5 -25.5t-83 -64.5t-77.5 -85t-71 -87q33 -63 76 -134t86 -134.5t77.5 -111.5t51.5 -67q45 12 82 34t65 42q16 -18 31.5 -36.5t32.5 -37.5q-68 -90 -137.5 -127.5t-126.5 -42.5q-35 0 -62.5 15.5t-52.5 45.5t-52.5 72t-62.5 95 q-53 82 -98 166t-74 149z" />
<glyph unicode="&#x43b;" horiz-adv-x="1124" d="M18 20q131 242 254 476.5t256 492.5l240 29l25 -19q23 -233 51 -445t63 -386q35 4 71 17.5t71 35.5l45 -90q-55 -59 -127 -103t-136 -44q-59 0 -88.5 22.5t-44.5 93.5q-29 162 -46 328t-34 348h-8q-96 -207 -185 -392t-192 -384h-198z" />
<glyph unicode="&#x43c;" horiz-adv-x="1505" d="M25 25q111 303 198.5 541.5t173.5 424.5q53 8 102.5 14.5t102.5 16.5l31 -27q23 -225 43 -393.5t49 -320.5q2 0 3 -1t3 -1l74 174q61 154 116.5 282.5t116.5 255.5l207 29l21 -19v-135q0 -201 5 -379t21 -323q70 8 144 53l45 -90q-61 -63 -136 -103t-137 -40 q-49 0 -83.5 17t-41.5 73q-14 129 -12 293.5t6 357.5h-8q-39 -90 -70.5 -161.5t-62.5 -145.5t-65.5 -157t-82.5 -193q-45 -6 -89 -12.5t-87 -10.5l-28 18q-29 141 -54.5 315.5t-42.5 366.5h-10q-29 -80 -56.5 -159.5t-57 -168.5t-63.5 -191.5t-73 -225.5h-180z" />
<glyph unicode="&#x43d;" horiz-adv-x="1236" d="M66 874q2 25 3 51.5t5 51.5q86 25 158.5 35t132.5 10q55 0 80.5 -15.5t29.5 -52.5q0 -2 1 -4t1 -6q0 -10 -3 -44t-9 -83t-13.5 -108.5t-15.5 -122.5h395q14 104 27.5 206.5t30.5 206.5h209q-12 -90 -26.5 -195.5t-29 -216t-28 -222t-25.5 -209.5q45 4 85 16t77 31l45 -90 q-37 -37 -79 -62.5t-82 -42t-74.5 -24t-59.5 -7.5q-72 0 -101.5 33t-29.5 92q0 39 12 125q6 47 13.5 103.5t17.5 128.5h-393q-12 -78 -22.5 -152t-18.5 -135t-14.5 -106.5t-8.5 -65.5h-209q12 90 41 299t68 547q-47 6 -95 13t-95 15z" />
<glyph unicode="&#x43e;" horiz-adv-x="1067" d="M82 387q0 113 29.5 226.5t92 204.5t162 147.5t240.5 56.5q109 0 184.5 -33t124 -90t70 -133t21.5 -162q0 -104 -27 -213.5t-88.5 -201t-162.5 -148.5t-251 -57q-111 0 -185.5 30.5t-121.5 85t-67.5 128t-20.5 159.5zM295 369q0 -47 9 -88t32.5 -74t62.5 -51.5t99 -18.5 q88 0 144 48t89 120t45 154t12 147q0 51 -9 97.5t-30.5 81t-58.5 55t-94 20.5q-92 0 -150.5 -51t-92.5 -126t-46 -161t-12 -153z" />
<glyph unicode="&#x43f;" horiz-adv-x="1230" d="M66 874l6 105q88 23 157.5 33t128.5 10q66 0 87.5 -21.5t21.5 -70.5q0 -39 -7 -96.5t-18 -124.5h9q47 92 103 152.5t111.5 96t104.5 50t84 14.5q117 0 161 -67.5t44 -176.5q0 -43 -17.5 -195.5t-48.5 -424.5q41 2 78 13t78 34q10 -14 24.5 -45t22.5 -47 q-39 -37 -80 -62.5t-81 -42t-75.5 -25t-62.5 -8.5q-72 0 -95.5 32t-23.5 91q0 10 2 37t4 43q25 242 41.5 386.5t16.5 178.5q0 47 -20.5 79t-67.5 32q-37 0 -81 -23.5t-89 -74.5t-88 -132t-78 -194l-60 -430h-208q16 131 30.5 239.5t26.5 208t23.5 194.5t23.5 202z" />
<glyph unicode="&#x440;" horiz-adv-x="1148" d="M-59 -426l18 150h137q31 272 67 563t66 557l-190 28l8 105q74 23 149.5 34t141.5 11q72 0 90 -27.5t14 -79.5l-26 -210h10q45 88 93 148t98.5 95t99.5 50.5t94 15.5q117 0 188.5 -87t71.5 -268q0 -143 -33.5 -267t-99.5 -216t-165 -144t-230 -52q-47 0 -97.5 10 t-103.5 24l-39 -290h176l-16 -150h-522zM356 176q57 -23 106.5 -30t84.5 -7q92 0 152.5 48.5t96 121t50 155.5t14.5 154q0 117 -38 172.5t-99 55.5q-37 0 -79 -20.5t-85 -69.5t-87 -132t-83 -206z" />
<glyph unicode="&#x441;" horiz-adv-x="946" d="M82 348q0 123 25.5 244t87 216t163.5 154.5t256 59.5q29 0 61 -3t62.5 -9t55 -12.5t38.5 -12.5q37 -16 54.5 -36.5t17.5 -57.5q0 -14 -6 -43t-15.5 -62.5t-21.5 -68.5t-24 -64q-29 2 -56.5 3t-56.5 6q4 45 5 91t3 93q-23 8 -55.5 12t-67.5 4q-80 0 -139 -40t-97 -105.5 t-57.5 -152.5t-19.5 -179q0 -111 47 -172t164 -61q68 0 127 13t143 38q10 -35 24.5 -68t24.5 -67q-72 -35 -172 -58.5t-198 -23.5q-102 0 -173 25.5t-115 73.5t-64.5 114.5t-20.5 148.5z" />
<glyph unicode="&#x442;" horiz-adv-x="1765" d="M66 877l6 102q88 25 157.5 35t128.5 10q66 0 88.5 -22.5t22.5 -63.5q0 -35 -8 -94.5t-19 -134.5h11q47 92 97 153.5t98 97t92 50t79 14.5q106 0 151.5 -58.5t45.5 -152.5q0 -18 -1 -44t-3 -62l6 -2q43 88 94 148t101.5 99t95.5 56.5t80 17.5q109 0 156.5 -60.5 t47.5 -160.5q0 -23 -4 -68t-12 -120.5t-20.5 -187.5t-30.5 -267q43 2 79.5 13t77.5 34l46 -90q-72 -72 -150 -108t-137 -36q-76 0 -103.5 33t-27.5 94q0 10 1 26.5t3 33.5q20 170 32.5 276.5t18.5 169t8 93t2 47.5q0 47 -18.5 78.5t-65.5 31.5q-74 0 -154.5 -101.5 t-150.5 -324.5l-53 -432h-209l31 248q18 154 28.5 245t15.5 142t5 73.5v36.5q0 45 -19.5 77t-66.5 32q-72 0 -152 -98.5t-149 -323.5l-58 -432h-210q18 131 31.5 240.5t25.5 209t22.5 194.5t22.5 202z" />
<glyph unicode="&#x443;" horiz-adv-x="1089" d="M-257 -361.5q-11 37.5 3 89.5l88 53q31 -27 56.5 -41t50 -21.5t47 -8.5t47.5 -1q78 0 177 47t200 158q-20 109 -46 238t-52.5 256t-51 238.5t-45.5 184.5l-151 -36l-33 90q78 70 147.5 100.5t110.5 30.5q47 0 72.5 -15.5t37.5 -74.5t34 -167t44.5 -229.5t44 -242.5 t35.5 -209q61 76 110.5 176t84 205.5t53 206t18.5 178.5l-145 -35l-33 98q70 59 137.5 88t120.5 29q61 0 89 -40t28 -130q0 -119 -41 -264.5t-114.5 -292.5t-175 -285.5t-221.5 -246t-255 -173t-276 -65.5q-47 0 -88 12t-69 37t-39 62.5z" />
<glyph unicode="&#x444;" horiz-adv-x="1421" d="M82 420q0 127 38 234.5t113.5 187.5t186 126t258.5 50q6 72 14 142.5t15 142.5l-193 30l6 103q86 23 163 34t126 11q66 0 91.5 -20.5t25.5 -67.5q0 -16 -4 -55.5t-10.5 -90.5t-13.5 -111.5t-15 -117.5q125 -4 215 -36t148.5 -89t86 -136t27.5 -173q0 -123 -36 -228.5 t-109.5 -185.5t-188.5 -129t-270 -55q-10 -68 -16.5 -135.5t-16.5 -133.5h151l-16 -143h-502l17 143h147l31 269q-139 6 -229.5 44t-143.5 97t-74.5 135t-21.5 158zM279 420q0 -129 66.5 -205t223.5 -82l88 733q-102 -6 -174.5 -44t-118 -98t-65.5 -138t-20 -166zM774 133 q102 6 175 41t119 93.5t66.5 136t20.5 167.5q0 61 -14.5 114.5t-48 92.5t-90 62.5t-138.5 25.5z" />
<glyph unicode="&#x445;" horiz-adv-x="1042" d="M35 84q0 6 1 12t1 13q92 98 182 195t184 196q-37 84 -72.5 166t-70.5 165l-160 -45l-43 88q76 70 143.5 105t114.5 35q35 0 70 -12.5t64 -69.5q33 -70 57 -137.5t59 -141.5q66 90 131.5 180.5t130.5 180.5h23l125 -117v-23l-344 -360q41 -88 76.5 -173t74.5 -175 q47 4 87 21.5t81 39.5q16 -23 32.5 -42t35.5 -42q-41 -51 -81 -83.5t-79 -52t-71.5 -27t-57.5 -7.5q-66 0 -96.5 38t-61.5 110l-102 239q-72 -100 -145.5 -198.5t-149.5 -194.5q-4 0 -9 -1t-11 -1l-58.5 58.5z" />
<glyph unicode="&#x446;" horiz-adv-x="1255" d="M68 874l8 103q86 25 158.5 35t132.5 10q59 0 80.5 -19.5t25.5 -68.5v-24.5t-2 -30.5q-4 -51 -15.5 -142.5t-22.5 -185.5t-19 -176t-8 -115q0 -53 20 -81.5t68 -28.5q37 0 79.5 22.5t87 73.5t87.5 132t77 197l60 426h205q-29 -205 -55.5 -419.5t-53.5 -425.5q47 2 92 18 t86 39q20 -20 39 -39.5t41 -40.5q-37 -119 -73 -239.5t-72 -241.5h-152l-12 22q29 92 63.5 182.5t69.5 161.5l-8 7q-39 -25 -83 -36.5t-73 -11.5q-53 0 -85 28t-32 87q0 47 6.5 93t8.5 94h-11q-47 -92 -101 -150.5t-108.5 -90.5t-103.5 -44t-84 -12q-100 0 -151.5 54 t-51.5 150q0 16 1 37t6 56q2 14 6 54t10 93t12 113.5t13.5 119t12.5 107.5t9 80q-47 6 -94 13t-94 15z" />
<glyph unicode="&#x447;" horiz-adv-x="1226" d="M61 874l9 105q86 23 159.5 34t132.5 11q63 0 86 -21.5t23 -76.5q0 -25 -6 -74t-12.5 -102.5t-12.5 -100.5t-6 -67q0 -109 88 -109q33 0 78 20.5t90 64.5t87 114.5t71 171.5l20 157h209q-25 -201 -49 -409.5t-51 -433.5q80 4 162 47q8 -14 22.5 -45t24.5 -47 q-72 -70 -152 -104t-139 -34q-78 0 -105.5 38t-27.5 108q0 47 6 107.5t15.5 122t19.5 119.5t16 101h-8q-41 -76 -94 -128t-107.5 -84.5t-103.5 -48t-84 -15.5q-111 0 -159 56.5t-48 156.5q0 20 4 62t10.5 91.5t12.5 98.5t12 84z" />
<glyph unicode="&#x448;" horiz-adv-x="1769" d="M66 877l8 102q172 45 293 45q57 0 81.5 -20.5t24.5 -71.5q0 -20 -4 -65.5t-10 -102.5t-14.5 -121.5t-14.5 -124t-12 -109t-8 -77.5q-4 -41 -5.5 -54.5t-1.5 -23.5q0 -47 19.5 -79t66.5 -32q74 0 155 101.5t151 324.5q16 135 28.5 238.5t22.5 193.5h211 q-10 -76 -16.5 -136t-14.5 -113q-18 -147 -27.5 -237.5t-14.5 -143t-6 -77t-1 -38.5q0 -45 19.5 -77t66.5 -32q78 0 155.5 107.5t149.5 343.5q14 102 27.5 201.5t29.5 201.5h211q-31 -217 -59.5 -426.5t-50.5 -414.5q45 4 83 15t77 32q10 -23 21 -46.5t26 -45.5 q-78 -72 -158 -102.5t-131 -30.5q-57 0 -92 23.5t-35 76.5q0 41 6 102.5t16 106.5h-8q-49 -92 -101 -151.5t-102.5 -94.5t-95.5 -48t-80 -13q-98 0 -142 48t-44 132q0 33 1 57.5l3 73.5q-2 0 -4 -1t-4 -1q-43 -86 -93.5 -146.5t-100.5 -97.5t-96 -53t-79 -16 q-115 0 -160 64.5t-45 170.5q0 49 7.5 127t18.5 165t22.5 176t19.5 163z" />
<glyph unicode="&#x449;" horiz-adv-x="1792" d="M66 877l8 102q172 45 293 45q57 0 81.5 -20.5t24.5 -73.5q0 -20 -4 -64.5t-10 -101.5t-14.5 -121.5t-15.5 -124t-12 -109t-7 -77.5q-4 -41 -5.5 -54.5t-1.5 -23.5q0 -47 19.5 -79t66.5 -32q74 0 155 101.5t151 324.5q8 66 14 110t10 88t10.5 97.5t16.5 136.5h211 q-31 -231 -47.5 -370t-23.5 -217t-8 -110t-1 -48q0 -45 19.5 -77t66.5 -32q35 0 74 24t76.5 74t76.5 132t74 198l57 426h205q-29 -205 -55.5 -419.5t-52.5 -425.5q47 2 92 18t86 39q20 -20 38.5 -39.5t41.5 -40.5q-37 -119 -74 -239.5t-72 -241.5h-153l-13 22 q31 92 66 182.5t69 161.5q-4 2 -6 7q-41 -23 -85 -35.5t-70 -12.5q-72 0 -92.5 37t-20.5 119q0 35 3 74t7 72h-8q-47 -88 -96 -145.5t-96.5 -90.5t-91.5 -46t-78 -13q-92 0 -145.5 44t-53.5 136q0 33 1 57.5l3 73.5q-2 0 -4 -1t-4 -1q-43 -86 -93.5 -146.5t-100.5 -97.5 t-96 -53t-79 -16q-59 0 -99 18t-63.5 51t-33 80t-9.5 104q0 49 7.5 124t18.5 161t22.5 172t19.5 156z" />
<glyph unicode="&#x44a;" horiz-adv-x="1212" d="M25 719q12 92 23 150.5t32.5 92t54.5 47t88 13.5q18 0 88 -2t150 -4t147.5 -5t83.5 -3l27 -74q-25 -20 -59.5 -66.5t-68.5 -100.5t-61.5 -110.5t-37.5 -95.5l8 -2q51 63 103 107.5t101.5 70t94.5 36.5t82 11q119 0 186.5 -74.5t67.5 -209.5q0 -74 -29 -164t-94.5 -169 t-169.5 -133t-254 -54q-98 0 -165 22.5t-108 61t-59 88t-18 104.5q0 82 17 164t46 159.5t67 149.5t78 131l-235 -16l-84 -142zM457 272q0 -51 21.5 -79.5t50 -43t57 -17.5t43.5 -3q72 0 125 34t88 86t52 114.5t17 121.5q0 148 -129 148q-23 0 -58.5 -11.5t-78.5 -41t-88 -82 t-88 -136.5q-12 -53 -12 -90z" />
<glyph unicode="&#x44b;" horiz-adv-x="1640" d="M68 883l2 104q86 23 161.5 33t135.5 10q119 0 118 -82q0 -23 -4 -67.5t-11 -99t-15.5 -113t-16.5 -105.5h11q98 123 201.5 172t176.5 49q121 0 187.5 -73.5t66.5 -208.5q0 -76 -27.5 -166t-89 -169t-158.5 -131t-237 -52q-33 0 -80 3t-99 11t-106.5 22.5t-101.5 36.5 l-12 23q33 252 55.5 443.5t38.5 328.5zM389 166q47 -16 94 -22.5t82 -6.5q74 0 130.5 31t93 80t56 109.5t19.5 119.5q0 74 -34.5 113t-100.5 39q-25 0 -62.5 -12.5t-79.5 -44t-87 -85t-84 -135.5zM1180 104q0 12 1 25.5t3 30.5l110 841h211q-2 -8 -10 -70.5t-19.5 -153.5 t-25.5 -195.5t-26.5 -195.5t-20.5 -155.5t-10 -72.5q86 6 166 49l47 -92q-72 -72 -152 -107t-137 -35q-80 0 -108.5 37t-28.5 94z" />
<glyph unicode="&#x44c;" d="M59 883l2 104q86 23 163 33t136 10q61 0 89 -20.5t28 -61.5q0 -23 -4 -67.5t-11 -99t-15.5 -113t-16.5 -105.5h10q49 61 101.5 103.5t101.5 69t94 37.5t82 11q121 0 187.5 -73.5t66.5 -208.5q0 -76 -27.5 -166t-89 -169t-159 -131t-238.5 -52q-31 0 -77 3t-98 11 t-107.5 22.5t-102.5 36.5l-10 23q31 252 53.5 443.5t36.5 328.5zM383 166q47 -16 94 -22.5t80 -6.5q74 0 130 31t93 80t56.5 109.5t19.5 119.5q0 74 -35 113t-98 39q-27 0 -64.5 -12.5t-79.5 -44t-86 -85t-85 -135.5z" />
<glyph unicode="&#x44d;" horiz-adv-x="921" d="M35 35l43 133q49 -12 113.5 -23.5t123.5 -11.5q147 0 225 91t95 241l-354 -8l12 137l350 -14q6 139 -52.5 213.5t-166.5 78.5q-55 4 -117 -12l-61 -188l-103 8q-4 47 -9 97t-5 81t9 64.5t52 52.5q47 20 118 33.5t149 13.5q106 0 183 -34t126 -91t72.5 -134t23.5 -165 q0 -111 -25.5 -221.5t-86 -197.5t-159 -142t-243.5 -55q-111 0 -186.5 15t-126.5 38z" />
<glyph unicode="&#x44e;" horiz-adv-x="1533" d="M66 874q2 25 3 51.5t5 51.5q86 25 155.5 35t118.5 10q72 0 92.5 -25.5t20.5 -74.5q0 -10 -4 -44t-10.5 -81t-13.5 -100.5t-13 -98.5h176q20 86 59 163t99.5 135t142.5 92t186 34q109 0 182.5 -34t120 -91t65.5 -134t19 -163q0 -109 -26.5 -218.5t-88 -197.5t-158.5 -143 t-239 -55q-113 0 -186.5 32.5t-117.5 90t-62.5 135.5t-18.5 168v25.5t2 27.5h-174l-59 -465h-209q29 211 55.5 422t53.5 424q-45 6 -89 13t-87 15zM780 367q0 -45 9.5 -87t31 -74t59.5 -50.5t97 -18.5q86 0 140 49.5t86 121t43 152.5t11 146q0 51 -8 97.5t-28.5 81t-57.5 56 t-92 21.5q-88 0 -144.5 -51t-89 -127t-45 -162t-12.5 -155z" />
<glyph unicode="&#x44f;" horiz-adv-x="1099" d="M27 20l350 412q-119 16 -182.5 82t-63.5 164q0 90 33 155.5t91 108.5t139 63.5t177 20.5q84 0 186.5 -16.5t188.5 -48.5l-92 -803q84 6 166 49l45 -92q-72 -72 -148.5 -107t-134.5 -35q-80 0 -110.5 37t-30.5 94q0 12 1 25.5t3 30.5l84 684q-35 14 -82 20t-82 6 q-41 0 -80 -9t-69.5 -30.5t-49 -58.5t-18.5 -92q0 -41 19.5 -68.5t52.5 -46t76 -30t90 -17.5l14 -76l-340 -442l-213 -10z" />
<glyph unicode="&#x451;" horiz-adv-x="985" d="M82 379q0 104 25.5 218t88 209t169 157.5t266.5 62.5q141 0 217 -71.5t76 -188.5q0 -174 -165 -261t-466 -104q-2 -12 -2 -24v-23q0 -41 8 -79.5t30.5 -69.5t62.5 -50.5t104 -19.5q76 0 152.5 19.5t150.5 50.5l43 -123q-37 -23 -84 -40t-98.5 -30.5t-105.5 -20.5t-105 -7 q-113 0 -183.5 31.5t-111.5 85t-56.5 126t-15.5 152.5zM283 1260q0 53 39 89.5t84 36.5q47 0 74.5 -25.5t27.5 -70.5q0 -53 -37 -91t-90 -38q-43 0 -70.5 28t-27.5 71zM299 516q211 10 319.5 63.5t108.5 163.5q0 55 -29.5 90t-97.5 35q-131 0 -207 -94t-94 -258zM670 1260 q0 53 38 89.5t83 36.5t72.5 -25.5t27.5 -70.5q0 -53 -36 -91t-91 -38q-41 0 -67.5 28t-26.5 71z" />
<glyph unicode="&#x452;" horiz-adv-x="1132" d="M63 1337l11 103q86 23 160.5 33t134.5 10q63 0 90.5 -19.5t27.5 -60.5q0 -20 -6 -73.5t-16 -147.5h338l-10 -95h-340q-4 -47 -11.5 -105t-13.5 -112.5t-12 -98.5t-8 -62l8 -2q43 84 95 140t104.5 90t99.5 48t82 14q72 0 120 -32.5t77.5 -89t43 -129t13.5 -152.5 q0 -156 -31 -287t-83 -227t-123 -150.5t-148 -54.5q-49 0 -104.5 18.5t-110.5 71.5l61 105q37 -23 60.5 -32t50.5 -9q47 0 87 49t69.5 129t46 180t16.5 203q0 51 -7.5 96t-22.5 78t-39.5 52.5t-59.5 19.5q-37 0 -81 -22.5t-89 -74t-89 -133.5t-81 -200l-56 -408h-211 q14 106 31 238.5t33 274.5t33.5 288.5t34.5 285.5h-144l10 95h142l14 125z" />
<glyph unicode="&#x453;" horiz-adv-x="892" d="M57 225q0 68 32 122t83 98t113.5 80t128.5 65q39 18 77.5 38.5t70.5 44t51.5 50.5t19.5 57q0 57 -43 77t-92 20q-66 0 -139.5 -24t-153.5 -58l-53 118q84 51 188.5 82t208.5 31q133 0 214 -54t81 -165q0 -61 -29 -110.5t-80 -92.5t-122.5 -81t-155.5 -74 q-78 -35 -134.5 -82.5t-56.5 -118.5q0 -59 45 -87t119 -28q72 0 159 24.5t173 65.5l53 -117q-98 -66 -215 -95t-211 -29q-76 0 -137.5 13t-104.5 42t-66.5 76t-23.5 112zM459 1176l295 352l116 -123l-338 -301z" />
<glyph unicode="&#x454;" horiz-adv-x="927" d="M82 369q0 57 8 127.5t30.5 143.5t60.5 142.5t97.5 122.5t142.5 86t195 33q68 0 128.5 -11.5t91.5 -25.5q39 -16 56 -36.5t13 -57.5q0 -12 -6 -39t-15.5 -59.5t-21.5 -66.5t-22 -58l-113 6l8 176q-25 8 -57.5 13t-65.5 5q-121 0 -198.5 -82.5t-100.5 -222.5l357 8 l-15 -127l-352 5q-4 -23 -4 -41.5t2 -38.5q2 -45 12.5 -87t33 -74t59 -50.5t90.5 -18.5q74 0 142.5 14.5t147.5 43.5l39 -129q-70 -37 -168 -61.5t-196 -24.5q-109 0 -180.5 28.5t-116.5 79.5t-63.5 122t-18.5 155z" />
<glyph unicode="&#x455;" horiz-adv-x="931" d="M55 133q0 41 21.5 102.5t54.5 114.5l105 -4l-9 -196q31 -14 74 -21.5t86 -7.5q45 0 89 9t78 28.5t54.5 49.5t20.5 73q0 35 -18.5 59.5t-48.5 45t-67.5 36.5t-78.5 33q-61 27 -114.5 54.5t-93.5 59t-62.5 71.5t-22.5 89q0 74 32.5 130t90 93t132.5 55.5t159 18.5 q55 0 109 -9t99.5 -26.5t73 -43t27.5 -60.5q0 -18 -7.5 -47t-18.5 -59.5t-24.5 -61.5t-27.5 -55l-100 6l8 186q-53 29 -137 29q-37 0 -73 -7.5t-63.5 -23.5t-44 -44t-16.5 -67q0 -29 20.5 -53t52 -43.5t70.5 -37t74 -31.5q53 -23 103.5 -48.5t90.5 -59.5t65.5 -78t25.5 -101 q0 -76 -35 -133.5t-95.5 -96t-143.5 -58t-177 -19.5q-168 0 -253 39.5t-85 109.5z" />
<glyph unicode="&#x456;" horiz-adv-x="651" d="M94 877l6 104q86 23 157 33t120 10q66 0 89 -20.5t23 -63.5q0 -6 -6 -62.5t-16 -137.5t-22.5 -176t-22.5 -180t-18.5 -147.5t-10.5 -78.5q84 6 164 49l47 -92q-72 -72 -151.5 -107t-139.5 -35q-78 0 -107.5 37t-29.5 94q0 12 1 25.5t3 30.5l88 686zM268 1264 q0 66 40.5 108.5t99.5 42.5q49 0 83.5 -34.5t34.5 -88.5q0 -59 -38.5 -102t-102.5 -43q-47 0 -82 33.5t-35 83.5z" />
<glyph unicode="&#x457;" horiz-adv-x="651" d="M43 1245q0 53 39 90t84 37q47 0 74.5 -25.5t27.5 -70.5q0 -53 -36.5 -91t-90.5 -38q-43 0 -70.5 27.5t-27.5 70.5zM94 877l6 104q86 23 157 33t120 10q66 0 89 -20.5t23 -63.5q0 -6 -6 -62.5t-16 -137.5t-22.5 -176t-22.5 -180t-18.5 -147.5t-10.5 -78.5q84 6 164 49 l47 -92q-72 -72 -151.5 -107t-139.5 -35q-78 0 -107.5 37t-29.5 94q0 12 1 25.5t3 28.5l88 688zM430 1245q0 53 38 90t83 37t72.5 -25.5t27.5 -70.5q0 -53 -35.5 -91t-91.5 -38q-41 0 -67.5 27.5t-26.5 70.5z" />
<glyph unicode="&#x458;" horiz-adv-x="595" d="M-111 -326q90 39 144.5 90.5t86.5 115t45 137t23 157.5l72 672l-176 31l10 104q173 43 273 43q66 0 92 -20.5t26 -63.5q0 -4 -5 -52t-12 -121t-17.5 -160t-19.5 -169t-16 -149.5t-12 -100.5q-14 -127 -43.5 -233.5t-85 -189t-140.5 -139t-210 -83.5zM260 1264 q0 66 40 108.5t99 42.5q49 0 84 -34.5t35 -88.5q0 -59 -39 -102t-102 -43q-47 0 -82 33.5t-35 83.5z" />
<glyph unicode="&#x459;" horiz-adv-x="1533" d="M25 12q119 223 243.5 468t257.5 509q59 8 111.5 15.5t112.5 13.5l30 -17q12 -121 21.5 -228t19.5 -212h2q94 102 195.5 160.5t200.5 58.5q49 0 93 -15t77.5 -50t53 -89.5t19.5 -133.5q0 -86 -34.5 -177.5t-105.5 -165t-176.5 -121.5t-244.5 -48q-70 0 -114 9t-70.5 24.5 t-36.5 38t-12 50.5q0 6 -2 20.5t-4 35.5q-6 57 -13.5 145t-15.5 178t-15.5 171t-9.5 124h-8q-49 -102 -91 -194.5t-84 -184.5t-87 -189t-100 -208l-195 -8zM840 444q6 -78 12 -151.5t16 -151.5q16 -4 37 -5t41 -1q137 2 218 93t81 241q0 74 -32 115t-85 41 q-35 0 -74.5 -17.5t-78.5 -44t-75 -58.5t-60 -61z" />
<glyph unicode="&#x45a;" horiz-adv-x="1744" d="M68 877l6 104q174 43 293 43q63 0 87.5 -20.5t24.5 -63.5q0 -10 -3 -43t-9 -80t-13.5 -106.5t-15.5 -122.5h389q18 133 30.5 240.5t21.5 172.5h213q-4 -39 -12.5 -98t-16.5 -122.5t-15.5 -122t-13.5 -95.5h8q98 123 202 172t177 49q121 0 187.5 -73.5t66.5 -208.5 q0 -76 -27.5 -166t-89 -169t-160 -131t-237.5 -52q-31 0 -78 3t-99 11t-107.5 22.5t-102.5 36.5l-10 23q10 86 22.5 183t24.5 198h-391q-10 -76 -19.5 -149.5t-17.5 -135t-15.5 -109t-9.5 -67.5h-208q2 18 13 100t26.5 201t34 261.5t34.5 283.5zM983 166q47 -16 94 -22.5 t82 -6.5q74 0 130.5 31t93 80t56 109.5t19.5 119.5q0 74 -34.5 113t-100.5 39q-25 0 -62.5 -12.5t-79.5 -44t-87 -85t-84 -135.5z" />
<glyph unicode="&#x45b;" horiz-adv-x="1220" d="M84 1337l10 103q86 23 162 33t135 10q66 0 91.5 -21.5t25.5 -68.5q0 -16 -6 -78t-17 -144h340l-12 -88h-336q-6 -55 -14 -112.5t-14.5 -109.5t-12.5 -95t-10 -70h8q45 84 99.5 141.5t106.5 92.5t100 49t83 14q117 0 163 -59.5t46 -159.5q0 -23 -3 -63.5t-11 -111.5 t-19.5 -178.5t-29.5 -262.5q82 6 161 49l46 -92q-74 -72 -153 -107t-136 -35q-78 0 -105.5 34t-27.5 95q0 14 1 27.5t3 30.5q20 178 32.5 281.5t17.5 159.5t6 77.5t1 36.5q0 49 -20.5 79.5t-67.5 30.5q-35 0 -79 -22.5t-89 -71.5t-88 -129t-80 -194l-53 -408h-211 q14 106 30.5 241.5t34 280t34 289.5t30.5 272h-154l13 88h149l17 136z" />
<glyph unicode="&#x45c;" horiz-adv-x="1110" d="M78 870q2 27 4 52.5t6 54.5q78 23 145.5 36t124.5 13q45 0 72 -20.5t27 -59.5q0 -8 -1 -17t-3 -24l-119 -905h-211q31 225 57.5 430t55.5 418q-41 6 -79 12t-79 10zM436 518l6 55q41 74 101.5 154t129 145.5t141 108.5t138.5 43q59 0 96 -36t52 -89l-78 -74 q-29 16 -53.5 21.5t-46.5 5.5q-47 0 -90.5 -25.5t-83 -64.5t-77.5 -85t-71 -87q33 -63 76 -134t86 -134.5t77.5 -111.5t51.5 -67q45 12 82 34t65 42q16 -18 31.5 -36.5t32.5 -37.5q-68 -90 -137.5 -127.5t-126.5 -42.5q-35 0 -62.5 15.5t-52.5 45.5t-52.5 72t-62.5 95 q-53 82 -98 166t-74 149zM518 1176l295 352l117 -123l-338 -301z" />
<glyph unicode="&#x45e;" horiz-adv-x="1089" d="M-257 -361.5q-11 37.5 3 89.5l88 53q31 -27 56.5 -41t50 -21.5t47 -8.5t47.5 -1q78 0 177 47t200 158q-20 109 -46 238t-52.5 256t-51 238.5t-45.5 184.5l-151 -36l-33 90q78 70 147.5 100.5t110.5 30.5q47 0 72.5 -15.5t37.5 -74.5t34 -167t44.5 -229.5t44 -242.5 t35.5 -209q61 76 110.5 176t84 205.5t53 206t18.5 178.5l-145 -35l-33 98q70 59 137.5 88t120.5 29q61 0 89 -40t28 -130q0 -119 -41 -264.5t-114.5 -292.5t-175 -285.5t-221.5 -246t-255 -173t-276 -65.5q-47 0 -88 12t-69 37t-39 62.5zM283 1372l110 80q49 -84 109.5 -129 t115.5 -45q18 0 45 3t64 18.5t86 47t115 91.5l55 -64q-53 -70 -104.5 -117t-101.5 -75.5t-96 -41t-87 -12.5q-55 0 -101.5 20.5t-84 54.5t-68.5 78t-57 91z" />
<glyph unicode="&#x45f;" horiz-adv-x="1224" d="M68 877l8 100q86 25 159 35t132 10q66 0 87 -24.5t21 -77.5v-19.5t-2 -19.5q-4 -37 -10 -90.5t-13.5 -116t-15.5 -127t-14 -121.5t-10 -101t-4 -65q0 -53 20 -81.5t68 -28.5q37 0 79.5 22.5t88 73.5t88.5 132t77 197l60 426h200q-29 -205 -56 -425t-50 -420q45 4 83 16 t77 31l47 -90q-74 -72 -155 -104t-134 -32q-37 0 -60.5 11.5t-35.5 30t-16.5 42t-4.5 50.5q0 37 5.5 85t9.5 83h-11q-47 -88 -99 -145.5t-105.5 -91.5t-102.5 -47t-86 -13q-109 0 -158 53t-49 151v36t4 48q8 84 23.5 220.5t42.5 357.5zM518 -410q29 111 58.5 221.5 t64.5 190.5q31 -6 62.5 -12t60.5 -17l-82 -399l-152 -4z" />
<glyph unicode="&#x490;" horiz-adv-x="1148" d="M33 0l16 154h137l133 1097h-129l17 152h868l35 242h158l-51 -394h-678l-136 -1097h189l-19 -154h-540z" />
<glyph unicode="&#x491;" horiz-adv-x="917" d="M111 0l106 854h-100l18 145h629q14 61 29.5 122t29.5 122h109l6 -221v-35q0 -72 -28.5 -103.5t-80.5 -31.5h-132t-106 1t-88 1h-79l-102 -854h-211z" />
<glyph unicode="&#x4d9;" horiz-adv-x="985" d="M76 244q0 174 163.5 261t467.5 105q2 10 2 22.5v24.5q0 39 -8.5 78t-32 70t-63.5 50t-103 19q-76 0 -152 -18t-151 -51l-45 123q76 45 183 71.5t212 26.5q113 0 184.5 -32.5t112.5 -88t56.5 -128t15.5 -152.5q0 -104 -26 -218t-89.5 -207.5t-168.5 -154.5t-265 -61 q-141 0 -217 72.5t-76 187.5zM270 268q0 -55 30.5 -91t96.5 -36q131 0 208 95.5t93 259.5q-211 -10 -319.5 -65.5t-108.5 -162.5z" />
<glyph unicode="&#x2000;" horiz-adv-x="931" />
<glyph unicode="&#x2001;" horiz-adv-x="1862" />
<glyph unicode="&#x2002;" horiz-adv-x="931" />
<glyph unicode="&#x2003;" horiz-adv-x="1862" />
<glyph unicode="&#x2004;" horiz-adv-x="620" />
<glyph unicode="&#x2005;" horiz-adv-x="465" />
<glyph unicode="&#x2006;" horiz-adv-x="310" />
<glyph unicode="&#x2007;" horiz-adv-x="310" />
<glyph unicode="&#x2008;" horiz-adv-x="232" />
<glyph unicode="&#x2009;" horiz-adv-x="372" />
<glyph unicode="&#x200a;" horiz-adv-x="103" />
<glyph unicode="&#x2010;" horiz-adv-x="749" d="M115 461l20 168h529l-23 -168h-526z" />
<glyph unicode="&#x2011;" horiz-adv-x="749" d="M115 461l20 168h529l-23 -168h-526z" />
<glyph unicode="&#x2012;" horiz-adv-x="749" d="M115 461l20 168h529l-23 -168h-526z" />
<glyph unicode="&#x2013;" horiz-adv-x="993" d="M72 453l18 145h860l-18 -145h-860z" />
<glyph unicode="&#x2014;" horiz-adv-x="1986" d="M84 453l18 145h1817l-16 -145h-1819z" />
<glyph unicode="&#x2018;" horiz-adv-x="462" d="M188 1104q0 51 21.5 105.5t58.5 104.5t86 91t103 65l43 -69q-47 -41 -79 -84t-44 -103q72 -25 72 -106q0 -53 -42.5 -94t-99.5 -41q-59 0 -89 38t-30 93z" />
<glyph unicode="&#x2019;" horiz-adv-x="462" d="M178 1044q98 76 123 185q-68 25 -68 98q0 55 37 99t103 44q55 0 85.5 -36.5t30.5 -90.5q0 -51 -20 -105t-57 -104.5t-86.5 -92.5t-104.5 -68z" />
<glyph unicode="&#x201a;" horiz-adv-x="462" d="M10 -172q47 39 77 77t44 95q-37 10 -55.5 38t-16.5 68q4 53 42.5 93.5t97.5 40.5t89.5 -42t26.5 -104q-4 -49 -26.5 -98t-58 -94t-82 -82t-95.5 -62z" />
<glyph unicode="&#x201c;" horiz-adv-x="747" d="M201 1104q0 51 21.5 105.5t58 104.5t86 91t102.5 65l43 -69q-49 -41 -80 -84t-43 -103q72 -25 72 -106q0 -53 -42.5 -94t-101.5 -41q-57 0 -86.5 38t-29.5 93zM506 1104q0 51 21.5 105.5t58.5 103.5t85 91t101 66l45 -69q-49 -41 -79.5 -84t-45.5 -103q70 -20 70 -102 q0 -53 -39 -96t-100 -43q-59 0 -88 38t-29 93z" />
<glyph unicode="&#x201d;" horiz-adv-x="747" d="M178 1044q98 76 121 185q-68 25 -68 98q0 55 37 99t103 44q57 0 87.5 -36.5t30.5 -90.5q0 -51 -21.5 -105t-57 -104.5t-85 -92.5t-104.5 -68zM477 1044q47 39 78 83t43 102q-68 25 -68 98q0 55 37.5 99t100.5 44q59 0 88.5 -37.5t29.5 -91.5q0 -51 -21.5 -105t-57 -103.5 t-84 -91.5t-103.5 -68z" />
<glyph unicode="&#x201e;" horiz-adv-x="763" d="M76 -172q47 39 76.5 77t44.5 95q-37 10 -55.5 38t-14.5 68q2 53 41 93.5t96 40.5q59 0 90 -42t27 -104q-4 -49 -26.5 -98t-58.5 -94t-82 -82t-95 -62zM379 -172q49 39 78.5 77t42.5 95q-35 10 -54.5 38t-15.5 68q4 53 43 93.5t96 40.5q59 0 90 -42t27 -104 q-4 -49 -27.5 -98t-59.5 -94t-81 -82t-94 -62z" />
<glyph unicode="&#x2022;" horiz-adv-x="704" d="M129 543q0 51 21.5 98t56.5 82t81 55.5t95 20.5q45 0 85 -17.5t69.5 -47t46 -70.5t16.5 -86q0 -53 -20.5 -99.5t-55.5 -82.5t-81 -56.5t-97 -20.5q-47 0 -86 17.5t-68.5 48.5t-46 71t-16.5 87z" />
<glyph unicode="&#x2026;" horiz-adv-x="1368" d="M59 94q0 59 42.5 101.5t97.5 42.5q49 0 79.5 -33t30.5 -80q0 -61 -43 -103t-96 -42q-49 0 -80 32.5t-31 81.5zM485 94q0 59 43.5 101.5t98.5 42.5q49 0 78.5 -33t29.5 -80q0 -61 -43 -103t-98 -42q-47 0 -78 32.5t-31 81.5zM891 94q0 59 44 101.5t99 42.5q47 0 78 -35 t31 -82q0 -31 -12.5 -56.5t-33 -44t-46 -29.5t-50.5 -11q-47 0 -78.5 32.5t-31.5 81.5z" />
<glyph unicode="&#x202f;" horiz-adv-x="372" />
<glyph unicode="&#x2039;" horiz-adv-x="651" d="M109 354l10 78l350 344l76 -65l-244 -320l166 -315l-94 -64z" />
<glyph unicode="&#x203a;" horiz-adv-x="651" d="M78 82l239 313l-161 320l90 61l266 -344l-10 -78l-350 -342z" />
<glyph unicode="&#x205f;" horiz-adv-x="465" />
<glyph unicode="&#x20ac;" d="M76 545l10 90h836l-11 -90h-530q-2 -16 -2 -32.5v-33.5q0 -160 83 -241.5t273 -81.5q33 0 83 5t97 15q4 33 8.5 65.5t8.5 65.5h147l-32 -268q-74 -27 -169.5 -40t-181.5 -13q-264 0 -393 134t-133 365q0 16 1 29.5t1 30.5h-96zM98 731q2 23 4 46.5t7 45.5h98 q16 106 61 206.5t122 178.5t186.5 125t257.5 47q102 0 188 -16t145 -37q-10 -74 -18 -145.5t-19 -145.5h-149l18 152q-33 10 -77.5 17t-90.5 7q-166 0 -275.5 -103t-137.5 -286h528l-12 -92h-836z" />
<glyph unicode="&#x2122;" horiz-adv-x="1605" d="M100 1198v207h584v-207h-96v111h-127v-498h84v-92h-309v92h86v498h-123v-111h-99zM733 719v92h74v498h-74v96h234l120 -272l68 -150h8q4 10 13.5 30.5t18.5 43t17.5 43t14.5 30.5l127 275h233v-96h-71v-498h71v-92h-270v92h67v393h-4l-65 -147l-101 -219h-110l-105 219 l-63 139h-2v-385h72v-92h-273z" />
<glyph unicode="&#x25fc;" horiz-adv-x="1013" d="M0 0v1014h1014v-1014h-1014z" />
</font>
</defs>
</svg>
