<?xml version="1.0" standalone="no"?>
<!DOCTYPE svg PUBLIC "-//W3C//DTD SVG 1.1//EN" "http://www.w3.org/Graphics/SVG/1.1/DTD/svg11.dtd" >
<svg xmlns="http://www.w3.org/2000/svg" xmlns:xlink="http://www.w3.org/1999/xlink" version="1.1">
<metadata></metadata>
<defs>
<font id="pf_agora_slab_prothin_italic" horiz-adv-x="1056" >
<font-face units-per-em="2048" ascent="1536" descent="-512" />
<missing-glyph horiz-adv-x="505" />
<glyph horiz-adv-x="0" />
<glyph horiz-adv-x="682" />
<glyph unicode=" "  horiz-adv-x="505" />
<glyph unicode="&#x09;" horiz-adv-x="505" />
<glyph unicode="&#xa0;" horiz-adv-x="505" />
<glyph unicode="!" horiz-adv-x="368" d="M61 53q0 35 27 60.5t62 25.5q29 0 47 -20.5t18 -48.5q0 -37 -28.5 -62.5t-57.5 -25.5t-48.5 20.5t-19.5 50.5zM152 315l38 457l70 641h90l-84 -645l-69 -453h-45z" />
<glyph unicode="&#x22;" horiz-adv-x="415" d="M150 1036l22 361h90l-67 -361h-45zM358 1036l21 361h88l-61 -361h-48z" />
<glyph unicode="#" horiz-adv-x="987" d="M70 397l32 66h140l131 397h-156l31 68h147l115 346h70l-117 -346h336l114 346h70l-115 -346h133l-30 -68h-123l-133 -397h141l-35 -66h-129l-127 -397h-67l125 397h-336l-125 -397h-70l127 397h-149zM309 463h336l133 397h-336z" />
<glyph unicode="$" d="M94 106q6 57 12.5 113.5t14.5 116.5h78l-21 -184q53 -29 102.5 -41.5t96.5 -18.5q20 154 37.5 304.5t38.5 303.5q-53 20 -95.5 45t-73 58t-47 78t-16.5 106q0 82 24.5 144.5t67.5 106.5t99.5 70.5t119.5 41.5l17 135h67l-202 -1637h-68l21 158q-70 8 -141.5 31.5 t-131.5 68.5zM307 991q0 -45 12.5 -76.5t33 -55t49 -41t61.5 -32.5q14 121 29.5 241t29.5 243q-41 -12 -80 -32.5t-68.5 -54.5t-48 -81.5t-18.5 -110.5zM481 -152l203 1637h68l-17 -127q23 0 52.5 -5t60.5 -14.5t59.5 -21.5t53.5 -31l-29 -233h-78l23 186q-31 16 -70 26.5 t-80 14.5l-70 -561q57 -20 107.5 -49t88.5 -67t60.5 -85t22.5 -102q0 -92 -27.5 -163t-77 -121t-116 -79.5t-146.5 -40.5l-20 -164h-68zM580 94q117 20 193.5 93t76.5 212q0 94 -56.5 147.5t-146.5 88.5z" />
<glyph unicode="%" horiz-adv-x="1556" d="M63 829q0 31 4.5 82.5t16.5 111.5t35.5 121.5t63.5 112t98.5 82t142.5 31.5q80 0 131 -27.5t79 -71.5t38 -98.5t10 -107.5q0 -74 -13.5 -166t-51 -172t-105.5 -135t-178 -55q-80 0 -132 24.5t-83 65.5t-43.5 93t-12.5 109zM150 823q0 -90 41.5 -149.5t150.5 -59.5 q76 0 126 44t77.5 108.5t39 138.5t11.5 135q0 43 -6 88.5t-24.5 82t-52.5 59t-87 22.5q-68 0 -114 -29.5t-76.5 -75.5t-48 -102.5t-25.5 -108.5t-10 -94t-2 -59zM432 -47l752 1472h71l-745 -1472h-78zM948 285q0 29 4 81t16.5 112.5t36 122t63.5 111.5t98.5 81.5t142.5 31.5 q80 0 131 -27.5t78.5 -71.5t38 -99.5t10.5 -108.5q0 -74 -13.5 -165t-51.5 -171t-105.5 -135t-177.5 -55q-80 0 -132.5 24.5t-83 65.5t-43 93t-12.5 110zM1034 279q0 -90 42 -149.5t151 -59.5q76 0 126 44t77.5 108.5t39 138t11.5 133.5q0 45 -6.5 90t-24.5 81.5t-52 59.5 t-87 23q-68 0 -114 -30t-76.5 -76t-48 -102.5t-26 -108.5t-10.5 -94t-2 -58z" />
<glyph unicode="&#x26;" horiz-adv-x="1652" d="M82 659q18 135 71.5 263.5t143.5 227.5t220 159.5t302 60.5q150 0 257.5 -44t177 -120t101 -178t31.5 -217q0 -55 -8 -116.5t-22 -114.5q47 -10 74 -11q90 0 141 35t92 101l66 -21q-41 -82 -109 -132t-172 -50q-12 0 -43 2t-70 12q-39 -104 -101.5 -197.5t-145 -165 t-186 -115.5t-224.5 -48q-111 0 -187.5 33.5t-122.5 89t-66.5 125t-20.5 141.5q0 141 34.5 246.5t90 177t123 107.5t130.5 36q47 0 81 -16.5t55.5 -41t32 -56t10.5 -62.5q0 -41 -18.5 -82t-69.5 -84v-2q66 16 120 22.5t113 6.5q66 0 138.5 -9.5t156.5 -25.5 q14 49 20.5 102.5t6.5 102.5q0 96 -26 185t-84 157.5t-153.5 109.5t-236.5 41t-252 -51t-191.5 -139t-132 -204t-73.5 -247zM354 389q0 -172 88 -252t234 -80q86 0 174 35t167 98.5t141.5 150.5t98.5 189q-74 16 -146.5 23.5t-135.5 7.5q-78 0 -155 -12t-161 -41l-16 4 l-31 53q66 47 109 101.5t43 103.5q0 55 -31 82t-74 27q-49 0 -103 -29t-98 -88.5t-74 -151.5t-30 -221z" />
<glyph unicode="'" horiz-adv-x="319" d="M217 1036l21 361h92l-68 -361h-45z" />
<glyph unicode="(" horiz-adv-x="501" d="M121 346q0 240 50 429.5t115.5 329.5t131 229t94.5 126l31 -20q-29 -39 -85.5 -133.5t-111.5 -238.5t-97 -337.5t-42 -429.5q0 -129 14.5 -232.5t33.5 -180t39.5 -129t35.5 -83.5l-43 -28q-10 25 -37 79t-55.5 141t-51 206t-22.5 272z" />
<glyph unicode=")" horiz-adv-x="505" d="M-37 -324q27 39 83 130.5t114.5 234.5t102.5 338.5t44 443.5q0 125 -15.5 226.5t-35.5 180.5t-41.5 131t-34.5 79l37 20q14 -27 43 -82t58.5 -140t52 -198.5t22.5 -255.5q0 -166 -25.5 -309t-65.5 -263t-88 -216t-92 -168t-79 -117l-49 -63z" />
<glyph unicode="*" horiz-adv-x="729" d="M193 1157q4 45 17 75t42 58q47 -29 90 -56.5t90 -55.5l-16 227q18 6 38.5 10t37.5 4q33 0 61 -14l-74 -227l209 104q20 -18 27.5 -36.5t7.5 -41.5q0 -25 -6 -51l-230 -27l140 -157q-41 -63 -113 -82l-72 213q-29 -53 -58.5 -105.5t-59.5 -105.5q-35 8 -57.5 25.5 t-39.5 54.5q45 41 89 81t92 78z" />
<glyph unicode="+" d="M178 565l10 86h326l41 326h86l-41 -326h322l-13 -86h-321l-41 -342h-84l41 342h-326z" />
<glyph unicode="," horiz-adv-x="346" d="M-2 -172q35 33 59.5 66.5t34.5 85.5q-43 14 -43 65q0 37 24.5 64.5t61.5 27.5q31 0 52.5 -20.5t21.5 -61.5q0 -33 -15.5 -69.5t-41 -71.5t-61.5 -65.5t-77 -49.5z" />
<glyph unicode="-" horiz-adv-x="690" d="M104 485l13 97h493l-12 -97h-494z" />
<glyph unicode="." horiz-adv-x="342" d="M41 49q0 35 23.5 60.5t60.5 25.5q33 0 50.5 -19.5t17.5 -47.5q0 -35 -28 -61.5t-59 -26.5q-29 0 -47 20t-18 49z" />
<glyph unicode="/" horiz-adv-x="610" d="M-37 -63l694 1505h64l-692 -1505h-66z" />
<glyph unicode="0" d="M94 465q0 51 5 138t22.5 188.5t51.5 206t92.5 189.5t145.5 138t212 53q129 0 206.5 -52t119.5 -134t54.5 -180.5t12.5 -192.5q0 -84 -9.5 -177t-33 -186.5t-61.5 -178t-95 -149.5t-136 -103.5t-181 -38.5q-119 0 -196 40t-123 107.5t-65.5 153.5t-21.5 178zM184 455 q2 -84 18.5 -156t54.5 -125t100.5 -83t154.5 -30q82 0 145.5 36t110.5 96.5t79 138.5t50 163t26.5 169t8.5 155q0 80 -12.5 165t-45 154.5t-92 114.5t-153.5 45q-111 0 -186.5 -54t-125 -137t-77 -184.5t-40 -194.5t-14.5 -168t-2 -105z" />
<glyph unicode="1" d="M152 0l10 82h291l143 1151l-334 -55l-6 63l356 115h86l-157 -1274h270l-8 -82h-651z" />
<glyph unicode="2" d="M16 0l9 76q74 61 160.5 136t176 156t172 168t147 176t103.5 176t39 169q0 123 -76.5 178t-195.5 55q-45 0 -133 -19.5t-219 -96.5l-41 63q66 47 127 74.5t113.5 43t94.5 20.5t72 5q74 0 139.5 -18.5t112.5 -55t75 -93t28 -134.5q0 -94 -39 -190t-103.5 -188.5 t-146.5 -180.5t-168 -167t-169 -147.5t-149 -121.5h615l24 209h86l-34 -293h-820z" />
<glyph unicode="3" d="M4 57l29 62q63 -23 113.5 -35t91.5 -17.5t74.5 -6.5t62.5 -1q84 0 160.5 25t135 71t92.5 110.5t34 144.5q0 70 -27 125t-74 94t-109.5 59.5t-135.5 20.5q-55 0 -101 -7l-14 74q141 37 231 76t142.5 80t73 84t20.5 88q0 39 -14.5 76t-47 65.5t-83 45t-121.5 16.5 q-68 0 -150 -19.5t-192 -68.5l-31 59q84 53 187.5 83t189.5 30q94 0 161.5 -22.5t110.5 -59.5t63.5 -86t20.5 -101q0 -53 -17.5 -103t-55.5 -96t-100 -84t-155 -65q61 -6 118.5 -33.5t102 -72.5t71 -106.5t28.5 -135.5q0 -88 -37 -168t-104.5 -141.5t-160.5 -98t-208 -36.5 q-135 0 -223 20.5t-152 54.5z" />
<glyph unicode="4" d="M57 389l13 92l749 875h94l-106 -883h190l-10 -84h-192q-10 -78 -19.5 -153.5t-19.5 -153.5h151l-10 -82h-379l10 82h142q10 78 19 153.5t20 153.5h-652zM168 473h553l92 750h-14q-8 -10 -53.5 -64.5t-109 -130.5t-138 -165t-142 -168t-119 -140t-69.5 -82z" />
<glyph unicode="5" d="M47 57l33 76q61 -23 107 -35t84 -18t69 -8t59 -2q92 0 171 23.5t137.5 73.5t91 126t32.5 180q0 70 -24.5 122t-66.5 87t-97 51.5t-119 16.5q-59 0 -122.5 -15.5t-125.5 -46.5l-63 62l78 606h674l-33 -264h-80l20 174h-501l-66 -478q27 8 89.5 28t166.5 20 q66 0 130.5 -18.5t116.5 -61.5t84 -110.5t32 -166.5q0 -129 -46.5 -223t-118 -155.5t-160.5 -90t-177 -28.5q-123 0 -210 18t-165 57z" />
<glyph unicode="6" d="M115 440q0 199 41 371t117.5 298t184 197.5t242.5 71.5q109 0 180.5 -25.5t100.5 -43.5q-10 -16 -19.5 -35t-17.5 -37q-72 35 -137.5 45t-114.5 10q-78 0 -140.5 -29.5t-110.5 -77.5t-83.5 -108.5t-60.5 -121t-39 -115t-20 -90.5l10 -9q51 31 140 66t214 35 q72 0 135.5 -18.5t111.5 -60.5t76.5 -109.5t28.5 -166.5q0 -113 -33.5 -205t-95 -157.5t-146.5 -101t-185 -35.5q-111 0 -183.5 34.5t-116.5 95t-61.5 143.5t-17.5 179zM205 442q0 -66 11 -132t42 -119.5t86 -88t145 -34.5q92 0 161 32.5t115 88t68.5 130t22.5 158.5 q0 125 -58 200t-208 75q-66 0 -123 -12.5t-106.5 -30t-86 -39t-57.5 -39.5q-10 -49 -11 -101.5t-1 -87.5z" />
<glyph unicode="7" d="M203 0l712 1266h-579l-27 -213h-86l39 303h760l-10 -84l-711 -1272h-98z" />
<glyph unicode="8" d="M82 311q0 135 82 259t248 204q-164 96 -164 248q0 68 30.5 132.5t85 114.5t131.5 79.5t169 29.5q63 0 125.5 -16t109.5 -51t77 -90.5t30 -130.5q0 -104 -63.5 -199.5t-201.5 -185.5q102 -53 152.5 -132t50.5 -190q0 -72 -29.5 -143.5t-88 -128t-146.5 -91t-203 -34.5 q-104 0 -180 26.5t-123 70.5t-69.5 103.5t-22.5 124.5zM166 322q0 -51 16.5 -99.5t54 -85.5t99 -59.5t151.5 -22.5q98 0 170 31t117 79t66.5 104.5t21.5 109.5q0 78 -26.5 130t-75.5 91t-122 70.5t-165 68.5q-86 -43 -144.5 -94t-95 -106.5t-52 -110.5t-15.5 -106zM328 1026 q0 -57 29.5 -99t77.5 -75t110.5 -60.5t128.5 -54.5q145 94 197.5 180.5t52.5 159.5q0 41 -12.5 82t-43 74t-84 53.5t-135.5 20.5q-94 0 -156.5 -34t-99.5 -79t-51 -93t-14 -75z" />
<glyph unicode="9" d="M92 57q10 16 17.5 35t17.5 37q74 -35 148.5 -45t125.5 -10q78 0 141.5 30.5t111.5 78.5t83 108.5t59.5 121t38 114t19.5 89.5l-6 9q-41 -25 -97.5 -50.5t-127.5 -42.5q-29 -4 -62 -8t-69 -4q-72 0 -136.5 18.5t-111.5 60.5t-75 109.5t-28 163.5q0 113 36 206t99.5 160 t150.5 103.5t191 36.5t174 -34.5t112 -96t59.5 -144.5t17.5 -181q0 -199 -41 -370t-118 -296t-186.5 -195.5t-244.5 -70.5q-106 0 -189 24.5t-110 42.5zM233 879q0 -123 61.5 -196t211.5 -73q88 0 157.5 18.5t116.5 41t73 40t24 17.5q6 63 9 104t3 95q0 63 -11.5 128.5 t-43 118t-87 85t-143.5 32.5q-92 0 -160.5 -31.5t-115.5 -87t-71 -130t-24 -162.5z" />
<glyph unicode=":" horiz-adv-x="331" d="M53 55q0 35 23.5 61.5t58.5 26.5q31 0 49.5 -18.5t18.5 -46.5q0 -37 -22.5 -64.5t-61.5 -27.5q-31 0 -48.5 20.5t-17.5 48.5zM133 725q0 35 26.5 58.5t59.5 23.5q29 0 48.5 -17.5t19.5 -46.5q0 -35 -25.5 -63.5t-60.5 -28.5q-31 0 -49.5 22.5t-18.5 51.5z" />
<glyph unicode=";" horiz-adv-x="331" d="M-4 -172q37 33 61.5 66.5t34.5 85.5q-45 14 -45 65q0 37 25.5 64.5t60.5 27.5q31 0 52.5 -20.5t21.5 -61.5q0 -33 -14.5 -69.5t-41 -71.5t-61.5 -65.5t-76 -49.5zM133 725q0 35 26.5 58.5t59.5 23.5q29 0 48.5 -17.5t19.5 -46.5q0 -35 -25.5 -63.5t-60.5 -28.5 q-31 0 -49.5 22.5t-18.5 51.5z" />
<glyph unicode="&#x3c;" d="M188 569l11 74l776 387l-14 -102l-674 -324q-4 2 40 -22.5t110.5 -62.5t146.5 -82t146.5 -82t110.5 -62.5t40 -22.5l-11 -92z" />
<glyph unicode="=" d="M143 438l11 84h770l-11 -84h-770zM176 713l12 86h770l-10 -86h-772z" />
<glyph unicode="&#x3e;" d="M143 178l11 103l680 331q4 -2 -40 21.5t-113 60.5t-147.5 80t-147.5 80t-113 61.5t-40 22.5l13 92l680 -387l-11 -74z" />
<glyph unicode="?" horiz-adv-x="800" d="M162 1108l33 268q84 29 172.5 43.5t160.5 14.5q162 0 241 -57.5t79 -166.5q0 -59 -19.5 -108t-51.5 -90t-75 -77t-90 -69q-88 -63 -146 -116.5t-92 -101.5t-47.5 -96t-13.5 -103q0 -25 1 -52.5t1 -62.5l-71 -19q-4 37 -6 69t-2 60q0 61 13 116.5t47 109t94.5 112 t156.5 125.5q49 37 89 70t68.5 67.5t44 73.5t15.5 86q-6 82 -68.5 115t-156.5 33q-59 0 -132 -11.5t-145 -33.5l-22 -199h-78zM207 49q0 37 25.5 63.5t60.5 26.5q31 0 48 -21.5t17 -49.5q0 -37 -26.5 -61.5t-57.5 -24.5q-29 0 -48 19t-19 48z" />
<glyph unicode="@" horiz-adv-x="1796" d="M162 621q0 178 69.5 332.5t189.5 268t278.5 179t336.5 65.5q152 0 271.5 -42t203.5 -118.5t128 -185t44 -241.5q0 -141 -39.5 -245t-102 -170.5t-137.5 -98t-142 -31.5q-57 0 -94.5 18.5t-57.5 49t-28.5 68.5t-8.5 77q0 18 2 36.5t4 34.5h-6q-25 -59 -51.5 -104 t-54.5 -80q-53 -59 -106.5 -82.5t-102.5 -23.5q-86 0 -142.5 69.5t-56.5 216.5q0 113 25.5 213.5t77 177t127.5 121.5t178 45q47 0 92 -9t102 -27l45 45l29 -9l-53 -299q-14 -78 -28.5 -160.5t-14.5 -146.5q0 -80 30.5 -126t110.5 -46q39 0 96.5 25.5t109.5 82t90 147.5 t38 222q0 127 -40 226.5t-114 167t-180 103.5t-238 36q-172 0 -320.5 -61.5t-257 -167t-171 -248t-62.5 -301.5q0 -135 43 -248t120 -195t183.5 -127t233.5 -45q41 0 106.5 6.5t137.5 28.5l16 -53q-23 -10 -54.5 -17.5t-66.5 -12.5t-71.5 -8t-69.5 -3q-147 0 -267 50 t-205 139t-130 212t-45 269zM637 623q0 -115 39 -170.5t100 -55.5q37 0 78 21.5t84 71t85 132.5t83 205q10 59 20.5 119t22.5 119q-59 25 -108.5 33t-84.5 8q-96 0 -157.5 -50t-97 -124t-50 -158t-14.5 -151z" />
<glyph unicode="A" horiz-adv-x="1232" d="M-12 0l8 80h117q143 334 282.5 658.5t286.5 660.5h109l251 -1319h109l-8 -80h-348l8 80h143l-53 307h-559l-129 -307h149l-8 -80h-358zM375 475h502l-123 684l-27 146h-4q-2 -4 -3 -9.5t-7 -19.5t-17.5 -42t-31.5 -77q-18 -43 -45 -103.5t-62 -143.5t-80 -190.5 t-102 -244.5z" />
<glyph unicode="B" horiz-adv-x="1136" d="M27 0q4 20 5 39.5t3 40.5h135q37 311 76 618.5t78 618.5h-127q4 20 5 39.5t3 40.5h540q180 0 263.5 -86t83.5 -219q0 -104 -51.5 -202t-186.5 -161q57 -16 97 -48t63.5 -73t34 -89t10.5 -97q0 -109 -38 -187.5t-97.5 -131t-133 -78t-143.5 -25.5h-620zM256 80h367 q90 0 155.5 26.5t108.5 73.5t63.5 109.5t20.5 136.5q0 51 -16.5 98t-50.5 83t-86 56.5t-122 20.5h-366q-18 -154 -36 -302.5t-38 -301.5zM342 768h324q164 0 254 89t90 226q0 51 -15.5 94.5t-49.5 74t-86 48t-126 17.5h-323q-18 -137 -35 -274.5t-33 -274.5z" />
<glyph unicode="C" horiz-adv-x="1060" d="M125 537q0 72 9 166t35 191t71 191.5t117.5 168t175 118.5t241.5 45q115 0 195 -16.5t129 -38.5l-33 -281h-80l27 222q-45 16 -110.5 25t-133.5 9q-135 0 -239.5 -59t-174 -166.5t-105.5 -256t-36 -327.5q0 -96 21.5 -180t71.5 -146.5t131 -99t202 -36.5q59 0 148.5 11 t179.5 41l18 -71q-33 -12 -77 -23.5t-93 -19.5t-99 -13t-93 -5q-254 0 -376 139t-122 412z" />
<glyph unicode="D" horiz-adv-x="1228" d="M29 0l8 80h133l154 1237h-127l8 80h491q135 0 226.5 -43t146.5 -118t78.5 -176.5t23.5 -217.5q0 -168 -33.5 -320.5t-109.5 -268.5t-197.5 -184.5t-295.5 -68.5h-506zM262 82h250q27 0 80 3t116.5 22.5t130 63.5t121 126t89 209t34.5 313q0 125 -22.5 211t-57 141.5 t-79.5 85t-91.5 43t-88.5 15.5t-70 2h-260z" />
<glyph unicode="E" horiz-adv-x="1040" d="M29 0l8 80h129l153 1237h-120l8 78h858l-29 -254h-80l23 176h-573l-68 -541l575 15l-10 -99l-573 8l-76 -620h616l21 176h86l-31 -256h-917z" />
<glyph unicode="F" horiz-adv-x="985" d="M29 0l8 80h129l153 1237h-120l8 78h848l-31 -254h-78l23 176h-563l-68 -541l565 15l-10 -99l-563 8l-76 -620h192l-8 -80h-409z" />
<glyph unicode="G" horiz-adv-x="1179" d="M125 535q0 78 11 173t40 193t78 191.5t125 165t181.5 115.5t246.5 44q111 0 190.5 -16.5t126.5 -38.5l-32 -281h-78l26 222q-45 14 -110.5 24t-132.5 10q-143 0 -253 -60t-183.5 -166.5t-110.5 -250t-37 -311.5q0 -100 19.5 -187.5t67.5 -152t129 -102t204 -37.5 q59 0 132 8t126 28l65 523h-211l9 80h401l-8 -80h-105l-73 -586q-94 -29 -180.5 -43t-180.5 -14q-250 0 -366.5 145t-116.5 404z" />
<glyph unicode="H" horiz-adv-x="1282" d="M29 0l8 82h121l151 1235h-121l11 80h333l-8 -80h-125l-65 -535h700l66 535h-123l8 80h336l-8 -80h-123l-154 -1235h125l-10 -82h-336l8 82h123l76 614h-698l-78 -614h125l-9 -82h-333z" />
<glyph unicode="I" horiz-adv-x="608" d="M88 0l8 80h119l154 1237h-119l8 80h330l-8 -80h-125l-152 -1237h123l-8 -80h-330z" />
<glyph unicode="J" horiz-adv-x="602" d="M-145 -289q100 43 167.5 90t112.5 105.5t68.5 131.5t36.5 165l139 1114h-207l8 80h479l-8 -80h-184l-137 -1079q-14 -123 -45 -216.5t-85.5 -164t-132 -122.5t-188.5 -89z" />
<glyph unicode="K" horiz-adv-x="1175" d="M29 0l8 78h123l153 1243h-123l9 78h336l-9 -78h-125l-75 -606l671 606h-137l8 78h359l-8 -78h-107l-528 -475l426 -766h120l-8 -80h-344l6 80h129l-393 708l-207 -186l-65 -524h129l-8 -78h-340z" />
<glyph unicode="L" horiz-adv-x="1001" d="M29 0l8 80h129l153 1237h-120l8 78h352l-8 -78h-145l-154 -1237h604l31 242h86l-39 -322h-905z" />
<glyph unicode="M" horiz-adv-x="1597" d="M27 0q4 18 5 38.5t3 39.5h119l153 1239h-119q4 20 4.5 39.5t4.5 40.5h209q27 -84 52 -165t50 -163l256 -842h12q39 70 76 140.5t76 140.5q8 16 32.5 59t56.5 100.5t66.5 120t66.5 120t55.5 100.5t31.5 59l180 330h217q-2 -20 -3 -40t-5 -40h-121q-39 -311 -77.5 -619.5 t-75.5 -619.5h123q-4 -18 -5.5 -39t-3.5 -39h-338q4 18 5.5 38.5t3.5 39.5h129q35 287 69.5 567.5t69.5 566.5h-2l-131 -243q-59 -106 -117.5 -211t-118.5 -213l-233 -420h-90l-113 362l-154 498l-67 227h-4q-35 -287 -69 -567t-66 -567h129q-4 -18 -5.5 -39t-3.5 -39h-333z " />
<glyph unicode="N" horiz-adv-x="1353" d="M27 0l8 80h133l154 1237h-134l9 80h225q59 -117 114.5 -230.5t114.5 -230.5q12 -27 43 -87.5t68 -137t79 -161.5t78.5 -160t63.5 -132t37 -78h10l141 1137h-141l8 80h355l-9 -80h-129q-41 -330 -80.5 -658.5t-80.5 -658.5h-78l-273 545l-223 446l-121 248q-2 0 -3 -1 t-3 -1l-139 -1157h139l-8 -80h-358z" />
<glyph unicode="O" horiz-adv-x="1261" d="M123 512q0 160 32.5 320.5t107.5 290.5t195 212t294 82q135 0 222 -45t137 -120.5t70.5 -176t20.5 -213.5q0 -180 -38 -338.5t-113.5 -278.5t-188 -189.5t-262.5 -69.5q-131 0 -222 35.5t-147.5 103.5t-82 166t-25.5 221zM207 510q0 -223 93 -333.5t298 -110.5 q139 0 237.5 67.5t161 179t91 255t28.5 292.5q0 90 -14.5 176t-54 152.5t-110 107.5t-181.5 41q-158 0 -263.5 -76.5t-169 -197.5t-90 -267.5t-26.5 -285.5z" />
<glyph unicode="P" horiz-adv-x="1050" d="M29 0l8 80h123l153 1237h-125l11 80h518q72 0 135 -19.5t110.5 -61.5t75 -107.5t27.5 -155.5q0 -68 -20.5 -147t-69.5 -148.5t-132 -115.5t-210 -46h-322l-65 -516h168l-8 -80h-377zM322 678h319q53 0 111.5 17.5t107.5 59.5t82 112.5t33 179.5q0 137 -70.5 203.5 t-183.5 66.5h-322z" />
<glyph unicode="Q" horiz-adv-x="1257" d="M123 512q0 160 32.5 320.5t107.5 290.5t195 212t294 82q135 0 222 -45t137 -120.5t70.5 -176t20.5 -213.5q0 -145 -25.5 -278t-76.5 -244t-126 -191.5t-175 -123.5l297 -78l-54 -103l-430 142h-14q-124 0 -212 34q-93 35 -151.5 102.5t-85 166t-26.5 223.5zM207 510 q0 -223 93 -333.5t298 -110.5q139 0 237.5 67.5t161 179t91 255t28.5 292.5q0 90 -14.5 176t-54 152.5t-110 107.5t-181.5 41q-158 0 -263.5 -76.5t-169 -197.5t-90 -267.5t-26.5 -285.5z" />
<glyph unicode="R" horiz-adv-x="1130" d="M27 0l8 80h125l153 1237h-125l9 80h516q74 0 137 -17.5t110.5 -56.5t75 -102.5t27.5 -155.5q0 -66 -16.5 -131.5t-53.5 -123.5t-98 -101t-150 -62l177 -565l145 -19l2 -53q-29 -10 -74 -16t-71 -6q-47 0 -60.5 22.5t-25.5 59.5l-181 567h-342l-67 -557h170l-8 -80h-383z M326 719h325q55 0 112.5 14.5t104.5 51t78 102t31 168.5q0 143 -71.5 202.5t-186.5 59.5h-320z" />
<glyph unicode="S" horiz-adv-x="989" d="M27 94l28 240h80l-24 -191q72 -39 151.5 -55t157.5 -16q90 0 168 19.5t134 60.5t89 102t33 147q0 68 -22.5 113t-62.5 74.5t-92.5 49t-113.5 38.5q-78 20 -147.5 44.5t-123 61.5t-84 93.5t-30.5 142.5q0 100 37 175t98.5 125t138 74.5t156.5 24.5q76 0 172 -15.5 t174 -62.5l-33 -245h-80l27 198q-72 27 -132 35t-128 8t-130 -18.5t-110.5 -56t-77 -97t-28.5 -139.5q0 -59 25.5 -100t66.5 -70t92 -48.5t103 -35.5q68 -23 136 -43t124.5 -57t92.5 -98.5t36 -161.5q0 -117 -45 -198t-119 -131t-165 -71.5t-183 -21.5q-106 0 -206.5 23.5 t-182.5 82.5z" />
<glyph unicode="T" horiz-adv-x="995" d="M117 1118l33 279h933l-30 -279h-82l22 199h-342l-151 -1237h168l-9 -80h-415l8 80h162l153 1237h-348l-24 -199h-78z" />
<glyph unicode="U" horiz-adv-x="1333" d="M168 1317l10 80h357l-9 -80h-145l-102 -817q-7 -53 -6 -99q0 -143 62 -225q83 -108 283 -108q197 0 311.5 108.5t139.5 323.5l102 817h-145l8 80h357l-9 -80h-125l-102 -821q-14 -113 -52 -207t-102.5 -162t-156.5 -104.5t-215 -36.5q-133 0 -224.5 36.5t-143.5 104.5 q-53 68 -69 164q-9 52 -8 111q0 50 6 104l101 811h-123z" />
<glyph unicode="V" horiz-adv-x="1165" d="M129 1319l10 78h336l-8 -78h-129l170 -946l43 -256h8l105 262l393 940h-125l8 78h334l-8 -78h-123l-559 -1319h-95l-237 1319h-123z" />
<glyph unicode="W" horiz-adv-x="1701" d="M131 1319l8 78h355l-9 -78h-149l108 -1002l21 -188h4l76 195l373 927l-9 68h-145l8 78h375l-8 -78h-150l168 -1024l23 -170h4l67 194l346 1000h-143l8 78h350l-8 -78h-123l-471 -1319h-90l-143 885l-31 207h-4l-84 -218l-358 -874h-94l-154 1319h-121z" />
<glyph unicode="X" horiz-adv-x="1169" d="M-12 0l8 82h123l456 645l-278 592h-115l8 78h349l-9 -78h-143l240 -518l368 518h-145l8 78h373l-8 -78h-121l-432 -598l297 -639h125l-9 -82h-370l8 82h160l-265 565l-395 -565h164l-8 -82h-389z" />
<glyph unicode="Y" horiz-adv-x="1058" d="M129 1319l10 78h322l-8 -78h-131l233 -594h8l389 594h-135l8 78h332l-8 -78h-105l-446 -672l-70 -567h162l-8 -80h-414l8 80h166l68 561l-272 678h-109z" />
<glyph unicode="Z" horiz-adv-x="952" d="M-14 0l8 80l899 1237h-619l-22 -199h-80l33 279h792l-8 -80l-897 -1235h694l29 215h84l-37 -297h-876z" />
<glyph unicode="[" horiz-adv-x="444" d="M4 -328l215 1751h277q-2 -18 -3 -36.5t-6 -36.5h-194q-51 -401 -99.5 -802t-99.5 -800h197l-10 -76h-277z" />
<glyph unicode="\" horiz-adv-x="610" d="M139 1475h64l350 -1575h-66z" />
<glyph unicode="]" horiz-adv-x="444" d="M-35 -328l10 70h193l197 1608h-195l8 73h281l-215 -1751h-279z" />
<glyph unicode="^" horiz-adv-x="821" d="M92 815l404 584h69l254 -584h-78l-221 508l-348 -508h-80z" />
<glyph unicode="_" horiz-adv-x="993" d="M-82 -252l8 64h992l-9 -64h-991z" />
<glyph unicode="`" horiz-adv-x="913" d="M358 1376l101 72l170 -318l-60 -34z" />
<glyph unicode="a" horiz-adv-x="1030" d="M82 332q0 135 30.5 258t92 216t152.5 147.5t214 54.5q55 0 113.5 -13.5t124.5 -36.5l53 54l31 -4q-18 -119 -37.5 -248t-36 -252t-30 -232.5t-19.5 -189.5q43 4 94 24.5t97 49.5q8 -8 13 -16.5t11 -16.5q-27 -29 -58.5 -55.5t-62 -47t-58.5 -31.5t-48 -11q-35 0 -52.5 15 t-23.5 37.5t-4 51.5t6 57q4 43 12.5 97.5t18.5 95.5h-8q-43 -104 -92.5 -173t-99.5 -108t-99 -54t-92 -15q-106 0 -174 84t-68 262zM172 342q0 -141 46 -208.5t124 -67.5q43 0 93 25.5t102.5 86t104.5 160.5t101 250q10 72 22.5 144.5t25.5 144.5q-72 29 -131.5 40 t-100.5 11q-115 0 -189.5 -60.5t-118.5 -149.5t-61.5 -191.5t-17.5 -184.5z" />
<glyph unicode="b" horiz-adv-x="944" d="M18 1399l5 45q59 14 120.5 22.5t114.5 8.5q31 0 45 -16.5t14 -39.5q0 -10 -5 -61t-12 -124t-16.5 -158t-19.5 -166t-20.5 -148.5t-16.5 -102.5h9q43 106 92 175t99 109t99 55.5t92 15.5q106 0 175 -85t69 -263q0 -135 -30.5 -258t-92 -215.5t-152.5 -146.5t-212 -54 q-72 0 -142.5 16.5t-158.5 57.5l-6 12q23 162 44 320.5t40.5 316t38 319.5t36.5 334zM158 121q70 -29 128 -39t99 -10q115 0 189.5 60.5t118.5 149.5t61.5 190t17.5 185q0 141 -46 209t-124 68q-43 0 -93 -25.5t-102.5 -86t-105.5 -161t-102 -249.5z" />
<glyph unicode="c" horiz-adv-x="856" d="M82 352q0 51 7 121t26.5 143.5t54.5 145.5t90 128t133 91t185 35q66 0 119 -13.5t81 -23.5q27 -10 40 -24.5t7 -47.5q0 -8 -6 -31.5t-15 -53t-20.5 -62.5t-21.5 -60l-45 2l14 209q-35 12 -80 19.5t-92 7.5q-98 0 -172 -48t-123 -130t-74.5 -188.5t-25.5 -225.5 q0 -59 11 -111.5t39 -90.5t75 -59.5t117 -21.5q74 0 152.5 17.5t146.5 52.5l28 -55q-61 -35 -147 -62.5t-180 -27.5q-88 0 -149.5 26.5t-100.5 74.5t-56.5 114.5t-17.5 148.5z" />
<glyph unicode="d" horiz-adv-x="1036" d="M82 332q0 135 30.5 258t92 216t152.5 147.5t214 54.5q49 0 107.5 -12.5t118.5 -30.5l45 401l-209 31q0 10 1 23.5t3 23.5q125 29 235 29q66 0 66 -56q0 -16 -5 -55t-11 -80l-146 -1196q45 4 95.5 23.5t95.5 48.5l26 -31q-27 -29 -58.5 -55.5t-62 -46t-58.5 -31.5t-48 -12 q-48 0 -68 24q-16 18 -15 58q0 12 1 26q4 47 14.5 115.5t20.5 130.5h-8q-43 -104 -93.5 -173t-100.5 -108t-100 -54t-93 -15q-106 0 -174 84t-68 262zM172 342q0 -141 46 -208.5t124 -67.5q43 0 94 25.5t104.5 86t106.5 160.5t103 250l38 289q-70 29 -129 40t-100 11 q-115 0 -189.5 -60.5t-118.5 -149.5t-61.5 -191.5t-17.5 -184.5z" />
<glyph unicode="e" horiz-adv-x="882" d="M82 371q0 61 9 134t30.5 144.5t58.5 138t91.5 117.5t130 82t176.5 31q68 0 114.5 -20.5t75.5 -53.5t41 -74t12 -84q0 -106 -55 -174.5t-146.5 -109.5t-208 -61.5t-241.5 -28.5q-2 -12 -2 -27.5v-30.5q0 -49 9 -100t36 -93t74 -70t123 -28q78 0 151.5 19.5t151.5 56.5 l26 -57q-53 -35 -145.5 -64.5t-196.5 -29.5q-94 0 -155.5 30.5t-96 83t-49 122t-14.5 147.5zM178 496q268 14 410.5 79.5t142.5 200.5q0 72 -37 117t-127 45q-168 0 -266 -118.5t-123 -323.5z" />
<glyph unicode="f" horiz-adv-x="581" d="M-301 -408q6 16 11 31t9 31q45 -10 76 -12t60 -2q109 0 170 92t88 288q25 178 45 344t35.5 293t23.5 203t8 74h-162l5 41q41 8 81.5 16t81.5 19l7 41q10 96 31.5 178t60.5 141.5t98 92t147 32.5q33 0 76 -6t84 -16l-18 -74q-35 10 -74 13t-65 3q-55 0 -99.5 -17.5 t-75 -63.5t-51 -127t-30.5 -208h274l-8 -65h-279q-20 -172 -40.5 -342t-43.5 -342q-14 -119 -30.5 -240t-52.5 -219t-102.5 -160.5t-178.5 -62.5q-35 0 -77 6t-85 18z" />
<glyph unicode="g" horiz-adv-x="958" d="M47 -381l33 72q53 -27 116.5 -41.5t127.5 -14.5q113 0 178 37t102 99.5t53.5 143.5t26.5 169l35 256q-6 0 -8 -2q-43 -106 -93.5 -175t-100.5 -109t-100 -55t-93 -15q-106 0 -175 84t-69 262q0 135 30.5 258t92 216t152.5 148.5t212 55.5q72 0 141.5 -17.5t159.5 -58.5 l6 -12q-27 -211 -52 -414t-56 -414q-8 -55 -16.5 -116.5t-23.5 -121t-43 -113.5t-76 -95t-119.5 -65.5t-174.5 -24.5q-82 0 -153.5 20.5t-112.5 42.5zM172 340q0 -141 46 -209t122 -68q43 0 93 26t102.5 86.5t104.5 160.5t101 248q12 74 22.5 147.5t20.5 145.5 q-70 29 -128 40t-99 11q-115 0 -189.5 -61.5t-117.5 -150.5t-60.5 -191.5t-17.5 -184.5z" />
<glyph unicode="h" horiz-adv-x="1075" d="M94 1397l6 45q59 14 120 22.5t116 8.5q29 0 44 -8.5t15 -30.5q0 -14 -5 -69.5t-13 -131.5t-18.5 -163t-20.5 -168t-18.5 -145.5t-12.5 -94.5h8q45 102 100.5 169.5t110 108.5t103.5 57.5t82 16.5q102 0 141 -57.5t39 -141.5q0 -20 -3 -58t-10.5 -118t-21.5 -212t-39 -341 q45 4 87 16.5t89 40.5l27 -28q-123 -133 -215 -133q-74 0 -74 81q0 12 1 25.5t3 30.5q25 217 39 345t21.5 198.5t8.5 97t1 43.5q0 55 -22.5 94t-75.5 39q-45 0 -99.5 -27.5t-112 -90t-112.5 -163t-102 -245.5l-58 -410h-86q10 78 24.5 191.5t31 244.5t32 270.5l29.5 265.5 t26.5 229.5t18.5 164.5z" />
<glyph unicode="i" horiz-adv-x="509" d="M90 940l2 47q59 12 114.5 20.5t96.5 8.5q33 0 47.5 -8.5t14.5 -32.5q0 2 -8.5 -64.5t-20.5 -166t-26.5 -217t-27 -217t-20.5 -164t-8 -60.5q43 4 87 16.5t91 40.5l27 -28q-121 -133 -215 -133q-43 0 -58.5 24.5t-15.5 59.5q0 12 1 25t3 28l98 790zM272 1225 q0 31 21.5 54.5t50.5 23.5q25 0 42 -16.5t17 -43.5q0 -29 -20.5 -52.5t-50.5 -23.5q-23 0 -41.5 17.5t-18.5 40.5z" />
<glyph unicode="j" horiz-adv-x="483" d="M-106 -389q82 37 134 93t84.5 126t48 148.5t23.5 158.5q23 201 45.5 389.5t40.5 382.5l-184 31l2 45q59 14 117.5 22.5t99.5 8.5q60 0 60 -45q0 -1 -7 -73q-6 -52 -14 -124t-17.5 -155.5t-19.5 -164.5t-18 -154t-15 -122q-12 -111 -34.5 -211t-62.5 -181t-104.5 -139.5 t-162.5 -86.5zM264 1225q0 29 20.5 53.5t49.5 24.5q25 0 43 -17.5t18 -42.5q0 -29 -21.5 -53.5t-51.5 -24.5q-23 0 -40.5 17.5t-17.5 42.5z" />
<glyph unicode="k" horiz-adv-x="856" d="M37 0q27 174 49.5 341t44 334t43 339t43.5 356l-180 23q2 10 1 22t1 23q47 12 110.5 26.5t116.5 14.5q46 0 46 -42q0 -6 -1 -14q-4 -20 -10 -71.5t-16.5 -123t-21.5 -157.5t-23.5 -177t-24.5 -182t-22 -171h6q45 82 107.5 167t132 154.5t143 112.5t143.5 43 q55 0 87 -28.5t32 -76.5q-12 -10 -23.5 -18t-23.5 -18q-48 36 -104 36h-3q-53 0 -98 -22.5t-85 -59t-76 -83t-73 -93.5q25 -53 55.5 -112.5t62.5 -121t63.5 -118.5t59.5 -104t48.5 -79t30.5 -40q59 12 99 41t69 51l26 -29q-63 -96 -114 -128.5t-84 -32.5q-57 0 -144.5 150.5 t-232.5 440.5q-25 -35 -41 -59.5t-29.5 -47t-26 -48t-26.5 -58.5l-47 -360h-90z" />
<glyph unicode="l" horiz-adv-x="501" d="M98 1399l4 45q59 14 126 22.5t108 8.5q61 0 61 -41q0 -18 -9 -103.5t-24.5 -209.5t-34 -272.5t-36 -291.5t-33.5 -268t-24 -203q43 4 86 16.5t90 40.5l26 -28q-121 -133 -215 -133q-39 0 -56 18t-17 63q0 12 1 25.5t3 30.5l149 1249z" />
<glyph unicode="m" horiz-adv-x="1570" d="M55 940l6 47q59 12 122 20.5t116 8.5q29 0 46 -8.5t17 -30.5q0 -47 -12 -128t-28 -183h8q45 100 93 167.5t94 107.5t88 56.5t75 16.5q53 0 89 -15.5t56.5 -43t28.5 -65.5t8 -83q0 -18 -3 -53t-7 -101l4 -4q39 96 88 166t99.5 115t96.5 66.5t79 21.5q104 0 142 -55.5 t38 -141.5q0 -20 -3 -59t-10.5 -119t-21.5 -212t-37 -341q43 4 86 16.5t90 40.5l27 -28q-61 -66 -115.5 -99.5t-99.5 -33.5q-76 0 -76 84q0 12 1 25.5t3 27.5q18 156 30.5 265.5t21 183t11.5 116.5t5 67.5t2 36v21.5q0 53 -23.5 90t-77.5 37q-43 0 -91 -28.5t-97 -92 t-99.5 -163t-97.5 -242.5q-4 -27 -7 -49.5t-7 -62.5t-12 -109.5t-23 -192.5h-86q0 -4 4 31t8.5 78t8.5 78.5t4 33.5q23 195 35 305.5t17 169t5 79v34.5q0 53 -23.5 90t-74.5 37q-43 0 -91 -27.5t-97.5 -89t-98.5 -162t-96 -245.5l-57 -412h-86q16 117 31.5 242t30.5 245.5 t27.5 229t22.5 192.5z" />
<glyph unicode="n" horiz-adv-x="1075" d="M57 940q2 10 1 22.5t1 22.5q59 14 122 22.5t118 8.5q35 0 49 -10.5t14 -38.5q-4 -43 -14 -123t-26 -180h8q45 100 99 167.5t107.5 107.5t102.5 57.5t82 17.5q104 0 143 -55.5t39 -141.5q0 -23 -3 -61.5t-10 -116.5t-21.5 -210t-39.5 -343q43 4 86 16.5t91 38.5l26 -26 q-55 -66 -109.5 -99.5t-97.5 -33.5q-84 0 -84 81q0 12 1 25.5t3 30.5q25 211 39.5 338t21.5 197.5t8 99t1 43.5q0 59 -21.5 98t-76.5 39q-43 0 -98.5 -27.5t-111.5 -89t-112.5 -161t-103.5 -244.5q-12 -104 -27.5 -206t-27.5 -206h-89q16 117 33 242t32 244.5t27.5 229 t22.5 193.5z" />
<glyph unicode="o" horiz-adv-x="931" d="M82 360q0 104 22.5 220t77 212.5t142.5 160t219 63.5q94 0 156.5 -33t100.5 -87t54 -125t16 -146q0 -92 -18 -203t-69.5 -208t-141.5 -162.5t-233 -65.5q-96 0 -159 29.5t-99.5 80.5t-52 120t-15.5 144zM166 338q0 -53 11 -102.5t41 -88t79 -61.5t125 -23t132 29t96 76 t66.5 107.5t41 122t20.5 119.5t6 104q0 61 -10 117.5t-37.5 100.5t-74.5 70.5t-119 26.5q-78 0 -136.5 -29.5t-100.5 -79t-68.5 -113t-43 -130t-22.5 -131t-6 -115.5z" />
<glyph unicode="p" horiz-adv-x="1007" d="M-86 -424q4 20 4 38.5t4 39.5h158q39 315 73.5 625.5t73.5 629.5l-204 31q2 10 1 22.5t1 22.5q63 14 123.5 22.5t113.5 8.5q66 0 66 -47q0 -29 -9.5 -103.5t-31.5 -210.5h8q43 104 92 173t99.5 108t100.5 54.5t93 15.5q109 0 176.5 -85t67.5 -264q0 -135 -31 -258 t-92.5 -215t-153.5 -146t-215 -54q-49 0 -106.5 11t-116.5 28q-12 -92 -24.5 -184.5t-22.5 -184.5h196q-4 -20 -5 -38.5t-3 -39.5h-436zM215 111q70 -29 130.5 -39.5t100.5 -10.5q115 0 190 60.5t119 150.5t61.5 191.5t17.5 185.5q0 141 -46 209t-124 68q-43 0 -94.5 -26 t-104.5 -87t-107.5 -161.5t-103.5 -248.5z" />
<glyph unicode="q" horiz-adv-x="972" d="M82 332q0 135 30.5 258t91 216t149.5 147.5t208 54.5q68 0 141.5 -17.5t165.5 -58.5q4 -8 4 -12q-39 -317 -76.5 -633t-78.5 -633h162q-4 -20 -5.5 -38.5t-3.5 -39.5h-440l10 78h189q31 287 52 454.5t34 231.5q-6 0 -8 -2q-43 -106 -92.5 -174t-99.5 -108t-99 -55 t-92 -15q-106 0 -174 84t-68 262zM172 342q0 -141 46 -208.5t124 -67.5q43 0 93 25.5t101.5 86t104.5 160.5t102 248l41 291q-70 29 -128 40t-99 11q-115 0 -189.5 -60.5t-117.5 -149.5t-60.5 -191.5t-17.5 -184.5z" />
<glyph unicode="r" horiz-adv-x="776" d="M84 940l4 45q59 14 107.5 22.5t101.5 8.5q33 0 49 -9.5t16 -35.5q0 -39 -11 -109.5t-25 -167.5h6q39 104 81 168t83 98.5t80.5 46t72.5 11.5q59 0 85 -27.5t26 -66.5l-31 -27q-33 16 -57.5 19.5t-46.5 3.5q-92 0 -177.5 -119t-156.5 -377l-58 -424h-79q27 223 55.5 448.5 t56.5 460.5z" />
<glyph unicode="s" horiz-adv-x="782" d="M55 104q0 43 20.5 106.5t43.5 117.5l39 -2l-15 -230q73 -28 164 -28h6q55 0 109.5 11t97.5 36.5t68.5 65.5t25.5 95q0 43 -17 73t-47 51.5t-67 39t-75 35.5q-66 31 -120.5 60.5t-93 61.5t-60 70t-21.5 85q0 72 30.5 122t79.5 81.5t109.5 46t118.5 14.5q102 0 170.5 -32 t68.5 -77q0 -20 -5 -49t-14 -60.5t-20.5 -64.5t-23.5 -59l-39 2l14 221q-29 16 -67.5 26.5t-90.5 10.5q-45 0 -89 -9.5t-77.5 -31t-55 -57t-21.5 -86.5q0 -35 20.5 -61.5t51 -49.5t65.5 -40t65 -32q53 -25 104.5 -50t92.5 -59t65.5 -77t24.5 -100q0 -76 -33.5 -131.5 t-88 -91t-122 -53t-135.5 -17.5q-84 0 -134 10t-77.5 26.5t-36 37t-8.5 42.5z" />
<glyph unicode="t" horiz-adv-x="659" d="M102 930l4 43l148 35l63 209l48 14l-29 -236h295l-6 -65h-293q-2 -16 -10.5 -74.5t-18.5 -136.5t-21.5 -165t-21.5 -164t-16 -133t-6 -69q0 -53 25.5 -84.5t90.5 -31.5q35 0 84 7t111 25l22 -57q-47 -23 -106 -38t-119 -15q-123 0 -165 62q-31 45 -31 127q0 29 4 63 l92 684h-144z" />
<glyph unicode="u" horiz-adv-x="1075" d="M55 940l4 45q59 14 120 22.5t114 8.5q33 0 48 -9.5t15 -33.5q0 -25 -6 -84.5t-14 -138t-19.5 -167.5t-19.5 -168t-14.5 -141.5t-6.5 -87.5q0 -125 99 -125q43 0 98 28t111.5 89.5t113 160.5t103.5 245l59 413h82q-31 -223 -57.5 -443t-55.5 -468q90 6 175 55 q14 -12 26 -26q-57 -66 -111.5 -99.5t-95.5 -33.5q-47 0 -67.5 22.5t-20.5 71.5q2 20 6 54t9.5 71t11.5 72.5t10 62.5h-8q-45 -102 -99.5 -170t-108.5 -108t-101 -56t-76 -16q-109 0 -149 54t-40 144q0 18 2.5 54t9.5 113t21.5 210t38.5 348z" />
<glyph unicode="v" horiz-adv-x="909" d="M20 907q51 55 101.5 85t81.5 30q39 0 53 -19.5t18 -74.5q2 -14 7.5 -77t14.5 -149t18.5 -184t18.5 -185t15 -151.5t8 -81.5h9q76 86 147.5 187.5t128.5 209t92 214t35 202.5q-39 -10 -77 -21t-77 -24q-4 8 -8 17.5t-8 17.5q55 61 105.5 90t78.5 29q35 0 50.5 -20.5 t15.5 -77.5q0 -123 -48 -257.5t-121 -261t-158 -234.5t-156 -177h-68q-29 229 -56.5 460.5t-56.5 463.5l-147 -46q-4 8 -8 17.5t-9 17.5z" />
<glyph unicode="w" horiz-adv-x="1325" d="M20 903q47 51 91.5 84t83.5 37q37 0 55 -19.5t22 -76.5q2 -25 6.5 -87.5t10.5 -144.5t13 -172t13.5 -172t10.5 -145.5t6 -87.5h8q45 55 94 125.5t94 145.5t83 151.5t65 144.5q-4 59 -8 115.5t-11 116.5q-39 -14 -76.5 -25.5t-76.5 -24.5q-4 8 -9.5 16.5t-9.5 16.5 q53 59 106.5 90t84.5 31q33 0 50 -19.5t22 -72.5l53 -815h8q76 86 143.5 185t117.5 203.5t81 209t31 200.5l-158 -49l-18 33q57 61 109 93t81 32q35 0 51.5 -21.5t16.5 -80.5q0 -117 -46.5 -250t-115 -261t-149.5 -238t-150 -177h-72l-43 510q-2 0 -2 1t-2 1 q-37 -80 -84 -158t-96 -145.5t-94 -121.5t-78 -87h-66q-20 229 -40.5 460.5t-43.5 463.5l-145 -50q-4 8 -8 17.5t-9 17.5z" />
<glyph unicode="x" horiz-adv-x="858" d="M35 897q53 53 100 83t78 30q39 0 58.5 -22.5t39.5 -76.5q31 -84 63 -164.5t64 -162.5q68 104 134.5 208.5t134.5 208.5h12l76 -47v-10q-86 -106 -166 -214.5t-164 -215.5l172 -434q47 4 93 21.5t91 41.5l19 -28q-53 -63 -103.5 -99t-89.5 -36q-47 0 -64.5 24.5 t-33.5 61.5q-4 10 -24.5 62t-44 111.5t-45 110.5t-25.5 62q-72 -109 -147 -214.5t-144 -215.5l-15 -2l-67 40v11l344 456q-41 111 -84 216.5t-86 214.5q-41 -16 -79 -31t-79 -29z" />
<glyph unicode="y" horiz-adv-x="937" d="M-238 -360q0 4 1 8t1 8l43 29q37 -29 74 -41.5t74 -12.5q98 0 199.5 62.5t226.5 202.5q-18 115 -43 260t-50.5 288.5t-50 267.5t-42.5 197l-152 -45l-16 35q109 115 172 115q35 0 53 -19.5t29 -72.5q23 -102 45 -223t44.5 -246t42 -247t36.5 -229q68 90 128 217.5 t106 258.5t73.5 252.5t27.5 201.5l-157 -47l-17 35q113 119 176 119q35 0 57.5 -16.5t22.5 -69.5q0 -117 -35.5 -266.5t-100 -305t-153 -304t-193.5 -265.5t-224 -187.5t-242 -70.5q-72 0 -114 30.5t-42 80.5z" />
<glyph unicode="z" horiz-adv-x="858" d="M14 70l701 848h-473l-82 -224l-45 4l24 236q4 43 30 53t48 10h569l27 -82l-692 -837h553l74 217l40 -2l-24 -230q-4 -43 -27.5 -53t-46.5 -10h-657z" />
<glyph unicode="{" horiz-adv-x="444" d="M80 580l8 65q47 8 74.5 31.5t44 54.5t24 68t11.5 75l45 369q4 33 15 66.5t31.5 62.5t52.5 47.5t77 18.5h59l-12 -74h-43q-47 0 -73.5 -38t-35.5 -97l-43 -363q-4 -39 -13 -78.5t-25.5 -74.5t-41 -60.5t-61.5 -38.5q35 -23 54.5 -48t26.5 -56t6 -67.5t-7 -82.5l-61 -503 q-8 -57 3 -95t64 -38h51l-8 -74h-59q-47 0 -75 18.5t-41 47t-15 63.5t2 67l63 506q4 39 6 76t-6 67.5t-30.5 53t-67.5 31.5z" />
<glyph unicode="|" horiz-adv-x="389" d="M193 -274v1697h67v-1697h-67z" />
<glyph unicode="}" horiz-adv-x="444" d="M-43 -348l12 74h43q47 0 74 37.5t35 97.5l55 493q4 39 13.5 79t25.5 75t41 60.5t61 37.5q-35 23 -54 48.5t-26.5 56t-6.5 67.5t8 82l49 373q8 57 -3.5 95t-64.5 38h-51l8 74h60q47 0 74.5 -18.5t41 -47t15.5 -63.5t-2 -68l-52 -375q-4 -39 -6 -75.5t6.5 -67.5t31 -53.5 t67.5 -30.5l-9 -66q-47 -10 -74.5 -32.5t-44 -53t-23.5 -67.5t-11 -76l-57 -500q-4 -33 -15.5 -66.5t-32 -62t-52.5 -47t-77 -18.5h-59z" />
<glyph unicode="~" d="M178 573q35 57 93 100.5t128 43.5q43 0 93.5 -15.5t101.5 -35t97 -35t81 -15.5l150 99l41 -39q-35 -59 -94.5 -102.5t-131.5 -43.5q-55 0 -103 15.5t-91 33t-84 33t-80 15.5l-160 -97z" />
<glyph unicode="&#xa2;" d="M195 352q0 49 6 113.5t23.5 134.5t47 138.5t76.5 126t114.5 96t160.5 51.5l26 202h72l-25 -198q63 -2 114.5 -14.5t80.5 -22.5q27 -10 40 -24.5t7 -47.5q0 -8 -6 -31.5t-15.5 -53t-20.5 -62.5t-22 -60l-45 2l15 209q-31 10 -73 17.5t-85 9.5l-106 -872q59 6 121.5 22 t115.5 45l29 -55q-53 -31 -125 -55.5t-152 -30.5l-18 -160h-74l19 156q-82 4 -139.5 31.5t-93.5 74.5t-52 112.5t-16 145.5zM276 346q0 -59 11.5 -109.5t38 -88t70.5 -60t110 -25.5l108 871q-84 -14 -147.5 -67.5t-105.5 -132.5t-63.5 -179t-21.5 -209z" />
<glyph unicode="&#xa3;" d="M74 0l10 80q51 16 87 56t60.5 92.5t39 110.5t24.5 112l35 211h-142l13 71h141l39 240q12 78 37.5 148.5t71 124.5t113 86t161.5 32q37 0 80 -4t83 -12.5t76.5 -20.5t61.5 -27l-31 -235h-76l23 184q-41 16 -95.5 27.5t-125.5 11.5q-80 0 -131 -25.5t-85 -68.5 t-52.5 -101.5t-30.5 -125.5l-39 -234h407l-12 -71h-407l-33 -209q-8 -53 -21.5 -108.5t-32 -107t-43 -92.5t-55.5 -63h705l-8 -82h-848z" />
<glyph unicode="&#xa5;" d="M135 1276l12 80h328q-4 -20 -6 -41t-4 -39h-133q53 -147 104 -294.5t105 -295.5h8q92 147 181 294.5t179 295.5h-135q2 18 4 38.5t6 41.5h336q-2 -20 -4 -41t-6 -39h-102l-406 -639h318l-9 -68h-747l8 68h311q-59 160 -119.5 319.5t-119.5 319.5h-109zM141 393l11 74h747 l-10 -74h-334q-2 -20 -3 -40.5t-5 -41.5l-31 -231h172q-4 -20 -5 -41t-3 -39h-424q4 18 4 38.5t4 41.5h168l29 231l10 82h-330z" />
<glyph unicode="&#xa8;" horiz-adv-x="925" d="M293 1214q-2 33 23.5 55.5t50.5 22.5q66 0 69 -55q0 -35 -22.5 -57.5t-59.5 -22.5q-29 0 -45 15.5t-16 41.5zM709 1214q0 33 23 55.5t50 22.5q66 0 70 -55q0 -35 -23.5 -57.5t-62.5 -22.5q-53 0 -57 57z" />
<glyph unicode="&#xa9;" horiz-adv-x="1622" d="M100 686q0 150 53.5 281t148.5 229t225 154.5t282 56.5q160 0 291 -56.5t225 -154.5t145.5 -229t51.5 -281q0 -152 -56.5 -284t-154 -230t-227.5 -154.5t-275 -56.5q-172 0 -304 56.5t-222 154.5t-136.5 230.5t-46.5 283.5zM162 686q0 -137 42 -258t124 -211t202.5 -142 t278.5 -52q135 0 253 52t205 142t137 211t50 258t-47 257t-131 209t-204 140t-263 51q-137 0 -256 -51t-206 -140t-136 -209t-49 -257zM418 670q0 76 17.5 170t62.5 175t124.5 136t202.5 55q88 0 148.5 -12t95.5 -29v-213h-63v164q-45 16 -88.5 19.5t-90.5 3.5 q-86 0 -149.5 -34t-105.5 -96.5t-62.5 -149.5t-20.5 -193q0 -86 12.5 -167t49.5 -143.5t102.5 -99.5t171.5 -37q43 0 114 8.5t130 28.5l14 -61q-43 -18 -118.5 -31.5t-143.5 -13.5q-109 0 -184.5 35.5t-124.5 103t-71.5 164t-22.5 217.5z" />
<glyph unicode="&#xab;" horiz-adv-x="778" d="M123 334l10 80l299 299l33 -33l-234 -307l162 -305l-39 -29zM365 334l10 80l299 299l33 -33l-234 -307l162 -305l-39 -29z" />
<glyph unicode="&#xad;" horiz-adv-x="690" d="M104 485l13 97h493l-12 -97h-494z" />
<glyph unicode="&#xae;" horiz-adv-x="1112" d="M145 971q0 98 35 183t96.5 149.5t145.5 101.5t182 37q100 0 185 -37t146.5 -101.5t96.5 -149.5t35 -183q0 -96 -35 -181t-96.5 -148.5t-146.5 -99.5t-185 -36t-184 36t-145.5 99.5t-95.5 148t-34 181.5zM201 971q0 -84 29.5 -159t84 -131t128 -89t161.5 -33q92 0 168 33 t128 89t81 131t29 159q0 86 -30 161.5t-84 132t-129 89t-163 32.5t-161.5 -32.5t-128 -89t-84 -132t-29.5 -161.5zM399 674v51h50v498h-50v51h224q72 0 123 -37t51 -127q0 -39 -27 -88t-88 -74l106 -221q16 -2 28.5 -4t29.5 -4v-41q-12 -4 -29.5 -6t-34.5 -2q-18 0 -31.5 14 t-17.5 25l-112 233h-115v-217h72v-51h-179zM506 993h123q41 0 76.5 22.5t35.5 92.5q0 66 -34.5 90.5t-79.5 24.5h-121v-230z" />
<glyph unicode="&#xb4;" horiz-adv-x="925" d="M471 1133l252 317l80 -74l-285 -280z" />
<glyph unicode="&#xb8;" horiz-adv-x="841" d="M174 -487l10 57q111 10 181.5 41t70.5 92q0 27 -18.5 42t-47 24.5t-64.5 12.5t-68 5l-17 31l219 248q12 -10 24.5 -16.5t24.5 -16.5q-39 -41 -75.5 -84t-73.5 -84q88 -4 142.5 -35t54.5 -98q0 -96 -93.5 -157.5t-269.5 -61.5z" />
<glyph unicode="&#xbb;" horiz-adv-x="737" d="M31 68l235 305l-157 307l41 33l229 -299l-10 -80l-308 -295zM301 68l236 305l-158 307l41 33l227 -299l-10 -80l-307 -295z" />
<glyph unicode="&#x2c6;" horiz-adv-x="925" d="M221 1128l328 281h63l265 -276l-35 -41l-271 202l-319 -204z" />
<glyph unicode="&#x2da;" horiz-adv-x="925" d="M373 1325q6 39 23.5 75t46 62.5t66.5 43t83 16.5q39 0 71.5 -15.5t56 -43t34 -63.5t6.5 -75q-10 -82 -70.5 -138.5t-144.5 -56.5q-41 0 -75 15.5t-56.5 42t-33.5 61.5t-7 76zM436 1321q-6 -59 25 -97t92 -38q55 0 96 38t47 97q8 59 -23.5 99t-86.5 40q-61 0 -101.5 -40 t-48.5 -99z" />
<glyph unicode="&#x2dc;" horiz-adv-x="925" d="M283 1208q27 51 74 94.5t100 43.5q31 0 63.5 -13.5t64 -29t59.5 -28.5t50 -13l133 67l21 -18q-23 -51 -69 -88t-99 -37q-41 0 -74 12t-61.5 27.5t-55 28t-51.5 12.5l-131 -78z" />
<glyph unicode="&#x401;" horiz-adv-x="1040" d="M29 0l8 80h129l153 1237h-120l8 78h858l-29 -254h-80l23 176h-573l-68 -541l575 15l-10 -99l-573 8l-76 -620h616l21 176h86l-31 -256h-917zM391 1546q-2 33 25.5 55.5t52.5 22.5q66 0 70 -55q0 -37 -23.5 -59.5t-58.5 -22.5q-29 0 -47.5 16.5t-18.5 42.5zM807 1544 q0 33 22.5 56.5t51.5 23.5q68 0 71 -55q0 -37 -23.5 -59.5t-64.5 -22.5q-53 0 -57 57z" />
<glyph unicode="&#x402;" horiz-adv-x="1386" d="M137 1110l33 285h1079l-32 -285h-80l24 207h-485l-68 -551q109 47 205 66.5t168 19.5q86 0 148.5 -26.5t102.5 -72.5t59.5 -109.5t19.5 -135.5q0 -119 -40 -224.5t-103.5 -193.5t-143.5 -158.5t-162 -119.5l-22 47q80 57 149.5 123.5t120.5 143.5t81 164t30 185 q0 152 -65.5 221.5t-201.5 69.5q-74 0 -168 -19.5t-188 -58.5l-74 -608h152l-8 -80h-375l8 80h137l154 1237h-348l-27 -207h-80z" />
<glyph unicode="&#x403;" horiz-adv-x="987" d="M29 0l8 80h129l153 1237h-120l8 78h858l-31 -254h-78l23 176h-573l-152 -1237h192l-8 -80h-409zM573 1516l351 206l45 -96l-369 -160z" />
<glyph unicode="&#x404;" horiz-adv-x="1060" d="M123 535q0 74 9 167t35 191t72 191.5t118.5 167t175 118.5t241.5 45q113 0 193 -16.5t131 -38.5l-35 -283h-80q6 57 13.5 112.5t15.5 113.5q-47 14 -111.5 24t-132.5 10q-39 0 -74 -4t-69 -14q-160 -47 -259.5 -188.5t-136.5 -352.5l625 13l-12 -101l-623 10 q-4 -41 -6 -84t-2 -90q0 -98 21.5 -182t71.5 -145.5t132 -97t201 -35.5q59 0 148 10t180 39q4 -16 9 -35t9 -35q-33 -12 -77 -22.5t-93 -18.5t-99 -12t-93 -4q-252 0 -375 138t-123 409z" />
<glyph unicode="&#x405;" horiz-adv-x="989" d="M27 94l28 240h80l-24 -191q72 -39 151.5 -55t157.5 -16q90 0 168 19.5t134 60.5t89 102t33 147q0 68 -22.5 113t-62.5 74.5t-92.5 49t-113.5 38.5q-78 20 -147.5 44.5t-123 61.5t-84 93.5t-30.5 142.5q0 100 37 175t98.5 125t138 74.5t156.5 24.5q76 0 172 -15.5 t174 -62.5l-33 -245h-80l27 198q-72 27 -132 35t-128 8t-130 -18.5t-110.5 -56t-77 -97t-28.5 -139.5q0 -59 25.5 -100t66.5 -70t92 -48.5t103 -35.5q68 -23 136 -43t124.5 -57t92.5 -98.5t36 -161.5q0 -117 -45 -198t-119 -131t-165 -71.5t-183 -21.5q-106 0 -206.5 23.5 t-182.5 82.5z" />
<glyph unicode="&#x406;" horiz-adv-x="608" d="M88 0l8 80h119l154 1237h-119l8 80h330l-8 -80h-125l-152 -1237h123l-8 -80h-330z" />
<glyph unicode="&#x407;" horiz-adv-x="608" d="M88 0l8 80h119l154 1237h-119l8 80h330l-8 -80h-125l-152 -1237h123l-8 -80h-330zM168 1581q-2 33 23.5 55.5t50.5 22.5q66 0 69 -55q0 -35 -22.5 -57.5t-59.5 -22.5q-29 0 -45 15t-16 42zM584 1581q0 33 23 55.5t50 22.5q66 0 70 -55q0 -35 -23.5 -57.5t-62.5 -22.5 q-53 0 -57 57z" />
<glyph unicode="&#x408;" horiz-adv-x="602" d="M-145 -289q100 43 167.5 90t112.5 105.5t68.5 131.5t36.5 165l139 1114h-207l8 80h479l-8 -80h-184l-137 -1079q-14 -123 -45 -216.5t-85.5 -164t-132 -122.5t-188.5 -89z" />
<glyph unicode="&#x409;" horiz-adv-x="1798" d="M-39 29q117 35 196 116.5t132 217t90 329t67 451.5l23 174h-170l8 80h916l-9 -80h-141l-65 -514h331q104 0 177 -33t117 -84t63.5 -114.5t19.5 -127.5q0 -109 -37 -191.5t-98 -139t-140 -85t-161 -28.5h-592l8 80h138l151 1237h-432l-18 -154q-29 -229 -64 -436 t-94.5 -368.5t-155.5 -266t-246 -129.5zM920 80h374q70 0 131.5 22.5t107.5 67.5t73.5 113.5t27.5 162.5q0 74 -24.5 126.5t-67.5 86t-99.5 49t-117.5 15.5h-328z" />
<glyph unicode="&#x40a;" horiz-adv-x="1808" d="M27 0l8 80h121l153 1237h-121l9 78h335l-8 -78h-125l-65 -518h594l63 518h-135l8 80h365l-8 -80h-142l-63 -514h330q106 0 177.5 -32t115.5 -83t63.5 -115.5t19.5 -128.5q0 -109 -36.5 -191.5t-98 -139t-140.5 -85t-161 -28.5h-592l8 80h138l78 641h-594l-78 -641h125 l-9 -80h-335zM926 80h374q68 0 130.5 22.5t109.5 67.5t74.5 113.5t27.5 162.5q0 74 -25.5 126.5t-68.5 86t-99 49t-120 15.5h-325z" />
<glyph unicode="&#x40b;" horiz-adv-x="1517" d="M145 1110l35 285h1082l-33 -285h-80l25 207h-486l-70 -549q217 82 381 82q356 0 320 -299l-57 -471h122l-8 -80h-338l9 80h124l56 432q8 72 0 121t-39 79.5t-85 44t-136 13.5q-88 0 -185.5 -25.5t-173.5 -60.5l-73 -604h149l-8 -80h-377l8 80h142l153 1237h-350l-27 -207 h-80z" />
<glyph unicode="&#x40c;" horiz-adv-x="1130" d="M29 0l8 76h123l153 1247h-123l9 76h336l-9 -76h-125l-153 -1247h125l-8 -76h-336zM397 723l2 29l531 598q29 35 54.5 49t53.5 12q63 0 125 -31l-8 -55l-166 -18l-506 -572l412 -651l164 -18l2 -58q-33 -14 -71 -19t-66 -5q-35 0 -58.5 12t-42.5 41zM627 1522l350 207 l45 -97l-369 -159z" />
<glyph unicode="&#x40e;" horiz-adv-x="1075" d="M129 12l27 72q51 -16 89 -20.5t72 -4.5q37 0 61.5 9.5t44 30t38 54t41.5 83.5l76 163h-50l-272 918h-115l9 80h348l-9 -80h-141q35 -117 68 -233.5t65 -233.5l115 -379h8q10 23 39 87.5t65.5 150.5t78.5 182t79 183t66 152.5t39 90.5h-137l8 80h338l-9 -80h-114 l-482 -1120q-20 -49 -42.5 -89t-52 -68t-69.5 -43t-92 -15q-27 0 -73.5 4t-116.5 26zM424 1704l78 47q20 -35 43.5 -66.5t48 -57t52 -41t56.5 -15.5q18 0 44 4t60 19.5t79 46t104 83.5l35 -32q-96 -115 -179 -158t-155 -43q-49 0 -89 18.5t-72.5 48t-58.5 67.5t-46 79z" />
<glyph unicode="&#x40f;" horiz-adv-x="1282" d="M27 0l8 78h121l153 1239h-121l9 78h333l-8 -78h-125l-151 -1239h698l154 1239h-123l8 78h338l-8 -78h-123l-154 -1239h123l-8 -78h-520l-43 -328h-86l43 328h-518z" />
<glyph unicode="&#x410;" horiz-adv-x="1232" d="M-12 0l8 80h117q143 334 282.5 658.5t286.5 660.5h109l251 -1319h109l-8 -80h-348l8 80h143l-53 307h-559l-129 -307h149l-8 -80h-358zM375 475h502l-123 684l-27 146h-4q-2 -4 -3 -9.5t-7 -19.5t-17.5 -42t-31.5 -77q-18 -43 -45 -103.5t-62 -143.5t-80 -190.5 t-102 -244.5z" />
<glyph unicode="&#x411;" horiz-adv-x="1126" d="M16 0l9 80h135l153 1237h-118l8 78h829l-31 -262h-79l22 184h-545l-63 -514h340q104 0 176 -33t116 -84t63.5 -114.5t19.5 -127.5q0 -109 -37 -191.5t-98.5 -139t-140.5 -85t-161 -28.5h-598zM246 80h375q70 0 131 22.5t108 67.5t75 113.5t28 162.5q0 74 -26 126.5 t-69 86t-99 49t-118 15.5h-325z" />
<glyph unicode="&#x412;" horiz-adv-x="1136" d="M27 0q4 20 5 39.5t3 40.5h135q37 311 76 618.5t78 618.5h-127q4 20 5 39.5t3 40.5h540q180 0 263.5 -86t83.5 -219q0 -104 -51.5 -202t-186.5 -161q57 -16 97 -48t63.5 -73t34 -89t10.5 -97q0 -109 -38 -187.5t-97.5 -131t-133 -78t-143.5 -25.5h-620zM256 80h367 q90 0 155.5 26.5t108.5 73.5t63.5 109.5t20.5 136.5q0 51 -16.5 98t-50.5 83t-86 56.5t-122 20.5h-366q-18 -154 -36 -302.5t-38 -301.5zM342 768h324q164 0 254 89t90 226q0 51 -15.5 94.5t-49.5 74t-86 48t-126 17.5h-323q-18 -137 -35 -274.5t-33 -274.5z" />
<glyph unicode="&#x413;" horiz-adv-x="987" d="M29 0l8 80h129l153 1237h-120l8 78h858l-31 -254h-78l23 176h-573l-152 -1237h192l-8 -80h-409z" />
<glyph unicode="&#x414;" horiz-adv-x="1318" d="M-31 -328l49 408h103q74 55 135 173t110.5 271.5t86 331.5t59.5 358l12 103h-127l9 78h919l-8 -78h-123l-154 -1237h129l-49 -408h-84l41 328h-989l-39 -328h-80zM227 80h727l154 1237h-506l-14 -103q-25 -209 -58.5 -378.5t-76.5 -309t-99.5 -249t-126.5 -197.5z" />
<glyph unicode="&#x415;" horiz-adv-x="1040" d="M29 0l8 80h129l153 1237h-120l8 78h858l-29 -254h-80l23 176h-573l-68 -541l575 15l-10 -99l-573 8l-76 -620h616l21 176h86l-31 -256h-917z" />
<glyph unicode="&#x416;" horiz-adv-x="1683" d="M-25 8l5 58l165 18l543 649l-371 574l-157 18v55q33 14 69.5 23.5t65.5 9.5q55 0 86 -51l401 -623l-4 -26l-561 -672q-29 -35 -57.5 -47t-59.5 -10q-63 0 -125 24zM627 0l8 76h121l153 1247h-121l9 76h336l-9 -76h-127l-153 -1247h127l-8 -76h-336zM981 719l2 26l526 605 q29 35 54.5 49t54.5 12q63 0 125 -31l-8 -55l-166 -18l-502 -578l383 -645l162 -18l4 -58q-33 -14 -71 -19t-66 -5q-35 0 -57.5 12t-43.5 41z" />
<glyph unicode="&#x417;" horiz-adv-x="1064" d="M23 70l34 69q106 -39 192.5 -50t143.5 -11q106 0 196.5 24.5t154 71.5t99.5 119t36 166q0 63 -28 114.5t-76 85t-112.5 52t-140.5 18.5h-162l11 82h159q88 0 160 23.5t123 63.5t79 95.5t28 118.5q0 121 -86 171t-228 50q-86 0 -168 -18.5t-147 -46.5q-6 -55 -13.5 -112.5 t-15.5 -113.5h-78q10 72 16.5 143.5t16.5 143.5q72 37 178.5 61.5t225.5 24.5q88 0 159.5 -15.5t123.5 -50t81 -89t29 -130.5q0 -129 -80 -223t-213 -135q104 -31 175 -104.5t71 -204.5q0 -121 -48.5 -208t-125 -145.5t-175 -86t-196.5 -27.5q-119 0 -219.5 17.5 t-179.5 56.5z" />
<glyph unicode="&#x418;" horiz-adv-x="1314" d="M23 0l8 78h133l153 1239h-127l9 78h350l-8 -78h-140l-129 -1032h4l859 972l8 60h-170l8 78h383l-8 -78h-131l-154 -1239h131l-8 -78h-356l8 78h139l129 1038h-8l-850 -977l-8 -61h133l-8 -78h-350z" />
<glyph unicode="&#x419;" horiz-adv-x="1314" d="M23 0l8 78h133l153 1239h-127l9 78h350l-8 -78h-140l-129 -1032h4l859 972l8 60h-170l8 78h383l-8 -78h-131l-154 -1239h131l-8 -78h-356l8 78h139l129 1038h-8l-850 -977l-8 -61h133l-8 -78h-350zM539 1737l73 45q41 -68 93.5 -116t111.5 -48q18 0 44 4t61.5 19.5t81 45 t100.5 80.5l35 -32q-96 -115 -179 -157t-149 -42q-49 0 -89 17.5t-73 45t-60.5 64.5t-49.5 74z" />
<glyph unicode="&#x41a;" horiz-adv-x="1130" d="M29 0l8 76h123l153 1247h-123l9 76h336l-9 -76h-125l-153 -1247h125l-8 -76h-336zM397 723l2 29l531 598q29 35 54.5 49t53.5 12q63 0 125 -31l-8 -55l-166 -18l-506 -572l412 -651l164 -18l2 -58q-33 -14 -71 -19t-66 -5q-35 0 -58.5 12t-42.5 41z" />
<glyph unicode="&#x41b;" horiz-adv-x="1253" d="M-39 29q117 35 196 116.5t132 217t90 329t67 451.5l23 172h-170l8 82h965l-8 -80h-123l-154 -1235h123l-8 -82h-332l8 82h121l152 1233h-498l-18 -152q-29 -229 -64 -436t-94.5 -368.5t-155.5 -266t-246 -129.5z" />
<glyph unicode="&#x41c;" horiz-adv-x="1597" d="M27 0q4 18 5 38.5t3 39.5h119l153 1239h-119q4 20 4.5 39.5t4.5 40.5h209q27 -84 52 -165t50 -163l256 -842h12q39 70 76 140.5t76 140.5q8 16 32.5 59t56.5 100.5t66.5 120t66.5 120t55.5 100.5t31.5 59l180 330h217q-2 -20 -3 -40t-5 -40h-121q-39 -311 -77.5 -619.5 t-75.5 -619.5h123q-4 -18 -5.5 -39t-3.5 -39h-338q4 18 5.5 38.5t3.5 39.5h129q35 287 69.5 567.5t69.5 566.5h-2l-131 -243q-59 -106 -117.5 -211t-118.5 -213l-233 -420h-90l-113 362l-154 498l-67 227h-4q-35 -287 -69 -567t-66 -567h129q-4 -18 -5.5 -39t-3.5 -39h-333z " />
<glyph unicode="&#x41d;" horiz-adv-x="1282" d="M29 0l8 82h121l151 1235h-121l11 80h333l-8 -80h-125l-65 -535h700l66 535h-123l8 80h336l-8 -80h-123l-154 -1235h125l-10 -82h-336l8 82h123l76 614h-698l-78 -614h125l-9 -82h-333z" />
<glyph unicode="&#x41e;" horiz-adv-x="1261" d="M123 512q0 160 32.5 320.5t107.5 290.5t195 212t294 82q135 0 222 -45t137 -120.5t70.5 -176t20.5 -213.5q0 -180 -38 -338.5t-113.5 -278.5t-188 -189.5t-262.5 -69.5q-131 0 -222 35.5t-147.5 103.5t-82 166t-25.5 221zM207 510q0 -223 93 -333.5t298 -110.5 q139 0 237.5 67.5t161 179t91 255t28.5 292.5q0 90 -14.5 176t-54 152.5t-110 107.5t-181.5 41q-158 0 -263.5 -76.5t-169 -197.5t-90 -267.5t-26.5 -285.5z" />
<glyph unicode="&#x41f;" horiz-adv-x="1282" d="M29 0l8 82h121l149 1233h-121l13 82h1122l-10 -82h-123l-152 -1233h125l-10 -82h-336l8 82h123l152 1233h-701l-151 -1233h125l-9 -82h-333z" />
<glyph unicode="&#x420;" horiz-adv-x="1050" d="M29 0l8 80h123l153 1237h-125l11 80h518q72 0 135 -19.5t110.5 -61.5t75 -107.5t27.5 -155.5q0 -68 -20.5 -147t-69.5 -148.5t-132 -115.5t-210 -46h-322l-65 -516h168l-8 -80h-377zM322 678h319q53 0 111.5 17.5t107.5 59.5t82 112.5t33 179.5q0 137 -70.5 203.5 t-183.5 66.5h-322z" />
<glyph unicode="&#x421;" horiz-adv-x="1060" d="M125 537q0 72 9 166t35 191t71 191.5t117.5 168t175 118.5t241.5 45q115 0 195 -16.5t129 -38.5l-33 -281h-80l27 222q-45 16 -110.5 25t-133.5 9q-135 0 -239.5 -59t-174 -166.5t-105.5 -256t-36 -327.5q0 -96 21.5 -180t71.5 -146.5t131 -99t202 -36.5q59 0 148.5 11 t179.5 40l18 -70q-33 -12 -77 -23.5t-93 -19.5t-99 -13t-93 -5q-254 0 -376 139t-122 412z" />
<glyph unicode="&#x422;" horiz-adv-x="995" d="M117 1118l33 279h933l-30 -279h-82l22 199h-342l-151 -1237h168l-9 -80h-415l8 80h162l153 1237h-348l-24 -199h-78z" />
<glyph unicode="&#x423;" horiz-adv-x="1075" d="M129 12l27 72q51 -16 89 -20.5t72 -4.5q37 0 61.5 9.5t44 30t38 54t41.5 83.5l76 163h-50l-272 918h-115l9 80h348l-9 -80h-141q35 -117 68 -233.5t65 -233.5l115 -379h8q10 23 39 87.5t65.5 150.5t78.5 182t79 183t66 152.5t39 90.5h-137l8 80h338l-9 -80h-114 l-482 -1120q-20 -49 -42.5 -89t-52 -68t-69.5 -43t-92 -15q-27 0 -73.5 4t-116.5 26z" />
<glyph unicode="&#x424;" horiz-adv-x="1484" d="M109 616q0 106 38.5 214t123.5 197t219.5 147.5t324.5 68.5l10 74h-123l9 80h329l-8 -80h-125l-10 -74q150 -6 254 -45t169.5 -102.5t95.5 -142.5t30 -165q0 -123 -47 -232.5t-134 -192t-213 -134t-284 -57.5h-2l-10 -92h123l-9 -80h-329l8 80h123l12 92 q-287 12 -431 129t-144 315zM182 627q0 -186 133.5 -280.5t376.5 -104.5l117 934q-168 -8 -287 -58.5t-194.5 -126.5t-110.5 -171t-35 -193zM772 242q143 8 255 53t187.5 116.5t114.5 165t39 197.5q0 70 -21.5 139.5t-75.5 126t-148.5 93t-237.5 43.5z" />
<glyph unicode="&#x425;" horiz-adv-x="1169" d="M-12 0l8 82h123l456 645l-278 592h-115l8 78h349l-9 -78h-143l240 -518l368 518h-145l8 78h373l-8 -78h-121l-432 -598l297 -639h125l-9 -82h-370l8 82h160l-265 565l-395 -565h164l-8 -82h-389z" />
<glyph unicode="&#x426;" horiz-adv-x="1282" d="M25 0l8 78h121l153 1239h-121l9 78h333l-8 -78h-125l-151 -1239h698l154 1239h-123l8 78h338l-8 -78h-123l-154 -1239h115l-49 -404h-90l41 326h-1026z" />
<glyph unicode="&#x427;" horiz-adv-x="1196" d="M143 1315q4 18 5.5 38.5t3.5 41.5h337q-4 -20 -4 -41t-4 -39h-127l-51 -410q-2 -12 -2 -24.5v-24.5q0 -111 64.5 -155t218.5 -44q92 0 188 22.5t172 57.5q16 145 35.5 288.5t36.5 289.5h-121l8 80h334q-4 -20 -4 -41t-4 -39h-127q-39 -311 -78 -618.5t-76 -618.5h127 q-2 -18 -3 -39t-5 -39h-332l10 78h119q16 145 33.5 287.5t36.5 287.5q-106 -41 -201.5 -56t-177.5 -15q-162 0 -253 58t-91 183v21.5t2 23.5l55 447h-125z" />
<glyph unicode="&#x428;" horiz-adv-x="1748" d="M29 0l8 80h121l151 1239h-121l11 76h336l-9 -76h-125l-153 -1239h540l154 1239h-125l8 76h346l-8 -76h-129l-153 -1239h530l152 1239h-123l8 76h340l-8 -76h-123l-154 -1239h123l-8 -80h-1589z" />
<glyph unicode="&#x429;" horiz-adv-x="1748" d="M29 0l8 80h121l151 1239h-121l11 76h336l-9 -76h-125l-153 -1239h540l154 1239h-125l8 76h346l-8 -76h-129l-153 -1239h530l152 1239h-123l8 76h340l-8 -76h-123l-154 -1239h113l-49 -408h-97l41 328h-1482z" />
<glyph unicode="&#x42a;" horiz-adv-x="1417" d="M109 1079l41 316h673l-8 -78h-123l-65 -514h340q104 0 177 -33t117 -84t63 -114.5t19 -127.5q0 -109 -36.5 -191.5t-98 -139t-140.5 -85t-161 -28.5h-598l8 80h136l149 1237h-383l-31 -238h-79zM539 80h374q68 0 130.5 22.5t108.5 67.5t73.5 113.5t27.5 162.5 q0 74 -24.5 126.5t-67.5 86t-99 49t-120 15.5h-326z" />
<glyph unicode="&#x42b;" horiz-adv-x="1574" d="M29 0l8 80h133l154 1237h-136l11 80h360l-8 -80h-141l-64 -514h336q104 0 176 -33t116 -84t63.5 -114.5t19.5 -127.5q0 -109 -37 -191.5t-98.5 -139t-139 -85t-159.5 -28.5h-594zM258 80h373q70 0 131 22.5t108.5 67.5t75 113.5t27.5 162.5q0 74 -24.5 126.5t-67.5 86 t-99.5 49t-119.5 15.5h-326zM1104 0l10 80h117l153 1237h-118l8 78h332l-9 -78h-122l-154 -1237h123l-8 -80h-332z" />
<glyph unicode="&#x42c;" horiz-adv-x="1146" d="M39 0l8 80h133l154 1237h-135l10 80h360l-8 -80h-141l-64 -514h336q104 0 176 -33t116 -84t63.5 -115.5t19.5 -128.5q0 -109 -37 -190.5t-98.5 -138t-139 -85t-159.5 -28.5h-594zM268 80h373q70 0 131.5 22.5t108.5 67.5t74.5 113.5t27.5 162.5q0 74 -24.5 126.5 t-67.5 86t-99.5 49t-119.5 15.5h-326z" />
<glyph unicode="&#x42d;" horiz-adv-x="1062" d="M16 43l33 68q39 -14 82 -23.5t84 -15.5t78 -8.5t65 -2.5q143 0 248 54.5t173.5 143.5t104.5 202.5t46 234.5l-576 -4q2 25 5 47.5t8 46.5q143 -4 285.5 -7t287.5 -7q6 57 6 113q0 209 -97 329.5t-302 120.5q-68 0 -146.5 -11t-128.5 -28l-26 -223h-80l35 283 q25 12 67.5 22.5t92 19.5t97.5 14t83 5q143 0 237 -43t149.5 -116.5t77 -172t21.5 -208.5q0 -190 -41 -352.5t-124 -282t-211 -187t-300 -67.5q-43 0 -91 4t-92 11t-84 17.5t-67 22.5z" />
<glyph unicode="&#x42e;" horiz-adv-x="1703" d="M27 0l8 80h121l153 1237h-121l9 78h333l-8 -78h-125q-16 -135 -32.5 -267t-32.5 -268h297q20 119 60 233.5t107.5 203t168 142.5t243.5 54q125 0 210 -43t137.5 -117.5t75 -175t22.5 -213.5q0 -184 -38 -344t-111.5 -278.5t-181.5 -187t-249 -68.5q-125 0 -214 34.5 t-145.5 101t-83 162t-26.5 218.5q0 43 2 90t8 98q-72 0 -145.5 1t-146.5 1l-76 -614h125l-9 -80h-335zM690 502q0 -217 89 -326.5t292 -109.5q133 0 227.5 67.5t154.5 179t88 257t28 298.5q0 88 -17.5 173t-59.5 150.5t-112 105.5t-174 40q-154 0 -253 -77.5t-157.5 -199.5 t-82 -270.5t-23.5 -287.5z" />
<glyph unicode="&#x42f;" horiz-adv-x="1173" d="M-43 10l6 60l156 18l338 553q-80 14 -133.5 46t-84 76t-43 97t-12.5 109q0 119 40 200.5t103.5 133t143.5 73t160 21.5h530l-8 -80h-123l-153 -1237h133l-9 -80h-370l8 80h147l70 551h-309l-352 -580q-23 -37 -47.5 -50t-57.5 -13q-29 0 -68.5 6t-64.5 16zM276 958 q0 -78 28 -125t71 -73.5t94 -34.5t96 -8h301l74 600h-332q-66 0 -125 -21.5t-105 -66.5t-74 -111.5t-28 -159.5z" />
<glyph unicode="&#x430;" horiz-adv-x="1030" d="M82 332q0 135 30.5 258t92 216t152.5 147.5t214 54.5q55 0 113.5 -13.5t124.5 -36.5l53 54l31 -4q-18 -119 -37.5 -248t-36 -252t-30 -232.5t-19.5 -189.5q43 4 94 24.5t97 49.5q8 -8 13 -16.5t11 -16.5q-27 -29 -58.5 -55.5t-62 -47t-58.5 -31.5t-48 -11q-35 0 -52.5 15 t-23.5 37.5t-4 51.5t6 57q4 43 12.5 97.5t18.5 95.5h-8q-43 -104 -92.5 -173t-99.5 -108t-99 -54t-92 -15q-106 0 -174 84t-68 262zM172 342q0 -141 46 -208.5t124 -67.5q43 0 93 25.5t102.5 86t104.5 160.5t101 250q10 72 22.5 144.5t25.5 144.5q-72 29 -131.5 40 t-100.5 11q-115 0 -189.5 -60.5t-118.5 -149.5t-61.5 -191.5t-17.5 -184.5z" />
<glyph unicode="&#x431;" horiz-adv-x="958" d="M86 338q0 49 6 113.5t15.5 135t21.5 142.5t25 135q18 94 45.5 182.5t68.5 163t99.5 130t138.5 81.5q33 12 79 18.5t96 11.5t104.5 10t103.5 14l14 -70q-82 -14 -142.5 -19.5t-109.5 -9.5q-90 -8 -155.5 -38.5t-115.5 -92t-86 -155t-63 -224.5q-2 -10 -7 -29.5t-10 -44 t-10 -50t-7 -46.5l8 -4q45 90 98 146.5t106.5 88t103.5 43t89 11.5q141 0 217 -91t76 -261q0 -94 -22.5 -207t-77 -210t-145.5 -162.5t-228 -65.5q-96 0 -160.5 28.5t-103.5 76.5t-55.5 112.5t-16.5 136.5zM170 346q0 -61 10 -114.5t39 -94.5t80 -64.5t131 -23.5 q92 0 163 46t119 126t72.5 184.5t24.5 221.5q0 133 -56 207.5t-167 74.5q-109 0 -215.5 -91t-184.5 -279q-10 -63 -13 -107.5t-3 -85.5z" />
<glyph unicode="&#x432;" horiz-adv-x="927" d="M76 57l65 566q8 80 34 151.5t71 124.5t112.5 85t161.5 32q76 0 129 -20.5t87 -53.5t50.5 -74t16.5 -80q0 -86 -38 -139t-110 -84q0 -2 1 -3t1 -3q45 -8 78 -29.5t54.5 -50t31.5 -62.5t10 -67q0 -80 -27.5 -146.5t-77.5 -114.5t-123 -74.5t-163 -28.5q-86 0 -182 13 t-174 46q-4 8 -8 12zM164 98q59 -23 124.5 -34t147.5 -11q55 0 110.5 15.5t99.5 50.5t71.5 89t27.5 132q0 86 -56 129t-161 43h-157q2 18 3 35.5t5 36.5h82q117 0 188.5 50t71.5 140q0 70 -49 118t-154 48q-80 0 -134 -28.5t-88 -74.5t-50.5 -101.5t-22.5 -106.5 q-14 -135 -28.5 -266.5t-30.5 -264.5z" />
<glyph unicode="&#x433;" horiz-adv-x="770" d="M49 215q2 68 29.5 121t72 95t101.5 76t119 60q43 18 92 43t91 55.5t70.5 67.5t28.5 80q0 41 -17.5 66.5t-44 41t-59 20.5t-63.5 5q-72 0 -141.5 -23.5t-145.5 -58.5l-30 62q59 39 147 67.5t184 28.5q51 0 96.5 -12.5t79 -36t53 -59t19.5 -85.5q0 -59 -25.5 -105 t-72.5 -86t-113.5 -76t-148.5 -73q-49 -23 -92 -50t-76 -61t-52.5 -75t-19.5 -88q0 -43 17.5 -72.5t47 -48t68.5 -27t84 -8.5q86 0 165 25t153 63l32 -53q-78 -53 -175 -79.5t-183 -26.5q-61 0 -113.5 12t-92.5 39t-62.5 71t-22.5 105z" />
<glyph unicode="&#x434;" horiz-adv-x="991" d="M82 379q0 96 27.5 203.5t86 198.5t146.5 150.5t211 59.5q78 0 150.5 -21.5t136.5 -58.5l2 2l2 2q-2 102 -16.5 191.5t-50.5 155t-95 103.5t-150 38q-53 0 -112.5 -8.5t-153.5 -36.5l-18 63q76 29 146.5 43.5t135.5 14.5q84 0 157 -30t125 -95.5t82 -169t30 -250.5 q0 -100 -15.5 -242.5t-56.5 -290.5q-18 -70 -52 -143.5t-86 -134t-124 -99t-170 -38.5q-102 0 -168 31.5t-103.5 86t-52 126t-14.5 149.5zM170 356q0 -55 10 -108t39 -96t79 -70t128 -27q80 0 139.5 36t103.5 96.5t74.5 139.5t50 166t30 175t16.5 166q-76 47 -145.5 65.5 t-141.5 18.5q-96 0 -168 -48.5t-119 -126t-71.5 -179t-24.5 -208.5z" />
<glyph unicode="&#x435;" horiz-adv-x="882" d="M82 371q0 61 9 134t30.5 144.5t58.5 138t91.5 117.5t130 82t176.5 31q68 0 114.5 -20.5t75.5 -53.5t41 -74t12 -84q0 -106 -55 -174.5t-146.5 -109.5t-208 -61.5t-241.5 -28.5q-2 -12 -2 -27.5v-30.5q0 -49 9 -100t36 -93t74 -70t123 -28q78 0 151.5 19.5t151.5 56.5 l26 -57q-53 -35 -145.5 -64.5t-196.5 -29.5q-94 0 -155.5 30.5t-96 83t-49 122t-14.5 147.5zM178 496q268 14 410.5 79.5t142.5 200.5q0 72 -37 117t-127 45q-168 0 -266 -118.5t-123 -323.5z" />
<glyph unicode="&#x436;" horiz-adv-x="1474" d="M20 133q10 6 16.5 13.5t16.5 13.5q27 -23 58.5 -50.5t89.5 -39.5q14 10 59 58t104.5 118.5t126 153.5t123.5 163q-23 57 -62.5 118.5t-89.5 111t-106.5 81t-109.5 31.5q-25 0 -51.5 -4t-63.5 -20l-22 32q39 99 139 99q63 0 133 -46t130 -114t107.5 -145.5t67.5 -143.5 l-6 -18q-61 -86 -134 -188.5t-153 -200.5q-78 -94 -126 -138.5t-87 -44.5q-35 0 -77 32t-83 128zM606 930q2 10 2 21.5v21.5q47 14 100.5 27.5t106.5 13.5q27 0 41 -16.5t10 -45.5l-41 -284l-90 -668h-88q31 223 60.5 450.5t62.5 456.5zM850 551v16q45 84 103.5 165 t122 144.5t129.5 102.5t132 39q53 0 85 -25.5t32 -72.5q-8 -6 -15 -14.5t-18 -14.5q-35 16 -60.5 19t-49.5 3q-49 0 -100.5 -30.5t-100.5 -79.5t-95 -110.5t-89 -123.5q37 -78 82 -159.5t86 -151.5t73.5 -119t46.5 -61q61 12 100.5 39.5t67.5 50.5q8 -6 15.5 -12t13.5 -15 q-49 -72 -87 -106.5t-67 -44.5q-10 -6 -20 -7t-18 -1q-25 0 -60 36.5t-72.5 93t-76.5 124t-71 131t-56.5 113.5t-32.5 71z" />
<glyph unicode="&#x437;" horiz-adv-x="825" d="M10 61l33 54q125 -57 270 -58q61 0 122 15.5t108 48.5t75.5 84t28.5 123q0 51 -23.5 86t-59.5 55t-78 28.5t-78 8.5h-134l13 76h110q39 0 86 11t88 35.5t68 61.5t27 90q0 43 -19.5 75t-53.5 52.5t-77 29.5t-92 9q-47 0 -104.5 -9t-98.5 -30l-26 -223l-54 -2l-20 195 q0 12 5 34.5t33.5 45t92 40t180.5 19.5q47 0 102.5 -10.5t101.5 -37t76.5 -69.5t30.5 -108q0 -68 -44 -135.5t-144 -100.5v-6q72 -16 122 -71.5t50 -145.5t-38 -154.5t-99.5 -106.5t-138 -61.5t-152.5 -19.5q-78 0 -151.5 16.5t-137.5 54.5z" />
<glyph unicode="&#x438;" horiz-adv-x="1075" d="M55 940l4 45q59 14 120 22.5t114 8.5q33 0 48 -9.5t15 -33.5q0 -25 -6 -84.5t-14 -138t-19.5 -167.5t-19.5 -168t-14.5 -141.5t-6.5 -87.5q0 -125 99 -125q43 0 98 28t111.5 89.5t113 160.5t103.5 245l59 413h82q-31 -223 -57.5 -443t-55.5 -468q90 6 175 55 q14 -12 26 -26q-57 -66 -111.5 -99.5t-95.5 -33.5q-47 0 -67.5 22.5t-20.5 71.5q2 20 6 54t9.5 71t11.5 72.5t10 62.5h-8q-45 -102 -99.5 -170t-108.5 -108t-101 -56t-76 -16q-109 0 -149 54t-40 144q0 18 2.5 54t9.5 113t21.5 210t38.5 348z" />
<glyph unicode="&#x439;" horiz-adv-x="1075" d="M55 940l4 45q59 14 120 22.5t114 8.5q33 0 48 -9.5t15 -33.5q0 -25 -6 -84.5t-14 -138t-19.5 -167.5t-19.5 -168t-14.5 -141.5t-6.5 -87.5q0 -125 99 -125q43 0 98 28t111.5 89.5t113 160.5t103.5 245l59 413h82q-31 -223 -57.5 -443t-55.5 -468q90 6 175 55 q14 -12 26 -26q-57 -66 -111.5 -99.5t-95.5 -33.5q-47 0 -67.5 22.5t-20.5 71.5q2 20 6 54t9.5 71t11.5 72.5t10 62.5h-8q-45 -102 -99.5 -170t-108.5 -108t-101 -56t-76 -16q-109 0 -149 54t-40 144q0 18 2.5 54t9.5 113t21.5 210t38.5 348zM344 1339l78 50q41 -66 90 -112 t109 -46q18 0 42.5 4t58.5 18.5t77 43t96 77.5l35 -33q-92 -109 -176 -148.5t-154 -39.5q-86 0 -149.5 56.5t-106.5 129.5z" />
<glyph unicode="&#x43a;" horiz-adv-x="933" d="M78 938l4 49q53 12 110.5 19.5t100.5 7.5q20 0 34.5 -10.5t14.5 -32.5v-8l-125 -963h-86q31 223 59.5 454.5t59.5 460.5q-41 6 -86 11.5t-86 11.5zM324 545l2 22q45 84 105.5 165t128 144.5t138 102.5t136.5 39q53 0 83.5 -25.5t32.5 -72.5q-8 -6 -15 -14.5t-17 -14.5 q-33 16 -58.5 20t-50.5 4q-43 0 -97.5 -27.5t-109.5 -75.5t-108.5 -111.5t-94.5 -133.5q39 -78 90.5 -159.5t101.5 -151.5t89 -118t53 -60q61 12 100 39.5t68 50.5l29 -27q-45 -74 -101.5 -116.5t-93.5 -42.5q-31 0 -68.5 34.5t-111.5 139.5q-37 51 -73 107t-66.5 108.5 t-55 98.5t-36.5 75z" />
<glyph unicode="&#x43b;" horiz-adv-x="946" d="M14 14q137 242 263 479.5t262 493.5l63 14l14 -14q23 -242 50.5 -474t56.5 -415q37 6 77 21.5t81 42.5l28 -25q-16 -25 -39.5 -50.5t-49 -46t-53.5 -33.5t-52 -13q-33 0 -52.5 15.5t-27.5 70.5q-31 188 -52.5 374.5t-37.5 385.5h-8q-55 -111 -108.5 -216.5t-107 -209 t-108.5 -206t-115 -208.5h-80z" />
<glyph unicode="&#x43c;" horiz-adv-x="1243" d="M25 8q59 162 109 299t94 256t84 222.5t83 197.5l56 23l12 -9q25 -242 55.5 -446.5t59.5 -357.5h6q27 66 51 124t47 115q66 164 123 294t117 257l69 23l17 -11q2 -262 5 -492.5t23 -404.5q35 4 76 19.5t80 44.5l29 -27q-16 -25 -39 -49.5t-48.5 -43.5t-52 -32.5 t-53.5 -13.5q-35 0 -56.5 15.5t-25.5 74.5q-4 66 -7 119t-4 101t-2 91t-1 88q0 82 2 172.5t6 192.5h-8q-43 -104 -79 -188t-73 -171.5t-80 -187.5t-100 -237l-57 -17l-13 8q-14 76 -31.5 167t-33.5 192.5t-30.5 210t-24.5 219.5h-9q-35 -96 -66.5 -183.5t-66.5 -184.5 t-73.5 -211.5t-85.5 -266.5h-70z" />
<glyph unicode="&#x43d;" horiz-adv-x="1060" d="M59 940q2 10 2 22.5v22.5q59 14 120 22.5t116 8.5q63 0 63 -47l-51 -410h475l60 438h82q-16 -115 -30.5 -224t-28 -221t-28 -226.5t-28.5 -239.5q49 4 91 17.5t85 37.5l27 -26q-59 -66 -110.5 -99.5t-96.5 -33.5q-43 0 -62.5 18t-19.5 63t13.5 144.5t37.5 288.5h-475 q-10 -84 -20.5 -165t-19.5 -148.5t-15 -116t-8 -66.5h-82q4 45 32.5 269.5t75.5 639.5z" />
<glyph unicode="&#x43e;" horiz-adv-x="931" d="M82 360q0 104 22.5 220t77 212.5t142.5 160t219 63.5q94 0 156.5 -33t100.5 -87t54 -125t16 -146q0 -92 -18 -203t-69.5 -208t-141.5 -162.5t-233 -65.5q-96 0 -159 29.5t-99.5 80.5t-52 120t-15.5 144zM166 338q0 -53 11 -102.5t41 -88t79 -61.5t125 -23t132 29t96 76 t66.5 107.5t41 122t20.5 119.5t6 104q0 61 -10 117.5t-37.5 100.5t-74.5 70.5t-119 26.5q-78 0 -136.5 -29.5t-100.5 -79t-68.5 -113t-43 -130t-22.5 -131t-6 -115.5z" />
<glyph unicode="&#x43f;" horiz-adv-x="1075" d="M57 940q2 10 1 22.5t1 22.5q59 14 122 22.5t118 8.5q35 0 49 -10.5t14 -38.5q-4 -43 -14 -123t-26 -180h8q45 100 99 167.5t107.5 107.5t102.5 57.5t82 17.5q104 0 143 -55.5t39 -141.5q0 -23 -3 -61.5t-10 -116.5t-21.5 -210t-39.5 -343q43 4 86 16.5t91 38.5l26 -26 q-55 -66 -109.5 -99.5t-97.5 -33.5q-84 0 -84 81q0 12 1 25.5t3 30.5q25 211 39.5 338t21.5 197.5t8 99t1 43.5q0 59 -21.5 98t-76.5 39q-43 0 -98.5 -27.5t-111.5 -89t-112.5 -161t-103.5 -244.5q-12 -104 -27.5 -206t-27.5 -206h-89q16 117 33 242t32 244.5t27.5 229 t22.5 193.5z" />
<glyph unicode="&#x440;" horiz-adv-x="1007" d="M-86 -424q4 20 4 38.5t4 39.5h158q39 315 73.5 625.5t73.5 629.5l-204 31q2 10 1 22.5t1 22.5q63 14 123.5 22.5t113.5 8.5q66 0 66 -47q0 -29 -9.5 -103.5t-31.5 -210.5h8q43 104 92 173t99.5 108t100.5 54.5t93 15.5q109 0 176.5 -85t67.5 -264q0 -135 -31 -258 t-92.5 -215t-153.5 -146t-215 -54q-49 0 -106.5 11t-116.5 28q-12 -92 -24.5 -184.5t-22.5 -184.5h196q-4 -20 -5 -38.5t-3 -39.5h-436zM215 111q70 -29 130.5 -39.5t100.5 -10.5q115 0 190 60.5t119 150.5t61.5 191.5t17.5 185.5q0 141 -46 209t-124 68q-43 0 -94.5 -26 t-104.5 -87t-107.5 -161.5t-103.5 -248.5z" />
<glyph unicode="&#x441;" horiz-adv-x="856" d="M82 352q0 51 7 121t26.5 143.5t54.5 145.5t90 128t133 91t185 35q66 0 119 -13.5t81 -23.5q27 -10 40 -24.5t7 -47.5q0 -8 -6 -31.5t-15 -53t-20.5 -62.5t-21.5 -60l-45 2l14 209q-35 12 -80 19.5t-92 7.5q-98 0 -172 -48t-123 -130t-74.5 -188.5t-25.5 -225.5 q0 -59 11 -111.5t39 -90.5t75 -59.5t117 -21.5q74 0 152.5 17.5t146.5 52.5l28 -55q-61 -35 -147 -62.5t-180 -27.5q-88 0 -149.5 26.5t-100.5 74.5t-56.5 114.5t-17.5 148.5z" />
<glyph unicode="&#x442;" horiz-adv-x="1570" d="M55 940l6 47q59 12 122 20.5t116 8.5q29 0 46 -8.5t17 -30.5q0 -47 -12 -128t-28 -183h8q45 100 93 167.5t94 107.5t88 56.5t75 16.5q53 0 89 -15.5t56.5 -43t28.5 -65.5t8 -83q0 -18 -3 -53t-7 -101l4 -4q39 96 88 166t99.5 115t96.5 66.5t79 21.5q104 0 142 -55.5 t38 -141.5q0 -20 -3 -59t-10.5 -119t-21.5 -212t-37 -341q43 4 86 16.5t90 40.5l27 -28q-61 -66 -115.5 -99.5t-99.5 -33.5q-76 0 -76 84q0 12 1 25.5t3 27.5q18 156 30.5 265.5t21 183t11.5 116.5t5 67.5t2 36v21.5q0 53 -23.5 90t-77.5 37q-43 0 -91 -28.5t-97 -92 t-99.5 -163t-97.5 -242.5q-4 -27 -7 -49.5t-7 -62.5t-12 -109.5t-23 -192.5h-86q0 -4 4 31t8.5 78t8.5 78.5t4 33.5q23 195 35 305.5t17 169t5 79v34.5q0 53 -23.5 90t-74.5 37q-43 0 -91 -27.5t-97.5 -89t-98.5 -162t-96 -245.5l-57 -412h-86q16 117 31.5 242t30.5 245.5 t27.5 229t22.5 192.5z" />
<glyph unicode="&#x443;" horiz-adv-x="937" d="M-238 -360q0 4 1 8t1 8l43 29q37 -29 74 -41.5t74 -12.5q98 0 199.5 62.5t226.5 202.5q-18 115 -43 260t-50.5 288.5t-50 267.5t-42.5 197l-152 -45l-16 35q109 115 172 115q35 0 53 -19.5t29 -72.5q23 -102 45 -223t44.5 -246t42 -247t36.5 -229q68 90 128 217.5 t106 258.5t73.5 252.5t27.5 201.5l-157 -47l-17 35q113 119 176 119q35 0 57.5 -16.5t22.5 -69.5q0 -117 -35.5 -266.5t-100 -305t-153 -304t-193.5 -265.5t-224 -187.5t-242 -70.5q-72 0 -114 30.5t-42 80.5z" />
<glyph unicode="&#x444;" horiz-adv-x="1232" d="M82 406q0 125 35 232t105.5 188t175 129.5t245.5 54.5q10 88 19.5 175t19.5 175l-203 31l4 47q59 12 123 20t105 8q31 0 46 -9t15 -34q0 -12 -5 -60t-13.5 -110.5t-16.5 -129t-14 -113.5q119 -6 204 -38t138 -87.5t78.5 -130t25.5 -164.5q0 -119 -30.5 -224.5t-99 -186.5 t-177 -132t-264.5 -59l-39 -336h168q-2 -16 -3 -35.5t-5 -38.5h-408q4 18 5 37.5t3 36.5h162q10 84 20.5 168t20.5 168q-127 6 -212 40.5t-135 91t-71.5 129.5t-21.5 157zM160 403q0 -74 19.5 -135t62.5 -105t113.5 -70.5t174.5 -29.5l105 869q-131 -8 -222 -52t-147.5 -115 t-81 -164t-24.5 -198zM606 63q137 6 229.5 49.5t148.5 113t81 159.5t25 190q0 76 -19.5 139.5t-63.5 111.5t-116 76t-178 30q-29 -219 -53.5 -435t-53.5 -434z" />
<glyph unicode="&#x445;" horiz-adv-x="858" d="M35 897q53 53 100 83t78 30q39 0 58.5 -22.5t39.5 -76.5q31 -84 63 -164.5t64 -162.5q68 104 134.5 208.5t134.5 208.5h12l76 -47v-10q-86 -106 -166 -214.5t-164 -215.5l172 -434q47 4 93 21.5t91 41.5l19 -28q-53 -63 -103.5 -99t-89.5 -36q-47 0 -64.5 24.5 t-33.5 61.5q-4 10 -24.5 62t-44 111.5t-45 110.5t-25.5 62q-72 -109 -147 -214.5t-144 -215.5l-15 -2l-67 40v11l344 456q-41 111 -84 216.5t-86 214.5q-41 -16 -79 -31t-79 -29z" />
<glyph unicode="&#x446;" horiz-adv-x="1067" d="M55 940l4 45q59 14 120 22.5t114 8.5q35 0 50 -10.5t15 -38.5q-4 -27 -11 -89.5t-16 -141.5t-18.5 -166t-17.5 -163.5t-13.5 -137t-5.5 -83.5q0 -125 99 -125q43 0 98 28t111.5 89.5t113 160.5t103.5 245l59 413h82q-31 -223 -57.5 -443t-55.5 -468q49 2 91.5 17.5 t89.5 43.5l39 -30q-35 -111 -70 -220.5t-70 -220.5h-75l-13 23q33 100 62.5 180t66.5 154l-4 4q-29 -27 -65.5 -41t-57.5 -14q-47 0 -67.5 20.5t-20.5 67.5q0 20 4 54t10.5 71.5t12.5 74.5t10 66h-8q-45 -102 -99.5 -169t-108.5 -108t-103.5 -57t-81.5 -16q-53 0 -88 14 t-55.5 40t-29 62.5t-8.5 81.5q0 23 2.5 60t10.5 113.5t21.5 207.5t37.5 344z" />
<glyph unicode="&#x447;" horiz-adv-x="1067" d="M47 940l4 45q59 14 120.5 22.5t115.5 8.5q31 0 47 -9.5t16 -33.5q0 -25 -7 -86.5t-15.5 -129t-15.5 -128t-7 -82.5q0 -53 22.5 -89t75.5 -36q43 0 98.5 23.5t114 76.5t112.5 138t95 206l19 129h82q-16 -127 -29.5 -239.5t-27 -221t-27 -218t-27.5 -230.5q43 4 85 18.5 t89 40.5l27 -30q-59 -66 -109.5 -99.5t-95.5 -33.5q-47 0 -67.5 22.5t-20.5 69.5q0 8 4 43t11 87t16.5 115.5t18.5 127t17.5 122t14.5 99.5h-8q-35 -80 -84 -141.5t-104.5 -101.5t-110 -60.5t-97.5 -20.5q-104 0 -142 58.5t-38 144.5q0 23 4 69t10.5 99t12.5 105t10 89z" />
<glyph unicode="&#x448;" horiz-adv-x="1570" d="M59 942q2 10 1 22.5t1 22.5q59 14 120 22.5t116 8.5q35 0 50 -10.5t15 -38.5q0 -23 -6 -79t-15 -132t-20.5 -162t-20.5 -166t-15 -145.5t-6 -100.5q0 -53 23.5 -90t76.5 -37q43 0 91 29t98 91.5t100.5 162.5t97.5 244l47 413h86q-4 -53 -11 -109.5t-14 -111.5 q-20 -172 -31.5 -277.5t-17.5 -167t-7 -88t-1 -40.5q0 -59 21.5 -100.5t76.5 -41.5q45 0 92.5 27t96.5 87.5t97 159.5t97 245l62 417h82q-35 -238 -62.5 -458t-54.5 -455q49 4 86 17.5t90 39.5l27 -28q-125 -131 -217 -131q-76 0 -76 81q0 20 4 54.5t9 73t11.5 76.5t10.5 65 h-8q-45 -100 -93.5 -167t-94.5 -107t-87 -56t-74 -16q-94 0 -139 51t-45 145q0 18 2 54t8 108h-4q-39 -96 -88 -164.5t-98 -112.5t-95 -64.5t-79 -20.5q-109 0 -147 57t-38 145q2 76 11.5 166t20.5 184.5t22.5 190.5t19.5 186z" />
<glyph unicode="&#x449;" horiz-adv-x="1564" d="M59 942q2 10 1 22.5t1 22.5q59 14 120 22.5t116 8.5q35 0 50 -10.5t15 -38.5q0 -23 -6 -79t-15 -132t-20.5 -162t-20.5 -166t-15 -145.5t-6 -100.5q0 -53 23.5 -90t76.5 -37q43 0 91 29t98 91.5t100.5 162.5t97.5 244l47 413h86q-4 -53 -11 -109.5t-14 -111.5 q-20 -172 -31.5 -277.5t-17.5 -167t-7 -88t-1 -40.5q0 -59 21.5 -100.5t76.5 -41.5q45 0 92.5 27t96.5 87.5t97 159.5t97 245l62 417h82q-35 -238 -62.5 -458t-54.5 -453q37 2 88 18.5t92 42.5l39 -30l-139 -441h-76l-12 23q35 100 64.5 180t64.5 154l-4 4 q-23 -20 -58.5 -37.5t-64.5 -17.5q-84 0 -84 81q0 20 4 54.5t9 73t11.5 76.5t10.5 65h-8q-45 -100 -93.5 -167t-94.5 -107t-87 -56t-74 -16q-94 0 -139 51t-45 145q0 18 2 54t8 108h-4q-39 -96 -88 -164.5t-98 -112.5t-95 -64.5t-79 -20.5q-109 0 -147 57t-38 145 q2 76 11.5 166t20.5 184.5t22.5 190.5t19.5 186z" />
<glyph unicode="&#x44a;" horiz-adv-x="1026" d="M20 752q10 43 19.5 81.5t17.5 65.5q12 39 25.5 59.5t30 29.5t37 11t49.5 2q8 0 45 -2t88 -4t109.5 -3t107.5 -1l24 -57q-31 -27 -70.5 -81t-77.5 -116.5t-66.5 -124t-36.5 -102.5h8q51 76 105 126t104.5 79.5t95.5 42t80 12.5q111 0 170 -71.5t59 -198.5 q0 -59 -21.5 -146.5t-74.5 -169.5t-144.5 -140t-228.5 -58q-78 0 -131 20.5t-85 54t-46 76.5t-14 90q0 94 20.5 188.5t54 182.5t78.5 168t92 147l-282 -18l-94 -154zM291 242q0 -63 26.5 -99.5t62.5 -53.5t70.5 -21.5t53.5 -4.5q88 0 154.5 42t111.5 106.5t66.5 143.5 t21.5 151q0 90 -40 138t-122 48q-29 0 -73.5 -14t-97 -52t-110 -103.5t-110.5 -168.5q-14 -59 -14 -112z" />
<glyph unicode="&#x44b;" horiz-adv-x="1359" d="M59 942v45q59 14 121 22.5t115 8.5q29 0 45 -13.5t16 -35.5q0 -23 -5 -76t-13 -119.5t-18.5 -137.5t-18.5 -126h8q53 76 106.5 126t104.5 79.5t95 42t79 12.5q111 0 170.5 -72.5t59.5 -199.5q0 -59 -21.5 -145.5t-74 -166.5t-140.5 -137t-221 -57q-57 0 -141 14t-156 49 l-6 13q43 344 66.5 548.5t33.5 294.5zM254 106q59 -23 121.5 -30.5t103.5 -7.5q90 0 158 42t112 106.5t65.5 141t21.5 148.5q0 90 -39 138t-121 48q-27 0 -71 -13t-96 -50t-109.5 -102.5t-110.5 -168.5zM1030 66q0 12 1 25t3 28l111 878h82q0 2 -8.5 -65.5t-21.5 -170 t-27.5 -221t-28 -220t-21.5 -169t-8 -65.5q43 4 88 16.5t90 40.5l27 -28q-119 -133 -213 -133q-45 0 -59.5 24.5t-14.5 59.5z" />
<glyph unicode="&#x44c;" horiz-adv-x="985" d="M49 942v45q59 14 119.5 22.5t116.5 8.5q27 0 43 -13.5t16 -35.5q0 -23 -5 -76t-13.5 -119.5t-18.5 -137.5t-18 -126h8q53 76 106.5 126t104.5 79.5t96 42t80 12.5q111 0 169 -72.5t58 -199.5q0 -59 -21.5 -145.5t-73.5 -166.5t-139 -137t-220 -57q-57 0 -142.5 14 t-156.5 49l-4 13q41 344 65.5 548.5t34.5 294.5zM244 106q59 -23 120.5 -30.5t102.5 -7.5q92 0 158.5 42t111.5 106.5t66.5 141t21.5 148.5q0 90 -38.5 138t-122.5 48q-27 0 -71 -13t-96.5 -50t-109.5 -102.5t-111 -168.5z" />
<glyph unicode="&#x44d;" horiz-adv-x="825" d="M25 33l24 61q59 -16 118.5 -26.5t121.5 -10.5q92 0 160.5 35t114.5 93.5t72 137t34 166.5l-463 -6q2 23 4 44.5t6 43.5l459 -10q0 10 1 18.5t1 18.5q0 186 -86 266t-244 80q-51 0 -102 -12l-51 -236h-52q-6 55 -9 114.5t-3 94.5q0 18 6 39t28.5 37t68 26.5t122.5 10.5 q111 0 189 -31t126 -84t70.5 -128t22.5 -163q0 -117 -25.5 -229.5t-82 -199.5t-145.5 -141t-218 -54q-86 0 -158 14t-110 31z" />
<glyph unicode="&#x44e;" horiz-adv-x="1306" d="M59 940l2 45q59 14 114.5 22.5t96.5 8.5q63 0 64 -39v-8l-49 -387h207q18 82 51 160.5t85 139t123.5 97.5t168.5 37q92 0 154.5 -33t99 -87t53 -126t16.5 -147q0 -59 -7 -129t-25.5 -139.5t-49 -136t-81 -118t-120 -82t-163.5 -30.5t-157.5 27.5t-101.5 77.5t-54.5 119 t-16.5 150q0 35 3 69t7 69h-205l-59 -500h-84q29 229 56.5 454.5t56.5 454.5zM555 338q0 -53 11.5 -103.5t39 -88t76.5 -61.5t123 -24t130 29t95 76t64.5 107.5t40 122t19.5 120.5t5 105q0 59 -10 116.5t-37 101.5t-72.5 70.5t-117.5 26.5q-76 0 -133.5 -29.5t-98.5 -79 t-66.5 -113t-41 -130t-21.5 -131t-6 -115.5z" />
<glyph unicode="&#x44f;" horiz-adv-x="919" d="M31 8l377 434q-141 18 -214 87t-73 173q0 84 29.5 144.5t81 98.5t116.5 56.5t139 18.5q66 0 142 -11.5t141 -31.5l-100 -891q45 4 89 16.5t91 40.5l27 -28q-121 -133 -218 -133q-43 0 -57 24.5t-14 59.5q0 12 1 25t3 28l94 794q-23 8 -50.5 13.5t-56 9.5t-56 6t-48.5 2 q-49 0 -98 -11t-87 -39t-61.5 -73t-23.5 -112q0 -53 22.5 -90t64.5 -60.5t101.5 -37t132.5 -21.5l9 -23l-388 -477l-106 -10z" />
<glyph unicode="&#x451;" horiz-adv-x="882" d="M82 371q0 61 9 134t30.5 144.5t58.5 138t91.5 117.5t130 82t176.5 31q68 0 114.5 -20.5t75.5 -53.5t41 -74t12 -84q0 -106 -55 -174.5t-146.5 -109.5t-208 -61.5t-241.5 -28.5q-2 -12 -2 -27.5v-30.5q0 -49 9 -100t36 -93t74 -70t123 -28q78 0 151.5 19.5t151.5 56.5 l26 -57q-53 -35 -145.5 -64.5t-196.5 -29.5q-94 0 -155.5 30.5t-96 83t-49 122t-14.5 147.5zM178 496q268 14 410.5 79.5t142.5 200.5q0 72 -37 117t-127 45q-168 0 -266 -118.5t-123 -323.5zM227 1229q-2 33 23.5 55.5t50.5 22.5q66 0 70 -56q0 -35 -22.5 -57.5 t-59.5 -22.5q-29 0 -45.5 15.5t-16.5 42.5zM643 1229q0 33 23.5 55.5t50.5 22.5q66 0 69 -56q0 -35 -23.5 -57.5t-62.5 -22.5q-53 0 -57 58z" />
<glyph unicode="&#x452;" horiz-adv-x="995" d="M63 1397l7 45q59 14 119.5 22.5t115.5 8.5q59 0 60 -41q0 -16 -6.5 -82t-16.5 -148h379l-4 -72h-381q-8 -72 -17.5 -142t-16.5 -132.5t-13 -113t-10 -76.5h6q45 102 101 170.5t110.5 109.5t103.5 57.5t82 16.5q57 0 99 -29.5t70 -82t40 -122t12 -147.5 q0 -172 -32.5 -310.5t-84 -234.5t-115 -147t-126.5 -51q-43 0 -88 22.5t-90 81.5l45 41q76 -70 145 -70q61 0 109.5 66.5t82 166t52 216.5t18.5 219q0 63 -8 118.5t-25.5 95.5t-45 63.5t-66.5 23.5q-43 0 -97.5 -27.5t-110.5 -89t-112.5 -162t-103.5 -243.5l-57 -418h-87 q12 88 30 229.5t36 299t37.5 316.5t34.5 285h-164l4 72h166l18 164z" />
<glyph unicode="&#x453;" horiz-adv-x="770" d="M49 215q2 68 29.5 121t72 95t101.5 76t119 60q43 18 92 43t91 55.5t70.5 67.5t28.5 80q0 41 -17.5 66.5t-44 41t-59 20.5t-63.5 5q-72 0 -141.5 -23.5t-145.5 -58.5l-30 62q59 39 147 67.5t184 28.5q51 0 96.5 -12.5t79 -36t53 -59t19.5 -85.5q0 -59 -25.5 -105 t-72.5 -86t-113.5 -76t-148.5 -73q-49 -23 -92 -50t-76 -61t-52.5 -75t-19.5 -88q0 -43 17.5 -72.5t47 -48t68.5 -27t84 -8.5q86 0 165 25t153 63l32 -53q-78 -53 -175 -79.5t-183 -26.5q-61 0 -113.5 12t-92.5 39t-62.5 71t-22.5 105zM416 1133l252 317l80 -74l-285 -280z " />
<glyph unicode="&#x454;" horiz-adv-x="827" d="M82 352q0 51 7 121t26.5 143.5t54.5 145.5t90 128t133.5 91t184.5 35q123 0 186 -30t63 -64q0 -16 -6 -42t-15 -56.5t-21.5 -63.5t-24.5 -64q-10 0 -21.5 1t-21.5 1l12 211q-33 10 -79 18.5t-93 8.5q-152 0 -243 -100.5t-132 -288.5l461 10l-12 -88l-461 4 q-4 -33 -6 -63.5t-2 -61.5q0 -59 10 -110.5t38 -90t75 -61.5t121 -23q80 0 147.5 16.5t151.5 51.5q6 -16 13 -27.5t15 -27.5q-61 -37 -149 -61.5t-176 -24.5q-90 0 -152.5 25.5t-100.5 73.5t-55.5 114.5t-17.5 148.5z" />
<glyph unicode="&#x455;" horiz-adv-x="782" d="M55 104q0 43 20.5 106.5t43.5 117.5l39 -2l-15 -230q76 -29 170 -28q55 0 109.5 11t97.5 36.5t68.5 65.5t25.5 95q0 43 -17 73t-47 51.5t-67 39t-75 35.5q-66 31 -120.5 60.5t-93 61.5t-60 70t-21.5 85q0 72 30.5 122t79.5 81.5t109.5 46t118.5 14.5q102 0 170.5 -32 t68.5 -77q0 -20 -5 -49t-14 -60.5t-20.5 -64.5t-23.5 -59l-39 2l14 221q-29 16 -67.5 26.5t-90.5 10.5q-45 0 -89 -9.5t-77.5 -31t-55 -57t-21.5 -86.5q0 -35 20.5 -61.5t51 -49.5t65.5 -40t65 -32q53 -25 104.5 -50t92.5 -59t65.5 -77t24.5 -100q0 -76 -33.5 -131.5 t-88 -91t-122 -53t-135.5 -17.5q-84 0 -134 10t-77.5 26.5t-36 37t-8.5 42.5z" />
<glyph unicode="&#x456;" horiz-adv-x="509" d="M90 940l2 47q59 12 114.5 20.5t96.5 8.5q33 0 47.5 -8.5t14.5 -32.5q0 2 -8.5 -64.5t-20.5 -166t-26.5 -217t-27 -217t-20.5 -164t-8 -60.5q43 4 87 16.5t91 40.5l27 -28q-121 -133 -215 -133q-43 0 -58.5 24.5t-15.5 59.5q0 12 1 25t3 28l98 790zM272 1225 q0 31 21.5 54.5t50.5 23.5q25 0 42 -16.5t17 -43.5q0 -29 -20.5 -52.5t-50.5 -23.5q-23 0 -41.5 17.5t-18.5 40.5z" />
<glyph unicode="&#x457;" horiz-adv-x="509" d="M-2 1214q-2 33 23.5 55.5t50.5 22.5q66 0 69 -55q0 -35 -22.5 -57.5t-59.5 -22.5q-29 0 -45 15.5t-16 41.5zM90 940l2 47q59 12 114.5 20.5t96.5 8.5q33 0 47.5 -8.5t14.5 -32.5q0 2 -8.5 -64.5t-20.5 -166t-26.5 -217t-27 -217t-20.5 -164t-8 -60.5q43 4 87 16.5 t91 40.5l27 -28q-121 -133 -215 -133q-43 0 -58.5 24.5t-15.5 59.5q0 12 1 24t3 27l98 792zM414 1214q0 33 23 55.5t50 22.5q66 0 70 -55q0 -35 -23.5 -57.5t-62.5 -22.5q-53 0 -57 57z" />
<glyph unicode="&#x458;" horiz-adv-x="483" d="M-106 -389q82 37 134 93t84.5 126t48 148.5t23.5 158.5q23 201 45.5 389.5t40.5 382.5l-184 31l2 45q59 14 117.5 22.5t99.5 8.5q61 0 60 -47q-2 -18 -7.5 -70.5t-13.5 -124.5t-17.5 -155.5t-19.5 -164.5t-18 -154t-15 -122q-12 -111 -34.5 -211t-62.5 -181 t-104.5 -139.5t-162.5 -86.5zM264 1225q0 29 20.5 53.5t49.5 24.5q25 0 43 -17.5t18 -42.5q0 -29 -21.5 -53.5t-51.5 -24.5q-23 0 -40.5 17.5t-17.5 42.5z" />
<glyph unicode="&#x459;" horiz-adv-x="1335" d="M27 10q119 217 243.5 463t259.5 510l56 23l14 -7q16 -252 37 -464q39 45 85 87t97 74.5t105.5 52t111.5 19.5q92 0 153.5 -68.5t61.5 -203.5q0 -70 -23.5 -158t-78.5 -167t-144.5 -132t-218.5 -53q-92 0 -142 16t-54 78l-51 758h-9q-55 -111 -103 -209.5t-95 -195.5 t-100.5 -202.5t-116.5 -230.5h-84q0 2 -4 10zM643 451q8 -98 13.5 -186.5t13.5 -188.5q29 -10 65.5 -13.5t71.5 -3.5q80 0 145.5 32t113.5 90.5t74.5 139t26.5 177.5q0 90 -38.5 142t-108.5 52q-102 0 -195.5 -70.5t-181.5 -170.5z" />
<glyph unicode="&#x45a;" horiz-adv-x="1546" d="M59 940l4 47q59 12 120 20.5t114 8.5q29 0 45 -8.5t16 -32.5q0 -10 -4 -48t-10 -94.5t-15.5 -127t-17.5 -146.5h463q18 152 31.5 265.5t19.5 172.5h88q-4 -37 -12 -103.5t-17.5 -139t-18.5 -139t-15 -105.5h8q53 76 107.5 126t104.5 79.5t95 42t80 12.5 q111 0 170.5 -72.5t59.5 -199.5q0 -59 -21.5 -145.5t-74 -166.5t-140.5 -137t-221 -57q-57 0 -141 14t-156 49l-6 13l53 428h-465q-10 -84 -20.5 -165t-19.5 -148.5t-16 -116t-9 -66.5h-80q2 29 11 95.5t22.5 176t32 267t42.5 370.5zM805 106q59 -23 121.5 -30.5t103.5 -7.5 q90 0 157.5 42t111.5 106.5t65.5 141t21.5 148.5q0 90 -38.5 138t-120.5 48q-29 0 -73 -13t-96 -50t-108.5 -102.5t-109.5 -168.5z" />
<glyph unicode="&#x45b;" horiz-adv-x="1075" d="M92 1126l8 62h179q4 53 10 98t10 80l-205 31l6 45q59 14 120 22.5t116 8.5q29 0 44 -8.5t15 -30.5q0 -16 -7 -85t-17 -161h362l-6 -62h-362q-8 -68 -16.5 -138t-15.5 -132.5t-13.5 -112t-10.5 -75.5h8q45 102 100.5 170.5t110 109.5t102.5 57.5t81 16.5q102 0 142 -57.5 t40 -141.5q0 -20 -3 -60t-11.5 -121t-22.5 -214t-39 -342q45 4 87 16.5t89 40.5l27 -28q-123 -133 -215 -133q-74 0 -74 81q0 12 1 25.5t3 30.5q27 229 41.5 360t20.5 201t7 95.5t1 41.5q0 53 -22.5 89t-75.5 36q-43 0 -98.5 -27.5t-112 -89t-112.5 -162t-103 -245.5 l-58 -418h-86q12 90 29.5 229.5t36 296t37 314t32.5 286.5h-180z" />
<glyph unicode="&#x45c;" horiz-adv-x="933" d="M78 938l4 49q53 12 110.5 19.5t100.5 7.5q20 0 34.5 -10.5t14.5 -32.5v-8l-125 -963h-86q31 223 59.5 454.5t59.5 460.5q-41 6 -86 11.5t-86 11.5zM324 545l2 22q45 84 105.5 165t128 144.5t138 102.5t136.5 39q53 0 83.5 -25.5t32.5 -72.5q-8 -6 -15 -14.5t-17 -14.5 q-33 16 -58.5 20t-50.5 4q-43 0 -97.5 -27.5t-109.5 -75.5t-108.5 -111.5t-94.5 -133.5q39 -78 90.5 -159.5t101.5 -151.5t89 -118t53 -60q61 12 100 39.5t68 50.5l29 -27q-45 -74 -101.5 -116.5t-93.5 -42.5q-31 0 -68.5 34.5t-111.5 139.5q-37 51 -73 107t-66.5 108.5 t-55 98.5t-36.5 75zM434 1133l252 317l80 -74l-285 -280z" />
<glyph unicode="&#x45e;" horiz-adv-x="937" d="M-238 -360q0 4 1 8t1 8l43 29q37 -29 74 -41.5t74 -12.5q98 0 199.5 62.5t226.5 202.5q-18 115 -43 260t-50.5 288.5t-50 267.5t-42.5 197l-152 -45l-16 35q109 115 172 115q35 0 53 -19.5t29 -72.5q23 -102 45 -223t44.5 -246t42 -247t36.5 -229q68 90 128 217.5 t106 258.5t73.5 252.5t27.5 201.5l-157 -47l-17 35q113 119 176 119q35 0 57.5 -16.5t22.5 -69.5q0 -117 -35.5 -266.5t-100 -305t-153 -304t-193.5 -265.5t-224 -187.5t-242 -70.5q-72 0 -114 30.5t-42 80.5zM231 1343l74 46q41 -68 93.5 -116t111.5 -48q18 0 44 4 t61.5 19.5t80.5 45t101 80.5l34 -33q-96 -115 -178.5 -156.5t-148.5 -41.5q-49 0 -89 17.5t-73 45t-60.5 64.5t-50.5 73z" />
<glyph unicode="&#x45f;" horiz-adv-x="1075" d="M55 940l4 45q59 14 120 22.5t114 8.5q33 0 48 -9.5t15 -33.5q0 -25 -6 -84.5t-14 -138t-19.5 -167.5t-19.5 -168t-14.5 -141.5t-6.5 -87.5q0 -125 99 -125q43 0 98 28t111.5 89.5t113 160.5t103.5 245l59 413h82q-31 -223 -57.5 -443t-55.5 -468q90 6 175 55 q14 -12 26 -26q-57 -66 -111.5 -99.5t-95.5 -33.5q-47 0 -67.5 22.5t-20.5 71.5q2 20 6 54t9.5 71t11.5 72.5t10 62.5h-8q-45 -102 -99.5 -170t-108.5 -108t-101 -56t-76 -16q-109 0 -149 54t-40 144q0 18 2.5 54t9.5 113t21.5 210t38.5 348zM504 -356q27 98 60.5 203.5 t70.5 183.5l51 -23q-25 -92 -48.5 -188t-47.5 -193l-74 -4z" />
<glyph unicode="&#x490;" horiz-adv-x="987" d="M29 0l8 80h129l153 1237h-120l8 78h782l29 227h80l-39 -305h-653l-152 -1237h192l-8 -80h-409z" />
<glyph unicode="&#x491;" horiz-adv-x="776" d="M109 0q31 231 59.5 459.5t56.5 460.5h-94q2 18 3 36.5t5 38.5h566q12 59 22 114.5t23 115.5h45q4 -53 9 -102.5t5 -106.5q0 -53 -24.5 -74.5t-82.5 -21.5h-401l-111 -920h-81z" />
<glyph unicode="&#x4d9;" horiz-adv-x="882" d="M72 221q0 106 55 175t146.5 110t208 61.5t241.5 28.5q2 12 2 26.5v30.5q0 49 -9 100.5t-36 93.5t-74 69.5t-123 27.5q-78 0 -151.5 -19.5t-151.5 -56.5l-26 58q53 35 145.5 63.5t196.5 28.5q94 0 155.5 -30t96 -82t49 -121.5t14.5 -147.5q0 -92 -21.5 -206t-77 -212 t-151.5 -164.5t-246 -66.5q-68 0 -114.5 20.5t-75.5 54t-41 74.5t-12 84zM160 229q0 -72 38 -115.5t128 -43.5q168 0 266 118.5t121 323.5q-268 -14 -410.5 -80.5t-142.5 -202.5z" />
<glyph unicode="&#x2000;" horiz-adv-x="891" />
<glyph unicode="&#x2001;" horiz-adv-x="1782" />
<glyph unicode="&#x2002;" horiz-adv-x="891" />
<glyph unicode="&#x2003;" horiz-adv-x="1782" />
<glyph unicode="&#x2004;" horiz-adv-x="594" />
<glyph unicode="&#x2005;" horiz-adv-x="445" />
<glyph unicode="&#x2006;" horiz-adv-x="297" />
<glyph unicode="&#x2007;" horiz-adv-x="297" />
<glyph unicode="&#x2008;" horiz-adv-x="222" />
<glyph unicode="&#x2009;" horiz-adv-x="356" />
<glyph unicode="&#x200a;" horiz-adv-x="99" />
<glyph unicode="&#x2010;" horiz-adv-x="690" d="M104 485l13 97h493l-12 -97h-494z" />
<glyph unicode="&#x2011;" horiz-adv-x="690" d="M104 485l13 97h493l-12 -97h-494z" />
<glyph unicode="&#x2012;" horiz-adv-x="690" d="M104 485l13 97h493l-12 -97h-494z" />
<glyph unicode="&#x2013;" horiz-adv-x="993" d="M57 481l11 84h901l-13 -84h-899z" />
<glyph unicode="&#x2014;" horiz-adv-x="1986" d="M53 481l10 84h1885l-13 -84h-1882z" />
<glyph unicode="&#x2018;" horiz-adv-x="370" d="M197 1171q4 33 21.5 72t44 76t60 67.5t74.5 51.5l19 -29q-80 -74 -99 -174q23 -10 36 -32.5t9 -53.5t-32.5 -55.5t-57.5 -24.5q-35 0 -59.5 27.5t-15.5 74.5z" />
<glyph unicode="&#x2019;" horiz-adv-x="370" d="M188 1098q80 72 99 174q-23 10 -35 32.5t-8 53.5t30.5 55.5t57.5 24.5q35 0 57.5 -28t16.5 -75q-4 -35 -20.5 -72.5t-43.5 -74.5t-61.5 -67.5t-75.5 -51.5z" />
<glyph unicode="&#x201a;" horiz-adv-x="346" d="M-2 -172q35 33 59.5 66.5t34.5 85.5q-53 20 -43 81q4 31 29.5 53.5t56.5 22.5q35 0 56.5 -24.5t17.5 -71.5q-10 -66 -62.5 -134.5t-132.5 -107.5z" />
<glyph unicode="&#x201c;" horiz-adv-x="573" d="M197 1171q4 33 21.5 72t44 76t61 67.5t75.5 51.5l17 -29q-37 -35 -62.5 -78t-34.5 -96q23 -10 35 -32.5t8 -53.5t-32.5 -55.5t-57.5 -24.5q-35 0 -58.5 27.5t-16.5 74.5zM410 1171q4 33 21.5 72t43 76t60 67.5t73.5 51.5l21 -29q-80 -74 -101 -174q23 -10 36 -32.5 t9 -53.5q-6 -31 -32.5 -55.5t-57.5 -24.5q-35 0 -58.5 27.5t-14.5 74.5z" />
<glyph unicode="&#x201d;" horiz-adv-x="573" d="M158 1098q80 72 98 174q-23 10 -35 32.5t-8 53.5t30.5 55.5t57.5 24.5q35 0 58.5 -28t15.5 -75q-4 -35 -20.5 -72.5t-43 -74.5t-61.5 -67.5t-74 -51.5zM408 1098q80 74 98 174q-23 10 -35 32.5t-8 53.5t30.5 55.5t55.5 24.5q35 0 59.5 -28t16.5 -75q-4 -35 -20.5 -72.5 t-43 -74.5t-61.5 -67.5t-74 -51.5z" />
<glyph unicode="&#x201e;" horiz-adv-x="536" d="M-2 -172q35 33 59.5 66.5t34.5 85.5q-53 20 -43 81q4 31 29.5 53.5t56.5 22.5q35 0 56.5 -24.5t17.5 -71.5q-10 -66 -62.5 -134.5t-132.5 -107.5zM203 -172q37 33 60.5 66.5t33.5 85.5q-23 10 -35 31t-8 50q4 31 30.5 53.5t57.5 22.5q35 0 55.5 -24.5t16.5 -71.5 q-10 -66 -62.5 -134.5t-130.5 -107.5z" />
<glyph unicode="&#x2022;" horiz-adv-x="589" d="M94 565q0 41 16.5 78t43 64.5t62.5 44t77 16.5t77 -16.5t63.5 -44t44 -64.5t16.5 -78t-16.5 -76.5t-44 -63.5t-63.5 -44t-77 -16t-77 16t-62.5 44t-43 63.5t-16.5 76.5z" />
<glyph unicode="&#x2026;" horiz-adv-x="1105" d="M80 61q4 31 27.5 52.5t56.5 21.5t51 -22.5t14 -53.5q-4 -33 -29.5 -56t-54.5 -23q-33 0 -51 23.5t-14 57.5zM461 61q4 31 27.5 52.5t54.5 21.5q35 0 53 -22.5t14 -53.5q-4 -33 -29.5 -56t-56.5 -23t-50 23.5t-13 57.5zM868 61q4 31 29 52.5t55 21.5q33 0 52.5 -22.5 t15.5 -53.5q-4 -33 -30.5 -56t-55.5 -23q-31 0 -51.5 23.5t-14.5 57.5z" />
<glyph unicode="&#x202f;" horiz-adv-x="356" />
<glyph unicode="&#x2039;" horiz-adv-x="581" d="M121 334l10 80l299 299l31 -35l-234 -307l162 -305l-37 -27z" />
<glyph unicode="&#x203a;" horiz-adv-x="581" d="M88 72l236 305l-158 307l37 29l227 -299l-10 -80l-307 -295z" />
<glyph unicode="&#x205f;" horiz-adv-x="445" />
<glyph unicode="&#x20ac;" d="M86 561l10 74h815l-10 -74h-643q-6 -102 10.5 -192t64.5 -158t130 -108t209 -40q43 0 112.5 7.5t135.5 23.5l18 152h74l-25 -201q-63 -29 -152.5 -44t-175.5 -15q-254 0 -376.5 147.5t-106.5 427.5h-90zM109 735l6 72h96q14 98 57 198.5t114 181.5t171 132t231 51 q106 0 186.5 -16.5t127.5 -36.5l-29 -234h-76l21 177q-41 14 -102.5 24t-123.5 10q-109 0 -189.5 -34.5t-140 -98t-99.5 -153.5t-64 -201h635l-6 -72h-815z" />
<glyph unicode="&#x2122;" horiz-adv-x="1368" d="M66 1237v160h471v-160h-54v98h-149v-526h84v-53h-238v53h82q0 133 1 263t1 263h-143v-98h-55zM596 754v55h70v524h-70v64h137q23 -47 43.5 -93.5t42.5 -93.5q31 -72 63.5 -140t63.5 -140q12 25 23.5 49.5t21.5 48.5q29 57 56.5 115.5t56.5 116.5l65 137h134v-64h-70v-524 h70v-55h-207v55h69v436h-4l-119 -246q-16 -35 -35.5 -71.5t-35.5 -73.5h-53q-16 35 -33 69.5t-33 69.5l-119 240h-2v-424h72v-55h-207z" />
<glyph unicode="&#x25fc;" horiz-adv-x="1013" d="M0 0v1014h1014v-1014h-1014z" />
</font>
</defs>
</svg>
