<?xml version="1.0" standalone="no"?>
<!DOCTYPE svg PUBLIC "-//W3C//DTD SVG 1.1//EN" "http://www.w3.org/Graphics/SVG/1.1/DTD/svg11.dtd" >
<svg xmlns="http://www.w3.org/2000/svg" xmlns:xlink="http://www.w3.org/1999/xlink" version="1.1">
<metadata></metadata>
<defs>
<font id="pf_agora_slab_prolight_italic" horiz-adv-x="1073" >
<font-face units-per-em="2048" ascent="1536" descent="-512" />
<missing-glyph horiz-adv-x="516" />
<glyph horiz-adv-x="0" />
<glyph horiz-adv-x="682" />
<glyph unicode=" "  horiz-adv-x="516" />
<glyph unicode="&#x09;" horiz-adv-x="516" />
<glyph unicode="&#xa0;" horiz-adv-x="516" />
<glyph unicode="!" horiz-adv-x="393" d="M68 70q4 35 32.5 60.5t63.5 25.5t57.5 -25.5t18.5 -60.5q-4 -37 -34 -63.5t-63 -26.5q-35 0 -57.5 26.5t-17.5 63.5zM156 326l39 452l67 639h113l-84 -639l-70 -452h-65z" />
<glyph unicode="&#x22;" horiz-adv-x="454" d="M182 1020l23 379h108l-71 -379h-60zM369 1020l20 379h107l-66 -379h-61z" />
<glyph unicode="#" horiz-adv-x="1009" d="M76 397l30 76h144l127 381h-158l31 76h151l117 348h80l-117 -348h322l117 348h79l-116 -348h135l-31 -76h-129l-127 -381h143l-32 -76h-137l-127 -397h-80l127 397h-322l-127 -397h-80l129 397h-149zM330 473h321l127 381h-321z" />
<glyph unicode="$" d="M96 106l29 240h88l-20 -180q53 -29 100 -40t94 -17l72 583q-53 20 -97.5 46t-75 59.5t-48 80t-17.5 107.5q0 84 26.5 147.5t70.5 107.5t101.5 71.5t121.5 42.5l16 135h70l-203 -1643h-70l21 162q-72 8 -145.5 31.5t-133.5 66.5zM324 993q0 -86 42 -127t105 -69l57 460 q-41 -10 -77.5 -30.5t-64.5 -52t-45 -76.5t-17 -105zM492 -154l202 1643h70l-16 -127q47 -4 113.5 -21.5t115.5 -52.5l-31 -241h-88l23 182q-29 16 -67 25.5t-77 13.5l-67 -539q55 -25 106 -50.5t90 -61t62.5 -85t23.5 -120.5q0 -90 -28.5 -160t-77.5 -119t-116.5 -78.5 t-147.5 -40.5l-21 -168h-69zM594 113q111 18 183.5 87.5t72.5 202.5q0 90 -53.5 139.5t-139.5 84.5z" />
<glyph unicode="%" horiz-adv-x="1607" d="M43 834q0 33 4 85t17.5 111.5t38 120.5t64.5 109.5t99.5 79t143.5 30.5q82 0 133 -27.5t79.5 -71.5t40 -98.5t11.5 -109.5q0 -76 -14.5 -168t-53.5 -172t-108.5 -133t-180.5 -53q-80 0 -133 24.5t-84.5 65.5t-44 94t-12.5 113zM143 827q0 -90 40 -147t145 -57 q74 0 121 43t74.5 105.5t38.5 135t11 133.5q0 43 -6 86t-24.5 79t-50 57.5t-82.5 21.5q-63 0 -108.5 -28.5t-75 -73.5t-46 -98.5t-25 -104.5t-10.5 -92t-2 -60zM412 -47l759 1477h84l-755 -1477h-88zM934 287q0 33 4 85t17.5 112.5t38 121t64.5 109.5t99 79.5t143 30.5 q82 0 133.5 -27.5t80 -72.5t40 -99.5t11.5 -109.5q0 -76 -14.5 -167t-53.5 -171t-108.5 -133t-180.5 -53q-80 0 -133 24.5t-85 65.5t-44 94t-12 111zM1034 281q0 -88 40 -145.5t145 -57.5q74 0 120.5 42t74.5 105.5t39 135t11 133.5q0 43 -6 87t-24.5 78.5t-50.5 57 t-83 22.5q-63 0 -108 -28.5t-75 -73.5t-46 -99.5t-24.5 -104.5t-10.5 -92t-2 -60z" />
<glyph unicode="&#x26;" horiz-adv-x="1679" d="M80 662q18 133 72.5 262t146.5 230t225 163.5t312 62.5q154 0 264 -46t180 -123.5t102.5 -181t32.5 -218.5q0 -53 -8 -113.5t-23 -113.5q41 -8 76 -9q86 0 135.5 36t90.5 96l67 -33q-43 -80 -110.5 -129t-174.5 -49q-16 0 -44.5 1t-63.5 9q-41 -104 -105.5 -198.5 t-151.5 -166t-192.5 -113.5t-228.5 -42q-111 0 -185.5 34.5t-120.5 90t-66.5 126t-20.5 144.5q0 143 36.5 250.5t94 180.5t127 109.5t135.5 36.5q49 0 84 -16t58.5 -43t33.5 -59.5t10 -63.5q0 -39 -18.5 -80t-65.5 -82v-4q59 12 109.5 18.5t103.5 6.5q66 0 138.5 -9.5 t154.5 -25.5q14 49 20.5 101.5t6.5 99.5q0 98 -25.5 187t-84 156.5t-154 107.5t-232.5 40q-141 0 -252.5 -52t-193.5 -139t-133.5 -203t-73.5 -245zM383 393q0 -166 85 -244.5t230 -78.5q84 0 169 33.5t161 93t137.5 143.5t98.5 182q-72 16 -142.5 24.5t-134.5 8.5 q-78 0 -151.5 -14.5t-159.5 -42.5l-17 6l-28 65q63 47 104 98.5t41 98.5q0 53 -29.5 78.5t-70.5 25.5q-47 0 -98.5 -27.5t-94.5 -85t-71.5 -148.5t-28.5 -216z" />
<glyph unicode="'" horiz-adv-x="339" d="M217 1020l21 379h110l-72 -379h-59z" />
<glyph unicode="(" horiz-adv-x="522" d="M123 354q0 233 49 418.5t114.5 325t132 229.5t101.5 133l41 -28q-31 -41 -86 -134.5t-110.5 -236.5t-96.5 -332.5t-41 -421.5q0 -129 14.5 -230.5t34 -178t40 -130t34.5 -83.5l-53 -37q-14 29 -43 87t-58.5 146t-51 206t-21.5 267z" />
<glyph unicode=")" horiz-adv-x="526" d="M-33 -315q27 39 84.5 130t114.5 233t100 334.5t43 434.5q0 123 -14 224.5t-34.5 179t-42 131t-36.5 80.5l49 28q18 -31 49 -89t61 -144t51.5 -199t21.5 -252q0 -242 -53.5 -435.5t-123 -336.5t-136 -233t-93.5 -123z" />
<glyph unicode="*" horiz-adv-x="743" d="M190 1151q6 47 20.5 80t43.5 63l182 -114l-16 229q37 12 78 12q39 0 69 -12l-73 -229l211 106q29 -33 31.5 -65.5t-3.5 -73.5l-231 -27l141 -159q-47 -63 -121 -89l-71 215l-121 -213q-35 10 -59.5 30t-45.5 57l183 161z" />
<glyph unicode="+" d="M182 561l13 96h325l41 328h96l-41 -328h322l-12 -96h-322l-41 -342h-96l41 342h-326z" />
<glyph unicode="," horiz-adv-x="368" d="M0 -172q39 35 64.5 68.5t35.5 87.5q-49 14 -49 71q0 41 27.5 72t68.5 31q35 0 58.5 -24.5t23.5 -67.5q0 -37 -16 -77t-45 -77t-65.5 -68.5t-79.5 -52.5z" />
<glyph unicode="-" horiz-adv-x="702" d="M106 481l15 109h500l-15 -109h-500z" />
<glyph unicode="." horiz-adv-x="364" d="M45 57q0 41 26.5 70t67.5 29q35 0 55.5 -22.5t20.5 -55.5q0 -41 -30.5 -69.5t-65.5 -28.5q-33 0 -53.5 22.5t-20.5 54.5z" />
<glyph unicode="/" horiz-adv-x="626" d="M-25 -53l691 1483h65l-688 -1483h-68z" />
<glyph unicode="0" d="M92 471q0 55 5 144.5t23.5 189.5t53.5 202.5t95.5 184.5t149.5 134t214 52q131 0 210 -51t122 -132t56 -180.5t13 -195.5q0 -84 -10 -179t-33.5 -188.5t-62.5 -177.5t-97.5 -148.5t-138.5 -102t-184 -37.5q-121 0 -200 40t-126 107.5t-67.5 155.5t-22.5 182zM205 461 q2 -82 18.5 -151.5t52 -120t95 -78t149.5 -27.5q80 0 141.5 35t105.5 92t73.5 132t48 157t26 165t7.5 154q0 78 -10.5 160t-41 148.5t-87 108.5t-148.5 42q-106 0 -179 -51t-121 -131t-73.5 -177.5t-39 -187.5t-15.5 -163.5t-2 -106.5z" />
<glyph unicode="1" d="M152 0l10 94h291l139 1127l-330 -54l-6 74l356 117h107l-156 -1264h271l-11 -94h-671z" />
<glyph unicode="2" d="M20 0l11 88q61 55 143 126t170 151.5t173 168t152.5 175.5t109.5 174t42 166q0 119 -73.5 172t-190.5 53q-23 0 -56.5 -3t-77.5 -14.5t-99.5 -33t-118.5 -60.5l-45 74q133 92 241.5 117.5t173.5 25.5q78 0 144.5 -18.5t115 -55t76 -94t27.5 -135.5q0 -92 -39 -186 t-102.5 -184.5t-144.5 -175.5t-165 -162.5t-164.5 -147t-142.5 -125.5h588l25 203h100l-35 -299h-838z" />
<glyph unicode="3" d="M10 59l35 78q63 -23 113.5 -35t90.5 -18t73.5 -7t62.5 -1q82 0 156.5 23.5t131 68.5t90.5 106.5t34 139.5q0 135 -93.5 210.5t-240.5 75.5q-53 0 -103 -6l-16 86q115 20 201 56t142 79t84 91.5t28 91.5q0 39 -13.5 73.5t-44 61.5t-79 43t-115.5 16q-68 0 -150 -19.5 t-192 -68.5l-35 74q90 55 195.5 85t193.5 30q92 0 158.5 -21.5t109.5 -56.5t63.5 -83t20.5 -99q0 -115 -79.5 -209.5t-231.5 -141.5l-4 -8q63 -6 119.5 -33.5t99.5 -72.5t68.5 -105.5t27.5 -132.5q0 -88 -36.5 -170t-104.5 -144.5t-163 -99t-212 -36.5q-129 0 -224 22.5 t-161 56.5z" />
<glyph unicode="4" d="M59 389l13 96l743 873h117l-107 -873h193l-12 -96h-193l-37 -295h148l-11 -94h-395l10 94h140l37 295h-646zM188 485h531l88 721h-12l-111 -135z" />
<glyph unicode="5" d="M49 59l39 91q59 -23 106.5 -35.5t84 -18.5t68.5 -8t61 -2q90 0 166.5 22.5t134 70.5t89 121t31.5 173q0 68 -23.5 119t-65.5 84t-96 49t-116 16q-121 0 -243 -59l-72 63l80 613h690l-33 -273h-96l20 170h-485l-63 -458q27 8 87 26.5t160 18.5q68 0 134.5 -19.5t119 -62.5 t84 -111.5t31.5 -167.5q0 -129 -46 -223t-118.5 -155.5t-164 -91t-183.5 -29.5q-117 0 -209 18t-172 59z" />
<glyph unicode="6" d="M117 446q0 197 41 367t117.5 296t187 198.5t250.5 72.5q106 0 179 -24.5t101 -42.5l-39 -86q-72 33 -136 43t-113 10q-78 0 -138.5 -28.5t-107.5 -75t-82 -104.5t-58.5 -116.5t-38 -113t-20.5 -90.5l10 -7q57 35 146.5 68t204.5 33q72 0 136 -19.5t112.5 -62.5t76 -110.5 t27.5 -164.5q0 -115 -37 -208t-101.5 -158.5t-154.5 -101t-195 -35.5q-109 0 -179 34.5t-112 97t-59.5 146.5t-17.5 182zM227 444q0 -63 11.5 -126.5t41 -115.5t83 -85t139.5 -33q88 0 154.5 30.5t110.5 85t66.5 126t22.5 153.5q0 119 -56.5 191.5t-201.5 72.5 q-86 0 -150.5 -17t-111.5 -40q-53 -25 -94 -55l-6 -47q-4 -31 -6.5 -66t-2.5 -74z" />
<glyph unicode="7" d="M203 0l706 1255h-557l-26 -211h-101l39 314h774l-12 -96l-704 -1262h-119z" />
<glyph unicode="8" d="M82 313q0 63 19.5 127t58.5 124.5t99 112.5t140 91q-158 96 -157 246q0 74 31.5 139.5t88 116.5t135.5 80.5t175 29.5q68 0 130 -17t111.5 -54t78 -93.5t28.5 -134.5q0 -98 -61.5 -191t-194.5 -181q96 -51 147.5 -130t51.5 -194q0 -72 -31 -143.5t-90.5 -129t-148.5 -92 t-208 -34.5q-104 0 -180 26.5t-126 70.5t-73.5 103.5t-23.5 126.5zM195 324q0 -49 16 -94.5t52 -79t93.5 -54t139.5 -20.5q92 0 159.5 27.5t111.5 71.5t65.5 97.5t21.5 106.5q0 70 -23.5 119t-71.5 88t-118 70.5t-162 68.5q-80 -43 -135 -93t-88 -103.5t-47 -105.5t-14 -99z M352 1024q0 -53 27 -92t71 -70t102 -57.5t120 -52.5q137 88 188 167.5t51 149.5q0 39 -12 78t-41 69.5t-78 50t-125 19.5q-90 0 -149.5 -30.5t-93 -73.5t-47 -87t-13.5 -71z" />
<glyph unicode="9" d="M102 55l37 86q72 -33 146.5 -43t124.5 -10q117 0 196.5 61.5t132 147.5t80 175t35.5 144l-6 7q-59 -35 -148.5 -69t-205.5 -34q-72 0 -136.5 19.5t-111.5 61.5t-75 108.5t-28 162.5q0 115 37 208.5t101.5 160t153.5 103t194 36.5q109 0 179.5 -34.5t112.5 -97t59 -147.5 t17 -183q0 -197 -39.5 -367t-116.5 -295t-187.5 -196.5t-252.5 -71.5q-106 0 -188 24.5t-111 42.5zM256 879q0 -115 58.5 -185.5t203.5 -70.5q84 0 148.5 16t111.5 39q53 25 94 57l5 47q4 33 8 69t2 75q0 61 -11.5 123.5t-41 112.5t-83 82t-139.5 32q-88 0 -154.5 -29.5 t-111.5 -83t-67.5 -126t-22.5 -158.5z" />
<glyph unicode=":" horiz-adv-x="356" d="M55 63q0 41 28 70t67 29q35 0 55 -21.5t20 -52.5q0 -41 -26.5 -71.5t-67.5 -30.5q-35 0 -55.5 22.5t-20.5 54.5zM135 725q0 41 30.5 67.5t65.5 26.5t55.5 -20.5t20.5 -53.5q0 -41 -28.5 -71.5t-67.5 -30.5q-35 0 -55.5 24.5t-20.5 57.5z" />
<glyph unicode=";" horiz-adv-x="356" d="M0 -172q39 35 64.5 68.5t35.5 87.5q-49 14 -49 71q0 41 27.5 72t68.5 31q35 0 58.5 -24.5t23.5 -67.5q0 -37 -16 -77t-45 -77t-65.5 -68.5t-79.5 -52.5zM135 725q0 41 30.5 67.5t65.5 26.5t55.5 -20.5t20.5 -53.5q0 -41 -28.5 -71.5t-67.5 -30.5q-35 0 -55.5 24.5 t-20.5 57.5z" />
<glyph unicode="&#x3c;" d="M186 565l11 84l796 393l-14 -114l-676 -324l596 -330l-12 -106z" />
<glyph unicode="=" d="M145 430l13 94h780l-12 -94h-781zM180 711l13 96h780l-12 -96h-781z" />
<glyph unicode="&#x3e;" d="M139 168l13 115l679 329l-600 324l15 106l698 -393l-10 -84z" />
<glyph unicode="?" horiz-adv-x="825" d="M164 1102l33 274q88 31 181 46.5t165 15.5q166 0 245.5 -59.5t79.5 -170.5q0 -59 -18.5 -107t-50 -90t-72.5 -79t-86 -70q-90 -66 -147.5 -117t-91 -98t-47 -93t-13.5 -101q0 -23 1 -49.5t1 -59.5l-90 -20q-4 37 -6 68.5t-2 60.5q0 63 13 117.5t48 107.5t94.5 109.5 t151.5 121.5q92 68 148.5 129.5t56.5 151.5q0 80 -61.5 113.5t-155.5 33.5q-55 0 -125 -9t-137 -32l-23 -194h-92zM217 57q0 41 27.5 70t68.5 29q35 0 54.5 -22.5t19.5 -55.5q0 -41 -29.5 -69.5t-64.5 -28.5t-55.5 22.5t-20.5 54.5z" />
<glyph unicode="@" horiz-adv-x="1808" d="M166 621q0 178 70.5 333.5t190.5 269t279.5 179t337.5 65.5q152 0 272 -42t204 -118.5t129 -185t45 -243.5q0 -141 -40 -244t-101.5 -170.5t-137 -100t-147.5 -32.5q-57 0 -94 18.5t-59.5 47t-32 66.5t-9.5 75t6 71h-6q-35 -84 -75 -138t-79.5 -86t-79.5 -44t-77 -12 q-88 0 -145.5 69.5t-57.5 214.5q0 111 25.5 211.5t77 176t127 119.5t178.5 44q47 0 92 -9t100 -28l45 46l43 -9l-53 -297q-12 -78 -24.5 -151.5t-12.5 -134.5q0 -78 27.5 -125t105.5 -47q41 0 96.5 23.5t105.5 77.5t85 142t35 215q0 125 -39 222.5t-111.5 165t-177 102.5 t-235.5 35q-170 0 -316.5 -60.5t-254 -165t-169 -244t-61.5 -298.5q0 -133 41 -244t116.5 -190.5t181 -125t232.5 -45.5q43 0 109.5 6.5t138.5 30.5l20 -65q-51 -23 -127.5 -34t-144.5 -11q-152 0 -271.5 51t-203.5 141t-129 213t-45 269zM653 625q0 -111 37 -163t96 -52 q35 0 74 20.5t80 67.5t82 127t80 196l41 230q-55 23 -103.5 31t-81.5 8q-90 0 -149 -48.5t-94 -119t-48.5 -151.5t-13.5 -146z" />
<glyph unicode="A" horiz-adv-x="1263" d="M-12 0l10 94h117q135 315 282.5 653t284.5 654h141l252 -1307h109l-10 -94h-371l10 94h141l-51 293h-549l-125 -293h148l-10 -94h-379zM399 489h486l-117 648l-27 151h-4q-2 -4 -4 -11t-9 -23.5t-18.5 -45t-31.5 -73.5q-35 -82 -101.5 -234.5t-173.5 -411.5z" />
<glyph unicode="B" horiz-adv-x="1165" d="M29 0l10 96h135l150 1209h-127l10 94h565q182 0 266 -86t84 -221q0 -51 -11 -102.5t-39 -98.5t-73 -88t-112 -72q57 -16 97 -49t62.5 -75t33 -89t10.5 -92q0 -109 -38 -188.5t-98.5 -132t-135.5 -79t-148 -26.5h-641zM287 96h350q88 0 151.5 25.5t104.5 71t60.5 105.5 t19.5 132q0 49 -16.5 94t-48 79t-82 54.5t-117.5 20.5h-351zM371 774h311q78 0 139.5 22.5t103.5 63.5t64.5 97.5t22.5 121.5q0 98 -61.5 162t-202.5 64h-312z" />
<glyph unicode="C" horiz-adv-x="1083" d="M125 539q0 76 10 170t36 192t73 191.5t120.5 166t178 116.5t245.5 44q113 0 194 -16.5t134 -38.5l-35 -295h-96l27 219q-43 14 -104.5 23.5t-127.5 9.5q-133 0 -233.5 -58.5t-168 -162t-102 -247.5t-34.5 -316q0 -96 21.5 -178.5t70.5 -142.5t129 -95t196 -35 q57 0 147.5 10t178.5 39l21 -88q-35 -12 -80 -23.5t-95.5 -19.5t-101.5 -13t-96 -5q-262 0 -385 142t-123 411z" />
<glyph unicode="D" horiz-adv-x="1257" d="M29 0l10 94h135l150 1211h-127l10 94h508q139 0 232 -43t149.5 -119t80 -178.5t23.5 -218.5q0 -166 -35 -318.5t-111.5 -268.5t-199.5 -184.5t-301 -68.5h-524zM291 96h239q29 0 81.5 4t113.5 24.5t124.5 66t116 125t85 202.5t32.5 301q0 180 -45 278.5t-107.5 144.5 t-130 54.5t-112.5 8.5h-248z" />
<glyph unicode="E" d="M29 0l10 94h131l149 1211h-122l10 92h891l-33 -275h-94l22 183h-561l-65 -523l557 13l-13 -111l-555 8l-73 -598h604l22 182h101l-33 -276h-948z" />
<glyph unicode="F" horiz-adv-x="1019" d="M29 0l10 94h131l149 1211h-122l10 92h880l-32 -275h-94l22 183h-551l-65 -523l548 13l-12 -111l-547 8l-73 -598h192l-10 -94h-436z" />
<glyph unicode="G" horiz-adv-x="1204" d="M125 539q0 80 11 176t41 193.5t80 189.5t128 163.5t184.5 114.5t249.5 43q111 0 193 -16.5t133 -38.5l-35 -295h-94l26 219q-43 14 -105.5 23.5t-127.5 9.5q-141 0 -246.5 -58.5t-177.5 -162t-107.5 -243.5t-35.5 -304q0 -98 19.5 -183t65.5 -147.5t123.5 -98.5 t196.5 -36q57 0 126 8t122 27l61 498h-204l10 92h418l-11 -92h-104l-72 -576q-98 -31 -187 -45t-185 -14q-129 0 -223.5 37.5t-155 109.5t-89 174.5t-28.5 231.5z" />
<glyph unicode="H" horiz-adv-x="1318" d="M29 0l10 96h123l149 1209h-123l11 94h362l-10 -94h-125l-64 -517h680l64 517h-123l10 94h365l-10 -94h-125l-150 -1209h125l-10 -96h-365l11 96h122l74 592h-680l-74 -592h125l-10 -96h-362z" />
<glyph unicode="I" horiz-adv-x="636" d="M88 0l10 94h121l150 1211h-121l10 94h358l-10 -94h-125l-149 -1211h125l-11 -94h-358z" />
<glyph unicode="J" horiz-adv-x="636" d="M-141 -274q104 43 172.5 91t113.5 106.5t68 130t35 163.5l135 1088h-205l10 94h502l-10 -94h-182l-133 -1055q-16 -125 -48 -222.5t-89.5 -170t-141.5 -124.5t-201 -89z" />
<glyph unicode="K" horiz-adv-x="1208" d="M29 0l10 96h123l149 1209h-123l11 94h360l-10 -94h-125l-72 -576l637 576l-125 -2l10 96h379l-10 -96h-108l-510 -457l415 -748h117l-10 -98h-373l8 98h138l-375 678l-209 -188l-62 -492h129l-10 -96h-364z" />
<glyph unicode="L" horiz-adv-x="1032" d="M29 0l10 94h131l149 1211h-122l10 92h381l-10 -92h-146l-149 -1211h589l31 244h101l-41 -338h-934z" />
<glyph unicode="M" horiz-adv-x="1638" d="M29 0l10 94h121l149 1211h-121l11 94h245l267 -871l80 -262h12l145 266l475 867h254l-10 -94h-123l-149 -1211h123l-11 -94h-360l10 94h127l135 1094h-4l-125 -234l-452 -817h-111l-258 834l-66 217h-4l-131 -1094h129l-10 -94h-358z" />
<glyph unicode="N" horiz-adv-x="1388" d="M29 0l10 96h133l150 1209h-134l11 94h254l450 -912l131 -274h10l136 1092h-140l11 94h376l-10 -94h-129l-160 -1305h-104l-485 973l-117 239l-6 -2l-135 -1114h139l-10 -96h-381z" />
<glyph unicode="O" horiz-adv-x="1288" d="M123 518q0 160 33.5 320.5t110.5 289.5t199 210t298 81q137 0 226 -45t142.5 -121.5t75 -178t21.5 -216.5q0 -180 -39 -339t-117 -277.5t-193.5 -187t-267.5 -68.5q-133 0 -226 36.5t-151.5 105.5t-85 167t-26.5 223zM236 516q0 -217 89 -325.5t287 -108.5 q135 0 230.5 65.5t157 175t89 249t27.5 286.5q0 88 -14.5 172t-53 149.5t-107.5 104.5t-175 39q-154 0 -255 -74.5t-162.5 -191.5t-87 -260.5t-25.5 -280.5z" />
<glyph unicode="P" horiz-adv-x="1077" d="M29 0l10 94h125l149 1211h-125l11 94h536q76 0 141.5 -20.5t113.5 -63.5t75 -108.5t27 -155.5q0 -70 -21.5 -151t-72 -149.5t-135.5 -114.5t-212 -46h-313l-62 -496h168l-10 -94h-405zM350 684h301q51 0 108.5 17.5t105.5 58.5t79 109.5t31 172.5q0 133 -67.5 198 t-178.5 65h-303z" />
<glyph unicode="Q" horiz-adv-x="1286" d="M123 518q0 160 33.5 320.5t110.5 289.5t199 210t298 81q137 0 226 -45t142.5 -121.5t75 -178t21.5 -216.5q0 -143 -25.5 -274t-75 -239.5t-124 -189.5t-173.5 -124l295 -78l-61 -119l-453 152q-133 0 -226 36.5t-151.5 105.5t-85 167t-26.5 223zM236 516 q0 -217 89 -325.5t287 -108.5q135 0 230.5 65.5t157 175t89 249t27.5 286.5q0 88 -14.5 172t-53 149.5t-107.5 104.5t-175 39q-154 0 -255 -74.5t-162.5 -191.5t-87 -260.5t-25.5 -280.5z" />
<glyph unicode="R" horiz-adv-x="1161" d="M29 0l10 94h125l149 1211h-125l11 94h536q78 0 143.5 -18.5t113.5 -58.5t75 -103.5t27 -155.5q0 -66 -16.5 -131.5t-53.5 -122.5t-96.5 -101t-147.5 -63l172 -549l144 -18l4 -68q-31 -10 -80 -17t-78 -7q-51 0 -67.5 24.5t-30.5 65.5l-174 555h-328l-66 -537h168l-10 -94 h-405zM354 725h310q53 0 108 14.5t101.5 50t76 99t29.5 162.5q0 139 -68.5 196.5t-181.5 57.5h-303z" />
<glyph unicode="S" horiz-adv-x="1019" d="M29 92l30 252h97l-25 -188q70 -37 148.5 -52.5t154.5 -15.5q88 0 163 19.5t129 57.5t85 97.5t31 138.5q0 66 -22.5 109t-62.5 72.5t-93.5 48t-116.5 37.5q-78 23 -146.5 47t-121 62t-82 93.5t-29.5 141.5q0 102 38 179t99.5 127t142 75.5t166.5 25.5q39 0 84 -4t93.5 -13 t94.5 -24.5t85 -38.5l-33 -256h-96l24 195q-68 27 -127 35t-125 8t-126 -18.5t-106 -55.5t-73.5 -93t-27.5 -132q0 -55 25.5 -95t65.5 -68t90 -47t101 -36q70 -23 139.5 -44t126 -58t92 -98.5t35.5 -161.5q0 -117 -45 -199t-119.5 -133t-169 -73.5t-192.5 -22.5 q-106 0 -210.5 23.5t-190.5 82.5z" />
<glyph unicode="T" horiz-adv-x="1028" d="M115 1102l35 297h966l-33 -297h-98l25 203h-330l-150 -1211h168l-10 -94h-440l10 94h162l149 1211h-336l-24 -203h-94z" />
<glyph unicode="U" horiz-adv-x="1355" d="M168 1305l10 94h379l-10 -94h-144l-100 -805q-6 -49 -6 -93q0 -139 61 -219q80 -104 275 -104q188 0 298.5 104.5t135.5 311.5l100 805h-143l10 94h379l-10 -94h-125l-100 -807q-14 -115 -52.5 -209t-105 -162t-160.5 -104.5t-219 -36.5q-137 0 -230.5 36.5t-146.5 105.5 q-52 69 -70 165q-10 53 -10 114q0 49 6 103l99 795h-121z" />
<glyph unicode="V" horiz-adv-x="1198" d="M129 1305l10 94h361l-11 -94h-127l162 -906l45 -264h9l108 271l377 899h-125l10 94h359l-11 -94h-120l-560 -1305h-127l-239 1305h-121z" />
<glyph unicode="W" horiz-adv-x="1751" d="M129 1305l10 94h379l-10 -94h-146l105 -955l20 -203h5l81 209l355 879l-10 70h-142l10 94h396l-11 -94h-147l160 -975l26 -183h4l72 207l330 951h-141l10 94h375l-11 -94h-123q-55 -156 -114.5 -321t-119.5 -332t-119.5 -331.5t-115.5 -320.5h-122l-140 846l-30 205h-4 l-84 -215l-342 -836h-129l-156 1305h-121z" />
<glyph unicode="X" horiz-adv-x="1200" d="M-12 0l10 96h121l452 633l-274 576h-119l10 94h381l-10 -94h-139l231 -496l357 496h-144l10 94h388l-11 -94h-118l-431 -586l295 -623h125l-10 -96h-399l10 96h154l-256 543l-381 -543h159l-10 -96h-401z" />
<glyph unicode="Y" horiz-adv-x="1093" d="M129 1305l10 94h346l-10 -94h-129l227 -576h9l376 576h-133l11 94h356l-10 -94h-105l-448 -670l-68 -541h162l-10 -94h-441l11 94h163l66 535l-276 676h-107z" />
<glyph unicode="Z" horiz-adv-x="985" d="M-12 0l10 94l891 1211h-598l-25 -203h-94l35 297h823l-10 -94l-891 -1209h676l29 221h100l-39 -317h-907z" />
<glyph unicode="[" horiz-adv-x="466" d="M8 -328l215 1753h297l-10 -86h-195l-194 -1575h194l-10 -92h-297z" />
<glyph unicode="\" horiz-adv-x="626" d="M158 1430h65l326 -1483h-68z" />
<glyph unicode="]" horiz-adv-x="466" d="M-33 -328l10 92h195l195 1575h-195l10 86h299l-215 -1753h-299z" />
<glyph unicode="^" horiz-adv-x="839" d="M90 805l410 594h78l258 -594h-86l-218 500l-342 -500h-100z" />
<glyph unicode="_" horiz-adv-x="993" d="M-82 -258l8 74h992l-9 -74h-991z" />
<glyph unicode="`" horiz-adv-x="937" d="M360 1382l109 82l182 -323l-65 -43z" />
<glyph unicode="a" horiz-adv-x="1056" d="M82 332q0 137 31.5 260t94 216t156 147.5t216.5 54.5q55 0 113.5 -13.5t123.5 -35.5l53 53l52 -4q-18 -119 -37 -246t-36.5 -248t-29.5 -228.5t-18 -187.5q43 4 91 22.5t93 45.5l31 -41q-29 -29 -60.5 -55.5t-64.5 -47t-62.5 -32.5t-52.5 -12q-31 0 -50 13t-28.5 34.5 t-10.5 50t3 59.5q4 47 11.5 93t17.5 96h-8q-43 -102 -92.5 -169t-98.5 -105t-98 -53t-92 -15q-111 0 -179.5 85t-68.5 263zM197 346q0 -135 44.5 -200.5t118.5 -65.5q43 0 90.5 24.5t97.5 83t101 155.5t99 241l45 282q-68 29 -125.5 38t-98.5 9q-111 0 -182.5 -58 t-114.5 -144t-59 -185.5t-16 -179.5z" />
<glyph unicode="b" horiz-adv-x="974" d="M20 1386l7 58q66 16 129 24.5t118 8.5q39 0 54.5 -17.5t15.5 -46.5q0 -12 -4 -61t-12.5 -119t-17.5 -153t-18 -160.5t-19.5 -144t-16.5 -101.5h8q43 102 92.5 168.5t98.5 104.5t98 53.5t92 15.5q111 0 179.5 -85t68.5 -263q0 -137 -32 -260t-94 -216.5t-155.5 -147.5 t-216.5 -54q-72 0 -148.5 18.5t-168.5 59.5l-6 14q45 324 83 631t72 643zM186 133q68 -29 123.5 -38t96.5 -9q111 0 182 58.5t114 144.5t59.5 185t16.5 179q0 135 -45 201t-119 66q-43 0 -90 -25t-97 -83t-101.5 -155.5t-98.5 -240.5z" />
<glyph unicode="c" horiz-adv-x="874" d="M82 356q0 53 7 123t27.5 142.5t56.5 144.5t91 127t134 90t188 35q66 0 120 -13.5t82 -23.5q29 -12 43.5 -27.5t10.5 -48.5q0 -10 -6.5 -34.5t-15.5 -55.5t-20.5 -63.5t-23.5 -59.5l-57 2l12 205q-31 10 -75 17.5t-87 7.5q-94 0 -164.5 -46.5t-118.5 -124t-72 -181 t-24 -218.5q0 -59 11.5 -109t39 -87t72.5 -57.5t113 -20.5q78 0 145.5 16.5t149.5 50.5l31 -71q-63 -35 -152.5 -61.5t-183.5 -26.5q-92 0 -155.5 26.5t-103.5 75.5t-57.5 116.5t-17.5 149.5z" />
<glyph unicode="d" horiz-adv-x="1062" d="M82 332q0 137 31.5 260t94 216t156 147.5t216.5 54.5q49 0 105 -11.5t116 -29.5l43 387l-207 30l6 58q66 16 129.5 24.5t118.5 8.5q39 0 54.5 -17.5t15.5 -46.5q0 -10 -2.5 -41t-10.5 -90l-141 -1182q43 4 91 22.5t93 45.5l31 -41q-29 -29 -60.5 -55.5t-64.5 -47 t-62.5 -32.5t-52.5 -12q-31 0 -50 13t-28.5 34.5t-10.5 50t3 59.5q4 47 11.5 93t17.5 96h-8q-43 -102 -93.5 -169t-100.5 -105t-100 -53t-93 -15q-111 0 -179.5 85t-68.5 263zM197 346q0 -135 44.5 -200.5t118.5 -65.5q43 0 91.5 24.5t99.5 83t103.5 155.5t99.5 241l39 282 q-68 29 -125.5 38t-98.5 9q-111 0 -182.5 -58t-114.5 -144t-59 -185.5t-16 -179.5z" />
<glyph unicode="e" horiz-adv-x="903" d="M82 373q0 94 21.5 207.5t79 211t155.5 163t250 65.5q68 0 116 -20.5t78.5 -53.5t45 -76t14.5 -88q0 -102 -53.5 -169.5t-142.5 -109.5t-205.5 -63.5t-245.5 -29.5q-2 -12 -2 -26.5v-29.5q0 -47 9 -96t34.5 -89t70.5 -65.5t119 -25.5q78 0 151.5 19.5t151.5 54.5l31 -70 q-57 -37 -152.5 -65.5t-199.5 -28.5q-98 0 -162 30.5t-99.5 83t-50 123t-14.5 148.5zM203 500q256 12 392 76.5t136 193.5q0 68 -36 111t-122 43q-160 0 -253.5 -113.5t-116.5 -310.5z" />
<glyph unicode="f" horiz-adv-x="612" d="M-295 -410l25 78q45 -10 75.5 -12t59.5 -2q109 0 168 88t86 283q23 172 43 331.5t35.5 283.5t23.5 198.5t8 79.5h-163l6 53l166 37l6 49q12 94 33.5 175t61.5 139.5t101.5 92t151.5 33.5q35 0 81 -6t91 -18l-23 -89q-35 10 -73.5 13.5t-67.5 3.5q-47 0 -87 -14.5 t-70.5 -51.5t-52 -100.5t-32.5 -163.5l-8 -74h275l-9 -79h-278l-82 -672q-16 -121 -33.5 -243t-56.5 -219t-107.5 -157.5t-185.5 -60.5q-35 0 -79 6t-89 18z" />
<glyph unicode="g" horiz-adv-x="985" d="M51 -381l39 88q39 -23 109.5 -40t134.5 -17q109 0 173 37t100 97t51.5 138t27.5 162l33 242h-8q-43 -102 -92.5 -169t-98.5 -105t-98 -53t-92 -15q-111 0 -179.5 85t-68.5 263q0 137 31.5 260t94 216t156 147.5t216.5 54.5q72 0 148.5 -18.5t168.5 -59.5l6 -14l-125 -945 q-8 -66 -28.5 -138.5t-68.5 -136t-132 -104t-217 -40.5q-86 0 -162 21.5t-119 43.5zM197 346q0 -135 44.5 -200.5t118.5 -65.5q43 0 90.5 24.5t97.5 83t101 155.5t99 241l40 282q-68 29 -123 38t-96 9q-111 0 -182.5 -58t-114.5 -144t-59 -185.5t-16 -179.5z" />
<glyph unicode="h" horiz-adv-x="1103" d="M92 1384l6 58q66 16 129.5 24.5t118.5 8.5q35 0 53.5 -10.5t18.5 -39.5q0 -14 -5 -67t-13.5 -126t-17.5 -157t-19.5 -162.5t-18.5 -142t-12 -96.5h8q45 98 100.5 164.5t108.5 105.5t102 55.5t82 16.5q106 0 146.5 -57.5t40.5 -145.5q0 -20 -3.5 -60t-10.5 -119 t-21.5 -208t-36.5 -326q43 4 85 16.5t87 39.5l31 -41q-129 -135 -230 -135q-47 0 -66.5 23.5t-19.5 68.5q0 12 1 25.5t3 29.5q25 209 38.5 334t20.5 192.5t8 94t1 43.5q0 53 -21.5 91t-74.5 38q-43 0 -95.5 -27t-106.5 -86t-107.5 -155.5t-98.5 -235.5l-57 -416h-111 q10 80 24.5 192.5t30 242.5t32 265.5t30.5 259t25.5 227t17.5 167.5z" />
<glyph unicode="i" horiz-adv-x="538" d="M90 928l4 57q66 16 123 24.5t100 8.5q39 0 55.5 -10.5t16.5 -38.5l-108 -869q43 4 87 16.5t89 39.5l30 -41q-63 -68 -122.5 -101.5t-106.5 -33.5q-51 0 -68.5 26.5t-17.5 67.5q0 12 1 25.5t3 27.5l96 770zM272 1233q0 37 24.5 64.5t59.5 27.5q29 0 50.5 -20.5t21.5 -51.5 q0 -35 -24.5 -62.5t-61.5 -27.5q-29 0 -49.5 20.5t-20.5 49.5z" />
<glyph unicode="j" horiz-adv-x="505" d="M-106 -381q84 37 137 93.5t84.5 126t47 147t23.5 157.5l78 754l-180 31l6 57q66 16 122 24.5t99 8.5q35 0 55.5 -10.5t20.5 -38.5l-88 -797q-12 -113 -35.5 -213t-67.5 -180t-113 -137.5t-171 -85.5zM264 1233q0 37 24.5 64.5t59.5 27.5q29 0 50.5 -20.5t21.5 -51.5 q0 -35 -24.5 -62.5t-61.5 -27.5q-29 0 -49.5 20.5t-20.5 49.5z" />
<glyph unicode="k" horiz-adv-x="888" d="M39 1382l4 56q53 16 119.5 29.5t120.5 13.5q29 0 43 -15.5t14 -38.5v-10q-16 -131 -30.5 -238.5t-29 -208t-28.5 -200.5t-29 -215h6q45 82 106.5 165t130.5 149.5t142.5 108.5t141.5 42q55 0 87.5 -27.5t34.5 -74.5l-41 -44q-59 25 -108 25q-51 0 -96 -21.5t-85 -55.5 t-77 -77t-72 -88q37 -78 84 -169t93 -174t83 -144t54 -76q59 12 97 39t66 49l33 -37q-68 -98 -123 -131.5t-92 -33.5q-59 0 -143 147t-226 432q-25 -33 -41 -57.5t-28 -46t-23.5 -45t-25.5 -56.5l-47 -354h-113q25 174 48.5 340t45 333t42 337t42.5 350z" />
<glyph unicode="l" horiz-adv-x="524" d="M96 1386l4 58q66 16 134.5 24.5t111.5 8.5q35 0 53.5 -10.5t18.5 -39.5q0 -20 -9.5 -105t-23.5 -207t-32.5 -267.5t-36 -285.5t-34 -263t-24.5 -199q43 4 86 16.5t88 39.5l31 -41q-63 -68 -122.5 -101.5t-107.5 -33.5q-47 0 -66.5 21.5t-19.5 70.5q0 12 1.5 25.5 t3.5 29.5l147 1229z" />
<glyph unicode="m" horiz-adv-x="1609" d="M57 928l6 57q66 16 129.5 24.5t118.5 8.5q35 0 53.5 -10.5t18.5 -38.5q0 -45 -11.5 -121t-25.5 -174h8q45 98 93.5 164.5t95.5 105.5t89 55.5t75 16.5q106 0 146 -57.5t40 -145.5q0 -18 -3 -52t-7 -97l6 -5q39 94 88 163t99 113t96.5 64.5t78.5 20.5q106 0 146.5 -57.5 t40.5 -145.5q0 -20 -3 -60t-10.5 -119t-21.5 -208t-37 -326q43 4 85 16.5t87 39.5l31 -41q-129 -135 -230 -135q-47 0 -66.5 23.5t-19.5 68.5q0 12 1 25.5t3 29.5q27 221 40.5 348t19.5 193.5t7 89t1 39.5q0 53 -22.5 88t-73.5 35q-43 0 -89 -28t-94.5 -88t-95.5 -156.5 t-92 -233.5q-6 -35 -9 -61.5t-7 -67.5t-11.5 -107.5t-21.5 -181.5h-111l27 223q20 186 32.5 295t16.5 165t5 77.5t1 36.5q0 53 -22.5 88t-73.5 35q-43 0 -88 -27t-92 -86t-94.5 -155.5t-92.5 -235.5l-57 -416h-110q16 119 31.5 240.5t29.5 238.5t26.5 223.5t22.5 194.5z" />
<glyph unicode="n" horiz-adv-x="1105" d="M59 928l4 57q66 16 129.5 24.5t118.5 8.5q35 0 53.5 -10.5t18.5 -38.5q0 -45 -11.5 -121t-25.5 -174h8q45 98 100.5 164.5t108.5 105.5t102.5 55.5t82.5 16.5q106 0 146 -57.5t40 -145.5q0 -20 -3 -60t-10.5 -119t-21.5 -208t-37 -326q43 4 85 16.5t87 39.5l31 -41 q-129 -135 -229 -135q-47 0 -66.5 23.5t-19.5 68.5q0 12 1 25.5t3 29.5q27 221 40 348t19 193.5t7 89t1 39.5q0 53 -22.5 88t-73.5 35q-43 0 -95 -27t-106.5 -86t-108 -155.5t-98.5 -235.5l-57 -416h-110q16 119 31.5 240.5t30.5 238.5t27.5 223.5t22.5 194.5z" />
<glyph unicode="o" horiz-adv-x="958" d="M82 367q0 106 24.5 220.5t80 210t145.5 158t223 62.5q96 0 161.5 -33t105.5 -88t57.5 -127t17.5 -149q0 -94 -20.5 -205t-72.5 -206t-145.5 -159.5t-236.5 -64.5q-98 0 -163.5 29.5t-104.5 82t-55.5 122t-16.5 147.5zM193 344q0 -51 11 -99t38.5 -85t75 -59.5 t118.5 -22.5q109 0 177.5 59.5t106.5 144.5t51 177t13 159q0 57 -10 112.5t-36.5 97.5t-70.5 68t-114 26q-74 0 -130 -29t-96 -76t-65.5 -108.5t-41 -125t-21.5 -126t-6 -113.5z" />
<glyph unicode="p" horiz-adv-x="1036" d="M-82 -426l10 92h156l145 1231l-202 31l4 57q66 16 129 24.5t119 8.5q35 0 53 -10.5t18 -38.5q0 -4 -2 -19.5t-6 -49.5t-11 -90l-18 -144h9q43 102 92 168.5t100 104.5t100.5 53.5t92.5 15.5q111 0 179 -85t68 -264q0 -137 -31.5 -260t-94 -216t-155.5 -147t-216 -54 q-49 0 -105.5 11t-115.5 30l-46 -357h193l-10 -92h-455zM244 125q68 -29 125 -38t98 -9q111 0 182.5 58.5t114.5 144.5t59.5 185t16.5 179q0 135 -45 200.5t-119 65.5q-43 0 -91 -24.5t-99.5 -83t-103.5 -155.5t-99 -240z" />
<glyph unicode="q" horiz-adv-x="999" d="M82 332q0 137 31.5 260t94 216t156 147.5t216.5 54.5q72 0 148.5 -18.5t168.5 -59.5l6 -14l-153 -1252h157l-10 -92h-455l11 92h184q29 274 49.5 435t32.5 225h-8q-43 -102 -92.5 -169t-98.5 -105t-98 -53t-92 -15q-111 0 -179.5 85t-68.5 263zM197 346 q0 -135 44.5 -200.5t118.5 -65.5q43 0 90.5 24.5t97.5 83t101 155.5t99 241l40 282q-68 29 -123 38t-96 9q-111 0 -182.5 -58t-114.5 -144t-59 -185.5t-16 -179.5z" />
<glyph unicode="r" horiz-adv-x="800" d="M86 928l4 57q66 16 116 24.5t105 8.5q35 0 53.5 -10.5t18.5 -38.5q0 -33 -9 -101.5t-24 -167.5h6q39 104 80 167t83 96.5t81 45t72 11.5q59 0 89 -31t30 -71l-43 -44q-33 16 -58.5 20.5t-48.5 4.5q-84 0 -170 -115.5t-156 -367.5l-55 -416h-106l112 897z" />
<glyph unicode="s" horiz-adv-x="811" d="M55 111q0 41 20.5 104.5t45.5 116.5l51 -2l-12 -224q72 -28 162 -28h6q53 0 105 11t93 34.5t65.5 61.5t24.5 91q0 41 -17 70t-47 50.5t-66.5 39t-75.5 35.5q-66 31 -120 59.5t-93 61.5t-60.5 70.5t-21.5 85.5q0 72 31.5 123t82 83.5t114 48t124.5 15.5q51 0 97 -9.5 t81 -24.5t55.5 -35.5t20.5 -45.5q0 -20 -6 -49t-15.5 -60.5t-20.5 -63.5t-24 -58l-51 2l12 215q-29 16 -66.5 25.5t-86.5 9.5q-43 0 -85 -9.5t-75 -30t-53.5 -54t-20.5 -82.5q0 -33 20.5 -59.5t51.5 -48.5t66.5 -39t66.5 -32q53 -25 104.5 -50t92.5 -59t65.5 -77t24.5 -100 q0 -76 -34 -131.5t-89 -92t-125.5 -54t-144.5 -17.5q-84 0 -137.5 10t-83 26.5t-41 39t-11.5 47.5z" />
<glyph unicode="t" horiz-adv-x="684" d="M100 918l6 57l150 35l70 213l65 16l-31 -242h295l-8 -79h-293l-86 -664q-3 -28 -3 -52v-12q1 -30 13.5 -52.5t37 -36t65.5 -13.5q33 0 84 7t110 26l23 -74q-53 -25 -118.5 -40t-125.5 -15q-49 0 -89 11t-66.5 37t-38.5 69q-7 25 -8 56q0 22 4 48l88 705h-144z" />
<glyph unicode="u" horiz-adv-x="1103" d="M59 928l4 57q66 16 128.5 24.5t117.5 8.5q35 0 53.5 -10.5t18.5 -38.5q0 -16 -6 -71.5t-14.5 -132.5t-18.5 -165t-18.5 -168t-14.5 -142.5t-6 -86.5q0 -123 96 -123q43 0 95.5 26.5t106.5 86t107.5 155.5t98.5 236l59 415h107q-31 -219 -57.5 -438t-55.5 -461 q47 4 89 17.5t83 38.5l31 -41q-129 -135 -229 -135q-47 0 -66.5 23.5t-19.5 68.5q0 20 3 53t7 68.5t10 70.5t10 62h-8q-45 -98 -100.5 -165t-108.5 -106t-102 -55t-82 -16q-106 0 -146.5 57t-40.5 145q0 20 3.5 59.5t10.5 117t21.5 206.5t36.5 328z" />
<glyph unicode="v" horiz-adv-x="929" d="M0 905q57 59 110.5 89t88.5 30q37 0 55 -19.5t22 -72.5l84 -813h9q72 82 141.5 179t124.5 200.5t89 208t36 196.5l-152 -43l-18 45q57 59 111.5 89t89.5 30q37 0 55 -19.5t20 -72.5v-10q0 -117 -47 -246q-49 -135 -122.5 -264t-162 -240t-161.5 -180h-94l-111 911 l-148 -43z" />
<glyph unicode="w" horiz-adv-x="1355" d="M2 901q57 59 109.5 91t87.5 32q37 0 55 -19.5t22 -72.5l62 -799h8q45 53 92 122t90 141.5t81 146t63 139.5l-17 221l-151 -47l-21 45q57 59 112.5 91t90.5 32q37 0 55.5 -19.5t22.5 -72.5l53 -801h8q72 82 136.5 177t113.5 196.5t79 204t32 194.5l-154 -47l-18 45 q57 59 112.5 91t90.5 32q37 0 55 -19.5t20 -72.5v-10q0 -113 -43 -242q-45 -135 -114.5 -264t-153.5 -242t-158 -182h-96l-41 493l-4 2q-37 -78 -82 -152.5t-92 -140t-91 -118.5t-77 -84h-90l-82 911l-145 -47z" />
<glyph unicode="x" horiz-adv-x="894" d="M37 35v12l350 445l-166 409l-158 -57l-22 49q125 119 197 119q37 0 56 -21.5t40 -70.5l129 -322l268 408h12l86 -62v-12l-335 -410l172 -424q47 4 92 21.5t88 42.5l28 -41q-59 -72 -113 -108t-95 -36q-47 0 -66.5 23t-36.5 63l-145 355l-291 -447h-12z" />
<glyph unicode="y" horiz-adv-x="968" d="M-238 -358q0 8 5 24l51 33q70 -55 147 -55q98 0 199.5 55t224.5 197q-18 115 -42.5 258t-51.5 283.5t-51.5 262t-42.5 195.5l-152 -43l-20 45q57 59 105 89t83 30q37 0 56.5 -19.5t31.5 -72.5q12 -55 34.5 -166t46.5 -243t46.5 -270.5t38.5 -244.5q72 102 131.5 225 t102.5 246t65.5 234.5t22.5 189.5l-154 -43l-18 45q57 59 107 89t85 30q37 0 60.5 -19.5t23.5 -72.5q0 -115 -35 -262.5t-99.5 -302t-153.5 -303t-197.5 -265.5t-233.5 -188.5t-258 -71.5q-72 0 -115 29.5t-43 81.5z" />
<glyph unicode="z" horiz-adv-x="882" d="M16 80l691 825h-455l-80 -219l-57 6l24 238q4 45 33 56t51 11h588l27 -88l-682 -819h530l78 217l51 -4l-27 -235q-2 -23 -10 -36.5t-20.5 -20.5t-24.5 -9t-24 -2h-674z" />
<glyph unicode="{" horiz-adv-x="471" d="M76 580l8 65q47 8 74.5 31.5t44 54.5t23.5 68t12 75l45 369q4 33 15 66.5t31.5 62.5t52.5 47.5t77 18.5h88l-12 -88h-43q-47 0 -74 -38t-35 -98l-43 -348q-4 -39 -13.5 -78.5t-25.5 -74.5t-40.5 -60.5t-61.5 -38.5q35 -23 54 -48t26.5 -56t6.5 -67.5t-7 -82.5l-60 -487 q-8 -57 3 -95t65 -38h51l-10 -90h-88q-47 0 -75 18.5t-41 47t-15.5 63.5t2.5 67l63 506q4 39 6 76t-6 67.5t-30.5 53t-67.5 31.5z" />
<glyph unicode="|" horiz-adv-x="419" d="M162 -279v1706h78v-1706h-78z" />
<glyph unicode="}" horiz-adv-x="471" d="M-45 -350l10 90h51q53 0 73 38t28 95l59 487q6 45 13.5 82t22.5 68t39.5 56.5t65.5 47.5q-35 12 -53 38t-25.5 61t-6.5 74.5t6 78.5l43 348q8 59 -10.5 97.5t-65.5 38.5h-43l12 88h88q45 0 71.5 -15.5t41 -42t16.5 -62.5t-2 -75l-45 -369q-4 -39 -6 -75.5t6 -67.5 t30.5 -54.5t65.5 -31.5l-8 -65q-47 -8 -74.5 -31t-43 -53.5t-22.5 -67.5t-11 -76l-64 -506q-4 -33 -15.5 -67.5t-33 -63t-52 -47t-73.5 -18.5h-88z" />
<glyph unicode="~" d="M174 569q37 66 97 110t132 44q43 0 95.5 -15.5t104.5 -34t99.5 -33.5t83.5 -15l148 98l47 -45q-37 -66 -98.5 -111t-132.5 -45q-57 0 -106.5 15.5t-94.5 33t-87 32.5t-81 15l-160 -96z" />
<glyph unicode="&#xa2;" d="M197 356q0 74 15 177.5t60 203t127 177t215 98.5l27 202h82l-25 -196h2q66 0 120 -13.5t83 -23.5q29 -12 43.5 -27.5t9.5 -48.5q0 -10 -6 -34.5t-15 -55.5t-20.5 -63.5t-23.5 -59.5l-57 2l12 205q-31 10 -74 17.5t-86 7.5l-102 -844q63 4 121.5 21.5t130.5 45.5l30 -71 q-57 -33 -134 -56.5t-161 -29.5l-18 -158h-84l18 158q-80 6 -135 34.5t-90 77t-50 113t-15 141.5zM305 354q0 -109 41 -184.5t154 -87.5l102 831q-74 -18 -129 -70t-93 -127t-56.5 -168.5t-18.5 -193.5z" />
<glyph unicode="&#xa3;" d="M74 0l10 94q49 16 85 56t59.5 91.5t38 109t24.5 108.5l33 186h-140l13 92h141l37 234q12 80 39.5 152.5t74 127t115 86t164.5 31.5q39 0 83 -5t85 -13.5t78 -20.5t63 -26l-30 -246h-95l21 176q-41 14 -90 25.5t-119 11.5q-76 0 -125 -23.5t-81 -64.5t-50.5 -97.5 t-30.5 -121.5l-37 -226h396l-13 -92h-397l-31 -186q-8 -51 -21.5 -105.5t-31.5 -103.5t-42 -90t-54 -64h700l-10 -96h-862z" />
<glyph unicode="&#xa5;" d="M135 1264l12 94h347l-13 -94h-129l201 -572h8l346 572h-133l12 94h355l-13 -94h-102l-387 -615h303l-8 -71h-770l8 71h299l-229 615h-107zM141 397l11 78h770l-11 -78h-333l-37 -303h168l-11 -94h-442l10 94h166l37 303h-328z" />
<glyph unicode="&#xa8;" horiz-adv-x="950" d="M324 1223q0 35 27.5 60.5t56.5 25.5q76 0 75 -66q0 -39 -24.5 -63.5t-65.5 -24.5q-31 0 -50 18.5t-19 49.5zM684 1223q0 35 26.5 60.5t55.5 25.5q35 0 55.5 -17.5t20.5 -48.5q0 -39 -27 -63.5t-67 -24.5q-29 0 -46.5 18.5t-17.5 49.5z" />
<glyph unicode="&#xa9;" horiz-adv-x="1636" d="M102 684q0 150 54.5 283t150.5 232t227.5 156.5t284.5 57.5q160 0 292 -57.5t227.5 -156.5t147.5 -232t52 -283q0 -152 -57.5 -285t-154.5 -232t-228.5 -156.5t-278.5 -57.5q-172 0 -305 57.5t-224 156.5t-139.5 232t-48.5 285zM172 684q0 -135 43 -256t125 -211 t203 -142t276 -52q135 0 252 52t205 142t138 211t50 256q0 137 -47 257t-132 209t-204 140t-262 51q-137 0 -256 -51t-206 -140t-136 -209t-49 -257zM422 668q0 78 17.5 171t64.5 174t127 135t207 54q86 0 146 -12t99 -29v-221h-73v158q-35 10 -80 17t-90 7 q-84 0 -145.5 -32.5t-102.5 -93t-60.5 -144.5t-19.5 -186q0 -86 13.5 -165t49 -138.5t100 -94.5t167.5 -35q20 0 50 2.5t62.5 6.5t65.5 10t61 16l17 -71q-45 -18 -122 -31.5t-145 -13.5q-111 0 -188.5 35.5t-126.5 103t-71.5 163t-22.5 214.5z" />
<glyph unicode="&#xab;" horiz-adv-x="804" d="M119 338l10 80l309 307l41 -39l-235 -309l162 -307l-50 -37zM377 338l10 80l309 307l41 -39l-235 -309l162 -307l-50 -37z" />
<glyph unicode="&#xad;" horiz-adv-x="702" d="M106 481l15 109h500l-15 -109h-500z" />
<glyph unicode="&#xae;" horiz-adv-x="1126" d="M145 969q0 98 35 185t97.5 151.5t147.5 102.5t187 38t188.5 -38t149 -102.5t97 -151.5t34.5 -185t-34.5 -184.5t-97 -151t-149 -101t-188.5 -36.5t-187 36.5t-147.5 101t-97.5 150.5t-35 185zM205 969q0 -84 30.5 -160t84 -132t128 -89t164.5 -33q94 0 169 33t128.5 89 t82 132t28.5 160q0 86 -29.5 162.5t-84 133t-129.5 89t-165 32.5q-88 0 -162.5 -32.5t-129 -89t-85 -133t-30.5 -162.5zM401 674v55h50v488h-50v55h232q76 0 127 -38t51 -126q0 -39 -26.5 -88t-86.5 -74l103 -215l59 -8v-45q-31 -10 -67 -10q-23 0 -36.5 14t-19.5 29 l-108 227h-111v-209h70v-55h-187zM518 993h117q41 0 75.5 22.5t34.5 90.5q0 61 -33.5 86t-76.5 25h-117v-224z" />
<glyph unicode="&#xb4;" horiz-adv-x="950" d="M481 1141l260 323l86 -82l-295 -284z" />
<glyph unicode="&#xb8;" horiz-adv-x="860" d="M182 -494l8 64q111 10 181.5 42t70.5 91q0 25 -18 40t-46 24.5t-63.5 12.5t-68.5 3l-17 35l222 252l51 -35l-148 -168q88 -4 142.5 -37t54.5 -100q0 -45 -23.5 -86t-69.5 -72t-115 -48.5t-161 -17.5z" />
<glyph unicode="&#xbb;" horiz-adv-x="804" d="M63 70l236 307l-158 309l52 39l235 -307l-10 -80l-316 -305zM322 70l235 307l-158 309l52 39l235 -307l-10 -80l-316 -305z" />
<glyph unicode="&#x2c6;" horiz-adv-x="950" d="M225 1135l330 284h78l264 -280l-39 -47l-274 202l-324 -204z" />
<glyph unicode="&#x2da;" horiz-adv-x="950" d="M381 1331q10 82 72.5 142.5t154.5 60.5q41 0 75 -16.5t57.5 -44t34.5 -64.5t5 -78q-10 -86 -72.5 -143.5t-148.5 -57.5q-43 0 -78 15.5t-58.5 43.5t-34.5 64.5t-7 77.5zM453 1327q-6 -57 24.5 -95t89.5 -38q55 0 95 38t47 95q8 57 -23 97t-86 40q-59 0 -99 -39t-48 -98z " />
<glyph unicode="&#x2dc;" horiz-adv-x="950" d="M283 1217q29 57 76 97t100 40q33 0 67.5 -12.5t67.5 -28t63.5 -27.5t53.5 -12l123 80l36 -37q-25 -57 -71.5 -97t-100.5 -40q-41 0 -75.5 12t-65.5 27.5t-57.5 28t-53.5 12.5l-122 -80z" />
<glyph unicode="&#x401;" d="M29 0l10 94h131l149 1211h-122l10 92h891l-33 -275h-94l22 183h-561l-65 -523l557 13l-13 -111l-555 8l-73 -598h604l22 182h101l-33 -276h-948zM451 1556q0 35 28.5 60.5t57.5 25.5q35 0 55 -17t20 -48q0 -39 -26.5 -63.5t-63.5 -24.5q-33 0 -52 19.5t-19 47.5z M813 1554q0 35 25.5 61.5t56.5 26.5q35 0 55.5 -17t20.5 -48q0 -39 -26.5 -63.5t-67.5 -24.5q-29 0 -46.5 18.5t-17.5 46.5z" />
<glyph unicode="&#x402;" horiz-adv-x="1423" d="M135 1102l35 295h1110l-35 -295h-96l25 203h-472l-65 -535q106 45 201.5 64.5t169.5 19.5q88 0 151.5 -26.5t105.5 -72.5t62.5 -110.5t20.5 -140.5q0 -121 -40 -226.5t-104.5 -194.5t-146.5 -159.5t-164 -120.5l-33 62q80 55 147.5 120.5t117 141.5t78 161t28.5 181 q0 147 -64.5 215t-195.5 68q-72 0 -163 -18.5t-183 -55.5l-72 -584h154l-11 -94h-401l10 94h137l150 1211h-336l-25 -203h-96z" />
<glyph unicode="&#x403;" horiz-adv-x="1019" d="M29 0l10 94h131l149 1211h-122l10 92h891l-33 -275h-94l22 183h-561l-149 -1211h192l-10 -94h-436zM592 1528l354 217l53 -107l-374 -168z" />
<glyph unicode="&#x404;" horiz-adv-x="1083" d="M125 539q0 76 10 170t36 192t73 191.5t120.5 166t178 116.5t245.5 44q113 0 194 -16.5t134 -38.5l-35 -295h-96l27 219q-43 14 -104.5 23.5t-127.5 9.5q-109 0 -194.5 -38t-151 -108.5t-109.5 -170t-65 -220.5l604 13l-12 -113l-604 10q-6 -78 -6 -157q0 -96 21.5 -178.5 t70.5 -142.5t129 -95t196 -35q57 0 147.5 10t178.5 39l21 -88q-35 -12 -80 -23.5t-95.5 -19.5t-101.5 -13t-96 -5q-262 0 -385 142t-123 411z" />
<glyph unicode="&#x405;" horiz-adv-x="1019" d="M29 92l30 252h97l-25 -188q70 -37 148.5 -52.5t154.5 -15.5q88 0 163 19.5t129 57.5t85 97.5t31 138.5q0 66 -22.5 109t-62.5 72.5t-93.5 48t-116.5 37.5q-78 23 -146.5 47t-121 62t-82 93.5t-29.5 141.5q0 102 38 179t99.5 127t142 75.5t166.5 25.5q39 0 84 -4t93.5 -13 t94.5 -24.5t85 -38.5l-33 -256h-96l24 195q-68 27 -127 35t-125 8t-126 -18.5t-106 -55.5t-73.5 -93t-27.5 -132q0 -55 25.5 -95t65.5 -68t90 -47t101 -36q70 -23 139.5 -44t126 -58t92 -98.5t35.5 -161.5q0 -117 -45 -199t-119.5 -133t-169 -73.5t-192.5 -22.5 q-106 0 -210.5 23.5t-190.5 82.5z" />
<glyph unicode="&#x406;" horiz-adv-x="636" d="M88 0l10 94h121l150 1211h-121l10 94h358l-10 -94h-125l-149 -1211h125l-11 -94h-358z" />
<glyph unicode="&#x407;" horiz-adv-x="636" d="M88 0l10 94h121l150 1211h-121l10 94h358l-10 -94h-125l-149 -1211h125l-11 -94h-358zM199 1589q0 35 27.5 60.5t56.5 25.5q76 0 75 -65q0 -39 -24.5 -63.5t-65.5 -24.5q-31 0 -50 18.5t-19 48.5zM559 1589q0 35 26.5 60.5t55.5 25.5q35 0 55.5 -17.5t20.5 -47.5 q0 -39 -26.5 -63.5t-67.5 -24.5q-29 0 -46.5 18.5t-17.5 48.5z" />
<glyph unicode="&#x408;" horiz-adv-x="636" d="M-141 -274q104 43 172.5 91t113.5 106.5t68 130t35 163.5l135 1088h-205l10 94h502l-10 -94h-182l-133 -1055q-16 -125 -48 -222.5t-89.5 -170t-141.5 -124.5t-201 -89z" />
<glyph unicode="&#x409;" horiz-adv-x="1832" d="M-35 43q117 35 195 115t132 211t89 318t65 439l23 177h-172l10 96h948l-10 -94h-141l-62 -496h324q104 0 177 -30.5t119 -82t67.5 -116t21.5 -131.5q0 -111 -38 -194t-99.5 -140.5t-141 -86t-165.5 -28.5h-611l11 94h135l149 1211l-416 -2l-18 -152q-29 -229 -63.5 -434 t-96 -364.5t-160 -264t-253.5 -129.5zM954 94h359q68 0 127 21.5t104 65.5t71.5 110.5t26.5 157.5q0 70 -23.5 121t-64.5 82.5t-95 47t-116 15.5h-313z" />
<glyph unicode="&#x40a;" horiz-adv-x="1851" d="M29 0l10 94h123l149 1211h-123l11 92h362l-10 -92h-125l-61 -500h579l62 500h-136l11 94h389l-10 -94h-142l-61 -496h323q104 0 177 -30.5t119 -82t67.5 -116t21.5 -131.5q0 -111 -37.5 -194t-99 -140.5t-141.5 -86t-166 -28.5h-610l10 94h135l76 619h-580l-76 -619h125 l-10 -94h-362zM969 94h358q68 0 127 21.5t104.5 65.5t72 110.5t26.5 157.5q0 70 -23.5 121t-64.5 82.5t-95.5 47t-115.5 15.5h-314z" />
<glyph unicode="&#x40b;" horiz-adv-x="1552" d="M143 1102l35 295h1112l-35 -295h-96l25 203h-471l-66 -531q104 39 200.5 58.5t178.5 19.5q180 0 264 -76t64 -229l-56 -453h125l-10 -94h-364l10 94h125l51 414q16 139 -46.5 191.5t-205.5 52.5q-86 0 -181 -22.5t-167 -55.5l-72 -580h142l-11 -94h-385l10 94h134 l149 1211h-338l-24 -203h-97z" />
<glyph unicode="&#x40c;" horiz-adv-x="1161" d="M29 0l10 94h121l149 1211h-121l11 94h358l-10 -94h-125l-150 -1211h125l-10 -94h-358zM422 719l2 31l502 583q39 45 68.5 62.5t66.5 15.5q37 0 70.5 -9t68.5 -26l-12 -73l-182 -21l-474 -553l379 -623l181 -20v-74q-35 -16 -77 -22t-75 -6q-39 0 -68.5 15t-52.5 50z M647 1534l354 217l54 -106l-375 -168z" />
<glyph unicode="&#x40e;" horiz-adv-x="1107" d="M137 12l29 82q47 -10 88 -17t76 -7q53 0 94 32.5t78 118.5l80 180h-54l-274 904h-113l11 94h368l-10 -94h-139l237 -816h10l361 816h-135l10 94h365l-11 -94h-114l-494 -1115q-47 -111 -103.5 -160.5t-142.5 -49.5q-16 0 -70.5 2t-146.5 30zM424 1698l88 57 q43 -72 96.5 -119t112.5 -47q18 0 45 4t61.5 19.5t80.5 45.5t104 83l39 -39q-98 -119 -187.5 -168t-163.5 -49q-49 0 -90 18.5t-74.5 49t-60 68.5t-51.5 77z" />
<glyph unicode="&#x40f;" horiz-adv-x="1318" d="M29 0l10 94h123l149 1211h-123l11 92h362l-10 -92h-125l-150 -1211h680l150 1211h-123l10 92h365l-10 -92h-125l-150 -1211h125l-10 -94h-533l-43 -336h-94l43 336h-532z" />
<glyph unicode="&#x410;" horiz-adv-x="1263" d="M-12 0l10 94h117q135 315 282.5 653t284.5 654h141l252 -1307h109l-10 -94h-371l10 94h141l-51 293h-549l-125 -293h148l-10 -94h-379zM399 489h486l-117 648l-27 151h-4q-2 -4 -4 -11t-9 -23.5t-18.5 -45t-31.5 -73.5q-35 -82 -101.5 -234.5t-173.5 -411.5z" />
<glyph unicode="&#x411;" horiz-adv-x="1157" d="M18 0l11 94h135l149 1211h-120l10 92h860l-33 -275h-96l22 183h-530l-61 -496h323q104 0 177 -30.5t119 -82t67.5 -116t21.5 -131.5q0 -111 -38 -194t-99.5 -140.5t-141 -86t-165.5 -28.5h-611zM276 94h359q68 0 127 21.5t104 65.5t72 110.5t27 157.5q0 70 -23.5 121 t-64.5 82.5t-95.5 47t-115.5 15.5h-314z" />
<glyph unicode="&#x412;" horiz-adv-x="1165" d="M29 0l10 96h135l150 1209h-127l10 94h565q182 0 266 -86t84 -221q0 -51 -11 -102.5t-39 -98.5t-73 -88t-112 -72q57 -16 97 -49t62.5 -75t33 -89t10.5 -92q0 -109 -38 -188.5t-98.5 -132t-135.5 -79t-148 -26.5h-641zM287 96h350q88 0 151.5 25.5t104.5 71t60.5 105.5 t19.5 132q0 49 -16.5 94t-48 79t-82 54.5t-117.5 20.5h-351zM371 774h311q78 0 139.5 22.5t103.5 63.5t64.5 97.5t22.5 121.5q0 98 -61.5 162t-202.5 64h-312z" />
<glyph unicode="&#x413;" horiz-adv-x="1019" d="M29 0l10 94h131l149 1211h-122l10 92h891l-33 -275h-94l22 183h-561l-149 -1211h192l-10 -94h-436z" />
<glyph unicode="&#x414;" horiz-adv-x="1345" d="M-33 -332l51 426h105q72 57 132 171t108.5 263.5t84 323.5t58.5 350l12 103h-131l10 92h955l-11 -92h-124l-150 -1211h131l-51 -426h-94l41 332h-990l-41 -332h-96zM252 94h704l150 1211h-488l-14 -105q-25 -203 -56.5 -368.5t-74.5 -301t-97 -243t-124 -193.5z" />
<glyph unicode="&#x415;" d="M29 0l10 94h131l149 1211h-122l10 92h891l-33 -275h-94l22 183h-561l-65 -523l557 13l-13 -111l-555 8l-73 -598h604l22 182h101l-33 -276h-948z" />
<glyph unicode="&#x416;" horiz-adv-x="1720" d="M-20 12l4 74l180 20l502 633l-351 543l-172 21v73q35 14 75 25.5t75 11.5q37 2 61.5 -13.5t42.5 -45.5l389 -613l-4 -30l-524 -656q-35 -45 -71.5 -59t-71.5 -12q-33 0 -69 8t-66 20zM635 0l10 94h121l149 1211h-120l10 94h358l-10 -94h-125l-149 -1211h125l-11 -94h-358 zM1014 719l2 31l502 583q39 45 68.5 62.5t66.5 15.5q37 0 70.5 -9t68.5 -26l-12 -73l-183 -21l-473 -553l351 -623l176 -20l4 -74q-35 -16 -77 -22t-75 -6q-39 0 -68.5 15t-52.5 50z" />
<glyph unicode="&#x417;" horiz-adv-x="1085" d="M25 72l41 86q106 -39 192 -49.5t145 -10.5q106 0 193.5 23.5t149 70t94 114t32.5 155.5q0 61 -25.5 110.5t-71.5 82t-108.5 50t-136.5 17.5h-161l10 94h160q86 0 154.5 22.5t117.5 61.5t75.5 92t26.5 115q0 117 -82.5 166t-220.5 49q-80 0 -158.5 -16.5t-144.5 -44.5 l-26 -224h-97l35 295q78 39 186.5 63.5t225.5 24.5q88 0 161.5 -15t127 -50t84 -90.5t30.5 -133.5q0 -135 -73.5 -222t-204.5 -128q104 -33 167.5 -109.5t63.5 -205.5q0 -121 -48 -209t-127 -146.5t-179.5 -87t-204.5 -28.5q-117 0 -220.5 18.5t-182.5 59.5z" />
<glyph unicode="&#x418;" horiz-adv-x="1351" d="M25 0l10 94h135l149 1211h-129l11 92h377l-11 -92h-139l-123 -990h4l834 930l8 60h-168l10 92h408l-10 -92h-134l-149 -1211h133l-10 -94h-383l10 94h139l123 996h-6l-827 -934l-8 -62h133l-11 -94h-376z" />
<glyph unicode="&#x419;" horiz-adv-x="1351" d="M25 0l10 94h135l149 1211h-129l11 92h377l-11 -92h-139l-123 -990h4l834 930l8 60h-168l10 92h408l-10 -92h-134l-149 -1211h133l-10 -94h-383l10 94h139l123 996h-6l-827 -934l-8 -62h133l-11 -94h-376zM541 1741l88 57q43 -72 96 -119t113 -47q18 0 44.5 4t61.5 19.5 t81 45.5t103 83l39 -39q-98 -119 -187 -168t-163 -49q-49 0 -90 18.5t-75 49t-60.5 68.5t-50.5 77z" />
<glyph unicode="&#x41a;" horiz-adv-x="1161" d="M29 0l10 94h121l149 1211h-121l11 94h358l-10 -94h-125l-150 -1211h125l-10 -94h-358zM422 719l2 31l502 583q39 45 68.5 62.5t66.5 15.5q37 0 70.5 -9t68.5 -26l-12 -73l-182 -21l-474 -553l379 -623l181 -20v-74q-35 -16 -77 -22t-75 -6q-39 0 -68.5 15t-52.5 50z" />
<glyph unicode="&#x41b;" horiz-adv-x="1286" d="M-35 43q117 35 195 115t132 211t89 318t65 439l23 177h-172l10 96h998l-11 -94h-125l-149 -1209h125l-10 -96h-361l10 96h121l150 1207h-480l-18 -152q-29 -229 -63.5 -434t-96 -364.5t-160 -264t-253.5 -129.5z" />
<glyph unicode="&#x41c;" horiz-adv-x="1638" d="M29 0l10 94h121l149 1211h-121l11 94h245l267 -871l80 -262h12l145 266l475 867h254l-10 -94h-123l-149 -1211h123l-11 -94h-360l10 94h127l135 1094h-4l-125 -234l-452 -817h-111l-258 834l-66 217h-4l-131 -1094h129l-10 -94h-358z" />
<glyph unicode="&#x41d;" horiz-adv-x="1318" d="M29 0l10 96h123l149 1209h-123l11 94h362l-10 -94h-125l-64 -517h680l64 517h-123l10 94h365l-10 -94h-125l-150 -1209h125l-10 -96h-365l11 96h122l74 592h-680l-74 -592h125l-10 -96h-362z" />
<glyph unicode="&#x41e;" horiz-adv-x="1288" d="M123 518q0 160 33.5 320.5t110.5 289.5t199 210t298 81q137 0 226 -45t142.5 -121.5t75 -178t21.5 -216.5q0 -180 -39 -339t-117 -277.5t-193.5 -187t-267.5 -68.5q-133 0 -226 36.5t-151.5 105.5t-85 167t-26.5 223zM236 516q0 -217 89 -325.5t287 -108.5 q135 0 230.5 65.5t157 175t89 249t27.5 286.5q0 88 -14.5 172t-53 149.5t-107.5 104.5t-175 39q-154 0 -255 -74.5t-162.5 -191.5t-87 -260.5t-25.5 -280.5z" />
<glyph unicode="&#x41f;" horiz-adv-x="1318" d="M29 0l10 96h123l147 1202h-123l13 101h1159l-12 -101h-125l-148 -1202h125l-10 -96h-365l11 96h122l148 1202h-680l-148 -1202h125l-10 -96h-362z" />
<glyph unicode="&#x420;" horiz-adv-x="1077" d="M29 0l10 94h125l149 1211h-125l11 94h536q76 0 141.5 -20.5t113.5 -63.5t75 -108.5t27 -155.5q0 -70 -21.5 -151t-72 -149.5t-135.5 -114.5t-212 -46h-313l-62 -496h168l-10 -94h-405zM350 684h301q51 0 108.5 17.5t105.5 58.5t79 109.5t31 172.5q0 133 -67.5 198 t-178.5 65h-303z" />
<glyph unicode="&#x421;" horiz-adv-x="1083" d="M125 539q0 76 10 170t36 192t73 191.5t120.5 166t178 116.5t245.5 44q113 0 194 -16.5t134 -38.5l-35 -295h-96l27 219q-43 14 -104.5 23.5t-127.5 9.5q-133 0 -233.5 -58.5t-168 -162t-102 -247.5t-34.5 -316q0 -96 21.5 -178.5t70.5 -142.5t129 -95t196 -35 q57 0 147.5 10t178.5 39l21 -88q-35 -12 -80 -23.5t-95.5 -19.5t-101.5 -13t-96 -5q-262 0 -385 142t-123 411z" />
<glyph unicode="&#x422;" horiz-adv-x="1028" d="M115 1102l35 297h966l-33 -297h-98l25 203h-330l-150 -1211h168l-10 -94h-440l10 94h162l149 1211h-336l-24 -203h-94z" />
<glyph unicode="&#x423;" horiz-adv-x="1107" d="M137 12l29 82q47 -10 88 -17t76 -7q53 0 94 32.5t78 118.5l80 180h-54l-274 904h-113l11 94h368l-10 -94h-139l237 -816h10l361 816h-135l10 94h365l-11 -94h-114l-494 -1115q-47 -111 -103.5 -160.5t-142.5 -49.5q-16 0 -70.5 2t-146.5 30z" />
<glyph unicode="&#x424;" horiz-adv-x="1517" d="M111 621q0 109 39.5 217t124.5 197t218.5 147.5t321.5 68.5l6 54h-141l10 94h397l-10 -94h-141l-6 -54q150 -6 254 -46t169.5 -103.5t95.5 -144t30 -169.5q0 -125 -47.5 -234.5t-134.5 -192t-214 -134t-286 -59.5l-11 -72h142l-10 -96h-398l10 96h142l10 72 q-289 12 -430 131t-141 322zM211 629q0 -180 123 -272.5t358 -102.5l111 913q-162 -8 -274.5 -57t-183.5 -124t-102.5 -168t-31.5 -189zM807 254q137 8 243.5 52t178 113.5t108.5 162t37 194.5q0 68 -20.5 135.5t-72.5 123t-140 91t-223 41.5z" />
<glyph unicode="&#x425;" horiz-adv-x="1200" d="M-12 0l10 96h121l452 633l-274 576h-119l10 94h381l-10 -94h-139l231 -496l357 496h-144l10 94h388l-11 -94h-118l-431 -586l295 -623h125l-10 -96h-399l10 96h154l-256 543l-381 -543h159l-10 -96h-401z" />
<glyph unicode="&#x426;" horiz-adv-x="1318" d="M27 0l10 94h123l149 1211h-123l11 92h362l-10 -92h-125l-150 -1211h680l150 1211h-123l10 92h365l-10 -92h-125l-150 -1211h123l-51 -426h-94l41 332h-1063z" />
<glyph unicode="&#x427;" horiz-adv-x="1232" d="M143 1303l11 94h364l-10 -94h-127l-49 -392q-8 -70 6 -114.5t49 -71.5t91.5 -37t129.5 -10q88 0 181.5 17.5t164.5 49.5l70 558h-121l10 94h361l-10 -94h-129l-150 -1209h129l-10 -94h-361l11 94h120l68 551q-104 -39 -197.5 -53t-175.5 -14q-180 0 -276 70.5t-78 223.5 l53 431h-125z" />
<glyph unicode="&#x428;" horiz-adv-x="1798" d="M29 0l10 94h123l149 1211h-123l11 92h362l-10 -92h-125l-150 -1211h527l149 1211h-123l11 92h366l-10 -92h-127l-149 -1211h516l149 1211h-123l11 92h364l-10 -92h-125l-150 -1211h125l-10 -94h-1638z" />
<glyph unicode="&#x429;" horiz-adv-x="1798" d="M29 0l10 94h123l149 1211h-123l11 92h362l-10 -92h-125l-150 -1211h527l149 1211h-123l11 92h366l-10 -92h-127l-149 -1211h516l149 1211h-123l11 92h364l-10 -92h-125l-150 -1211h121l-51 -426h-94l41 332h-1540z" />
<glyph unicode="&#x42a;" horiz-adv-x="1449" d="M109 1067l41 330h706l-10 -92h-125l-62 -496h324q104 0 177 -30.5t119 -82t67.5 -116t21.5 -131.5q0 -111 -38 -194t-99.5 -140.5t-141 -86t-165.5 -28.5h-611l11 94h135l147 1211h-373l-30 -238h-94zM571 94h359q68 0 127 21.5t104 65.5t72 110.5t27 157.5q0 70 -24 121 t-65 82.5t-95 47t-115 15.5h-314z" />
<glyph unicode="&#x42b;" horiz-adv-x="1632" d="M29 0l10 94h135l150 1211h-136l11 94h389l-10 -94h-142l-61 -496h323q104 0 177 -30.5t119 -82t67.5 -116t21.5 -131.5q0 -111 -37.5 -194t-99 -140.5t-141.5 -86t-166 -28.5h-610zM287 94h358q68 0 127 21.5t104.5 65.5t72 110.5t26.5 157.5q0 70 -23.5 121t-64.5 82.5 t-95.5 47t-115.5 15.5h-314zM1133 0l10 94h121l149 1211h-121l11 92h360l-10 -92h-125l-150 -1211h125l-10 -94h-360z" />
<glyph unicode="&#x42c;" horiz-adv-x="1175" d="M39 0l10 94h135l150 1211h-135l10 94h389l-10 -94h-142l-61 -496h324q104 0 176.5 -30.5t119 -82t68 -116t21.5 -131.5q0 -111 -38 -194t-99.5 -140.5t-141.5 -86t-166 -28.5h-610zM297 94h358q68 0 127.5 21.5t104.5 65.5t71.5 110.5t26.5 157.5q0 70 -23.5 121 t-64.5 82.5t-95 47t-116 15.5h-313z" />
<glyph unicode="&#x42d;" horiz-adv-x="1085" d="M20 45l39 90q39 -14 81 -24.5t83 -16.5t78 -9t66 -3q139 0 239.5 51t168 136t103 194.5t46.5 226.5l-562 -8l15 111l557 -13q6 55 6 107q0 201 -93 317.5t-294 116.5q-33 0 -68.5 -3t-70.5 -8t-67 -12.5t-56 -13.5l-27 -219h-96l37 295q61 23 153.5 41t204.5 18 q143 0 237.5 -44t150 -119.5t77 -174t21.5 -207.5q0 -188 -41 -350t-126 -281.5t-214 -188t-306 -68.5q-90 0 -186 16t-156 43z" />
<glyph unicode="&#x42e;" horiz-adv-x="1755" d="M29 0l10 96h123l149 1209h-123l11 92h362l-10 -92h-125l-64 -517h291q23 121 64 235t110.5 202t172 141t245.5 53q129 0 216 -44t141.5 -118.5t78 -176t23.5 -216.5q0 -184 -39 -344t-113.5 -278.5t-186.5 -187t-255 -68.5q-127 0 -218 35.5t-149.5 104.5t-86 167 t-27.5 221q0 41 2 83t8 89l-289 2l-74 -592h125l-10 -96h-362zM741 508q0 -211 86 -318.5t283 -107.5q129 0 221 65.5t150.5 175t85 251t26.5 292.5q0 88 -17 170t-57 145.5t-109 102.5t-169 39q-147 0 -243.5 -76t-154 -194.5t-80 -263t-22.5 -281.5z" />
<glyph unicode="&#x42f;" horiz-adv-x="1202" d="M-31 10l8 68l144 18l328 543q-74 14 -123.5 49t-78 81t-39.5 97.5t-11 100.5q0 117 37.5 199.5t100 134t142.5 75t166 23.5h551l-10 -94h-125l-150 -1211h133l-10 -94h-393l10 94h146l65 531h-297l-327 -549q-25 -41 -46.5 -65.5t-72.5 -24.5q-29 0 -74 7t-74 17z M313 956q0 -74 27 -121t66.5 -72.5t88 -34.5t91.5 -9h286l72 586h-315q-63 0 -120.5 -21.5t-100.5 -64.5t-69 -109t-26 -154z" />
<glyph unicode="&#x430;" horiz-adv-x="1056" d="M82 332q0 137 31.5 260t94 216t156 147.5t216.5 54.5q55 0 113.5 -13.5t123.5 -35.5l53 53l52 -4q-18 -119 -37 -246t-36.5 -248t-29.5 -228.5t-18 -187.5q43 4 91 22.5t93 45.5l31 -41q-29 -29 -60.5 -55.5t-64.5 -47t-62.5 -32.5t-52.5 -12q-31 0 -50 13t-28.5 34.5 t-10.5 50t3 59.5q4 47 11.5 93t17.5 96h-8q-43 -102 -92.5 -169t-98.5 -105t-98 -53t-92 -15q-111 0 -179.5 85t-68.5 263zM197 346q0 -135 44.5 -200.5t118.5 -65.5q43 0 90.5 24.5t97.5 83t101 155.5t99 241l45 282q-68 29 -125.5 38t-98.5 9q-111 0 -182.5 -58 t-114.5 -144t-59 -185.5t-16 -179.5z" />
<glyph unicode="&#x431;" horiz-adv-x="974" d="M90 342q0 51 5 115.5t13.5 135.5t20.5 141.5t25 133.5q20 96 47.5 184.5t69.5 162t98.5 127t134.5 79.5q35 12 82 18.5t101 11.5t109.5 11t108.5 17l17 -86q-86 -16 -151.5 -22.5t-108.5 -10.5q-82 -6 -144.5 -31.5t-109 -77t-80 -129.5t-60.5 -188q-2 -10 -8 -33.5 t-12 -53.5t-13.5 -61.5t-9.5 -58.5l6 -4q43 84 93.5 137t101.5 84t100 43t92 12q78 0 133.5 -26.5t91.5 -73.5t53 -114.5t17 -147.5q0 -94 -22.5 -208t-77.5 -212t-147.5 -164.5t-231.5 -66.5q-98 0 -164.5 29.5t-106.5 78.5t-56.5 113.5t-16.5 134.5zM199 350 q0 -59 10 -109.5t37.5 -89t77 -60t127.5 -21.5q86 0 151.5 47t109.5 126t65.5 179t21.5 209q0 57 -10.5 108.5t-34 89t-61.5 59t-91 21.5q-68 0 -125 -27.5t-105 -76.5t-87 -115.5t-70 -142.5q-12 -80 -14 -124t-2 -73z" />
<glyph unicode="&#x432;" horiz-adv-x="942" d="M78 63l67 572q8 82 37 151.5t77 120.5t114.5 81t150.5 30q76 0 131.5 -19.5t92 -52.5t55 -75t18.5 -87q0 -154 -141 -217v-8q45 -8 79 -30.5t54.5 -51t30.5 -62.5t10 -65q0 -74 -24.5 -139.5t-74.5 -114.5t-125 -78.5t-173 -31.5q-88 0 -187.5 14t-179.5 49q-4 4 -6 7 t-6 7zM193 117q117 -43 256 -43q57 0 109 16t93 49t65.5 83t24.5 120q0 80 -57 121t-152 41h-139q2 23 4 45t6 45h78q104 0 170 45t66 131q0 63 -46 108.5t-145 45.5q-72 0 -121 -26t-81.5 -66.5t-49 -92t-22.5 -102.5q-14 -131 -28.5 -261t-30.5 -259z" />
<glyph unicode="&#x433;" horiz-adv-x="794" d="M51 217q2 68 30 121t74 96t104 76t120 61q41 18 89 42t88 53.5t66.5 64.5t26.5 76q0 39 -16.5 62.5t-41 37t-55 18.5t-61.5 5q-72 0 -141.5 -22.5t-147.5 -57.5l-34 74q68 43 156.5 70.5t187.5 27.5q53 0 100 -12.5t82 -37t55.5 -61.5t20.5 -86q0 -59 -27 -107t-74 -90 t-115.5 -80t-150.5 -75q-92 -41 -160.5 -101.5t-68.5 -150.5q0 -82 60.5 -114.5t146.5 -32.5q82 0 162.5 24.5t156.5 63.5l37 -66q-82 -55 -183.5 -82.5t-187.5 -27.5q-63 0 -118.5 12t-95.5 40t-62.5 72t-22.5 107z" />
<glyph unicode="&#x434;" horiz-adv-x="1005" d="M82 377q0 98 28.5 206.5t88 201t149.5 152.5t213 60q78 0 142.5 -17t127.5 -48q0 4 3 4q-2 98 -15.5 180t-46.5 142.5t-89 93t-142 32.5q-53 0 -114.5 -8t-158.5 -39l-24 80q78 33 152.5 47.5t144.5 14.5q90 0 162.5 -30t125 -95.5t80 -168t27.5 -245.5 q0 -129 -17.5 -270.5t-58.5 -280.5q-23 -74 -57.5 -146.5t-87.5 -130t-126 -92t-169 -34.5q-102 0 -167 31.5t-103.5 86t-53 125t-14.5 148.5zM197 354q0 -53 10 -103t35.5 -90t70.5 -64.5t115 -24.5q111 0 183.5 69.5t117.5 180t67.5 247t30.5 269.5q-68 37 -132.5 52 t-127.5 15q-94 0 -163.5 -47t-115.5 -124t-68.5 -176t-22.5 -204z" />
<glyph unicode="&#x435;" horiz-adv-x="903" d="M82 373q0 94 21.5 207.5t79 211t155.5 163t250 65.5q68 0 116 -20.5t78.5 -53.5t45 -76t14.5 -88q0 -102 -53.5 -169.5t-142.5 -109.5t-205.5 -63.5t-245.5 -29.5q-2 -12 -2 -26.5v-29.5q0 -47 9 -96t34.5 -89t70.5 -65.5t119 -25.5q78 0 151.5 19.5t151.5 54.5l31 -70 q-57 -37 -152.5 -65.5t-199.5 -28.5q-98 0 -162 30.5t-99.5 83t-50 123t-14.5 148.5zM203 500q256 12 392 76.5t136 193.5q0 68 -36 111t-122 43q-160 0 -253.5 -113.5t-116.5 -310.5z" />
<glyph unicode="&#x436;" horiz-adv-x="1515" d="M20 135l41 37q27 -23 58 -49.5t86 -38.5q18 12 62 60.5t101.5 116t121 147t118.5 157.5q-23 57 -61.5 115.5t-86.5 106t-102.5 78t-105.5 30.5q-25 0 -51.5 -4t-61.5 -21l-28 41q38 103 147 103q63 0 132 -45t130.5 -113t108.5 -146.5t67 -146.5l-6 -24 q-47 -70 -124 -177.5t-163 -211.5q-78 -94 -129 -135.5t-88 -41.5t-80 32t-86 130zM621 920l4 55q53 16 108 29.5t109 13.5q57 0 57 -64q-2 -18 -6 -49t-9 -68.5t-11.5 -81.5t-12.5 -89l-90 -666h-113l121 897zM883 545l2 24q45 86 103.5 167t123 144.5t131 101.5t129.5 38 q55 0 88 -27.5t35 -74.5l-41 -39q-33 16 -58.5 20t-49.5 4q-43 0 -91.5 -26.5t-97.5 -71.5t-96 -105.5t-86 -126.5q37 -78 81 -157.5t84 -147t72.5 -116t47.5 -60.5q59 12 97 39t66 49l33 -37q-68 -98 -120 -130.5t-89 -32.5t-81 52t-87 128q-59 104 -112.5 209.5 t-83.5 175.5z" />
<glyph unicode="&#x437;" horiz-adv-x="845" d="M12 59l35 70q61 -29 131 -41t141 -12q61 0 120 14t105 45t73.5 79t27.5 116q0 49 -22.5 81.5t-56.5 52t-74.5 28t-75.5 8.5h-131l14 84h107q39 0 82.5 11t82.5 33.5t65 59.5t26 86q0 84 -69 122t-163 38q-47 0 -98 -9.5t-92 -27.5l-45 -217h-50q-8 53 -11 107.5t-3 84.5 q0 14 4 38t33 47.5t92 41t182 19.5q53 0 110.5 -11.5t105 -38t77 -70.5t29.5 -107q0 -68 -43 -135.5t-143 -100.5v-6q74 -18 123 -74.5t49 -144.5t-38 -152.5t-99.5 -106.5t-140.5 -62.5t-159 -20.5q-84 0 -160.5 17.5t-140.5 53.5z" />
<glyph unicode="&#x438;" horiz-adv-x="1103" d="M59 928l4 57q66 16 128.5 24.5t117.5 8.5q35 0 53.5 -10.5t18.5 -38.5q0 -16 -6 -71.5t-14.5 -132.5t-18.5 -165t-18.5 -168t-14.5 -142.5t-6 -86.5q0 -123 96 -123q43 0 95.5 26.5t106.5 86t107.5 155.5t98.5 236l59 415h107q-31 -219 -57.5 -438t-55.5 -461 q47 4 89 17.5t83 38.5l31 -41q-129 -135 -229 -135q-47 0 -66.5 23.5t-19.5 68.5q0 20 3 53t7 68.5t10 70.5t10 62h-8q-45 -98 -100.5 -165t-108.5 -106t-102 -55t-82 -16q-106 0 -146.5 57t-40.5 145q0 20 3.5 59.5t10.5 117t21.5 206.5t36.5 328z" />
<glyph unicode="&#x439;" horiz-adv-x="1103" d="M59 928l4 57q66 16 128.5 24.5t117.5 8.5q35 0 53.5 -10.5t18.5 -38.5q0 -16 -6 -71.5t-14.5 -132.5t-18.5 -165t-18.5 -168t-14.5 -142.5t-6 -86.5q0 -123 96 -123q43 0 95.5 26.5t106.5 86t107.5 155.5t98.5 236l59 415h107q-31 -219 -57.5 -438t-55.5 -461 q47 4 89 17.5t83 38.5l31 -41q-129 -135 -229 -135q-47 0 -66.5 23.5t-19.5 68.5q0 20 3 53t7 68.5t10 70.5t10 62h-8q-45 -98 -100.5 -165t-108.5 -106t-102 -55t-82 -16q-106 0 -146.5 57t-40.5 145q0 20 3.5 59.5t10.5 117t21.5 206.5t36.5 328zM334 1343l88 58 q43 -72 96 -119t113 -47q18 0 44.5 4t61.5 19.5t81 45t104 82.5l39 -38q-98 -119 -187.5 -168.5t-163.5 -49.5q-49 0 -90 18.5t-74.5 49.5t-60.5 69t-51 76z" />
<glyph unicode="&#x43a;" horiz-adv-x="968" d="M86 920l4 55q53 16 108.5 29.5t108.5 13.5q57 0 58 -64q0 -18 -4.5 -49t-9.5 -68.5t-12 -81.5t-13 -89l-90 -666h-113l121 897zM348 545l2 24q45 86 106.5 167t129 144.5t138.5 101.5t134 38q55 0 88 -27.5t35 -74.5l-41 -39q-33 16 -58.5 20t-50.5 4q-43 0 -94 -26.5 t-103 -71.5t-103.5 -105.5t-90.5 -126.5q37 -78 87.5 -157.5t98.5 -147t87 -116t53 -60.5q59 12 97 39t67 49l33 -37q-68 -98 -120 -130.5t-89 -32.5t-82 54t-92 126q-35 51 -70 104t-65.5 104.5t-56.5 96.5t-40 80z" />
<glyph unicode="&#x43b;" horiz-adv-x="980" d="M14 14q135 242 262 478.5t261 492.5l96 25l18 -27q23 -242 50.5 -466t58.5 -404q35 4 74.5 19t78.5 42l33 -39q-18 -25 -43.5 -50.5t-53.5 -46t-56.5 -33.5t-55.5 -13q-37 0 -58.5 16.5t-31.5 75.5q-31 184 -51.5 365.5t-36.5 377.5h-8q-109 -219 -209 -417.5 t-217 -409.5h-105z" />
<glyph unicode="&#x43c;" horiz-adv-x="1294" d="M25 10q59 160 108 297t94 257t86 223.5t84 197.5l90 25l17 -13q25 -242 54.5 -441.5t57.5 -354.5q51 125 95.5 232.5t84.5 201.5t77.5 180t78.5 170l90 25l17 -13q2 -258 5 -485t23 -399q35 4 75 19t79 42l33 -39q-18 -25 -44 -50.5t-53.5 -46t-56 -33.5t-55.5 -13 q-37 0 -61.5 16.5t-28.5 75.5q-12 139 -14.5 319.5t8.5 423.5h-8q-43 -102 -78 -184t-72 -166t-79 -181t-97 -228l-78 -19l-14 10q-29 150 -63 351.5t-54 416.5h-8q-35 -92 -65.5 -179t-64.5 -182t-72 -208t-83 -258h-98z" />
<glyph unicode="&#x43d;" horiz-adv-x="1095" d="M61 928l5 57q66 16 128 24.5t117 8.5q35 0 53.5 -10.5t18.5 -38.5q0 -10 -4 -47t-10.5 -91.5t-15.5 -123t-17 -142.5h459l59 434h107q-31 -219 -57.5 -438t-55.5 -461q47 4 89 17.5t83 38.5l31 -41q-129 -135 -230 -135q-47 0 -66.5 23.5t-19.5 68.5q0 43 13.5 141 t35.5 276h-458q-10 -82 -20.5 -161.5t-20 -146t-15.5 -115t-8 -66.5h-106q6 53 34.5 275.5t73.5 621.5z" />
<glyph unicode="&#x43e;" horiz-adv-x="958" d="M82 367q0 106 24.5 220.5t80 210t145.5 158t223 62.5q96 0 161.5 -33t105.5 -88t57.5 -127t17.5 -149q0 -94 -20.5 -205t-72.5 -206t-145.5 -159.5t-236.5 -64.5q-98 0 -163.5 29.5t-104.5 82t-55.5 122t-16.5 147.5zM193 344q0 -51 11 -99t38.5 -85t75 -59.5 t118.5 -22.5q109 0 177.5 59.5t106.5 144.5t51 177t13 159q0 57 -10 112.5t-36.5 97.5t-70.5 68t-114 26q-74 0 -130 -29t-96 -76t-65.5 -108.5t-41 -125t-21.5 -126t-6 -113.5z" />
<glyph unicode="&#x43f;" horiz-adv-x="1105" d="M59 928l4 57q66 16 129.5 24.5t118.5 8.5q35 0 53.5 -10.5t18.5 -38.5q0 -45 -11.5 -121t-25.5 -174h8q45 98 100.5 164.5t108.5 105.5t102.5 55.5t82.5 16.5q106 0 146 -57.5t40 -145.5q0 -20 -3 -60t-10.5 -119t-21.5 -208t-37 -326q43 4 85 16.5t87 39.5l31 -41 q-129 -135 -229 -135q-47 0 -66.5 23.5t-19.5 68.5q0 12 1 25.5t3 29.5q27 221 40 348t19 193.5t7 89t1 39.5q0 53 -22.5 88t-73.5 35q-43 0 -95 -27t-106.5 -86t-108 -155.5t-98.5 -235.5l-57 -416h-110q16 119 31.5 240.5t30.5 238.5t27.5 223.5t22.5 194.5z" />
<glyph unicode="&#x440;" horiz-adv-x="1036" d="M-82 -426l10 92h156l145 1231l-202 31l4 57q66 16 129 24.5t119 8.5q35 0 53 -10.5t18 -38.5q0 -4 -2 -19.5t-6 -49.5t-11 -90l-18 -144h9q43 102 92 168.5t100 104.5t100.5 53.5t92.5 15.5q111 0 179 -85t68 -264q0 -137 -31.5 -260t-94 -216t-155.5 -147t-216 -54 q-49 0 -105.5 11t-115.5 30l-46 -357h193l-10 -92h-455zM244 125q68 -29 125 -38t98 -9q111 0 182.5 58.5t114.5 144.5t59.5 185t16.5 179q0 135 -45 200.5t-119 65.5q-43 0 -91 -24.5t-99.5 -83t-103.5 -155.5t-99 -240z" />
<glyph unicode="&#x441;" horiz-adv-x="874" d="M82 356q0 53 7 123t27.5 142.5t56.5 144.5t91 127t134 90t188 35q66 0 120 -13.5t82 -23.5q29 -12 43.5 -27.5t10.5 -48.5q0 -10 -6.5 -34.5t-15.5 -55.5t-20.5 -63.5t-23.5 -59.5l-57 2l12 205q-31 10 -75 17.5t-87 7.5q-94 0 -164.5 -46.5t-118.5 -124t-72 -181 t-24 -218.5q0 -59 11.5 -109t39 -87t72.5 -57.5t113 -20.5q78 0 145.5 16.5t149.5 50.5l31 -71q-63 -35 -152.5 -61.5t-183.5 -26.5q-92 0 -155.5 26.5t-103.5 75.5t-57.5 116.5t-17.5 149.5z" />
<glyph unicode="&#x442;" horiz-adv-x="1609" d="M57 928l6 57q66 16 129.5 24.5t118.5 8.5q35 0 53.5 -10.5t18.5 -38.5q0 -45 -11.5 -121t-25.5 -174h8q45 98 93.5 164.5t95.5 105.5t89 55.5t75 16.5q106 0 146 -57.5t40 -145.5q0 -18 -3 -52t-7 -97l6 -5q39 94 88 163t99 113t96.5 64.5t78.5 20.5q106 0 146.5 -57.5 t40.5 -145.5q0 -20 -3 -60t-10.5 -119t-21.5 -208t-37 -326q43 4 85 16.5t87 39.5l31 -41q-129 -135 -230 -135q-47 0 -66.5 23.5t-19.5 68.5q0 12 1 25.5t3 29.5q27 221 40.5 348t19.5 193.5t7 89t1 39.5q0 53 -22.5 88t-73.5 35q-43 0 -89 -28t-94.5 -88t-95.5 -156.5 t-92 -233.5q-6 -35 -9 -61.5t-7 -67.5t-11.5 -107.5t-21.5 -181.5h-111l27 223q20 186 32.5 295t16.5 165t5 77.5t1 36.5q0 53 -22.5 88t-73.5 35q-43 0 -88 -27t-92 -86t-94.5 -155.5t-92.5 -235.5l-57 -416h-110q16 119 31.5 240.5t29.5 238.5t26.5 223.5t22.5 194.5z" />
<glyph unicode="&#x443;" horiz-adv-x="968" d="M-238 -358q0 8 5 24l51 33q70 -55 147 -55q98 0 199.5 55t224.5 197q-18 115 -42.5 258t-51.5 283.5t-51.5 262t-42.5 195.5l-152 -43l-20 45q57 59 105 89t83 30q37 0 56.5 -19.5t31.5 -72.5q12 -55 34.5 -166t46.5 -243t46.5 -270.5t38.5 -244.5q72 102 131.5 225 t102.5 246t65.5 234.5t22.5 189.5l-154 -43l-18 45q57 59 107 89t85 30q37 0 60.5 -19.5t23.5 -72.5q0 -115 -35 -262.5t-99.5 -302t-153.5 -303t-197.5 -265.5t-233.5 -188.5t-258 -71.5q-72 0 -115 29.5t-43 81.5z" />
<glyph unicode="&#x444;" horiz-adv-x="1269" d="M82 410q0 125 36 232.5t106.5 188t178 128t248.5 53.5l37 338l-201 30l5 58q66 16 131 24t108 8q33 0 52.5 -9t19.5 -34q0 -14 -5 -59t-12.5 -105.5t-15.5 -128t-14 -122.5q119 -4 205 -37t141 -88.5t80.5 -131t25.5 -165.5q0 -119 -31.5 -224.5t-101 -186.5t-179.5 -132 t-265 -61l-39 -322h166l-10 -88h-426l10 88h157l39 322q-129 6 -215 41.5t-137 93t-72.5 131.5t-21.5 158zM184 408q0 -72 18.5 -131.5t60.5 -102.5t109.5 -68.5t166.5 -27.5l102 842q-127 -6 -214 -49.5t-140.5 -112t-78 -158.5t-24.5 -192zM641 78q129 6 218 48 t143.5 108.5t78 154.5t23.5 186q0 74 -18.5 135.5t-60.5 107.5t-111.5 73t-170.5 29z" />
<glyph unicode="&#x445;" horiz-adv-x="894" d="M37 35v12l350 445l-166 409l-158 -57l-22 49q125 119 197 119q37 0 56 -21.5t40 -70.5l129 -322l268 408h12l86 -62v-12l-335 -410l172 -424q47 4 92 21.5t88 42.5l28 -41q-59 -72 -113 -108t-95 -36q-47 0 -66.5 23t-36.5 63l-145 355l-291 -447h-12z" />
<glyph unicode="&#x446;" horiz-adv-x="1103" d="M59 928l4 57q66 16 128.5 24.5t117.5 8.5q35 0 53.5 -10.5t18.5 -38.5q0 -16 -6 -71.5t-14.5 -132.5t-18.5 -165t-18.5 -168t-14.5 -142.5t-6 -86.5q0 -123 96 -123q43 0 95.5 26.5t106.5 86t107.5 155.5t98.5 236l59 415h107q-31 -219 -57.5 -438t-55.5 -461 q49 2 92 17.5t88 44.5l47 -41l-141 -451h-90l-12 23q33 98 63.5 180t65.5 158l-4 4q-33 -25 -72 -40t-63 -15q-47 0 -66.5 23.5t-19.5 68.5q0 20 3 53t7 68.5t10 70.5t10 62h-8q-45 -98 -100.5 -165t-108.5 -106t-102 -55t-82 -16q-106 0 -146.5 57t-40.5 145q0 20 3.5 59.5 t10.5 117t21.5 206.5t36.5 328z" />
<glyph unicode="&#x447;" horiz-adv-x="1097" d="M51 928l4 57q66 16 129.5 24.5t118.5 8.5q35 0 53.5 -10.5t18.5 -38.5q0 -20 -7.5 -79t-14.5 -125.5t-14 -126.5t-7 -83q0 -53 22.5 -88t73.5 -35q43 0 96.5 24.5t108.5 77t107.5 135.5t88.5 201l19 127h106q-14 -123 -27.5 -233.5t-26.5 -218t-26.5 -217t-27.5 -228.5 q43 4 85 16.5t87 39.5l31 -41q-129 -135 -230 -135q-47 0 -66.5 23.5t-19.5 68.5q0 12 1 25.5t3 29.5q6 63 15.5 133t18.5 138.5t19.5 133t16.5 117.5h-8q-39 -86 -93.5 -145.5t-109.5 -97t-106.5 -54t-83.5 -16.5q-106 0 -146.5 57.5t-40.5 145.5q0 20 4 66t10.5 98.5 t12.5 104.5t10 89z" />
<glyph unicode="&#x448;" horiz-adv-x="1609" d="M61 930l5 57q66 16 128 24.5t117 8.5q35 0 53.5 -10.5t18.5 -38.5q0 -10 -4 -54.5t-11.5 -108t-16.5 -137t-17 -143t-14.5 -129t-8.5 -90.5q-4 -55 -5 -75.5t-1 -34.5q0 -53 22.5 -88t73.5 -35q43 0 89.5 27.5t94.5 88t95 156.5t92 234q6 35 9 61.5t7.5 67.5t11.5 107.5 t21 180.5h111l-27 -223q-14 -125 -23.5 -213t-15.5 -148.5t-10 -97t-5 -59t-1 -34v-21.5q0 -53 22.5 -88t73.5 -35q43 0 88 26.5t92.5 86t94.5 155.5t92 236l61 415h107q-33 -233 -60.5 -451t-54.5 -448q47 4 89 17.5t83 38.5l31 -41q-129 -135 -230 -135q-47 0 -66.5 23.5 t-19.5 68.5q0 20 3.5 53t7.5 68.5t10 70.5t10 62h-8q-45 -98 -93 -165t-95.5 -106t-89.5 -55t-74 -16q-106 0 -146.5 57t-40.5 145q0 18 2 52t9 98h-7q-39 -96 -88 -164t-99 -111t-96 -62t-79 -19q-106 0 -146 57t-40 145q0 55 8 141.5t19 184.5t23.5 200.5t20.5 190.5z" />
<glyph unicode="&#x449;" horiz-adv-x="1609" d="M61 930l5 57q66 16 128 24.5t117 8.5q35 0 53.5 -10.5t18.5 -38.5q0 -10 -4 -54.5t-11.5 -108t-16.5 -137t-17 -143t-14.5 -129t-8.5 -90.5q-4 -55 -5 -75.5t-1 -34.5q0 -53 22.5 -88t73.5 -35q43 0 89.5 27.5t94.5 88t95 156.5t92 234q6 35 9 61.5t7.5 67.5t11.5 107.5 t21 180.5h111l-27 -223q-14 -125 -23.5 -213t-15.5 -148.5t-10 -97t-5 -59t-1 -34v-21.5q0 -53 22.5 -88t73.5 -35q43 0 88 26.5t92.5 86t94.5 155.5t92 236l57 415h107q-31 -219 -57.5 -438t-55.5 -461q49 2 92 17.5t88 44.5l47 -41l-141 -451h-90l-12 23q33 98 63.5 180 t65.5 158l-4 4q-33 -25 -72 -40t-64 -15q-47 0 -65.5 23.5t-18.5 68.5q0 20 3.5 53t7.5 68.5t10 70.5t10 62h-8q-45 -98 -93 -165t-95.5 -106t-89.5 -55t-74 -16q-106 0 -146.5 57t-40.5 145q0 18 2 52t9 98h-7q-39 -96 -88 -164t-99 -111t-96 -62t-79 -19q-106 0 -146 57 t-40 145q0 55 8 141.5t19 184.5t23.5 200.5t20.5 190.5z" />
<glyph unicode="&#x44a;" horiz-adv-x="1062" d="M20 745q16 86 32 137.5t36.5 79t47 36t67.5 8.5l375 -11l24 -61q-29 -25 -68.5 -78t-76.5 -113.5t-66 -121t-37 -101.5h8q51 74 105.5 122t105 77t95.5 41t80 12q113 0 173 -71.5t60 -200.5q0 -61 -22.5 -149.5t-78 -170.5t-148.5 -139t-234 -57q-82 0 -137.5 20.5 t-89 55t-49 79.5t-15.5 94q0 92 19.5 183.5t53 177.5t75.5 165t89 144l-272 -18l-92 -150zM324 248q0 -61 25.5 -96t59 -51.5t68.5 -20.5t51 -4q86 0 149.5 41t105.5 103.5t63.5 137t21.5 144.5q0 86 -38.5 132t-116.5 46q-27 0 -70 -13.5t-94 -49t-105.5 -99t-105.5 -162.5 q-14 -57 -14 -108z" />
<glyph unicode="&#x44b;" horiz-adv-x="1415" d="M61 930v57q66 16 129.5 24.5t118.5 8.5q35 0 53.5 -15.5t18.5 -39.5q0 -23 -5 -74t-13.5 -115.5t-17.5 -133.5t-17 -122h8q51 74 105.5 122t104.5 77t95 41t80 12q113 0 173 -72.5t60 -201.5q0 -61 -22.5 -148.5t-76.5 -167.5t-143 -136t-225 -56q-29 0 -67.5 3t-81.5 11 t-86 20.5t-80 30.5l-6 15q41 326 64.5 528.5t33.5 300.5zM281 119q57 -23 115.5 -30t99.5 -7q88 0 152.5 39t107.5 100.5t64.5 135t21.5 143.5q0 86 -39 133t-117 47q-27 0 -70 -13.5t-93 -49t-104 -99t-106 -162.5zM1059 74q0 12 1 25.5t3 27.5l111 870h108l-115 -897 q43 4 87 16.5t89 39.5l31 -41q-63 -68 -122.5 -101.5t-106.5 -33.5q-51 0 -68.5 26.5t-17.5 67.5z" />
<glyph unicode="&#x44c;" horiz-adv-x="1015" d="M51 930v57q66 16 129.5 24.5t118.5 8.5q35 0 53.5 -15.5t18.5 -39.5q0 -23 -5.5 -74t-13.5 -115.5t-17 -133.5t-18 -122h9q51 74 105 122t104.5 77t95.5 41t80 12q113 0 173 -72.5t60 -201.5q0 -61 -22.5 -148.5t-76.5 -167.5t-143.5 -136t-224.5 -56q-29 0 -67.5 3 t-81.5 11t-86 20.5t-80 30.5l-6 15q41 326 64.5 528.5t33.5 300.5zM270 119q57 -23 115.5 -30t99.5 -7q88 0 152.5 39t107.5 100.5t64.5 135t21.5 143.5q0 86 -38.5 133t-116.5 47q-27 0 -70 -13.5t-93 -49t-104.5 -99t-105.5 -162.5z" />
<glyph unicode="&#x44d;" horiz-adv-x="843" d="M29 35l26 78q41 -12 109.5 -24.5t130.5 -12.5q88 0 153.5 31.5t109.5 87t67.5 130t31.5 160.5l-436 -6l12 96l433 -10q8 182 -69 273.5t-212 91.5q-61 0 -129 -19l-63 -217l-50 4q-4 51 -7 95.5t-3 74.5v24.5t4 30t15.5 30t33.5 26.5q31 16 88.5 27.5t137.5 11.5 q94 0 163.5 -32t115.5 -87t69.5 -129t23.5 -160q0 -115 -25.5 -227.5t-83 -200.5t-148.5 -142t-222 -54q-98 0 -162.5 13t-113.5 36z" />
<glyph unicode="&#x44e;" horiz-adv-x="1351" d="M61 928l5 57q66 16 123 24.5t100 8.5q39 0 55 -10.5t16 -38.5l-47 -383h201q18 84 53 161.5t88.5 138t127 96.5t171.5 36q94 0 159 -33t104.5 -88t56 -127t16.5 -149q0 -63 -8 -134t-28.5 -142t-54.5 -135.5t-86 -114.5t-122.5 -79.5t-165.5 -29.5q-96 0 -160.5 29.5 t-103.5 82t-54 122t-15 147.5q0 31 2 62.5t6 64.5h-199l-59 -494h-109l111 897zM600 344q0 -51 10.5 -99t38 -85t73.5 -59.5t118 -22.5q106 0 172.5 59.5t103.5 144.5t50.5 177t13.5 159q0 57 -10.5 112.5t-36 97.5t-69.5 68t-112 26q-109 0 -177 -61.5t-107 -150.5 t-53.5 -189.5t-14.5 -176.5z" />
<glyph unicode="&#x44f;" horiz-adv-x="954" d="M31 10l370 430q-137 18 -207.5 86t-70.5 172q0 84 30.5 145.5t83 101.5t121 58.5t146.5 18.5q70 0 149.5 -13.5t151.5 -35.5l-98 -873q43 4 87 16.5t89 39.5l30 -41q-63 -68 -122.5 -101.5t-106.5 -33.5q-51 0 -68.5 26.5t-17.5 67.5q0 12 1 25.5t3 27.5l92 766 q-43 16 -101 23.5t-99 7.5q-49 0 -95.5 -10.5t-82 -36t-58 -68.5t-22.5 -107q0 -51 24.5 -84.5t66.5 -56t96 -36t116 -21.5l8 -33l-377 -467l-127 -14z" />
<glyph unicode="&#x451;" horiz-adv-x="903" d="M82 373q0 94 21.5 207.5t79 211t155.5 163t250 65.5q68 0 116 -20.5t78.5 -53.5t45 -76t14.5 -88q0 -102 -53.5 -169.5t-142.5 -109.5t-205.5 -63.5t-245.5 -29.5q-2 -12 -2 -26.5v-29.5q0 -47 9 -96t34.5 -89t70.5 -65.5t119 -25.5q78 0 151.5 19.5t151.5 54.5l31 -70 q-57 -37 -152.5 -65.5t-199.5 -28.5q-98 0 -162 30.5t-99.5 83t-50 123t-14.5 148.5zM203 500q256 12 392 76.5t136 193.5q0 68 -36 111t-122 43q-160 0 -253.5 -113.5t-116.5 -310.5zM262 1237q0 35 27.5 60.5t56.5 25.5q76 0 76 -66q0 -39 -24.5 -63.5t-65.5 -24.5 q-31 0 -50.5 18.5t-19.5 49.5zM623 1237q0 35 26.5 60.5t55.5 25.5q35 0 55 -17.5t20 -48.5q0 -39 -26.5 -63.5t-67.5 -24.5q-29 0 -46 18.5t-17 49.5z" />
<glyph unicode="&#x452;" horiz-adv-x="1021" d="M63 1384l7 58q66 16 129 24.5t118 8.5q35 0 53.5 -10.5t18.5 -39.5q0 -16 -6 -78.5t-16 -148.5h370l-6 -76h-373l-16 -136t-15.5 -128.5t-13.5 -109t-10 -74.5h8q45 98 100.5 164.5t108.5 105.5t102.5 55.5t82.5 16.5q61 0 104 -31t70.5 -83t40 -122.5t12.5 -148.5 q0 -170 -32 -307.5t-84 -233.5t-117.5 -148.5t-131.5 -52.5q-45 0 -90 26t-92 83l47 51q68 -66 137 -65q57 0 104.5 62.5t81 158.5t51 209.5t17.5 216.5q0 61 -8 113.5t-24.5 91t-44 61.5t-64.5 23q-43 0 -95 -27t-106.5 -86t-108 -155.5t-98.5 -235.5l-57 -416h-111 q12 92 30 231.5t36 294t36.5 311t33.5 285.5h-160l6 76h162l16 156z" />
<glyph unicode="&#x453;" horiz-adv-x="794" d="M51 217q2 68 30 121t74 96t104 76t120 61q41 18 89 42t88 53.5t66.5 64.5t26.5 76q0 39 -16.5 62.5t-41 37t-55 18.5t-61.5 5q-72 0 -141.5 -22.5t-147.5 -57.5l-34 74q68 43 156.5 70.5t187.5 27.5q53 0 100 -12.5t82 -37t55.5 -61.5t20.5 -86q0 -59 -27 -107t-74 -90 t-115.5 -80t-150.5 -75q-92 -41 -160.5 -101.5t-68.5 -150.5q0 -82 60.5 -114.5t146.5 -32.5q82 0 162.5 24.5t156.5 63.5l37 -66q-82 -55 -183.5 -82.5t-187.5 -27.5q-63 0 -118.5 12t-95.5 40t-62.5 72t-22.5 107zM397 1141l260 323l86 -82l-294 -284z" />
<glyph unicode="&#x454;" horiz-adv-x="847" d="M82 356q0 53 7 123t27.5 142.5t56.5 144.5t91 127t134 90t188 35q66 0 120 -13.5t82 -23.5q29 -12 43.5 -27.5t10.5 -48.5q0 -10 -6.5 -34.5t-15.5 -55.5t-20.5 -63.5t-23.5 -59.5l-57 2l12 205q-31 10 -75 17.5t-87 7.5q-74 0 -132 -29t-103 -78t-77 -117.5t-48 -148.5 l440 10l-12 -96l-440 4q-6 -55 -7 -115q0 -59 11.5 -109t39 -87t72.5 -57.5t113 -20.5q78 0 145.5 16.5t149.5 50.5l31 -71q-63 -35 -152.5 -61.5t-183.5 -26.5q-92 0 -155.5 26.5t-103.5 75.5t-57.5 116.5t-17.5 149.5z" />
<glyph unicode="&#x455;" horiz-adv-x="811" d="M55 111q0 41 20.5 104.5t45.5 116.5l51 -2l-12 -224q74 -29 168 -28q53 0 105 11t93 34.5t65.5 61.5t24.5 91q0 41 -17 70t-47 50.5t-66.5 39t-75.5 35.5q-66 31 -120 59.5t-93 61.5t-60.5 70.5t-21.5 85.5q0 72 31.5 123t82 83.5t114 48t124.5 15.5q51 0 97 -9.5 t81 -24.5t55.5 -35.5t20.5 -45.5q0 -20 -6 -49t-15.5 -60.5t-20.5 -63.5t-24 -58l-51 2l12 215q-29 16 -66.5 25.5t-86.5 9.5q-43 0 -85 -9.5t-75 -30t-53.5 -54t-20.5 -82.5q0 -33 20.5 -59.5t51.5 -48.5t66.5 -39t66.5 -32q53 -25 104.5 -50t92.5 -59t65.5 -77t24.5 -100 q0 -76 -34 -131.5t-89 -92t-125.5 -54t-144.5 -17.5q-84 0 -137.5 10t-83 26.5t-41 39t-11.5 47.5z" />
<glyph unicode="&#x456;" horiz-adv-x="538" d="M90 928l4 57q66 16 123 24.5t100 8.5q39 0 55.5 -10.5t16.5 -38.5l-108 -869q43 4 87 16.5t89 39.5l30 -41q-63 -68 -122.5 -101.5t-106.5 -33.5q-51 0 -68.5 26.5t-17.5 67.5q0 12 1 25.5t3 27.5l96 770zM272 1233q0 37 24.5 64.5t59.5 27.5q29 0 50.5 -20.5t21.5 -51.5 q0 -35 -24.5 -62.5t-61.5 -27.5q-29 0 -49.5 20.5t-20.5 49.5z" />
<glyph unicode="&#x457;" horiz-adv-x="538" d="M43 1223q0 35 27.5 60.5t56.5 25.5q76 0 76 -66q0 -39 -24.5 -63.5t-65.5 -24.5q-31 0 -50.5 18.5t-19.5 49.5zM90 928l4 57q66 16 123 24.5t100 8.5q39 0 55.5 -10.5t16.5 -38.5l-108 -869q43 4 87 16.5t89 39.5l30 -41q-63 -68 -122.5 -101.5t-106.5 -33.5 q-51 0 -68.5 26.5t-17.5 67.5q0 12 1 24.5t3 26.5l96 772zM403 1223q0 35 26.5 60.5t55.5 25.5q35 0 55.5 -17.5t20.5 -48.5q0 -39 -26.5 -63.5t-67.5 -24.5q-29 0 -46.5 18.5t-17.5 49.5z" />
<glyph unicode="&#x458;" horiz-adv-x="505" d="M-106 -381q84 37 137 93.5t84.5 126t47 147t23.5 157.5l78 754l-180 31l6 57q66 16 122 24.5t99 8.5q35 0 55.5 -10.5t20.5 -38.5l-88 -797q-12 -113 -35.5 -213t-67.5 -180t-113 -137.5t-171 -85.5zM264 1233q0 37 24.5 64.5t59.5 27.5q29 0 50.5 -20.5t21.5 -51.5 q0 -35 -24.5 -62.5t-61.5 -27.5q-29 0 -49.5 20.5t-20.5 49.5z" />
<glyph unicode="&#x459;" horiz-adv-x="1374" d="M27 12q119 217 243.5 463t259.5 510l97 25l16 -9q10 -117 19.5 -237.5t19.5 -231.5q41 49 88 92.5t97.5 76t104.5 52t109 19.5q43 0 83 -17.5t71 -52t49.5 -87t18.5 -119.5q0 -72 -24 -160t-79 -167t-145 -132t-224 -53q-94 0 -154.5 24.5t-66.5 77.5q-20 166 -32.5 348 t-24.5 393h-8q-53 -111 -100.5 -207t-93.5 -193t-97 -200.5t-115 -226.5h-106zM690 451q8 -92 15.5 -177.5t17.5 -177.5q33 -12 63.5 -16t59.5 -4q76 0 139.5 34.5t108.5 92t70.5 133.5t25.5 158q0 86 -36.5 136t-102.5 50q-98 0 -186.5 -66.5t-174.5 -162.5z" />
<glyph unicode="&#x45a;" horiz-adv-x="1585" d="M61 928l5 57q66 16 128 24.5t117 8.5q35 0 53.5 -10.5t18.5 -38.5q0 -10 -4 -47t-10.5 -91.5t-15.5 -123t-17 -142.5h448q18 147 31.5 260t20.5 172h112q-4 -37 -11 -102.5t-16.5 -136t-18.5 -135t-15 -103.5h8q51 74 105.5 122t104.5 77t95 41t80 12q113 0 173 -72.5 t60 -201.5q0 -61 -22.5 -148.5t-76.5 -167.5t-143 -136t-224 -56q-29 0 -68 3t-82 11t-86 20.5t-80 30.5l-6 15q12 111 25.5 216t25.5 203h-450q-10 -82 -20.5 -161.5t-20 -146t-15.5 -115t-8 -66.5h-106q6 53 34.5 275.5t73.5 621.5zM840 119q57 -23 115.5 -30t99.5 -7 q88 0 152.5 39t107.5 100.5t64.5 135t21.5 143.5q0 86 -39 133t-117 47q-27 0 -69.5 -13.5t-93 -49t-104.5 -99t-106 -162.5z" />
<glyph unicode="&#x45b;" horiz-adv-x="1103" d="M92 1384l6 58q66 16 129.5 24.5t118.5 8.5q35 0 53.5 -10.5t18.5 -39.5q0 -16 -7.5 -83.5l-17.5 -157.5h359l-9 -66h-356q-8 -66 -16.5 -134.5t-15.5 -127.5t-13 -107.5t-10 -74.5h8q45 98 100.5 164.5t108.5 105.5t102 55.5t82 16.5q106 0 146.5 -57.5t40.5 -145.5 q0 -20 -3.5 -60t-10.5 -119t-21.5 -208t-36.5 -326q43 4 85 16.5t87 39.5l31 -41q-129 -135 -230 -135q-47 0 -66.5 23.5t-19.5 68.5q0 12 1 25.5t3 29.5q27 221 40.5 348t19.5 193.5t7 89t1 39.5q0 53 -22.5 88t-73.5 35q-43 0 -95.5 -27t-106.5 -86t-107.5 -155.5 t-98.5 -235.5l-57 -416h-111q12 92 29.5 230.5t36 293t36 310t31.5 284.5h-174l8 66h174q4 51 9.5 94t9.5 76z" />
<glyph unicode="&#x45c;" horiz-adv-x="968" d="M86 920l4 55q53 16 108.5 29.5t108.5 13.5q57 0 58 -64q0 -18 -4.5 -49t-9.5 -68.5t-12 -81.5t-13 -89l-90 -666h-113l121 897zM348 545l2 24q45 86 106.5 167t129 144.5t138.5 101.5t134 38q55 0 88 -27.5t35 -74.5l-41 -39q-33 16 -58.5 20t-50.5 4q-43 0 -94 -26.5 t-103 -71.5t-103.5 -105.5t-90.5 -126.5q37 -78 87.5 -157.5t98.5 -147t87 -116t53 -60.5q59 12 97 39t67 49l33 -37q-68 -98 -120 -130.5t-89 -32.5t-82 54t-92 126q-35 51 -70 104t-65.5 104.5t-56.5 96.5t-40 80zM444 1141l261 323l86 -82l-295 -284z" />
<glyph unicode="&#x45e;" horiz-adv-x="968" d="M-238 -358q0 8 5 24l51 33q70 -55 147 -55q98 0 199.5 55t224.5 197q-18 115 -42.5 258t-51.5 283.5t-51.5 262t-42.5 195.5l-152 -43l-20 45q57 59 105 89t83 30q37 0 56.5 -19.5t31.5 -72.5q12 -55 34.5 -166t46.5 -243t46.5 -270.5t38.5 -244.5q72 102 131.5 225 t102.5 246t65.5 234.5t22.5 189.5l-154 -43l-18 45q57 59 107 89t85 30q37 0 60.5 -19.5t23.5 -72.5q0 -115 -35 -262.5t-99.5 -302t-153.5 -303t-197.5 -265.5t-233.5 -188.5t-258 -71.5q-72 0 -115 29.5t-43 81.5zM262 1343l88 58q43 -72 96.5 -119t112.5 -47q18 0 45 4 t61.5 19.5t81 45t103.5 82.5l39 -38q-98 -119 -187 -168.5t-163 -49.5q-49 0 -90 18.5t-75 49.5t-60.5 69t-51.5 76z" />
<glyph unicode="&#x45f;" horiz-adv-x="1103" d="M59 928l4 57q66 16 128.5 24.5t117.5 8.5q35 0 53.5 -10.5t18.5 -38.5q0 -16 -6 -71.5t-14.5 -132.5t-18.5 -165t-18.5 -168t-14.5 -142.5t-6 -86.5q0 -123 96 -123q43 0 95.5 26.5t106.5 86t107.5 155.5t98.5 236l59 415h107q-31 -219 -57.5 -438t-55.5 -461 q47 4 89 17.5t83 38.5l31 -41q-129 -135 -229 -135q-47 0 -66.5 23.5t-19.5 68.5q0 20 3 53t7 68.5t10 70.5t10 62h-8q-45 -98 -100.5 -165t-108.5 -106t-102 -55t-82 -16q-106 0 -146.5 57t-40.5 145q0 20 3.5 59.5t10.5 117t21.5 206.5t36.5 328zM506 -373 q27 100 58.5 209t64.5 187l73 -29l-94 -383l-90 -4z" />
<glyph unicode="&#x490;" horiz-adv-x="1019" d="M29 0l10 94h131l149 1211h-122l10 92h799l30 229h94l-40 -321h-658l-149 -1211h192l-10 -94h-436z" />
<glyph unicode="&#x491;" horiz-adv-x="804" d="M111 0l114 907h-96l10 90h578l47 232h57l13 -197q4 -66 -21 -95.5t-84 -29.5h-401l-111 -907h-106z" />
<glyph unicode="&#x4d9;" horiz-adv-x="903" d="M72 225q0 102 52 170t141 110t207 63.5t247 29.5q2 12 2 26.5v28.5q0 47 -9.5 96.5t-35 89.5t-70.5 65.5t-119 25.5q-78 0 -151.5 -19.5t-151.5 -54.5l-30 70q57 37 152.5 65.5t199.5 28.5q98 0 161.5 -31t99.5 -83t50 -122.5t14 -148.5q0 -96 -22.5 -209t-78.5 -210 t-154.5 -162.5t-249.5 -65.5q-68 0 -116 20.5t-79 53t-45 75.5t-14 88zM182 238q0 -68 36 -111t122 -43q160 0 254 113.5t117 310.5q-256 -12 -392.5 -76.5t-136.5 -193.5z" />
<glyph unicode="&#x2000;" horiz-adv-x="899" />
<glyph unicode="&#x2001;" horiz-adv-x="1798" />
<glyph unicode="&#x2002;" horiz-adv-x="899" />
<glyph unicode="&#x2003;" horiz-adv-x="1798" />
<glyph unicode="&#x2004;" horiz-adv-x="599" />
<glyph unicode="&#x2005;" horiz-adv-x="449" />
<glyph unicode="&#x2006;" horiz-adv-x="299" />
<glyph unicode="&#x2007;" horiz-adv-x="299" />
<glyph unicode="&#x2008;" horiz-adv-x="224" />
<glyph unicode="&#x2009;" horiz-adv-x="359" />
<glyph unicode="&#x200a;" horiz-adv-x="99" />
<glyph unicode="&#x2010;" horiz-adv-x="702" d="M106 481l15 109h500l-15 -109h-500z" />
<glyph unicode="&#x2011;" horiz-adv-x="702" d="M106 481l15 109h500l-15 -109h-500z" />
<glyph unicode="&#x2012;" horiz-adv-x="702" d="M106 481l15 109h500l-15 -109h-500z" />
<glyph unicode="&#x2013;" horiz-adv-x="993" d="M59 475l13 96h893l-13 -96h-893z" />
<glyph unicode="&#x2014;" horiz-adv-x="1986" d="M59 475l13 96h1870l-13 -96h-1870z" />
<glyph unicode="&#x2018;" horiz-adv-x="389" d="M195 1161q4 37 22.5 78t47 80t65.5 71.5t80 53.5l22 -37q-41 -35 -66.5 -79t-35.5 -97q25 -10 39 -33.5t10 -56.5q-4 -35 -35 -62.5t-65 -27.5q-41 0 -66 29.5t-18 80.5z" />
<glyph unicode="&#x2019;" horiz-adv-x="389" d="M186 1087q84 72 103 177q-25 10 -38 33.5t-9 56.5q4 35 32.5 62.5t65.5 27.5q41 0 64.5 -30t17.5 -81q-4 -37 -21.5 -78t-46 -79.5t-65.5 -71.5t-80 -53z" />
<glyph unicode="&#x201a;" horiz-adv-x="368" d="M0 -172q39 35 64.5 68.5t35.5 87.5q-59 20 -49 86q4 35 33 61.5t63 26.5q39 0 62.5 -29t19.5 -78q-10 -72 -66.5 -145.5t-139.5 -114.5z" />
<glyph unicode="&#x201c;" horiz-adv-x="608" d="M195 1161q4 37 22.5 78t47 80t65.5 71.5t80 53.5l22 -37q-41 -35 -66.5 -79t-35.5 -97q25 -10 39 -33.5t10 -56.5q-4 -35 -35 -62.5t-65 -27.5q-41 0 -66 29.5t-18 80.5zM424 1161q4 37 22.5 78t46 80t64.5 71.5t80 53.5l25 -37q-84 -74 -105 -176q55 -22 49 -90 q-4 -35 -33.5 -62.5t-66.5 -27.5q-41 0 -64.5 29.5t-17.5 80.5z" />
<glyph unicode="&#x201d;" horiz-adv-x="608" d="M188 1087q84 72 103 177q-25 10 -38 33.5t-9 56.5q4 35 32.5 62.5t65.5 27.5q41 0 64.5 -30t17.5 -81q-4 -37 -21.5 -78t-46 -79.5t-65.5 -71.5t-80 -53zM418 1087q41 35 66.5 79t35.5 98q-57 22 -47 90q4 35 33 62.5t63 27.5q41 0 65.5 -30t18.5 -81q-4 -37 -21.5 -78 t-46 -79.5t-65.5 -71.5t-80 -53z" />
<glyph unicode="&#x201e;" horiz-adv-x="581" d="M0 -172q39 35 64.5 68.5t35.5 87.5q-59 20 -49 86q4 35 33 61.5t63 26.5q39 0 62.5 -29t19.5 -78q-10 -72 -66.5 -145.5t-139.5 -114.5zM225 -172q41 35 65.5 68.5t35.5 87.5q-27 10 -40.5 32.5t-9.5 53.5q4 35 34 61.5t65 26.5q39 0 61.5 -29t18.5 -78 q-10 -72 -66.5 -145.5t-138.5 -114.5z" />
<glyph unicode="&#x2022;" horiz-adv-x="571" d="M106 543q0 45 19.5 86t50.5 71.5t71 49t81 18.5q72 0 121 -51t49 -125q0 -45 -18.5 -86t-49.5 -73t-71 -50t-83 -18q-72 0 -121 52t-49 126z" />
<glyph unicode="&#x2026;" horiz-adv-x="1157" d="M45 70q4 35 31.5 60.5t62.5 25.5q37 0 58.5 -25.5t17.5 -60.5q-4 -37 -32.5 -63.5t-63.5 -26.5t-56.5 26.5t-17.5 63.5zM436 70q4 35 32 60.5t62 25.5q37 0 58.5 -25.5t17.5 -60.5q-4 -37 -32.5 -63.5t-63.5 -26.5t-56.5 26.5t-17.5 63.5zM856 70q4 35 33 60.5t63 25.5 q35 0 57.5 -25.5t18.5 -60.5q-4 -37 -33.5 -63.5t-62.5 -26.5q-35 0 -57.5 26.5t-18.5 63.5z" />
<glyph unicode="&#x202f;" horiz-adv-x="359" />
<glyph unicode="&#x2039;" horiz-adv-x="595" d="M119 338l10 80l309 307l39 -41l-235 -309l161 -307l-47 -35z" />
<glyph unicode="&#x203a;" horiz-adv-x="595" d="M86 74l236 307l-158 309l47 35l235 -307l-10 -80l-315 -305z" />
<glyph unicode="&#x205f;" horiz-adv-x="449" />
<glyph unicode="&#x20ac;" d="M84 559l10 76h819l-10 -76h-620q-6 -98 11 -185t63 -151.5t126 -102.5t201 -38q41 0 106.5 6t129.5 23l18 147h88l-27 -213q-66 -29 -155.5 -44t-175.5 -15q-260 0 -384 148.5t-108 424.5h-92zM106 735l9 76h96q14 100 57 200.5t116 180.5t175.5 130t235.5 50 q104 0 186 -16.5t131 -36.5l-31 -244h-90l21 170q-41 14 -98.5 23.5t-116.5 9.5q-104 0 -182 -33t-135.5 -94t-96.5 -147t-64 -193h615l-8 -76h-820z" />
<glyph unicode="&#x2122;" horiz-adv-x="1415" d="M96 1231v168h494v-168h-62v100h-145v-520h84v-61h-252v61h84v520h-139v-100h-64zM647 748v63h70v518h-70v70h156l143 -318l60 -137h10l59 131l154 324h153v-70h-69v-518h69v-63h-219v63h70v436h-4l-68 -147l-119 -248h-63l-121 248l-61 135h-2v-424h71v-63h-219z" />
<glyph unicode="&#x25fc;" horiz-adv-x="1013" d="M0 0v1014h1014v-1014h-1014z" />
</font>
</defs>
</svg>
